<?xml version="1.0" encoding="UTF-8" standalone="no"?>
<!-- Created with Inkscape (http://www.inkscape.org/) -->

<svg
   xmlns:dc="http://purl.org/dc/elements/1.1/"
   xmlns:cc="http://creativecommons.org/ns#"
   xmlns:rdf="http://www.w3.org/1999/02/22-rdf-syntax-ns#"
   xmlns:svg="http://www.w3.org/2000/svg"
   xmlns="http://www.w3.org/2000/svg"
   xmlns:sodipodi="http://sodipodi.sourceforge.net/DTD/sodipodi-0.dtd"
   xmlns:inkscape="http://www.inkscape.org/namespaces/inkscape"
   width="210mm"
   height="297mm"
   viewBox="0 0 210 297"
   version="1.1"
   id="svg8"
   inkscape:version="0.92.3 (2405546, 2018-03-11)"
   sodipodi:docname="4-Kreuzung.svg"
   inkscape:export-filename="C:\Users\Lill Kuhfahl\Desktop\grafiken\4-Kreuzung.png"
   inkscape:export-xdpi="96"
   inkscape:export-ydpi="96">
  <defs
     id="defs2" />
  <sodipodi:namedview
     id="base"
     pagecolor="#ffffff"
     bordercolor="#666666"
     borderopacity="1.0"
     inkscape:pageopacity="0.0"
     inkscape:pageshadow="2"
     inkscape:zoom="2.061125"
     inkscape:cx="155.05086"
     inkscape:cy="869.5853"
     inkscape:document-units="mm"
     inkscape:current-layer="layer1"
     showgrid="false"
     inkscape:window-width="1920"
     inkscape:window-height="1017"
     inkscape:window-x="-8"
     inkscape:window-y="-8"
     inkscape:window-maximized="1" />
  <metadata
     id="metadata5">
    <rdf:RDF>
      <cc:Work
         rdf:about="">
        <dc:format>image/svg+xml</dc:format>
        <dc:type
           rdf:resource="http://purl.org/dc/dcmitype/StillImage" />
        <dc:title />
      </cc:Work>
    </rdf:RDF>
  </metadata>
  <g
     inkscape:label="Ebene 1"
     inkscape:groupmode="layer"
     id="layer1">
    <rect
       id="rect10"
       width="100.93643"
       height="96.57946"
       x="-0.022024542"
       y="0.25673681"
       style="fill:#ffffff;stroke:#0e0000;stroke-width:0.26458332;stroke-opacity:1" />
    <path
       style="fill:none;stroke:#000000;stroke-width:0.26458332px;stroke-linecap:butt;stroke-linejoin:miter;stroke-opacity:1"
       d="m 0.0301406,36.575928 c 0.24668995,0.03098 0.49285389,0.06649 0.74006983,0.09294 0.12763953,0.01365 0.25673687,0 0.38510527,0 0.2995262,0 0.5990525,0 0.8985788,0 0.7702105,0 1.5404208,0 2.3106314,0 0.2567368,0 0.5134734,0 0.7702102,0 0.030504,0 0.4847024,0.01439 0.5134737,0 0.054125,-0.02706 0.074244,-0.101306 0.1283685,-0.128371 0.050897,-0.02545 0.358862,0.02625 0.3851052,0 0.030257,-0.03026 -0.030257,-0.09811 0,-0.128368 0.035125,-0.03512 0.4438354,0.03482 0.5134737,0 0.2052524,-0.102626 0.051484,-0.154109 0.2567366,-0.256735 0.038272,-0.01913 0.090096,0.01913 0.1283684,0 0.054125,-0.02707 0.074244,-0.101307 0.1283685,-0.128368 0.1026948,-0.05135 0.2824104,0.05134 0.3851052,0 0.054125,-0.02706 0.07096,-0.109233 0.1283684,-0.128371 0.081187,-0.02706 0.1711579,0 0.2567369,0 0.042789,0 0.090096,0.01913 0.1283684,0 0.054125,-0.02706 0.074243,-0.101303 0.1283684,-0.128368 0.046422,-0.0232 0.5525567,0 0.6418419,0 0.042789,0 0.098112,0.03026 0.1283684,0 0.030257,-0.03026 -0.030257,-0.09811 0,-0.128368 0.060514,-0.06051 0.1801929,0.03827 0.2567369,0 0.054125,-0.02706 0.074244,-0.101306 0.1283684,-0.128367 0.069638,-0.03482 0.4783492,0.03512 0.5134737,0 0.030257,-0.03026 -0.030257,-0.09811 0,-0.128368 0.030257,-0.03026 0.085579,0 0.1283687,0 0.114725,0 0.600934,0.02045 0.641842,0 0.05412,-0.02707 0.101306,-0.07425 0.128368,-0.128371 0.01914,-0.03827 -0.03827,-0.10923 0,-0.128368 0.07896,-0.03948 0.559938,0.04095 0.641842,0 0.05413,-0.02706 0.07424,-0.101306 0.128369,-0.128368 0.03827,-0.01913 0.09811,0.03026 0.128368,0 0.03026,-0.03026 -0.03827,-0.109233 0,-0.128368 0.08305,-0.04152 0.467362,0.04611 0.513474,0 0.03026,-0.03026 -0.03026,-0.09811 0,-0.128367 0.06051,-0.06052 0.175549,0.02706 0.256736,0 0.09077,-0.03026 0.165967,-0.09811 0.256737,-0.128371 0.04059,-0.01352 0.0901,0.01913 0.128368,0 0.534239,-0.267118 -0.13723,0.0089 0.128369,-0.256736 0.0872,-0.0872 0.255294,0.131255 0.385105,-0.128368 0.08853,-0.177067 -0.155461,-0.114821 0.128369,-0.256738 0.07654,-0.03827 0.180192,0.03827 0.256736,0 0.154042,-0.07702 0.231063,-0.308084 0.385106,-0.385104 0.03827,-0.01913 0.08558,0 0.128368,0 0.04279,-0.04279 0.07424,-0.101306 0.128368,-0.128368 0.07654,-0.03827 0.180193,0.03827 0.256737,0 0.10825,-0.05412 0.148487,-0.202612 0.256737,-0.256738 0.03827,-0.01913 0.0901,0.01913 0.128368,0 0.205253,-0.102627 0.05149,-0.154109 0.256737,-0.256736 0.102695,-0.05135 0.282411,0.05135 0.385106,0 0.30739,-0.153696 -0.0809,-0.256736 0.256736,-0.256736 0.342316,0 -0.04279,0.04279 0.128369,-0.12837 0.03026,-0.03025 0.09811,0.03026 0.128368,0 0.03026,-0.03025 -0.03026,-0.09811 0,-0.128368 0.03089,-0.03089 0.482584,0.03089 0.513474,0 0.03026,-0.03026 -0.03026,-0.09811 0,-0.128368 0.06051,-0.06051 0.196223,0.06051 0.256737,0 0.03026,-0.03026 -0.03026,-0.09811 0,-0.128368 0.03026,-0.03026 0.08558,0 0.128368,0 0.342316,0 0.684632,0 1.026947,0 0.04892,0 0.629382,-0.01246 0.641842,0 0.03026,0.03026 -0.03026,0.09811 0,0.128368 0.06051,0.06051 0.180193,-0.03827 0.256737,0 0.05412,0.02706 0.07424,0.101306 0.128368,0.128368 0.03827,0.01913 0.0901,-0.01913 0.128369,0 0.18197,0.09098 0.07477,0.165751 0.256737,0.256738 0.0509,0.02545 0.358862,-0.02625 0.385105,0 0.03026,0.03025 -0.03026,0.09811 0,0.128368 0.03026,0.03025 0.0901,-0.01913 0.128368,0 0.10825,0.05412 0.148487,0.20261 0.256737,0.256736 0.03827,0.01913 0.09811,-0.03025 0.128368,0 0.03026,0.03026 -0.03026,0.09811 0,0.128368 0.03026,0.03026 0.0901,-0.01913 0.128369,0 0.05413,0.02706 0.07424,0.101306 0.128368,0.12837 0.07654,0.03827 0.196224,-0.06051 0.256737,0 0.03026,0.03026 -0.03026,0.09811 0,0.128368 0.06766,0.06766 0.177126,0.07529 0.256737,0.128368 0.04279,0.04279 0.08558,0.08558 0.128368,0.128368 0,0.04279 -0.03026,0.09811 0,0.128368 0.06051,0.06052 0.180193,-0.03827 0.256737,0 0.234913,0.117457 0.02182,0.139282 0.256737,0.256738 0.08068,0.04034 0.432791,-0.04034 0.513473,0 0.181971,0.09098 0.07477,0.165751 0.256737,0.256736 0.07654,0.03827 0.180193,-0.03827 0.256737,0 0.10825,0.05413 0.148487,0.202613 0.256737,0.256736 0.102695,0.05135 0.28241,-0.05134 0.385105,0 0.03827,0.01913 -0.03026,0.09811 0,0.128371 0.06051,0.06051 0.180193,-0.03827 0.256737,0 0.05412,0.02706 0.06966,0.113691 0.128369,0.128367 0.02799,0.007 0.583434,-0.0292 0.641841,0 0.05412,0.02706 0.07424,0.101307 0.128369,0.128368 0.03827,0.01913 0.0901,-0.01913 0.128368,0 0.05412,0.02706 0.07424,0.101307 0.128369,0.128368 0.03827,0.01913 0.08558,0 0.128368,0 0.04279,0.04279 0.07424,0.101307 0.128369,0.128368 0.03827,0.01913 0.08558,0 0.128368,0 0.124372,0 0.693668,-0.02551 0.77021,0 0.929825,0.309944 -0.202386,-0.03701 0.385106,0.256739 0.03907,0.01953 0.327292,0 0.385104,0 0.470686,0 0.941369,0 1.412054,0 0.0305,0 0.484701,-0.01439 0.513472,0 0.05413,0.02706 0.07096,0.10923 0.128368,0.128367 0.121782,0.04059 0.256738,0 0.385106,0 0.256736,0 0.513475,0 0.77021,0 0.684633,0 1.369264,0 2.053895,0 0.054,0 0.732025,-0.0191 0.77021,0 0.05412,0.02706 0.07096,0.109234 0.12837,0.128368 0.06105,0.02035 0.911842,0 1.026946,0 0.04279,0 0.08558,0 0.128368,0 0.04279,0 0.0901,-0.01913 0.12837,0 0.05412,0.02707 0.07424,0.101307 0.128368,0.128368 0.03827,0.01913 0.0901,-0.01913 0.128368,0 0.05413,0.02707 0.07096,0.109234 0.128368,0.128371 0.08119,0.02706 0.175551,-0.02706 0.256738,0 0.114816,0.03827 0.148487,0.20261 0.256736,0.256736 0.06807,0.03403 0.554514,-0.02911 0.641842,0 0.05741,0.01913 0.07424,0.101306 0.128368,0.128367 0.06964,0.03482 0.478351,-0.03512 0.513474,0 0.03026,0.03026 -0.03827,0.109234 0,0.128368 0.114816,0.05741 0.256736,0 0.385104,0 0.256739,0 0.513474,0 0.770213,0 0.120901,0 0.568817,-0.02434 0.641842,0 0.05741,0.01913 0.07424,0.101307 0.128368,0.128371 0.03827,0.01913 0.0901,-0.01913 0.128368,0 0.05413,0.02706 0.07424,0.101304 0.128368,0.128368 0.07951,0.03976 0.475493,-0.03798 0.513474,0 0.03026,0.03026 0,0.08558 0,0.128368 0.08558,0 0.175548,-0.02706 0.256736,0 0.400679,0.133559 -0.04279,0.08558 0.12837,0.256736 0.03026,0.03026 0.08558,0 0.128368,0 0.363876,0 0.230619,0.04854 0.479428,-0.413862"
       id="path937"
       inkscape:connector-curvature="0" />
    <path
       style="fill:none;stroke:#000000;stroke-width:0.26458332px;stroke-linecap:butt;stroke-linejoin:miter;stroke-opacity:1"
       d="m -0.0680624,56.380094 c 0.19384534,0.01915 0.39725883,0.120642 0.58153601,0.05751 0.0809598,-0.02773 0,-0.171156 0,-0.256735 0,-0.342316 -0.0427894,0.04279 0.12836843,-0.128368 0.0302567,-0.03026 -0.0302568,-0.09811 0,-0.128368 0.15961648,-0.159618 0.3227611,-0.128371 0.51347366,-0.128371 0.085579,0 0.1801926,0.03827 0.2567368,0 0.038272,-0.01913 -0.030257,-0.09811 0,-0.128368 0.030257,-0.03025 0.098112,0.03026 0.1283684,0 0.030257,-0.03025 0,-0.08558 0,-0.128368 0.042789,-0.04279 0.078018,-0.0948 0.1283684,-0.128367 0.085579,-0.04279 0.1711578,-0.08558 0.2567368,-0.128368 0.04279,0 0.090096,0.01913 0.1283684,0 0.1082497,-0.05413 0.1484871,-0.202613 0.2567368,-0.256739 0.038272,-0.01913 0.090096,0.01913 0.1283684,0 0.054125,-0.02706 0.078018,-0.0948 0.1283684,-0.128368 0.079611,-0.05307 0.1771262,-0.07529 0.2567369,-0.128368 0.05035,-0.03357 0.074244,-0.101306 0.1283682,-0.128367 0.038272,-0.01913 0.087775,0.01352 0.1283684,0 0.09077,-0.03026 0.1659668,-0.09811 0.2567369,-0.128371 0.040594,-0.01352 0.098112,0.03026 0.1283684,0 0.2655988,-0.265597 -0.40587,0.01037 0.1283684,-0.256736 0.076544,-0.03827 0.1801927,0.03827 0.2567369,0 0.054125,-0.02706 0.074243,-0.101306 0.1283684,-0.128368 0.076544,-0.03827 0.1801926,0.03827 0.2567368,0 0.054125,-0.02706 0.074243,-0.101306 0.1283685,-0.128368 0.038272,-0.01913 0.090096,0.01913 0.1283684,0 0.1082498,-0.05412 0.1484871,-0.202612 0.2567368,-0.256738 0.038272,-0.01913 0.085579,0 0.1283682,0 0.04279,-0.04279 0.074244,-0.101306 0.1283684,-0.128368 0.038272,-0.01913 0.085579,0 0.1283684,0 0.04279,0 0.085579,0 0.1283685,0 0.2139473,0 0.4278947,0 0.6418421,0 0.085579,0 0.1801926,0.03827 0.2567368,0 0.038272,-0.01913 -0.030257,-0.09811 0,-0.128368 0.030257,-0.03026 0.085579,0 0.1283685,0 0.042789,0 0.085579,0 0.1283684,0 0.090988,0 0.7370207,0.01659 0.7702103,0 0.054125,-0.02706 0.07096,-0.109233 0.1283684,-0.128368 0.092894,-0.03096 0.4711586,0.04232 0.5134737,0 0.030257,-0.03026 -0.030257,-0.09811 0,-0.12837 0.030257,-0.03025 0.085579,0 0.1283684,0 0.042789,0 0.085579,0 0.1283684,0 0.3851053,0 0.7702103,0 1.1553156,0 0.090988,0 0.7370206,-0.01659 0.7702108,0 0.05412,0.02706 0.07424,0.101306 0.128368,0.12837 0.03827,0.01913 0.0901,-0.01913 0.128369,0 0.05412,0.02706 0.07424,0.101307 0.128368,0.128368 0.03827,0.01913 0.08778,-0.01352 0.128368,0 0.09077,0.03025 0.165967,0.09811 0.256737,0.128368 0.08119,0.02706 0.180193,-0.03827 0.256737,0 0.587492,0.293746 -0.544721,-0.0532 0.385105,0.256736 0.0849,0.0283 0.644106,0 0.770211,0 0.04279,0 0.08777,-0.01352 0.128368,0 0.09077,0.03026 0.163913,0.105164 0.256737,0.12837 0.132976,0.03324 0.366278,0 0.513473,0 0.342316,0 0.684632,0 1.026948,0 0.06713,0 0.47972,-0.01688 0.513473,0 0.391468,0.195734 -0.234778,0.101764 0.385105,0.256736 0.08302,0.02077 0.171158,0 0.256737,0 0.171158,0 0.342316,0 0.513474,0 0.513473,0 1.026947,0 1.540421,0 0.256737,0 0.513473,0 0.77021,0 0.05781,0 0.346039,0.01953 0.385105,0 0.05412,-0.02706 0.08558,-0.08558 0.128369,-0.128368 0.146873,-0.146873 0.151959,-0.179022 0.385105,-0.256738 0.08119,-0.02706 0.180193,0.03827 0.256737,0 0.05412,-0.02706 0.07424,-0.101304 0.128368,-0.128368 0.03907,-0.01953 0.327294,0 0.385106,0 0.256736,0 0.513473,0 0.77021,0 0.140165,0 0.558825,-0.02767 0.641842,0 0.09077,0.03026 0.177126,0.0753 0.256737,0.128368 0.05035,0.03357 0.07096,0.109233 0.128368,0.12837 0.162375,0.05412 0.351099,-0.05412 0.513474,0 0.279652,-0.04798 0.04279,0.213948 0.128368,0.256736 0.141366,0.07068 0.362951,-0.05018 0.513474,0 0.442513,0.147505 0.09509,0.128368 0.385105,0.128368 0.05781,0 0.346038,-0.01953 0.385105,0 0.28383,0.141915 0.03984,0.07967 0.128369,0.256739 0.02706,0.05412 0.0948,0.07802 0.128368,0.128367 0.07817,0.117264 0.109573,0.311524 0.256737,0.385104 0.03827,0.01913 0.09811,-0.03026 0.128368,0 0.08552,0.08552 -0.08552,0.171217 0,0.256739 0.03026,0.03026 0.0901,-0.01913 0.128369,0 0.05412,0.02706 0.08558,0.08558 0.128368,0.128367 0.04279,0.04279 0.101306,0.07424 0.128368,0.128368 0.08853,0.177067 -0.155461,0.114822 0.128369,0.256739 0.07574,0.03787 0.296809,-0.02943 0.385105,0 0.09077,0.03025 0.165967,0.09811 0.256737,0.128368 0.07077,0.0236 0.486028,-0.02745 0.513473,0 0.03026,0.03025 -0.03827,0.10923 0,0.128368 0.07654,0.03827 0.171158,0 0.256737,0 0.256737,0 0.513474,0 0.77021,0 0.04279,0 0.08558,0 0.12837,0 0.04279,0 0.0901,-0.01913 0.128368,0 0.05412,0.02706 0.07424,0.101306 0.128368,0.128367 0.03907,0.01953 0.327292,0 0.385106,0 0.299525,0 0.599051,0 0.898578,0 0.427895,0 0.85579,0 1.283685,0 0.08558,0 0.171156,0 0.256735,0 0.04279,0 0.09811,0.03026 0.128368,0 0.03026,-0.03026 -0.03026,-0.09811 0,-0.128367 0.02291,-0.02291 0.333769,0.02053 0.385107,0 0.266509,-0.106604 0.5037,-0.278501 0.77021,-0.385107 0.125634,-0.05025 0.253833,-0.09555 0.385106,-0.128368 0.04659,-0.01164 0.369379,0.01572 0.385104,0 0.03026,-0.03025 -0.03026,-0.09811 0,-0.128368 1.24e-4,-1.21e-4 0.384524,1.94e-4 0.385106,0 0.05741,-0.01913 0.07424,-0.101306 0.128368,-0.128367 0.03827,-0.01913 0.08558,0 0.128368,0 0.04279,0 0.08558,0 0.128368,0 0.213947,0 0.427894,0 0.641842,0 0.684633,0 1.369263,0 2.053897,0 0.427894,0 0.855786,0 1.283681,0 0.04279,0 0.08558,0 0.128371,0 0.04279,0 0.09811,-0.03026 0.128368,0 0.03026,0.03026 0,0.08558 0,0.128367 0.08558,0.04279 0.165965,0.09811 0.256735,0.128368 0.07575,0.02524 0.570119,0 0.641843,0 0.04279,0 0.09009,-0.01913 0.128367,0 0.05413,0.02706 0.07425,0.101307 0.128371,0.128368 0.0509,0.02545 0.35886,-0.02625 0.385104,0 0.03026,0.03026 -0.03827,0.109233 0,0.128371 0.07654,0.03827 0.171159,0 0.256738,0 0.190712,0 0.353856,-0.03125 0.513472,0.128368 0.03026,0.03025 -0.03026,0.09811 0,0.128368 0.06051,0.06051 0.180194,-0.03827 0.256738,0 0.259622,0.129809 0.04116,0.297899 0.128368,0.385103 0.03026,0.03026 0.09811,-0.03025 0.128368,0 0.03026,0.03026 0,0.08558 0,0.128371 0,0.08558 0,0.171156 0,0.256736 0,0.04279 0,0.08558 0,0.128367 0,0.04279 -0.03026,0.09811 0,0.128368 0.03026,0.03026 0.09811,-0.03026 0.128368,0 0.06052,0.06052 -0.07767,0.292677 0,0.256739 0.09041,-0.04184 0.1339,-0.14754 0.20085,-0.221308"
       id="path939"
       inkscape:connector-curvature="0" />
    <path
       style="fill:none;stroke:#000000;stroke-width:0.26458332px;stroke-linecap:butt;stroke-linejoin:miter;stroke-opacity:1"
       d="m 40.145266,36.768479 c -0.2026,-0.0332 -0.415573,-0.02751 -0.607796,-0.09961 -0.04434,-0.01664 0.03723,-0.34788 0,-0.385106 -0.03026,-0.03026 -0.09811,0.03026 -0.12837,0 -0.03026,-0.03026 0,-0.08558 0,-0.128368 0,-0.08558 0,-0.171159 0,-0.256739 0,-0.213947 0,-0.427894 0,-0.641842 0,-0.08435 0.02416,-0.312679 0,-0.385104 -0.03026,-0.09077 -0.09811,-0.165967 -0.128368,-0.256738 -0.01352,-0.04059 0,-0.08558 0,-0.128368 0,-0.2184 0.04761,-0.465865 -0.128368,-0.641842 -0.03026,-0.03025 -0.09811,0.03026 -0.128368,0 -0.03026,-0.03025 0.01913,-0.0901 0,-0.128368 -0.02706,-0.05413 -0.101306,-0.07424 -0.128368,-0.128368 -0.01913,-0.03827 0.01913,-0.0901 0,-0.128368 -0.02706,-0.05412 -0.101306,-0.07424 -0.12837,-0.128368 -0.01913,-0.03827 0.03026,-0.09811 0,-0.12837 -0.06051,-0.06051 -0.196223,0.06052 -0.256736,0 -0.03026,-0.03026 0.03026,-0.09811 0,-0.128368 -0.03026,-0.03025 -0.08558,0 -0.128368,0 0,-0.04279 0.01913,-0.0901 0,-0.128368 -0.04088,-0.08177 -0.540975,-0.540975 -0.641842,-0.641842 -0.04279,-0.04279 -0.101307,-0.07424 -0.128368,-0.128368 -0.03827,-0.07654 0.06051,-0.196223 0,-0.256738 -0.03026,-0.03026 -0.09811,0.03026 -0.128371,0 -0.06051,-0.06051 0.03827,-0.180192 0,-0.256736 -0.293745,-0.587492 0.0532,0.544721 -0.256736,-0.385106 -0.02706,-0.08119 0.03827,-0.180192 0,-0.256736 -0.02706,-0.05413 -0.101306,-0.07425 -0.128367,-0.128368 -0.01913,-0.03827 0.03026,-0.09811 0,-0.128368 -0.03026,-0.03026 -0.09811,0.03026 -0.128368,0 -0.03026,-0.03026 0,-0.08558 0,-0.128371 0,-0.08558 0.03827,-0.180191 0,-0.256735 -0.01913,-0.03827 -0.09811,0.03026 -0.128371,0 -1.22e-4,-1.22e-4 1.96e-4,-0.384525 0,-0.385107 -0.01913,-0.05741 -0.10923,-0.07096 -0.128368,-0.128368 -0.02706,-0.08119 0,-0.171156 0,-0.256735 0,-0.04279 0.01913,-0.0901 0,-0.128368 -0.02706,-0.05413 -0.08558,-0.08558 -0.128368,-0.128368 -0.04279,0 -0.109233,0.03827 -0.128368,0 0,-0.727422 0.08558,-0.04279 -0.128367,-0.256739 -0.06052,-0.06051 0.06051,-0.196223 0,-0.256735 -0.03026,-0.03026 -0.109234,0.03827 -0.128368,0 -0.03827,-0.07654 0,-0.171159 0,-0.256739 0,-0.256736 0,-0.513471 0,-0.77021 0,-0.256736 0,-0.513474 0,-0.77021 0,-0.04279 0,-0.08558 0,-0.128368 0,-0.04279 -0.01913,-0.0901 0,-0.128368 0.05412,-0.108251 0.20261,-0.148486 0.256735,-0.256738 0.08853,-0.177065 -0.155461,-0.114821 0.128368,-0.256736 0.03827,-0.01914 0.09811,0.03026 0.128368,0 0.03026,-0.03026 0,-0.08558 0,-0.128369 0.04279,0 0.09811,0.03026 0.128368,0 0.03026,-0.03026 -0.03026,-0.09811 0,-0.128368 0.03026,-0.03026 0.09811,0.03026 0.128371,0 0.06051,-0.06051 -0.06052,-0.196223 0,-0.256737 0.03026,-0.03026 0.09811,0.03026 0.128368,0 0.03026,-0.03026 -0.03026,-0.09811 0,-0.128368 0.03026,-0.03026 0.0901,0.01913 0.128367,0 0.05413,-0.02706 0.08558,-0.08558 0.128368,-0.128369 0.04279,-0.04279 0.101307,-0.07424 0.128368,-0.128368 0.03827,-0.07654 -0.02706,-0.17555 0,-0.256737 0.309944,-0.929826 -0.03701,0.202387 0.256739,-0.385105 0.05135,-0.102695 -0.05135,-0.282411 0,-0.385105 0.02706,-0.05412 0.101306,-0.07424 0.128368,-0.128369 0.04049,-0.08098 -0.04049,-0.560858 0,-0.641842 0.02706,-0.05412 0.101306,-0.07424 0.128368,-0.128368 0.01953,-0.03903 0,-0.424833 0,-0.513474 0,-0.342315 0,-0.684631 0,-1.026947 0,-0.898579 0,-1.797158 0,-2.695737 0,-0.08864 0.01953,-0.474445 0,-0.513473 -0.02706,-0.05412 -0.109231,-0.07096 -0.128368,-0.128368 -0.02706,-0.08119 0,-0.171158 0,-0.256737 0,-0.04279 0.01913,-0.0901 0,-0.128369 -0.05413,-0.108249 -0.189603,-0.156036 -0.256736,-0.256737 -0.05308,-0.07961 -0.0753,-0.177126 -0.128371,-0.256736 -0.03357,-0.05035 -0.101303,-0.07424 -0.128368,-0.128369 -0.03827,-0.07654 0.06051,-0.196223 0,-0.256737 -0.03025,-0.03026 -0.09811,0.03026 -0.128368,0 -0.03026,-0.03026 0.03026,-0.09811 0,-0.128368 -0.03026,-0.03026 -0.09811,0.03026 -0.128367,0 -0.03026,-0.03026 0.01913,-0.0901 0,-0.128368 -0.05413,-0.10825 -0.202613,-0.148487 -0.256739,-0.256737 -0.03783,-0.07567 0.03727,-0.695665 0,-0.770211 -0.03827,-0.07654 -0.196223,0.06051 -0.256736,0 -0.03026,-0.03026 0,-0.08558 0,-0.128368 0,-0.04279 0,-0.08558 0,-0.128368 0,-0.256737 0,-0.513474 0,-0.770211 0,-0.05781 -0.01953,-0.346038 0,-0.385105 0.05413,-0.10825 0.202613,-0.148487 0.256736,-0.256737 0.03827,-0.07654 -0.07654,-0.218465 0,-0.256737 0.07655,-0.03827 0.171159,0 0.256739,0 0.04279,0 0.09811,0.03026 0.128367,0 0.03026,-0.03026 -0.01913,-0.0901 0,-0.128368 0.02706,-0.05412 0.101307,-0.07424 0.128368,-0.128369 0.01913,-0.03827 -0.03827,-0.109232 0,-0.128368 0.07654,-0.03827 0.180195,0.03827 0.256739,0 0.03827,-0.01914 -0.01355,-0.08778 0,-0.128368 0.07771,-0.233146 0.109863,-0.238233 0.256736,-0.385105 0.04279,-0.04279 0.101306,-0.07424 0.128368,-0.128369 0.05135,-0.102695 -0.05135,-0.282411 0,-0.385105 0.26712,-0.534239 -0.0089,0.13723 0.256738,-0.128369 0.03026,-0.03026 -0.03026,-0.09811 0,-0.128368 0.03026,-0.03026 0.09811,0.03026 0.128368,0 0.01992,-0.01992 -0.01664,-0.335154 0,-0.385105 0.03025,-0.09077 0.09811,-0.165967 0.128368,-0.256737 0.02943,-0.0883 -0.03787,-0.309365 0,-0.385105 0.02706,-0.05412 0.101306,-0.07424 0.128368,-0.128369 0.01913,-0.03827 -0.01352,-0.08777 0,-0.128368 0.03026,-0.09077 0.09811,-0.165967 0.128368,-0.256737 0.01355,-0.04059 -0.01913,-0.0901 0,-0.128368 0.02706,-0.05413 0.08558,-0.08558 0.12837,-0.128369 0.04279,-0.04279 0.07424,-0.101306 0.128368,-0.128368 0.03827,-0.01914 0.09811,0.03026 0.128368,0 0.03026,-0.03026 -0.03026,-0.09811 0,-0.128368 0.03026,-0.03026 0.09811,0.03026 0.128368,0 0.03026,-0.03026 -0.03026,-0.09811 0,-0.128369 0.03026,-0.03026 0.09811,0.03026 0.128368,0 0.03026,-0.03026 -0.03026,-0.09811 0,-0.128368 0.03026,-0.03026 0.09811,0.03026 0.12837,0 0.03026,-0.03026 -0.01913,-0.0901 0,-0.1283687 0.02706,-0.054125 0.101304,-0.074244 0.128368,-0.1283685 0.05135,-0.1026946 -0.05135,-0.2824104 0,-0.385105 0.03827,-0.076544 0.180192,0.038272 0.256736,0 0.534239,-0.2671193 -0.137229,0.00886 0.128368,-0.2567368 0.03026,-0.030257 0.09811,0.030257 0.128368,0 0.03026,-0.030257 0,-0.085579 0,-0.1283684 0,-0.042789 0,-0.085579 0,-0.1283685 0,-0.3423158 0,-0.6846316 0,-1.0269474 0,-0.1283684 0.04059,-0.2633241 0,-0.385105 -0.04915,-0.1474546 -0.30647,-0.1781019 -0.385104,-0.2567368 -0.03026,-0.030257 0.01913,-0.090097 0,-0.1283684 -0.267121,-0.5342388 0.0089,0.1372303 -0.256736,-0.1283685 -0.03026,-0.030257 0.03026,-0.098112 0,-0.1283684 -0.03026,-0.030257 -0.0901,0.019137 -0.12837,0 -0.283829,-0.1419148 -0.03984,-0.079671 -0.128368,-0.2567368 -0.0983,-0.1966061 -0.228754,-0.1003861 -0.385104,-0.2567369 -0.03026,-0.030257 0,-0.085579 0,-0.1283684 0,-0.04279 0,-0.085579 0,-0.1283684 0,-0.385105 0,-0.7702103 0,-1.1553156 0,-0.042789 0,-0.085579 0,-0.1283684 0,-0.042789 -0.03026,-0.098112 0,-0.1283684 0.03025,-0.030257 0.09811,0.030257 0.128368,0 0.265599,-0.2655988 -0.405871,0.010382 0.128368,-0.2567369 0.03827,-0.019135 0.09811,0.030257 0.128368,0 0.03026,-0.030257 0,-0.085579 0,-0.1283684 0,-0.2995263 0,-0.5990524 0,-0.8985787 0,-0.04279 0,-0.085579 0,-0.1283684 0,-0.04279 -0.03026,-0.098112 0,-0.1283684 0.342315,0 -0.04279,0.042789 0.128368,-0.1283685 0.06051,-0.060513 0.196223,0.060513 0.256738,0 0.03025,-0.030257 0,-0.085579 0,-0.1283684 0,-0.04279 0,-0.085579 0,-0.1283684 0,-0.2567368 0,-0.5134736 0,-0.7702104 0,-0.1283684 0.05741,-0.2702891 0,-0.3851052 -0.01913,-0.038272 -0.09811,0.030257 -0.128368,0 -0.01283,-0.012837 -0.01283,-0.3722684 0,-0.3851052 0.06051,-0.060513 0.196223,0.060513 0.256736,0 0.0181,-0.018103 0.01318,-0.35877329 0,-0.38510526 -0.02706,-0.0541249 -0.128368,-0.067855 -0.128368,-0.12836842 0,-0.28215415 0.661106,0.0117226 -0.01154,-0.22130853"
       id="path941"
       inkscape:connector-curvature="0" />
    <path
       style="fill:none;stroke:#000000;stroke-width:0.26458332px;stroke-linecap:butt;stroke-linejoin:miter;stroke-opacity:1"
       d="m 59.849816,0.50440759 c 1.286375,-0.20867378 -0.10653,0.65839081 0.09823,0.86315061 0.06051,0.060513 0.196223,-0.060513 0.256738,0 0,0.3423157 -0.04279,-0.04279 0.128368,0.1283684 0.03025,0.030257 -0.03026,0.098112 0,0.1283684 0.03025,0.030257 0.09811,-0.030257 0.128368,0 0.03026,0.030257 -0.01913,0.090096 0,0.1283684 0.02706,0.054125 0.101306,0.074243 0.128368,0.1283684 0.01913,0.038272 -0.03025,0.098112 0,0.1283684 0.03026,0.030257 0.09811,-0.030257 0.128368,0 0.03513,0.035124 -0.03482,0.4438353 0,0.5134736 0.02706,0.054125 0.109233,0.07096 0.12837,0.1283684 0.02299,0.069012 0,0.4047905 0,0.5134737 0,0.3423158 0,0.6846313 0,1.0269471 0,0.2567368 0,0.5134737 0,0.7702105 0,0.057812 0.01953,0.3460383 0,0.3851053 -0.02706,0.054125 -0.08558,0.085579 -0.12837,0.1283684 -0.04279,0.04279 -0.07424,0.1013058 -0.128368,0.1283685 -0.03827,0.019135 -0.09811,-0.030257 -0.128368,0 -0.03026,0.030257 0.03026,0.098111 0,0.1283684 -0.265599,0.2655988 0.01037,-0.4058703 -0.256736,0.1283681 -0.03827,0.076544 0.06051,0.1962235 0,0.2567369 -0.03026,0.030257 -0.09811,-0.030257 -0.12837,0 -1.22e-4,1.225e-4 1.95e-4,0.3845234 0,0.3851052 -0.01913,0.057408 -0.101304,0.074244 -0.128368,0.1283685 -0.01913,0.038272 0,0.085579 0,0.1283684 -0.08558,0.04279 -0.189079,0.060712 -0.256736,0.1283684 -0.03026,0.030257 0.03026,0.098112 0,0.1283684 -0.03026,0.030257 -0.09811,-0.030257 -0.128368,0 -0.03026,0.030257 0.03025,0.098112 0,0.1283685 -0.06052,0.060513 -0.180194,-0.038272 -0.256738,0 -0.28383,0.1419148 -0.03984,0.079671 -0.128368,0.2567368 -0.118163,0.236328 -0.266941,0.02041 -0.385104,0.2567366 -0.01953,0.039029 0,0.4248325 0,0.5134737 0,0.3423158 0,0.6846316 0,1.0269474 0,0.1283684 0.05741,0.270289 0,0.385105 -0.03828,0.076544 -0.196226,-0.060513 -0.256738,0 -0.03026,0.030257 0,0.085579 0,0.1283684 0,0.2139474 0,0.4278946 0,0.6418426 0,0.342315 0,0.684631 0,1.026947 0,0.08433 -0.01508,0.483288 0,0.513473 0.01913,0.03827 0.09811,-0.03026 0.128367,0 0.06052,0.06051 -0.03827,0.180193 0,0.256737 0.02707,0.05413 0.101307,0.07424 0.128371,0.128369 0.01913,0.03827 0,0.08558 0,0.128368 0,0.08558 0,0.171158 0,0.256737 0,0.213947 0,0.427895 0,0.641842 0,0.213947 0,0.427894 0,0.641842 0,0.04279 -0.03026,0.09811 0,0.128368 0.03025,0.03026 0.09811,-0.03026 0.128368,0 0.03026,0.03026 0,0.08558 0,0.128369 0.08558,0.04279 0.165965,0.09811 0.256736,0.128368 0.04059,0.01353 0.09811,-0.03026 0.128368,0 0.03026,0.03026 0,0.08558 0,0.128369 0,0.0305 0.01439,0.484702 0,0.513473 -0.09788,0.195759 -0.337336,0.128369 -0.513472,0.128369 -0.04279,0 -0.0901,-0.01914 -0.128371,0 -0.108248,0.05412 -0.148486,0.202611 -0.256735,0.256736 -0.07654,0.03827 -0.196223,-0.06051 -0.256736,0 -0.03026,0.03026 0.01913,0.0901 0,0.128369 -0.267121,0.534238 0.0089,-0.137231 -0.256739,0.128368 -0.03026,0.03026 0.01913,0.0901 0,0.128369 -0.01704,0.03408 -0.351022,0.368063 -0.385103,0.385105 -0.342318,0 0.04279,-0.04279 -0.128371,0.128368 -0.03026,0.03026 -0.10923,-0.03827 -0.128368,0 -0.04152,0.08305 0.04611,0.467362 0,0.513474 -0.03025,0.03026 -0.09811,-0.03026 -0.128368,0 -0.06051,0.06051 0.06051,0.196223 0,0.256737 -0.03026,0.03026 -0.09811,-0.03026 -0.128367,0 -0.03513,0.03512 0.03482,0.443835 0,0.513473 -0.02707,0.05412 -0.101307,0.07424 -0.128368,0.128369 -0.01913,0.03827 0,0.08558 0,0.128368 0,0.054 0.0191,0.732024 0,0.770211 -0.02707,0.05412 -0.101307,0.07424 -0.128371,0.128368 -0.01913,0.03827 0.03026,0.09811 0,0.128368 -0.03025,0.03026 -0.09811,-0.03026 -0.128368,0 -0.06051,0.06051 0.06051,0.196224 0,0.256737 -0.06051,0.06051 -0.196223,-0.06051 -0.256736,0 -0.0058,0.0058 0,0.581317 0,0.641842 0,0.898579 0,1.797158 0,2.695737 0,0.03113 0.0041,0.380976 0,0.385105 -0.03026,0.03026 -0.09811,-0.03026 -0.128367,0 -0.06052,0.06051 0.03827,0.180193 0,0.256737 -0.02707,0.05412 -0.101307,0.07424 -0.128371,0.128368 -0.01913,0.03827 0,0.08558 0,0.128368 0,0.08558 0.02706,0.17555 0,0.256737 -0.01913,0.05741 -0.101304,0.07424 -0.128368,0.128369 -0.01688,0.03375 0,0.446347 0,0.513473 0,0.08558 0,0.171158 0,0.256737 0,0.04279 -0.03025,0.09811 0,0.128369 0.03026,0.03026 0.09811,-0.03026 0.128368,0 0.149855,0.149852 -0.149852,0.106884 0,0.256736 0.03026,0.03026 0.0901,-0.01913 0.128371,0 0.05412,0.02706 0.07424,0.101306 0.128367,0.128369 0.03827,0.01914 0.0901,-0.01914 0.128368,0 0.05413,0.02706 0.101307,0.07424 0.128368,0.128368 0.01913,0.03827 -0.03827,0.109233 0,0.128369 0.07654,0.03827 0.180195,-0.03827 0.256739,0 0.03827,0.01914 -0.03026,0.09811 0,0.128368 0.03026,0.03026 0.09811,-0.03026 0.128368,0 0.03025,0.03026 -0.03827,0.109232 0,0.128368 0.102695,0.05135 0.282411,-0.05135 0.385103,0 0.210206,0.105103 0.103701,0.372772 0.128371,0.385106 0.07654,0.03827 0.180192,-0.03827 0.256736,0 0.03827,0.01914 -0.01352,0.08777 0,0.128368 0.03026,0.09077 0.0753,0.177126 0.128367,0.256737 0.06714,0.1007 0.202613,0.148487 0.256739,0.256736 0.03827,0.07654 -0.06052,0.196223 0,0.256738 0.03026,0.03026 0.10923,-0.03827 0.128368,0 0.03827,0.07654 -0.02706,0.175549 0,0.256736 0.01913,0.05741 0.101306,0.07424 0.128368,0.128368 0.01913,0.03827 -0.03026,0.09811 0,0.128368 0.03026,0.03026 0.09811,-0.03026 0.128368,0 0.0041,0.0041 0,0.353973 0,0.385106 0,0.470683 0,0.941369 0,1.412052 0,0.04279 0,0.08558 0,0.128368 0,0.04279 0.03026,0.09811 0,0.128371 -0.03026,0.03026 -0.09811,-0.03026 -0.128368,0 -0.06419,0.06418 0.06418,0.320918 0,0.385104 -0.06051,0.06051 -0.196223,-0.06051 -0.256736,0 -0.06052,0.06051 0.03827,0.180191 0,0.256735 -0.02706,0.05413 -0.109233,0.07096 -0.128371,0.128371 -0.02299,0.06901 0,0.404789 0,0.513471 0,0.342318 0,0.684634 0,1.026949 0,0.04279 0.03026,0.09811 0,0.128368 -0.03025,0.03026 -0.09811,-0.03026 -0.128368,0 -0.03026,0.03026 -0.03026,0.09811 0,0.128368 0.03026,0.03026 0.0901,-0.01913 0.128368,0 0.108252,0.05412 0.148487,0.202612 0.256739,0.256738 0.03827,0.01913 0.09811,-0.03026 0.128368,0 0.06051,0.06051 -0.03827,0.180192 0,0.256736 0.02706,0.05413 0.101306,0.07424 0.128368,0.128368 0.01913,0.03827 -0.03026,0.09811 0,0.12837 0.171159,0.171157 0.123176,-0.272311 0.256738,0.128368 0.02706,0.08119 -0.03828,0.180192 0,0.256736 0.01913,0.03827 0.09811,-0.03025 0.128368,0 0.03026,0.03026 -0.03026,0.09811 0,0.128368 0.03026,0.03026 0.0901,-0.01913 0.128368,0 0.05413,0.02706 0.07424,0.101306 0.128368,0.12837 0.03827,0.01913 0.09811,-0.03026 0.128368,0 0.03026,0.03026 -0.01913,0.0901 0,0.128368 0.02706,0.05412 0.101306,0.07424 0.128368,0.128368 0.01902,0.03807 0,0.646049 0,0.77021 0,0.04279 0,0.08558 0,0.128368 0,0.04279 -0.01913,0.0901 0,0.128368 0.02706,0.05413 0.101306,0.07425 0.12837,0.128371 0.01953,0.03907 0,0.327292 0,0.385103 0,0.342316 0,0.684633 0,1.026949 0,0.03113 -0.0041,0.380976 0,0.385103 0.03025,0.03026 0.09811,-0.03026 0.128368,0 0.03026,0.03026 -0.03026,0.09811 0,0.128371 0.03026,0.03025 0.09811,-0.03026 0.128368,0 0.03026,0.03025 0,0.08558 0,0.128368 0.06702,0.02572 0.134043,0.05145 0.201067,0.07717 0.08394,-0.433323 0.820351,-0.118117 1.082617,-0.205539 0.05741,-0.01914 0.07424,-0.101306 0.128368,-0.128368 0.03827,-0.01914 0.08558,0 0.128369,0 0.203369,0 0.346833,0.03827 0.513473,-0.128369 0.03026,-0.03026 -0.0356,-0.104633 0,-0.128368 0.09087,-0.391403 0.355674,-0.04947 0.513474,-0.128368 0.587492,-0.293746 -0.544721,0.0532 0.385105,-0.256737 0.04059,-0.01353 0.09277,0.02374 0.128369,0 0.1007,-0.06713 0.171157,-0.171158 0.256736,-0.256737 0.04279,-0.04279 0.06966,-0.113692 0.128369,-0.128369 0.243642,-0.06091 0.389547,0.119484 0.513473,-0.128368 0.01914,-0.03827 -0.03026,-0.09811 0,-0.128368 0.03026,-0.03026 0.08558,0 0.128369,0 0.08558,0 0.180192,0.03827 0.256737,0 0.03827,-0.01914 -0.01914,-0.0901 0,-0.128369 0.02706,-0.05413 0.07802,-0.0948 0.128368,-0.128368 0.159221,-0.106148 0.354252,-0.150589 0.513474,-0.256737 0.05035,-0.03357 0.07424,-0.101306 0.128368,-0.128368 0.03827,-0.01914 0.0901,0.01914 0.128368,0 0.10825,-0.05412 0.148488,-0.202612 0.256737,-0.256737 0.100262,-0.05013 0.529677,-0.144572 0.641842,-0.256737 0.06766,-0.06766 0.06071,-0.189081 0.128369,-0.256737 1.22e-4,-1.22e-4 0.384523,1.94e-4 0.385105,0 0.05741,-0.01914 0.07802,-0.0948 0.128368,-0.128368 0.07961,-0.05307 0.171158,-0.08558 0.256737,-0.128369 0.08558,-0.04279 0.1679,-0.09283 0.256737,-0.128368 0.128368,-0.04279 0.256737,-0.08558 0.385105,-0.128368 0.04279,-0.04279 0.07424,-0.101306 0.128369,-0.128369 0.03827,-0.01914 0.09811,0.03026 0.128368,0 0.03026,-0.03026 -0.03026,-0.09811 0,-0.128368 0.03967,-0.03967 0.602488,0.03935 0.641842,0 0.265599,-0.265599 -0.40587,0.01038 0.128368,-0.256737 0.0509,-0.02545 0.358862,0.02624 0.385106,0 0.03026,-0.03026 -0.03026,-0.09811 0,-0.128368 0.03026,-0.03026 0.08558,0 0.128368,0 0.04279,0 0.08558,0 0.128368,0 0.299527,0 0.599053,0 0.898579,0 0.128369,0 0.270289,-0.05741 0.385106,0 0.03827,0.01914 -0.01914,0.0901 0,0.128368 0.02706,0.05412 0.08558,0.08558 0.128368,0.128368 0.04279,0.04279 0.07424,0.101306 0.128368,0.128369 0.03319,0.0166 0.679223,0 0.770211,0 0.04279,0 0.08558,0 0.128368,0 0.04279,0 0.09811,-0.03026 0.128369,0 0.03026,0.03026 -0.03026,0.09811 0,0.128368 0.008,0.361452 0.289425,0.03269 0.385105,0.128369 0.03026,0.03026 -0.03026,0.09811 0,0.128368 0.03026,0.03026 0.09811,-0.03026 0.128368,0 0.03026,0.03026 -0.03026,0.09811 0,0.128368 0.03026,0.03026 0.09811,-0.03026 0.128369,0 0.265598,0.265599 -0.40587,-0.01038 0.128368,0.256737 0.07654,0.03827 0.196223,-0.06051 0.256737,0 0.03026,0.03026 -0.03026,0.09811 0,0.128369 0.06051,0.06051 0.196223,-0.06051 0.256737,0 0.03026,0.03026 -0.03026,0.09811 0,0.128368 0.03026,0.03026 0.09811,-0.03026 0.128368,0 0.06766,0.06766 0.06071,0.189081 0.128369,0.256737 0.03026,0.03026 0.09811,-0.03026 0.128368,0 0.03026,0.03026 -0.01914,0.0901 0,0.128368 0.02706,0.05412 0.101306,0.07424 0.128368,0.128369 0.02545,0.0509 -0.02624,0.358862 0,0.385105 0.04506,0.04506 0.553174,-0.04433 0.641842,0 0.05412,0.02706 0.07424,0.101306 0.128369,0.128368 0.03375,0.01688 0.446347,0 0.513473,0 0.06713,0 0.479721,0.01688 0.513474,0 0.534239,-0.267119 -0.13723,0.0089 0.128368,-0.256737 0.03975,-0.03975 0.602094,0.03975 0.641842,0 0.03026,-0.03026 -0.01914,-0.0901 0,-0.128368 0.05875,-0.117498 0.291295,-0.225467 0.385106,-0.256737 0.02685,-0.0089 0.614995,-0.0089 0.641842,0 0.09077,0.03026 0.18908,0.06071 0.256737,0.128369 0.06051,0.06051 -0.03827,0.180192 0,0.256736 0.02706,0.05412 0.08558,0.08558 0.128368,0.128369 0.04279,0.04279 0.07424,0.101306 0.128368,0.128368 0.03827,0.01914 0.09811,-0.03026 0.128369,0 0.03026,0.03026 -0.01914,0.0901 0,0.128369 0.02706,0.05412 0.08558,0.08558 0.128368,0.128368 0.188882,0.188882 0.06785,0.128368 0.385105,0.128368 0.04279,0 0.109233,-0.03827 0.128369,0 0.03827,0.07655 -0.03827,0.180193 0,0.256737 0.01914,0.03827 0.08558,0 0.128368,0 0.213948,0 0.427895,0 0.641842,0 0.599053,0 1.198105,0 1.797158,0 0.054,0 0.732024,-0.01909 0.77021,0 0.05412,0.02706 0.07096,0.109233 0.128369,0.128369 0.05871,0.01957 0.456352,-0.02856 0.513473,0 0.05412,0.02706 0.07424,0.101306 0.128369,0.128368 0.03827,0.01914 0.09811,-0.03026 0.128368,0 0.265599,0.265599 -0.40587,-0.01038 0.128369,0.256737 0.03827,0.01914 0.09811,-0.03026 0.128368,0 0.03026,0.03026 -0.03026,0.09811 0,0.128368 0.03026,0.03026 0.09811,-0.03026 0.128368,0 0.03026,0.03026 -0.03026,0.09811 0,0.128369 0.03026,0.03026 0.0901,-0.01914 0.128369,0 0.05412,0.02706 0.07424,0.101306 0.128368,0.128368 0.03827,0.01914 0.09811,-0.03026 0.128369,0 0.03026,0.03026 -0.03026,0.09811 0,0.128369 0.03026,0.03026 0.09811,-0.03026 0.128368,0 0.03026,0.03026 -0.03026,0.09811 0,0.128368 0.03026,0.03026 0.0901,-0.01914 0.128369,0 0.05412,0.02706 0.07424,0.101306 0.128368,0.128368 0.03827,0.01914 0.09811,-0.03026 0.128368,0 0.265599,0.265599 -0.40587,-0.01038 0.128369,0.256737 0.06964,0.03482 0.478349,-0.03512 0.513473,0 0.03026,0.03026 -0.03026,0.09811 0,0.128369 0.03026,0.03026 0.08558,0 0.128369,0 0.08558,0 0.180192,-0.03827 0.256737,0 0.03827,0.01914 -0.03026,0.09811 0,0.128368 0.03026,0.03026 0.08558,0 0.128368,0 0.04279,0 0.08558,0 0.128368,0 0.256737,0 0.513474,0 0.770211,0 0.128368,0 0.270289,-0.05741 0.385105,0 0.03827,0.01914 -0.03026,0.09811 0,0.128368 0.03026,0.03026 0.08558,0 0.128368,0 0.107573,0 0.587284,-0.02728 0.641843,0 0.03827,0.01914 -0.03026,0.09811 0,0.128369 0.03089,0.03089 0.482584,-0.03089 0.513473,0 0.03026,0.03026 -0.03026,0.09811 0,0.128368 0.06418,0.06418 0.320921,-0.06418 0.385105,0 0.03026,0.03026 -0.03026,0.09811 0,0.128369 0.06051,0.06051 0.196224,-0.06051 0.256737,0 0.06051,0.06051 -0.07654,0.218464 0,0.256736 0.727421,0 0.04279,-0.08558 0.256737,0.128369 0.03026,0.03026 0.08558,0 0.128368,0 0.08558,0 0.180193,-0.03827 0.256737,0 0.03827,0.01914 -0.03026,0.09811 0,0.128368 0.03026,0.03026 0.0901,-0.01914 0.128369,0 0.05412,0.02706 0.07424,0.101306 0.128368,0.128369 0.0509,0.02545 0.358862,-0.02624 0.385105,0 0.03026,0.03026 -0.03026,0.09811 0,0.128368 0.06051,0.06051 0.196224,-0.06051 0.256737,0 0.03026,0.03026 -0.03026,0.09811 0,0.128368 0.02624,0.02624 0.334208,-0.02545 0.385105,0 0.534239,0.26712 -0.13723,-0.0089 0.128369,0.256737 0.03026,0.03026 0.08558,0 0.128368,0 0.05807,0 0.736,0.01711 0.770211,0 0.275474,-0.137737 0.0059,-0.140184 0.128368,-0.385105 0.01983,-0.03966 0.339185,0.02296 0.385105,0 0.05412,-0.02706 0.07802,-0.0948 0.128369,-0.128368 0.07961,-0.05307 0.18908,-0.06071 0.256736,-0.128369 0.03026,-0.03026 -0.03026,-0.09811 0,-0.128368 0.03089,-0.03089 0.482585,0.03089 0.513474,0 0.03026,-0.03026 -0.03026,-0.09811 0,-0.128369 0.03026,-0.03026 0.0901,0.01914 0.128368,0 0.05413,-0.02706 0.07424,-0.101306 0.128369,-0.128368 0.07654,-0.03827 0.196223,0.06051 0.256737,0 0.03026,-0.03026 -0.03026,-0.09811 0,-0.128368 0.06051,-0.06051 0.196223,0.06051 0.256736,0 0.03026,-0.03026 -0.03026,-0.09811 0,-0.128369 0.06051,-0.06051 0.196224,0.06051 0.256737,0 0.03026,-0.03026 -0.03026,-0.09811 0,-0.128368 0.03026,-0.03026 0.08558,0 0.128369,0 0.08558,0 0.180192,0.03827 0.256736,0 0.03827,-0.01914 -0.01914,-0.0901 0,-0.128369 0.02706,-0.05412 0.08558,-0.08558 0.128369,-0.128368 0.04279,-0.04279 0.07424,-0.101306 0.128368,-0.128368 0.07654,-0.03827 0.196224,0.06051 0.256737,0 0.03026,-0.03026 -0.03026,-0.09811 0,-0.128369 0.03026,-0.03026 0.08558,0 0.128369,0 0.04279,0 0.08558,0 0.128368,0 0.427895,0 0.855789,0 1.283684,0 0.129274,0 0.69922,0.02366 0.77021,0 0.05741,-0.01914 0.07424,-0.101306 0.128369,-0.128368 0.05482,-0.02741 0.591096,0 0.641842,0 0.470684,0 0.941368,0 1.412052,0 0.299527,0 0.599053,0 0.898579,0 0.08558,0 0.256741,-0.08558 0.256741,0 0,0.08558 -0.34232,0 -0.256741,0 0.128371,0 0.263321,0.04059 0.385101,0 0.0812,-0.02706 -0.0605,-0.196224 0,-0.256737 0.0303,-0.03026 0.0856,0 0.12837,0 0.0528,-0.07377 0.10567,-0.147539 0.15851,-0.221308"
       id="path943"
       inkscape:connector-curvature="0" />
    <path
       style="fill:none;stroke:#000000;stroke-width:0.26458332px;stroke-linecap:butt;stroke-linejoin:miter;stroke-opacity:1"
       d="m 60.106551,57.243244 c 1.05804,-0.0581 2.119432,-0.03543 3.179072,-0.03543 0.04279,0 0.08558,0 0.128368,0 0.04279,0 0.09811,-0.03026 0.128371,0 0.03026,0.03026 -0.03026,0.09811 0,0.128371 0.06418,0.06418 0.320921,-0.06419 0.385103,0 0.0872,0.0872 -0.131254,0.255294 0.128368,0.385104 0.07655,0.03827 0.196226,-0.06051 0.256739,0 0.06766,0.06766 0.06071,0.189081 0.128368,0.256738 0.03512,0.03512 0.443835,-0.03482 0.513474,0 0.05412,0.02706 0.07424,0.101304 0.128368,0.128368 0.03827,0.01913 0.09811,-0.03026 0.128368,0 0.265599,0.265599 -0.405871,-0.01037 0.128367,0.256736 0.03827,0.01913 0.08558,0 0.128371,0 0.04279,0 0.08558,0 0.128368,0 0.256736,0 0.513474,0 0.77021,0 0.256736,0 0.513474,0 0.77021,0 0.08558,0 0.180192,0.03827 0.256736,0 0.03827,-0.01913 -0.03025,-0.09811 0,-0.128368 0.03026,-0.03026 0.09811,0.03026 0.12837,0 0.03025,-0.03026 -0.03026,-0.09811 0,-0.128368 0.03025,-0.03026 0.09811,0.03025 0.128368,0 0.03025,-0.03026 -0.03026,-0.09811 0,-0.128368 0.06051,-0.06052 0.196223,0.06051 0.256736,0 0.08552,-0.08552 -0.08552,-0.171217 0,-0.256738 0.06051,-0.06051 0.180194,0.03827 0.256738,0 0.05412,-0.02706 0.07424,-0.101307 0.128368,-0.128368 0.03827,-0.01913 0.09811,0.03026 0.128368,0 0.03026,-0.03026 -0.03026,-0.09811 0,-0.128368 0.03026,-0.03026 0.09811,0.03026 0.128368,0 0.06051,-0.06051 -0.06051,-0.196223 0,-0.256739 0.03026,-0.03026 0.09811,0.03026 0.128368,0 0.265599,-0.265596 -0.405868,0.01037 0.12837,-0.256735 0.177065,-0.08853 0.114822,0.155461 0.256736,-0.128368 0.01913,-0.03827 -0.03026,-0.09811 0,-0.128368 0.2656,-0.2656 -0.01037,0.405868 0.256736,-0.128371 0.03827,-0.07654 -0.03827,-0.180192 0,-0.256736 0.02706,-0.05412 0.101306,-0.07424 0.128371,-0.128367 0.05134,-0.102696 -0.05135,-0.282411 0,-0.385107 0.01913,-0.03827 0.09811,0.03026 0.128367,0 0.03026,-0.03025 -0.03026,-0.09811 0,-0.128368 0.06051,-0.06051 0.180192,0.03827 0.256736,0 0.534239,-0.267118 -0.137229,0.0089 0.128368,-0.256735 0.03026,-0.03026 0.09811,0.03026 0.128371,0 0.03025,-0.03026 -0.03026,-0.09811 0,-0.128368 0.03025,-0.03026 0.09811,0.03025 0.128368,0 0.03026,-0.03026 -0.03827,-0.109234 0,-0.128371 0.07654,-0.03827 0.175548,0.02706 0.256735,0 0.05741,-0.01913 0.07425,-0.101306 0.128368,-0.128368 0.02877,-0.01439 0.482971,0 0.513474,0 0.299527,0 0.599054,0 0.898578,0 0.342318,0 0.684634,0 1.026949,0 0.08558,0 0.171159,0 0.256736,0 0.04279,0 0.0901,-0.01913 0.12837,0 0.05412,0.02706 0.07424,0.101307 0.128368,0.128368 0.177065,0.08854 0.114821,-0.155461 0.256736,0.128371 0.01913,0.03827 -0.03827,0.10923 0,0.128368 0.07654,0.03827 0.180192,-0.03827 0.256738,0 0.03827,0.01913 -0.03026,0.09811 0,0.128367 0.03025,0.03026 0.0901,-0.01913 0.128368,0 0.154041,0.07702 0.231063,0.308084 0.385104,0.385107 0.03827,0.01913 0.0901,-0.01913 0.128368,0 0.05413,0.02706 0.07802,0.0948 0.12837,0.128368 0.07961,0.05307 0.177126,0.07529 0.256736,0.128368 0.05035,0.03357 0.07425,0.101306 0.128368,0.128367 0.03375,0.01688 0.446347,0 0.513474,0 0.342315,0 0.684631,0 1.026949,0 0.385103,0 0.77021,0 1.155313,0 0.06713,0 0.479722,0.01688 0.513475,0 0.108249,-0.05412 0.148486,-0.202612 0.256735,-0.256735 0.03907,-0.01953 0.327295,0 0.385107,0 0.556262,0 1.112525,0 1.66879,0 0.04279,0 0.08558,0 0.128368,0 0.04279,0 0.09811,0.03025 0.128368,0 0.03026,-0.03026 -0.03026,-0.09811 0,-0.128368 0.03026,-0.03026 0.0901,0.01913 0.128368,0 0.05413,-0.02706 0.07424,-0.101307 0.128368,-0.128371 0.136837,-0.06842 0.119904,0.06842 0.256738,0 0.05412,-0.02706 0.08558,-0.08558 0.128368,-0.128368 0.146873,-0.146872 0.151958,-0.179019 0.385106,-0.256735 0.08119,-0.02707 0.180192,0.03827 0.256736,0 0.05413,-0.02707 0.07424,-0.101307 0.128368,-0.128368 0.0509,-0.02545 0.358862,0.02625 0.385106,0 0.265597,-0.2656 -0.40587,0.01037 0.128368,-0.256739 0.02877,-0.01439 0.482968,0 0.513475,0 0.299524,0 0.599051,0 0.898578,0 0.213947,0 0.427894,0 0.641842,0 0.04279,0 0.09811,-0.03025 0.128368,0 0.03026,0.03026 -0.03026,0.09811 0,0.128368 0.03026,0.03026 0.09009,-0.01913 0.128367,0 0.05413,0.02706 0.07425,0.101306 0.128371,0.128371 0.03827,0.01913 0.0901,-0.01913 0.128368,0 0.05412,0.02706 0.07424,0.101303 0.128368,0.128368 0.03827,0.01913 0.08558,0 0.128368,0 0.04279,0.04279 0.07424,0.101306 0.128368,0.128367 0.07654,0.03827 0.196222,-0.06051 0.256738,0 0.03026,0.03026 -0.03026,0.09811 0,0.128368 0.265597,0.2656 -0.01037,-0.40587 0.256736,0.128368 0.03827,0.07654 -0.06051,0.196223 0,0.256739 0.06051,0.06051 0.196223,-0.06052 0.256736,0 0.171159,0.171156 -0.213948,0.128368 0.12837,0.128368 0.04279,0 0.109231,-0.03827 0.128368,0 0.03827,0.07654 -0.03827,0.180191 0,0.256735 0.01913,0.03827 0.09811,-0.03026 0.128368,0 0.06051,0.06052 -0.03827,0.180195 0,0.256739 0.02706,0.05412 0.101306,0.07424 0.128368,0.128368 0.03482,0.06964 -0.03512,0.478348 0,0.513474 0.03026,0.03025 0.0901,-0.01913 0.128368,0 0.273671,0.136834 -0.01693,0.119901 0.256738,0.256736 0.07654,0.03827 0.196223,-0.06051 0.256736,0 0.08545,0.08545 -0.08545,0.171286 0,0.256736 0.06051,0.06051 0.180194,-0.03827 0.256738,0 0.05412,0.02706 0.07424,0.101306 0.128368,0.12837 0.06964,0.03482 0.478348,-0.03513 0.513474,0 0.03026,0.03025 -0.03827,0.109231 0,0.128368 0.07654,0.03827 0.180192,-0.03827 0.256736,0 0.03827,0.01913 -0.03026,0.09811 0,0.128368 0.03026,0.03026 0.09811,-0.03026 0.128368,0 0.03026,0.03026 -0.03025,0.09811 0,0.128368 0.06051,0.06051 0.180192,-0.03827 0.256739,0 0.05412,0.02706 0.08558,0.08558 0.128367,0.128368 0.08558,0 0.175549,-0.02706 0.256736,0 0.615757,0.205253 -0.359021,0.05148 0.256736,0.256738 0.09289,0.03096 0.471159,-0.04232 0.513474,0 0.03026,0.03026 -0.03025,0.09811 0,0.128368 0.03026,0.03026 0.08558,0 0.128368,0 0.04279,0 0.08558,0 0.128371,0 0.171156,0 0.342315,0 0.513471,0 0.08558,0 0.175551,-0.02706 0.256739,0 0.09077,0.03026 0.165965,0.09811 0.256735,0.128368 0.08057,0.02686 0.410134,0 0.513475,0 0.342315,0 0.68463,0 1.026948,0 0.427892,0 0.855787,0 1.283682,0 0.120904,0 0.56882,0.02434 0.641842,0 0.05741,-0.01913 0.07424,-0.101306 0.12837,-0.128368 0.08147,-0.04074 0.600224,0.04162 0.641843,0 0.03025,-0.03026 -0.03026,-0.09811 0,-0.128368 0.06418,-0.06419 0.320921,0.06418 0.385103,0 0.03026,-0.03026 -0.01913,-0.0901 0,-0.128368 0.02706,-0.05413 0.101307,-0.07424 0.128368,-0.12837 0.01913,-0.03827 -0.03025,-0.09811 0,-0.128368 0.03026,-0.03025 0.0901,0.01913 0.128371,0 0.108249,-0.05412 0.148486,-0.202613 0.256735,-0.256736 0.06964,-0.03482 0.478349,0.03512 0.513475,0 0.03025,-0.03026 -0.03026,-0.09811 0,-0.128368 0.03025,-0.03026 0.08558,0 0.128368,0 0.08558,0 0.171156,0 0.256735,0 0.513475,0 1.026949,0 1.540423,0 0.342315,0 0.684633,0 1.026943,0 0.0305,0 0.48471,0.01439 0.51348,0 0.0541,-0.02706 0.1013,-0.07424 0.12836,-0.12837 0.005,-0.01095 0.005,-0.502529 0,-0.513472 -0.0271,-0.05413 -0.1013,-0.07425 -0.12836,-0.128371 -0.0191,-0.03827 0.0302,-0.09811 0,-0.128368 -0.0303,-0.03025 -0.0856,0 -0.12837,0 -0.0856,0 -0.17116,0 -0.25674,0 -0.0428,0 -0.15485,-0.03361 -0.12837,0 0.0723,0.09173 0.19125,0.134089 0.28688,0.201131"
       id="path945"
       inkscape:connector-curvature="0" />
    <path
       style="fill:none;stroke:#000000;stroke-width:0.26458332px;stroke-linecap:butt;stroke-linejoin:miter;stroke-opacity:1"
       d="m 40.251792,57.243244 c -0.280897,0.07377 -0.561795,0.147537 -0.842692,0.221308 -0.04279,0.04279 -0.07424,0.101306 -0.128368,0.128368 -0.03827,0.01913 -0.09811,-0.03026 -0.128368,0 -0.03026,0.03026 0.01913,0.0901 0,0.128368 -0.02706,0.05412 -0.109233,0.07096 -0.128368,0.128368 -0.02706,0.08119 0.03827,0.180194 0,0.256738 -0.03827,0.07654 -0.196223,-0.06051 -0.256738,0 -0.03026,0.03025 0.01913,0.0901 0,0.128368 -0.05412,0.108249 -0.20261,0.148487 -0.256736,0.256736 -0.03827,0.07654 0.02706,0.175551 0,0.256738 -0.03026,0.09077 -0.09811,0.165965 -0.128368,0.256736 -0.03009,0.09026 0.03519,0.606655 0,0.641842 -0.03026,0.03026 -0.09811,-0.03025 -0.128368,0 -0.03026,0.03026 0,0.08558 0,0.128368 0,0.04279 0,0.08558 0,0.12837 0,0.342316 0,0.684631 0,1.026946 0,0.128368 -0.04059,0.263324 0,0.385107 0.01913,0.05741 0.101304,0.07424 0.128368,0.128367 0.01913,0.03827 -0.01913,0.0901 0,0.128368 0.02706,0.05413 0.08558,0.08558 0.128368,0.128368 0.04279,0.04279 0.07424,0.101307 0.128368,0.128368 0.03827,0.01913 0.109233,-0.03827 0.128368,0 0.03827,0.07654 -0.02706,0.175551 0,0.256739 0.03827,0.114815 0.202612,0.148486 0.256738,0.256735 0.01913,0.03827 -0.03026,0.09811 0,0.128368 0.03026,0.03026 0.09811,-0.03025 0.128368,0 0.265599,0.2656 -0.405871,-0.01037 0.128368,0.256739 0.03827,0.01913 0.0901,-0.01913 0.128368,0 0.05412,0.02706 0.07424,0.101306 0.12837,0.128368 0.03827,0.01913 0.09811,-0.03026 0.128368,0 0.03089,0.03089 -0.03089,0.482584 0,0.513474 0.03025,0.03026 0.09811,-0.03026 0.128368,0 0.03026,0.03026 0,0.08558 0,0.128368 0,0.256735 0,0.513474 0,0.77021 0,0.04279 0,0.08558 0,0.128368 0,0.04279 0.01913,0.0901 0,0.128367 -0.02706,0.05413 -0.0948,0.07802 -0.128368,0.128371 -0.05307,0.07961 -0.06071,0.189079 -0.128368,0.256736 -0.03026,0.03026 -0.109233,-0.03827 -0.12837,0 -0.114816,0.101264 0.05741,0.27029 0,0.385106 -0.02706,0.05412 -0.101307,0.07424 -0.128368,0.128368 -0.01913,0.03827 0.01352,0.08778 0,0.128368 -0.03026,0.09077 -0.09811,0.165968 -0.128368,0.256736 -0.01352,0.04059 0.01913,0.0901 0,0.12837 -0.02706,0.05412 -0.101306,0.07424 -0.128368,0.128368 -0.01913,0.03827 0,0.08558 0,0.128368 0,0.08558 0.02706,0.175548 0,0.256736 -0.02897,0.08693 -0.336076,0.287046 -0.385106,0.385106 -0.0417,0.08339 0.04071,0.560417 0,0.641842 -0.05412,0.108249 -0.218464,0.14192 -0.256736,0.256736 -0.02706,0.08119 0,0.171159 0,0.256738 0,0.04279 0.01913,0.0901 0,0.128368 -0.02706,0.05413 -0.101306,0.07424 -0.128368,0.128368 -0.01913,0.03827 0,0.08558 0,0.128368 0,0.08558 0.02706,0.175551 0,0.256739 -0.01913,0.05741 -0.109233,0.07096 -0.128371,0.128367 -0.03851,0.115531 0.03851,0.269574 0,0.385104 -0.04279,0.08558 -0.08558,0.171159 -0.128367,0.256739 -0.04279,0 -0.09811,-0.03026 -0.128368,0 -0.02625,0.02625 0.02545,0.334208 0,0.385103 -0.02706,0.05413 -0.109234,0.07096 -0.128368,0.128371 -0.02706,0.08119 0.02706,0.175548 0,0.256736 -0.01913,0.05741 -0.101307,0.07424 -0.128368,0.128368 -0.04034,0.08068 0.04034,0.432792 0,0.513474 -0.02706,0.05413 -0.101306,0.07424 -0.128371,0.128368 -0.01913,0.03827 0,0.08558 0,0.128368 0,0.04279 0,0.08558 0,0.12837 0,0.299524 0,0.599051 0,0.898578 0,0.09099 -0.01659,0.737021 0,0.77021 0.02707,0.05413 0.101307,0.07425 0.128371,0.128368 0.06842,0.136834 -0.06842,0.119901 0,0.256738 0.02706,0.05412 0.101306,0.07424 0.128368,0.128368 0.05741,0.114816 -0.05741,0.270288 0,0.385104 0.01913,0.03827 0.09811,-0.03025 0.128368,0 0.03026,0.03026 -0.03026,0.09811 0,0.12837 0.06051,0.06051 0.196223,-0.06051 0.256735,0 0.04506,0.04506 -0.04433,0.553173 0,0.641843 0.02707,0.05412 0.101307,0.07424 0.128371,0.128367 0.01913,0.03827 0,0.08558 0,0.128368 0,0.04279 0,0.08558 0,0.128368 0,0.256739 0,0.513474 0,0.77021 0,0.04279 0,0.08558 0,0.128368 0,0.04279 -0.03026,0.09811 0,0.128371 0.03026,0.03025 0.09811,-0.03026 0.128368,0 0.06051,0.06051 -0.03827,0.180191 0,0.256735 0.02706,0.05413 0.101306,0.07424 0.128368,0.128368 0.01913,0.03827 -0.03026,0.09811 0,0.128368 0.342315,0 -0.04279,-0.04279 0.128368,0.128371 0.03026,0.03026 0.09811,-0.03026 0.128368,0 0.06052,0.06051 -0.03827,0.180192 0,0.256736 0.02706,0.05412 0.101306,0.07424 0.12837,0.128367 0.03897,0.07795 -0.03898,0.692264 0,0.77021 0.267118,0.534239 -0.0089,-0.137228 0.256736,0.128371 0.03512,0.03512 -0.03482,0.443833 0,0.513472 0.02706,0.05412 0.101306,0.07424 0.128368,0.12837 0.01953,0.03907 0,0.327292 0,0.385104 0,0.256738 0,0.513474 0,0.77021 0,0.08558 0,0.171159 0,0.256738 0,0.04279 -0.03026,0.09811 0,0.128368 0.03026,0.03026 0.09811,-0.03026 0.128368,0 0.04506,0.04506 -0.04433,0.553172 0,0.641842 0.02706,0.05412 0.101306,0.07424 0.12837,0.128368 0.01953,0.03907 0,0.327295 0,0.385106 0,0.299525 0,0.599052 0,0.898578 0,0.556263 0,1.112526 0,1.668788 0,0.213948 0,0.427895 0,0.641842 0,0.04279 0,0.08558 0,0.128371 0,0.04279 0.01913,0.0901 0,0.128368 -0.02706,0.05412 -0.101306,0.07424 -0.12837,0.128368 -0.01913,0.03827 0.03026,0.09811 0,0.128368 -0.03026,0.03026 -0.09811,-0.03025 -0.128368,0 -0.0041,0.0041 0,0.353972 0,0.385106 0,0.256736 0,0.513474 0,0.77021 0,0.05781 -0.01953,0.346038 0,0.385106 0.02706,0.05412 0.101306,0.07424 0.128368,0.128368 0.02741,0.05482 0,0.591095 0,0.641842 0,0.04279 0.01913,0.0901 0,0.128368 -0.02706,0.05413 -0.08558,0.08558 -0.128368,0.128368 -0.04279,0.04279 -0.07424,0.101306 -0.128368,0.128368 -0.03827,0.01913 -0.09811,-0.03025 -0.128368,0 -0.03026,0.03026 0.01913,0.0901 0,0.128368 -0.02706,0.05413 -0.101306,0.07424 -0.128368,0.12837 -0.01913,0.03827 0,0.08558 0,0.128368 0,0.09099 0.01659,0.737021 0,0.77021 -0.02706,0.05413 -0.101306,0.07425 -0.12837,0.128368 -0.03897,0.07795 0.03898,0.692264 0,0.77021 -0.02706,0.05413 -0.101307,0.07425 -0.128368,0.128371 -0.04034,0.08068 0.04034,0.432789 0,0.513471 -0.02706,0.05413 -0.101307,0.07424 -0.128368,0.128371 -0.01913,0.03827 0,0.08558 0,0.128368 0,0.04279 0,0.08558 0,0.128368 0,0.301045 0.03026,-0.06051 -0.128368,0.256735 -0.01953,0.03907 0,0.327295 0,0.385107 0,0.299527 0,0.599051 0,0.898578 0,0.128368 0,0.256738 0,0.385106 0,0.04279 -0.03026,0.09811 0,0.128368 0.06051,0.06051 0.196223,-0.06051 0.256736,0 0.06418,0.06419 -0.06418,0.320921 0,0.385106 0.06051,0.06051 0.196223,-0.06052 0.256738,0 0.03025,0.03025 0,0.08558 0,0.128368 0,0.08558 -0.03827,0.180192 0,0.256736 0.01913,0.03827 0.09811,-0.03025 0.128368,0 0.03026,0.03026 -0.01913,0.0901 0,0.128368 0.02706,0.05413 0.101306,0.07425 0.128368,0.12837 0.01953,0.03907 0,0.327293 0,0.385104 0,0.342315 0,0.684631 0,1.026949 0,0.03113 -0.0041,0.380976 0,0.385103 0.03026,0.03026 0.09811,-0.03025 0.128368,0 0.03026,0.03026 -0.03026,0.09811 0,0.128368 0.06051,0.06052 0.196223,-0.06051 0.256738,0 0.03026,0.03026 0,0.08558 0,0.128371 0,0.04279 0,0.08558 0,0.128368 0,0.03113 -0.0041,0.380976 0,0.385103 0.03026,0.03026 0.09811,-0.03025 0.128368,0 0.03025,0.03026 -0.03026,0.09811 0,0.128371 0.03025,0.03026 0.09811,-0.03026 0.128368,0 0.259424,0.259421 -0.243681,0.03681 0.09432,0.163806"
       id="path949"
       inkscape:connector-curvature="0" />
    <path
       style="fill:none;stroke:#000000;stroke-width:0.26458332px;stroke-linecap:butt;stroke-linejoin:miter;stroke-opacity:1"
       d="m 60.365727,96.652343 c -0.139227,-0.140179 -0.278456,-0.280355 -0.417682,-0.420534 -0.04279,0 -0.09811,0.03026 -0.128368,0 -0.03026,-0.03025 0.03026,-0.09811 0,-0.128368 -0.03026,-0.03026 -0.109233,0.03827 -0.128368,0 -0.01511,-0.03019 0,-0.429146 0,-0.513474 0,-0.256736 0,-0.513474 0,-0.77021 0,-0.05781 -0.01953,-0.346038 0,-0.385103 0.02706,-0.05413 0.101306,-0.07424 0.128368,-0.128371 0.03827,-0.07654 -0.06051,-0.196223 0,-0.256736 0.03026,-0.03026 0.0901,0.01913 0.128368,0 0.05413,-0.02706 0.08558,-0.08558 0.128368,-0.128368 0.04279,-0.04279 0.101306,-0.07424 0.12837,-0.128368 0.01913,-0.03827 -0.03026,-0.09811 0,-0.12837 0.03026,-0.03025 0.09811,0.03026 0.128368,0 0.0052,-0.0052 0,-0.466331 0,-0.513472 0,-0.770212 0,-1.540422 0,-2.310632 0,-0.1328 0.03025,-0.177425 -0.128368,-0.256736 -0.03827,-0.01913 -0.09811,0.03025 -0.12837,0 -0.03026,-0.03026 0.03026,-0.09811 0,-0.128368 -0.06051,-0.06052 -0.196223,0.06051 -0.256736,0 -0.06419,-0.06419 0.06419,-0.320921 0,-0.385106 -0.06051,-0.06051 -0.180192,0.03827 -0.256736,0 -0.05413,-0.02706 -0.07425,-0.101307 -0.12837,-0.128368 -0.03827,-0.01913 -0.109231,0.03827 -0.128368,0 -0.05741,-0.114816 0,-0.256739 0,-0.385107 0,-0.342315 0,-0.68463 0,-1.026945 0,-0.941369 0,-1.882738 0,-2.824107 0,-0.299525 0,-0.599051 0,-0.898578 0,-0.05781 0.01953,-0.346038 0,-0.385107 -0.267118,-0.534238 0.0089,0.137232 -0.256736,-0.128367 0,-0.342316 0.04279,0.04279 -0.128368,-0.128368 -0.06052,-0.06051 0.06051,-0.196223 0,-0.256736 -0.03026,-0.03026 -0.09811,0.03025 -0.128368,0 -0.06052,-0.06052 0.03827,-0.180195 0,-0.256739 -0.02706,-0.05412 -0.109233,-0.07096 -0.128371,-0.128367 -0.02299,-0.06901 0,-0.404792 0,-0.513475 0,-0.108683 -0.02299,-0.44446 0,-0.513471 0.133562,-0.40068 0.08558,0.04279 0.256739,-0.128371 0.03026,-0.03025 -0.01913,-0.0901 0,-0.128368 0.07702,-0.15404 0.308083,-0.231063 0.385104,-0.385103 0.01913,-0.03827 -0.03025,-0.09811 0,-0.128371 0.03026,-0.03025 0.0901,0.01913 0.128368,0 0.05412,-0.02706 0.07424,-0.101304 0.12837,-0.128368 0.03827,-0.01913 0.09811,0.03026 0.128368,0 0.03026,-0.03025 -0.03026,-0.09811 0,-0.128368 0.06051,-0.06051 0.196223,0.06051 0.256736,0 0.06051,-0.06051 -0.06051,-0.196223 0,-0.256736 0.06419,-0.06418 0.320921,0.06418 0.385106,0 0.03025,-0.03026 -0.03026,-0.09811 0,-0.12837 0.03025,-0.03026 0.09811,0.03026 0.128368,0 0.03026,-0.03026 -0.03026,-0.09811 0,-0.128368 0.06051,-0.06051 0.196223,0.06051 0.256736,0 0.03026,-0.03025 -0.03025,-0.09811 0,-0.128368 0.06052,-0.06051 0.196225,0.06051 0.256738,0 0.03026,-0.03026 0,-0.08558 0,-0.128368 0,-0.03113 0.0041,-0.380976 0,-0.385106 -0.03026,-0.03025 -0.09811,0.03026 -0.128368,0 -0.03026,-0.03025 0,-0.08558 0,-0.128368 0,-0.04279 0,-0.08558 0,-0.128368 0,-0.299527 0,-0.599054 0,-0.898578 0,-0.05781 -0.01953,-0.34604 0,-0.385106 0.02706,-0.05413 0.101304,-0.07425 0.128368,-0.128368 0.04433,-0.08867 -0.04506,-0.596784 0,-0.641842 0.265599,-0.265599 -0.01037,0.405871 0.256736,-0.128368 0.02545,-0.0509 -0.02625,-0.358862 0,-0.385106 0.03026,-0.03026 0.09811,0.03026 0.128368,0 0.06051,-0.06051 -0.06051,-0.196223 0,-0.256736 0.03026,-0.03026 0.09811,0.03025 0.12837,0 0.03089,-0.03089 -0.03089,-0.482584 0,-0.513474 0.265597,-0.2656 -0.01037,0.405871 0.256736,-0.128368 0.05135,-0.102696 -0.05135,-0.282411 0,-0.385107 0.02706,-0.05412 0.101306,-0.07424 0.128368,-0.128367 0.01913,-0.03827 -0.01913,-0.0901 0,-0.128368 0.02706,-0.05413 0.08558,-0.08558 0.128368,-0.128371 0.04279,-0.04279 0.07424,-0.101304 0.128371,-0.128368 0.03827,-0.01913 0.09811,0.03026 0.128367,0 0.02625,-0.02625 -0.02545,-0.334208 0,-0.385103 0.02706,-0.05413 0.101307,-0.07425 0.128368,-0.128368 0.01659,-0.03319 0,-0.679225 0,-0.770213 0,-0.599051 0,-1.198105 0,-1.797156 0,-0.427895 0,-0.855789 0,-1.283684 0,-0.120904 0.02434,-0.56882 0,-0.641842 -0.133559,-0.40068 -0.08558,0.04279 -0.256735,-0.128368 -0.03513,-0.03513 0.03482,-0.443836 0,-0.513474 -0.02707,-0.05413 -0.101307,-0.07425 -0.128371,-0.128368 -0.01913,-0.03827 0,-0.08558 0,-0.128371 0,-0.04279 0,-0.08558 0,-0.128368 0,-0.256735 0,-0.513474 0,-0.77021 0,-0.04279 0,-0.08558 0,-0.128368 0,-0.04279 0.01913,-0.09009 0,-0.128367 -0.02706,-0.05413 -0.101306,-0.07425 -0.128368,-0.128371 -0.01913,-0.03827 0.01913,-0.0901 0,-0.128368 -0.02706,-0.05412 -0.109233,-0.07096 -0.128368,-0.128368 -0.02706,-0.08119 0.03827,-0.180192 0,-0.256736 -0.01913,-0.03827 -0.09811,0.03026 -0.128368,0 -0.03513,-0.03513 0.03482,-0.443835 0,-0.513474 -0.02706,-0.05413 -0.101306,-0.07424 -0.128368,-0.128368 -0.01913,-0.03827 0.01913,-0.0901 0,-0.128368 -0.05412,-0.108251 -0.202612,-0.148489 -0.256738,-0.256738 -0.05135,-0.102695 0.05135,-0.282411 0,-0.385104 -0.02706,-0.05412 -0.101306,-0.07424 -0.128368,-0.12837 -0.01913,-0.03827 0.03026,-0.09811 0,-0.128368 -0.03026,-0.03026 -0.09811,0.03026 -0.128368,0 -0.06051,-0.06051 0.06051,-0.196223 0,-0.256736 -0.03026,-0.03026 -0.09811,0.03025 -0.128368,0 -0.03026,-0.03026 0.03025,-0.09811 0,-0.128368 -0.06052,-0.06052 -0.196225,0.06051 -0.256738,0 -0.06051,-0.06052 0.03827,-0.180194 0,-0.256738 -0.02706,-0.05412 -0.101306,-0.07424 -0.128368,-0.128368 -0.03827,-0.07654 0.02706,-0.175548 0,-0.256736 -0.04279,-0.08558 -0.08558,-0.171159 -0.128368,-0.256738 -0.04279,0 -0.09811,0.03026 -0.128368,0 -0.06052,-0.06051 0.06051,-0.196223 0,-0.256736 -0.06766,-0.06766 -0.203663,-0.04876 -0.256738,-0.128368 -0.04747,-0.07121 0,-0.171159 0,-0.256738 0,-0.256736 0,-0.513472 0,-0.77021 0,-0.941369 0,-1.882736 0,-2.824105 0,-0.06053 -0.0058,-0.636024 0,-0.641842 0.265599,-0.265599 -0.01037,0.405871 0.256738,-0.128368 0.01913,-0.03827 -0.03026,-0.09811 0,-0.128368 0.03026,-0.03026 0.08558,0 0.128368,0 0.156697,0 0.296013,0.04981 0.385104,-0.12837 0.01913,-0.03827 0,-0.08558 0,-0.128368 0,-0.04279 0,-0.08558 0,-0.128368 0,-0.213947 0,-0.427895 0,-0.641842 0,-0.04279 0,-0.08558 0,-0.128368 0,-0.04279 0.03827,-0.109233 0,-0.128368 -0.07654,-0.03827 -0.180192,0.03827 -0.256736,0 -0.03827,-0.01913 0.01913,-0.0901 0,-0.12837 -0.02706,-0.05412 -0.101306,-0.07424 -0.128368,-0.128368 -0.02545,-0.0509 0.02625,-0.358863 0,-0.385104 -0.03026,-0.03026 -0.09811,0.03025 -0.128368,0 -0.03026,-0.03026 0.01913,-0.0901 0,-0.12837 -0.02706,-0.05412 -0.101306,-0.07424 -0.12837,-0.128368 -0.01913,-0.03827 -0.0027,-0.08566 0,-0.128368 0.0074,-0.116758 0.02008,-0.233117 0.03014,-0.349676"
       id="path951"
       inkscape:connector-curvature="0" />
    <path
       style="fill:#000000;fill-opacity:1;stroke-width:0.48517194"
       d="m 150.84954,364.33644 c -0.33103,-0.53007 -0.60188,-1.41023 -0.60188,-1.95592 0,-0.54568 -0.32749,-1.11782 -0.72776,-1.27141 -0.54206,-0.20802 -0.72776,-1.07206 -0.72776,-3.38627 0,-2.95649 -1.29975,-7.00958 -2.48219,-7.74038 -0.65788,-0.40659 -0.50939,-5.18804 0.25188,-8.11076 0.37439,-1.43739 0.83671,-4.12255 1.02737,-5.96702 0.20379,-1.97152 0.67306,-3.72684 1.13868,-4.25928 0.84529,-0.96661 0.92188,-2.1934 1.15517,-18.50118 0.1162,-8.12321 -0.67317,-18.28894 -1.50252,-19.34965 -0.23325,-0.29832 -0.55421,-1.38821 -0.71326,-2.42197 -0.15904,-1.03376 -0.6502,-2.27851 -1.09146,-2.76609 -0.5185,-0.57294 -0.96392,-2.39655 -1.25922,-5.15543 -0.25712,-2.40209 -0.7306,-4.48106 -1.08273,-4.75407 -2.15929,-1.67406 -2.22668,-9.64059 -0.13132,-15.5255 0.66509,-1.86791 1.36209,-4.21734 1.54891,-5.22096 0.18681,-1.00361 0.53324,-1.94439 0.76983,-2.09061 0.2366,-0.14623 0.43018,-0.88123 0.43018,-1.63334 0,-0.75211 0.30118,-1.61743 0.66929,-1.92293 0.3681,-0.30551 0.79999,-1.20898 0.95973,-2.00773 0.15975,-0.79875 0.86904,-2.6753 1.57621,-4.17011 1.09428,-2.31313 1.24643,-3.1514 1.02173,-5.62934 -0.23629,-2.60588 -0.44653,-3.06195 -2.0029,-4.34484 -0.95639,-0.78834 -1.73889,-1.69642 -1.73889,-2.01795 0,-0.32154 -0.43666,-0.95849 -0.97035,-1.41545 -0.71905,-0.61568 -0.96961,-1.42886 -0.96753,-3.14015 0.005,-4.07468 0.86543,-8.06582 1.92677,-8.9369 0.5398,-0.44304 0.98145,-1.03107 0.98145,-1.30672 0,-0.80836 1.92642,-1.92461 2.88766,-1.67323 1.11896,0.29261 1.64547,-0.52288 1.06723,-1.65298 -0.2445,-0.47783 -0.63517,-1.51223 -0.86816,-2.29866 -0.54311,-1.83321 -2.51944,-2.9575 -6.48293,-3.68799 -1.73449,-0.31968 -3.6086,-0.79013 -4.16469,-1.04546 -0.57356,-0.26335 -4.98232,-0.39252 -10.18861,-0.29853 -8.93171,0.16126 -9.26851,0.20454 -12.57374,1.61567 -3.30515,1.41111 -3.59784,1.44872 -10.91637,1.40291 -10.295147,-0.0644 -12.827322,-0.59733 -15.161625,-3.19062 -1.000667,-1.1117 -1.819395,-2.28835 -1.819395,-2.61479 0,-0.67615 -1.076305,-1.18251 -2.513511,-1.18251 -0.538244,0 -1.666609,-0.30758 -2.50747,-0.68351 -2.263148,-1.01182 -4.02094,-1.35377 -8.212243,-1.59757 -3.126502,-0.18187 -4.128765,-0.0469 -5.853954,0.78824 -1.783147,0.8632 -2.994539,1.00767 -8.449584,1.00767 -3.502403,0 -6.482203,-0.18478 -6.621777,-0.41062 -0.139579,-0.22583 -2.936135,-0.54432 -6.214577,-0.70774 -4.58774,-0.22868 -6.575476,-0.55005 -8.629249,-1.39513 -2.131572,-0.8771 -3.595773,-1.09756 -7.277579,-1.09577 -6.630919,0.003 -14.345606,1.07479 -17.223604,2.39239 -1.334222,0.61083 -2.75335,1.25224 -3.153617,1.42535 -0.400267,0.17311 -1.164413,0.57909 -1.698102,0.90218 -0.533689,0.32309 -2.2257261,1.31303 -3.7600824,2.19986 -1.5343562,0.88683 -2.7897386,1.81472 -2.7897386,2.06198 0,0.24726 -0.5040896,0.44956 -1.1201991,0.44956 -1.2539192,0 -2.5171963,0.84259 -2.9096481,1.94069 C 1.008353,212.38614 0.87407433,196.17533 0.85300768,175.96185 L 0.81470462,139.21008 H 11.031057 c 9.986678,0 13.588666,-0.39636 15.740346,-1.73204 0.533689,-0.33129 2.280308,-0.85399 3.881375,-1.16156 1.601068,-0.30755 3.566014,-0.7516 4.366548,-0.98676 0.800534,-0.23516 2.328825,-0.56563 3.396203,-0.73438 1.067379,-0.16875 2.377343,-0.48343 2.911032,-0.6993 0.533689,-0.21586 2.565571,-0.89613 4.515292,-1.51169 1.949722,-0.61558 4.048255,-1.56946 4.663409,-2.11976 1.473001,-1.3177 2.523268,-1.99517 5.018764,-3.23736 1.13749,-0.56621 2.187432,-1.22245 2.333202,-1.4583 0.145765,-0.23586 0.58732,-0.42884 0.981226,-0.42884 0.393906,0 1.299135,-0.38195 2.011615,-0.84879 3.606215,-2.36288 7.739181,-2.66249 11.591063,-0.84026 2.28941,1.08307 6.800252,3.85068 7.456598,4.57497 0.492226,0.54319 2.432676,1.48063 3.064807,1.48063 0.358663,0 1.726173,0.54508 3.038908,1.21128 1.312734,0.66621 3.150939,1.33334 4.084895,1.4825 0.933956,0.14917 2.415075,0.58657 3.291373,0.972 0.876298,0.38542 2.415506,0.70077 3.420462,0.70077 1.004956,0 2.034602,0.20086 2.288105,0.44636 0.253502,0.24549 7.04529,0.67161 15.09287,0.94694 12.67699,0.4337 14.9134,0.62515 16.73843,1.4329 2.77983,1.23034 6.66127,2.02552 9.88703,2.02552 2.68606,0 7.98753,1.35434 7.98753,2.04053 0,0.74116 2.80319,0.39583 3.10171,-0.38211 0.53542,-1.39529 0.30717,-2.14359 -0.65386,-2.14359 -1.03754,0 -1.20485,-0.62094 -1.74348,-6.47052 -0.33801,-3.67082 -1.1368,-5.17333 -4.42707,-8.32723 -1.51396,-1.45122 -2.46231,-3.05717 -3.76008,-6.36739 -0.95452,-2.43468 -1.73548,-4.6659 -1.73548,-4.95825 0,-0.29236 -0.43666,-1.30898 -0.97035,-2.25917 -0.70349,-1.25251 -0.96981,-2.62419 -0.9684,-4.98777 0.002,-3.23069 0.0238,-3.28428 2.42392,-5.928601 1.33209,-1.467645 2.42285,-3.037632 2.42392,-3.488862 9.7e-4,-0.451229 0.20067,-0.943242 0.44357,-1.093359 0.98561,-0.609143 1.57063,-7.27688 1.416,-16.138905 -0.15042,-8.621379 -0.22185,-9.222507 -1.25117,-10.529807 -0.6004,-0.762545 -1.09163,-1.650657 -1.09163,-1.973578 0,-0.322926 -0.43666,-0.982298 -0.97035,-1.465282 -0.59532,-0.538755 -0.97034,-1.494315 -0.97034,-2.472422 0,-0.876851 -0.21833,-1.729206 -0.48517,-1.894126 -1.23701,-0.764509 -0.14259,-6.021813 1.26641,-6.083571 0.62086,-0.02721 3.58531,-4.173407 3.58531,-5.014555 0,-0.389248 0.21714,-0.7805 0.48254,-0.869448 0.2654,-0.08895 0.88618,-1.617845 1.37953,-3.397549 0.67728,-2.443255 1.33152,-3.645647 2.67107,-4.909007 0.97575,-0.92025 1.77409,-1.976957 1.77409,-2.348238 0,-0.371282 0.43666,-0.947753 0.97035,-1.281047 0.82709,-0.516531 0.97034,-1.131435 0.97034,-4.165327 V 28.25639 l -2.42515,-2.379909 c -2.29114,-2.248405 -2.42518,-2.518736 -2.42586,-4.892405 -4.5e-4,-1.587253 0.26729,-2.780499 0.72705,-3.240256 0.4323,-0.4323 0.72776,-1.618411 0.72776,-2.921578 0,-1.50215 0.24357,-2.330132 0.77256,-2.626168 0.61461,-0.343954 0.7386,-1.093046 0.60646,-3.6639157 -0.0914,-1.7773623 -0.002,-3.23111 0.19778,-3.2305502 0.20014,5.58e-4 0.36388,-0.4177805 0.36388,-0.929645 0,-2.6322527 -2.52892,-2.4684188 37.53144,-2.4314403 20.31835,0.018755 37.3457,0.1927827 37.83854,0.3867277 0.81367,0.320191 0.82483,0.4117752 0.1213,0.9956501 -1.10262,0.9150947 -0.96022,1.9368057 0.42142,3.0236048 1.60981,1.2662759 2.19405,3.6625546 2.19728,9.0122536 0.002,4.210143 -0.0677,4.522772 -1.17951,5.251273 -0.65022,0.42604 -1.31861,1.395596 -1.4853,2.154569 -0.30587,1.392567 -1.73956,3.400418 -2.42806,3.400418 -0.20495,0 -0.8889,0.557067 -1.5199,1.237927 -0.97062,1.047316 -1.14728,1.74207 -1.14728,4.512099 0,1.800795 -0.23344,3.507613 -0.51875,3.792929 -0.50331,0.503309 -0.42902,3.955451 0.30404,14.128517 0.23396,3.246881 0.46958,4.134275 1.22261,4.604547 1.23703,0.772539 1.18903,1.804641 -0.0839,1.804641 -1.09723,0 -3.18335,1.33316 -5.12608,3.275895 -1.3492,1.349205 -3.07544,6.181183 -3.07544,8.60859 0,0.863208 -0.43666,2.124588 -0.97035,2.803062 -0.85923,1.092335 -0.97118,1.974834 -0.97765,7.706888 -0.005,4.398452 -0.2314,7.095329 -0.70646,8.413983 -0.86916,2.41257 -0.94478,6.339547 -0.13528,7.025396 2.76212,2.340232 3.62837,2.919522 4.36654,2.920036 0.46698,3.25e-4 0.84905,0.228051 0.84905,0.506049 0,0.278004 0.45003,0.987568 1.00006,1.576809 2.74446,2.940123 3.87463,9.882653 2.03262,12.486233 -0.56954,0.805 -0.93946,2.53801 -1.1246,5.26854 -0.24788,3.65582 -0.17403,4.18067 0.72741,5.16941 1.6021,1.75724 2.21623,2.58122 2.21623,2.97353 0,0.20137 0.54628,0.81098 1.21394,1.3547 1.13114,0.92114 1.23562,1.38006 1.53168,6.72805 0.30071,5.43223 0.38309,5.78231 1.53878,6.53955 0.90512,0.59306 1.27249,0.64581 1.41979,0.20388 0.10931,-0.32791 0.99927,-0.59742 1.9777,-0.59891 2.24633,-0.003 5.41776,-0.8672 5.41776,-1.47561 0,-0.2543 0.29394,-0.46237 0.65321,-0.46237 0.83428,0 3.60615,-1.37474 3.97491,-1.97141 0.15447,-0.24995 0.62944,-0.45445 1.05549,-0.45445 0.42604,0 1.4502,-0.5062 2.27593,-1.12489 0.82572,-0.61869 2.81127,-1.86121 4.41234,-2.76114 1.60107,-0.89994 2.98381,-1.81287 3.07275,-2.02873 0.089,-0.21586 0.3953,-0.39247 0.68078,-0.39247 0.28547,0 1.90532,-0.65499 3.59965,-1.45552 1.69434,-0.80053 3.49849,-1.45551 4.00922,-1.45551 0.51074,0 1.00681,-0.23458 1.10238,-0.52128 0.0956,-0.2867 1.48462,-0.64013 3.08679,-0.78541 2.31907,-0.21029 3.04594,-0.10401 3.56487,0.52127 0.3911,0.47124 1.3882,0.78542 2.49269,0.78542 1.01246,0 1.91362,0.16374 2.00257,0.36387 0.089,0.20014 1.1442,1.0079 2.345,1.79503 3.13269,2.0535 4.36655,3.23096 4.36655,4.16696 0,0.60751 0.58293,0.89972 2.25099,1.12836 3.291,0.45107 5.89716,0.37729 6.23952,-0.17665 0.16491,-0.26684 0.80942,-0.48517 1.43224,-0.48517 0.62281,0 1.25805,-0.32749 1.41165,-0.72776 0.35124,-0.91532 3.22075,-0.99619 3.22075,-0.0908 0,0.78333 2.50436,3.24439 3.30146,3.24439 0.31896,0 0.57992,0.195 0.57992,0.43333 0,0.23833 3.32949,0.51456 7.39887,0.61383 l 7.39887,0.1805 3.35549,2.72421 c 3.56201,2.89189 5.24929,3.49773 11.30977,4.06095 3.389,0.31494 7.89524,1.52377 7.89524,2.11794 0,0.41497 6.16635,2.96888 7.1683,2.96888 0.32695,0 0.59445,0.21833 0.59445,0.48518 0,0.71638 4.72967,0.60149 5.19149,-0.1261 0.21339,-0.3362 1.15213,-0.97358 2.08609,-1.4164 4.60069,-2.18131 8.12361,-3.90625 9.22666,-4.51767 0.87909,-0.48727 4.2099,-0.77262 11.88671,-1.01834 6.87469,-0.22004 10.79208,-0.53163 11.02184,-0.87668 0.19605,-0.29443 0.35979,16.305 0.36388,36.88762 0.007,37.01806 -0.003,37.4257 -0.96292,37.6767 -0.53368,0.13956 -0.97034,0.51296 -0.97034,0.82976 0,0.31681 0.43666,0.69021 0.97034,0.82977 0.53369,0.13956 0.97035,0.53198 0.97035,0.87204 0,0.46546 -1.79168,0.66199 -7.24846,0.79508 -7.21421,0.17596 -7.25531,0.18336 -8.70003,1.5675 -1.83941,1.76226 -4.09508,2.19753 -11.46373,2.21211 -7.70247,0.0152 -11.92988,-0.643 -15.46064,-2.40734 -1.58856,-0.79382 -3.27719,-1.4433 -3.75251,-1.4433 -0.47532,0 -1.00747,-0.23179 -1.18256,-0.51509 -0.1751,-0.28331 -0.81571,-0.7042 -1.42358,-0.93531 -0.75473,-0.28695 -1.20878,-0.97212 -1.43172,-2.1605 -0.41502,-2.21228 -2.73095,-4.54594 -6.19173,-6.23914 -2.24099,-1.09641 -3.31836,-1.30891 -6.63621,-1.30891 -2.17849,0 -4.34001,0.19938 -4.80337,0.44305 -5.6796,2.98692 -7.1729,3.43833 -11.3743,3.43833 -2.31475,0 -4.34357,0.21832 -4.50849,0.48517 -0.17374,0.28112 -2.82282,0.48517 -6.29871,0.48517 h -5.99885 l -2.34173,-1.77438 c -1.28795,-0.97591 -2.49751,-2.01296 -2.68791,-2.30457 -0.22271,-0.34109 -2.73184,-0.53018 -7.035,-0.53018 h -6.68881 l -1.75942,1.6981 c -0.96769,0.93395 -1.9203,2.22086 -2.11691,2.85978 -0.3092,1.00479 -0.95665,1.83686 -3.40125,4.37111 -2.77161,2.87326 -3.99192,3.44297 -7.34163,3.42746 -2.15775,-0.01 -3.66407,-0.26648 -4.27393,-0.72776 -0.51798,-0.39178 -1.30694,-0.71233 -1.75324,-0.71233 -0.44629,0 -1.41134,-0.6004 -2.14454,-1.33422 -1.33198,-1.3331 -1.33903,-1.33422 -8.38072,-1.33422 -8.19543,0 -8.54355,0.17236 -7.39248,3.66014 0.3717,1.12624 0.95882,2.33072 1.30472,2.67662 0.34591,0.34591 0.62892,1.2462 0.62892,2.00066 0,1.05753 -0.33339,1.51931 -1.45551,2.01601 l -1.45552,0.64427 v 9.08612 c 0,8.1472 0.0921,9.18498 0.89138,10.0429 0.49026,0.52623 1.03792,1.5406 1.21701,2.25415 0.17909,0.71356 0.8696,1.88434 1.53447,2.60175 0.66488,0.71741 1.20886,1.5823 1.20886,1.92197 0,0.33968 0.30326,1.23569 0.67391,1.99114 1.30288,2.65545 1.87477,4.80599 2.29228,8.61984 0.23181,2.11756 0.65618,3.99517 0.94304,4.17246 0.34945,0.21596 0.47094,3.11281 0.36815,8.77789 -0.14355,7.91164 -0.22364,8.54471 -1.24505,9.84167 -0.6004,0.76237 -1.09164,1.79334 -1.09164,2.29104 0,0.49771 -0.21833,0.90492 -0.48517,0.90492 -0.26685,0 -0.48518,0.42638 -0.48518,0.94751 0,1.1168 -0.99713,3.52323 -1.65118,3.9849 -0.25189,0.17781 -0.52585,2.68858 -0.60879,5.57948 l -0.1508,5.25619 -1.70667,0.89715 c -0.93866,0.49343 -2.82067,1.89874 -4.18225,3.12292 l -2.47559,2.22577 0.19437,3.05258 c 0.13771,2.16275 0.50608,3.47418 1.26368,4.49889 1.02234,1.38278 1.06931,1.89334 1.06931,11.62188 0,9.74946 0.0407,10.18846 0.97035,10.48354 0.53368,0.16939 0.97034,0.60604 0.97034,0.97034 0,0.3643 0.43665,0.80096 0.97034,0.97035 0.88948,0.2823 0.97035,0.73407 0.97035,5.42084 0,4.74587 -0.0871,5.21633 -1.21293,6.55435 -1.06696,1.268 -1.21293,1.897 -1.21293,5.22645 0,3.37609 0.11793,3.86724 1.09163,4.54647 0.99601,0.69478 -2.22383,0.76371 -36.75635,0.78693 -37.25047,0.025 -37.8575,0.0102 -38.44988,-0.93831 z"
       id="path953"
       inkscape:connector-curvature="0"
       transform="scale(0.26458333)" />
    <path
       style="fill:#cd853f;fill-opacity:1;stroke-width:0.48517194"
       d="m 0.81470462,289.61338 c 0,-73.91749 0.0214542,-75.68682 0.91774738,-75.68682 0.5743022,0 1.0316715,-0.45391 1.2221733,-1.21293 0.2193523,-0.87397 0.6311188,-1.21293 1.4734572,-1.21293 0.6429671,0 1.5376746,-0.36865 1.9882392,-0.81921 0.8665219,-0.86652 2.755026,-2.03163 5.5573373,-3.42859 0.933956,-0.46558 1.770878,-1.01025 1.859826,-1.21039 0.08895,-0.20013 0.424857,-0.36388 0.746465,-0.36388 0.321608,0 1.449632,-0.46516 2.506722,-1.03369 1.978828,-1.06426 8.63733,-2.17621 15.991966,-2.6706 3.466034,-0.23299 4.18586,-0.12465 6.72678,1.01243 2.414262,1.08041 3.795419,1.31879 9.1152,1.57325 3.448383,0.16495 6.38364,0.48411 6.522787,0.70926 0.139147,0.22514 3.552409,0.40935 7.585032,0.40935 6.186971,0 7.472759,-0.12735 8.233106,-0.81545 1.105435,-1.00041 8.786279,-1.57474 9.328425,-0.69754 0.184453,0.29846 0.868307,0.54265 1.51967,0.54265 0.651363,0 1.184295,0.19317 1.184295,0.42927 0,0.2361 1.19067,0.57803 2.645939,0.75986 1.850649,0.23122 2.726724,0.57614 2.914704,1.14754 0.147822,0.44932 1.085844,1.71693 2.084488,2.8169 2.333405,2.57017 4.515553,3.06476 15.171606,3.43873 7.42259,0.26049 8.18908,0.20619 10.30576,-0.73012 4.49019,-1.98622 7.83049,-2.52529 15.64783,-2.52529 4.0988,0 7.56985,0.19011 7.71345,0.42247 0.14361,0.23236 1.30271,0.55986 2.57579,0.72777 4.63926,0.61191 5.95347,0.90522 5.95347,1.3287 0,0.23765 0.30203,0.43209 0.67117,0.43209 0.62373,0 1.24747,1.37785 1.2629,2.78974 0.004,0.33356 -0.40373,0.60647 -0.90528,0.60647 -0.50154,0 -1.6838,0.942 -2.62723,2.09333 -1.90479,2.32454 -2.76811,5.66044 -2.76811,10.69603 0,2.56345 0.21397,3.21837 1.80721,5.53169 0.99396,1.44319 2.18147,2.82428 2.63891,3.06909 1.39884,0.74864 1.68296,4.52927 0.51995,6.91872 -0.53925,1.10791 -1.26742,2.88769 -1.61815,3.95507 -0.35073,1.06738 -0.92,2.28537 -1.26504,2.70665 -0.34505,0.42128 -0.62736,1.33628 -0.62736,2.03334 0,0.69707 -0.18714,1.38305 -0.41586,1.52441 -0.22872,0.14136 -0.69806,1.62796 -1.04297,3.30354 -0.34491,1.67559 -0.80457,3.27737 -1.02147,3.5595 -0.87645,1.14006 -1.88581,6.45785 -1.87888,9.89887 0.008,3.85724 0.85537,7.60107 1.86169,8.22301 0.34239,0.21161 0.7192,1.91498 0.8777,3.96761 0.19399,2.51216 0.62641,4.20812 1.43394,5.62391 0.63591,1.11489 1.15619,2.6541 1.15619,3.42046 0,0.76636 0.23554,1.62891 0.5234,1.91678 0.85846,0.85846 1.62964,10.06482 1.51676,18.1072 -0.21882,15.59047 -0.29734,16.82614 -1.12967,17.77821 -0.44686,0.51114 -0.93121,2.26531 -1.11951,4.05453 -0.18254,1.73449 -0.64684,4.53171 -1.03178,6.21605 -0.80367,3.51657 -0.94493,10.27979 -0.21471,10.27979 0.26684,0 0.48517,0.3275 0.48517,0.72776 0,0.40027 0.16375,0.72946 0.36388,0.73154 0.82424,0.009 1.57681,2.82016 1.57681,5.8909 0,2.24017 0.20764,3.398 0.65698,3.66336 0.36135,0.21339 0.76773,0.98838 0.90307,1.72221 l 0.24608,1.33422 H 74.978732 0.81470462 Z"
       id="path955"
       inkscape:connector-curvature="0"
       transform="scale(0.26458333)" />
    <path
       style="fill:#cd853f;fill-opacity:1;stroke-width:0.48517194"
       d="m 1.2513594,290.0938 c 0,-74.606 0.00775,-75.21303 0.9703438,-76.03723 0.5336891,-0.45696 0.9703439,-1.10565 0.9703439,-1.44152 0,-0.33588 0.6004003,-0.75334 1.3342228,-0.92769 0.7338226,-0.17434 1.6617139,-0.59214 2.0619807,-0.92843 1.3313472,-1.11857 7.9737714,-4.87063 10.1886104,-5.75517 3.199178,-1.27766 8.732997,-2.23602 14.82702,-2.56777 4.741496,-0.25813 5.690043,-0.17096 8.148387,0.74883 3.368741,1.26041 10.298713,2.00932 21.715095,2.34671 6.14313,0.18155 8.850627,0.0891 9.631745,-0.32897 0.597605,-0.31982 2.475905,-0.77826 4.174006,-1.01874 2.675947,-0.37896 3.590816,-0.28116 6.864097,0.73375 2.077156,0.64405 4.322469,1.29153 4.98958,1.43885 0.667112,0.14732 1.751777,1.06596 2.410364,2.04143 2.714799,4.02104 6.322853,5.00094 18.515555,5.02855 5.92265,0.0134 6.9557,-0.11387 9.89125,-1.21881 4.37566,-1.647 12.00286,-2.36253 18.1856,-1.70605 5.85521,0.6217 10.05335,1.35245 11.80583,2.05498 2.06425,0.82752 2.9029,3.7959 1.07245,3.7959 -1.14898,0 -3.59686,3.30876 -4.36735,5.90328 -0.41172,1.38642 -0.74858,4.15405 -0.74858,6.15031 0,3.20014 0.17109,3.89618 1.44622,5.88328 0.79541,1.23955 1.99621,2.77043 2.66844,3.40196 1.81232,1.70258 1.65722,4.60023 -0.52084,9.73047 -0.95869,2.25812 -1.92873,4.76064 -2.15566,5.56118 -0.22692,0.80053 -0.98654,3.3113 -1.68804,5.57947 -2.45785,7.94704 -2.77044,9.72041 -2.53727,14.39416 0.15703,3.14743 0.50364,4.99176 1.18535,6.30723 0.52989,1.02251 1.11336,3.15182 1.2966,4.73179 0.18324,1.57998 0.76514,3.84921 1.29309,5.04275 0.52796,1.19353 1.4397,4.04905 2.02609,6.34558 0.98085,3.84142 1.0677,5.35954 1.08546,18.97327 0.0167,12.83774 -0.0863,14.99085 -0.77813,16.2557 -1.0421,1.90525 -2.83614,12.53688 -2.83614,16.8072 0,2.74586 0.21489,3.67052 1.19846,5.15678 0.87956,1.32911 1.28586,2.77869 1.52697,5.44779 0.18069,2.00023 0.62386,4.06744 0.98482,4.5938 0.36096,0.52635 0.6563,1.34507 0.6563,1.81939 0,0.82263 -3.40063,0.86239 -73.746137,0.86239 H 1.2513594 Z"
       id="path957"
       inkscape:connector-curvature="0"
       transform="scale(0.26458333)" />
    <path
       style="fill:#cd853f;fill-opacity:1;stroke-width:0.48517194"
       d="m 227.67484,363.93943 c -1.09867,-1.14676 -1.3037,-1.78948 -1.3037,-4.08674 0,-2.19985 0.23409,-3.00417 1.21293,-4.16745 1.14201,-1.3572 1.21293,-1.77222 1.21293,-7.09814 0,-5.44207 -0.0506,-5.72009 -1.33423,-7.32882 -0.73382,-0.91969 -1.60713,-1.67217 -1.94068,-1.67218 -0.46631,-10e-6 -0.60647,-2.40278 -0.60647,-10.39655 0,-8.05071 -0.14692,-10.54346 -0.65113,-11.04768 -1.12979,-1.12979 -1.77473,-2.69738 -1.77473,-4.31368 0,-1.9668 2.80655,-4.81568 6.8345,-6.93759 l 1.7402,-0.91673 -0.0421,-4.66275 c -0.0351,-3.88749 0.13941,-5.04504 1.04955,-6.96203 0.6004,-1.2646 1.09163,-2.61626 1.09163,-3.00369 0,-0.38743 0.21833,-0.83934 0.48517,-1.00426 0.26685,-0.16492 0.48518,-0.72363 0.48518,-1.24157 0,-0.51794 0.49123,-1.43248 1.09163,-2.03232 1.04437,-1.04338 1.09852,-1.49671 1.2505,-10.46852 0.13165,-7.77153 0.0278,-9.65419 -0.60646,-10.99072 -0.42093,-0.88704 -0.76533,-2.51459 -0.76533,-3.61677 0,-1.87534 -1.56961,-7.44237 -2.40309,-8.52317 -0.20578,-0.26685 -0.51335,-1.06875 -0.68349,-1.782 -0.17013,-0.71326 -0.85522,-1.94558 -1.52241,-2.73849 -0.66719,-0.7929 -1.21307,-1.76276 -1.21307,-2.15523 0,-0.39247 -0.44213,-1.27566 -0.9825,-1.96264 -0.90934,-1.15602 -0.97257,-1.83795 -0.84906,-9.15642 l 0.13346,-7.90738 1.33422,-0.63892 c 1.21533,-0.58198 1.33422,-0.87568 1.33422,-3.29611 0,-1.91439 -0.20344,-2.73527 -0.72776,-2.93647 -0.40026,-0.15359 -0.72775,-0.67967 -0.72775,-1.16906 0,-0.4894 -0.21833,-1.02474 -0.48518,-1.18966 -0.26684,-0.16492 -0.48517,-0.63181 -0.48517,-1.03753 0,-0.63066 0.92014,-0.71449 6.34225,-0.57783 5.43264,0.13692 6.41026,0.28161 6.81651,1.0089 0.26085,0.46697 0.79092,0.84905 1.17792,0.84905 0.38701,0 0.70365,0.21832 0.70365,0.48517 0,0.26684 0.51909,0.48517 1.15352,0.48517 0.63444,0 1.42532,0.32749 1.75751,0.72776 0.45713,0.5508 1.68077,0.72587 5.03242,0.72001 5.06626,-0.009 5.15823,-0.0582 10.63735,-5.70223 0.58776,-0.60546 1.28699,-1.73447 1.55384,-2.50892 0.26684,-0.77444 1.33392,-2.08027 2.37128,-2.90183 1.82994,-1.44926 2.03479,-1.49374 6.87904,-1.49374 3.38152,0 5.19985,0.19921 5.63406,0.61725 0.35262,0.3395 1.87892,1.43113 3.39179,2.42586 l 2.75066,1.80861 h 6.56026 c 3.85016,0 6.68413,-0.20043 6.86011,-0.48518 0.16492,-0.26684 2.21838,-0.48517 4.56323,-0.48517 4.0336,0 6.80358,-0.70695 7.55897,-1.92919 0.14013,-0.22673 1.12694,-0.55959 2.19292,-0.73968 1.06598,-0.1801 1.93814,-0.52659 1.93814,-0.76998 0,-0.24339 1.53555,-0.44252 3.41233,-0.44252 2.69265,0 3.92538,0.25997 5.84487,1.23265 1.33789,0.67796 2.5516,1.54296 2.69713,1.92222 0.14554,0.37926 0.64797,0.81123 1.11651,0.95994 0.92329,0.29304 1.96949,2.19942 1.96949,3.58878 0,0.47604 0.54582,1.15765 1.21293,1.51467 0.66712,0.35703 1.21293,0.81323 1.21293,1.01378 0,0.20055 0.70957,0.5194 1.57681,0.70856 0.86725,0.18915 2.75649,0.9721 4.19831,1.73988 3.12153,1.66223 8.03722,2.3499 16.84045,2.35586 7.62678,0.005 10.54794,-0.54795 12.03713,-2.27923 1.13209,-1.31613 1.22931,-1.33463 7.99044,-1.52031 l 6.8444,-0.18797 v 72.83085 72.83085 h -75.83864 -75.83863 z"
       id="path959"
       inkscape:connector-curvature="0"
       transform="scale(0.26458333)" />
    <path
       style="fill:#cd853f;fill-opacity:1;stroke-width:0.48517194"
       d="m 340.14395,146.40191 c -1.33422,-0.53765 -3.19,-1.40582 -4.12396,-1.92925 -3.33103,-1.86688 -4.99072,-2.40721 -8.8975,-2.89672 -7.5214,-0.94241 -8.83411,-1.37475 -12.05516,-3.9703 -1.65201,-1.3312 -3.78123,-2.60122 -4.7316,-2.82225 -0.95038,-0.22103 -4.28041,-0.40709 -7.40009,-0.41345 -3.24491,-0.007 -5.80045,-0.21919 -5.97199,-0.49675 -0.16492,-0.26685 -0.61446,-0.48517 -0.99898,-0.48517 -0.78671,0 -2.63981,-1.69093 -2.63981,-2.4088 0,-1.39771 -3.46604,-1.88118 -5.66145,-0.7897 -3.49191,1.73606 -4.04941,1.87387 -6.3227,1.56295 -1.28063,-0.17516 -2.41809,-0.58838 -2.52768,-0.91827 -0.26681,-0.8031 -2.79357,-3.15104 -5.4751,-5.08764 -1.60519,-1.15927 -2.70305,-1.57681 -4.14594,-1.57681 -1.36528,0 -2.05481,-0.24032 -2.26559,-0.7896 -0.25439,-0.66294 -0.90485,-0.75427 -4.05458,-0.56933 -2.06337,0.12115 -4.18823,0.45752 -4.72192,0.74749 -2.87851,1.56395 -7.4014,3.52247 -8.13462,3.52247 -0.46258,0 -0.84106,0.19505 -0.84106,0.43344 0,0.38585 -5.57211,3.79044 -9.46086,5.78063 -0.80053,0.4097 -1.56468,0.89499 -1.6981,1.07842 -0.13342,0.18343 -1.11589,0.6271 -2.18327,0.98593 -1.06738,0.35883 -2.18692,0.94065 -2.48786,1.29295 -0.53721,0.62886 -6.75551,1.64335 -7.22082,1.17804 -0.13054,-0.13054 -0.25577,-1.56551 -0.27829,-3.18881 -0.0777,-5.59997 -0.66394,-8.63999 -1.81341,-9.4032 -0.58117,-0.38589 -1.05668,-1.00933 -1.05668,-1.38542 0,-0.37609 -0.32749,-0.80948 -0.72776,-0.96307 -0.40026,-0.1536 -0.72775,-0.59026 -0.72775,-0.97035 0,-0.38009 -0.32749,-0.81675 -0.72776,-0.97034 -1.11621,-0.42833 -1.01947,-6.60709 0.12129,-7.74687 0.64873,-0.64818 0.88915,-1.86067 1.019,-5.13913 0.14445,-3.64718 0.0133,-4.59857 -0.87437,-6.34262 -2.3609,-4.638599 -3.00246,-5.447158 -5.11896,-6.451503 -3.61532,-1.715582 -4.28446,-3.389629 -2.89572,-7.244437 0.47904,-1.329691 0.70146,-4.040992 0.70646,-8.611801 0.004,-3.669113 0.19059,-6.671114 0.4146,-6.671114 0.60276,0 1.53339,-2.281323 1.53339,-3.758904 0,-0.708065 0.38208,-2.581396 0.84905,-4.162959 0.6764,-2.290837 1.32147,-3.300776 3.17225,-4.966594 1.27776,-1.150056 2.91521,-2.159292 3.63879,-2.242736 1.13232,-0.130589 1.33631,-0.400757 1.46428,-1.939388 0.11471,-1.379086 -0.0705,-1.904998 -0.81059,-2.301054 -1.00962,-0.540331 -1.00125,-0.484216 -1.79494,-12.043248 -0.21464,-3.126038 -0.14628,-4.48784 0.2253,-4.48784 0.34039,0 0.53344,-1.316853 0.53344,-3.63879 0,-2.991894 0.17251,-3.811295 0.97035,-4.609133 0.53369,-0.533689 1.14015,-0.970344 1.34769,-0.970344 0.63682,0 2.11125,-1.975832 2.66897,-3.57657 0.29083,-0.834755 1.05862,-1.934744 1.70619,-2.44442 1.15906,-0.912246 1.17449,-1.026473 0.99026,-7.330982 -0.17711,-6.0610706 -0.25701,-6.4958889 -1.49068,-8.1133192 -1.15186,-1.5101728 -1.23515,-1.856338 -0.71583,-2.9751365 l 0.5877,-1.2661143 75.80812,-0.00379 75.80811,-0.00379 -0.0152,68.045364 -0.0152,68.045363 -1.07639,0.77693 c -0.865,0.62435 -3.11597,0.84629 -11.462,1.13008 l -10.38562,0.35315 -3.96683,2.14483 c -2.18179,1.17966 -4.30426,2.14483 -4.71663,2.14483 -0.41237,0 -1.02156,0.32749 -1.35375,0.72776 -0.33219,0.40027 -1.02076,0.72776 -1.53015,0.72776 -0.50939,0 -1.05183,0.32749 -1.20543,0.72775 -0.36953,0.96299 -1.82856,0.86286 -4.78459,-0.32833 z"
       id="path961"
       inkscape:connector-curvature="0"
       transform="scale(0.26458333)" />
    <path
       style="fill:#cd853f;fill-opacity:1;stroke-width:0.48517194"
       d="m 146.80294,138.11527 c -0.93396,-0.24672 -3.55389,-0.62798 -5.82206,-0.84722 -5.41942,-0.52386 -7.09642,-0.87369 -9.61854,-2.00644 -1.82345,-0.81896 -3.92107,-1.00349 -16.01067,-1.40845 -7.65177,-0.25632 -14.78562,-0.67369 -15.852994,-0.92749 -1.067379,-0.25381 -2.59567,-0.55613 -3.396204,-0.67184 -0.800533,-0.1157 -2.110498,-0.43526 -2.911031,-0.71013 -0.800534,-0.27487 -2.328826,-0.75142 -3.396204,-1.059 -1.067378,-0.30758 -2.813997,-0.95848 -3.881375,-1.44645 -1.067379,-0.48798 -2.634469,-1.14798 -3.482424,-1.46668 -0.847949,-0.3187 -1.918845,-0.99616 -2.379758,-1.50547 -0.460919,-0.5093 -1.056491,-0.92601 -1.323506,-0.92601 -0.267009,0 -1.201077,-0.54582 -2.075706,-1.21293 -0.874629,-0.66711 -1.817847,-1.21293 -2.09605,-1.21293 -0.278197,0 -1.220658,-0.43584 -2.094351,-0.96853 -2.483318,-1.51408 -9.012879,-1.2047 -11.777146,0.55802 -0.266844,0.17016 -2.231791,1.23956 -4.366547,2.37644 -2.134757,1.13688 -3.954152,2.25128 -4.043098,2.47643 -0.08895,0.22515 -0.525606,0.41313 -0.970344,0.41775 -0.444743,0.004 -1.320206,0.54776 -1.945476,1.207 -0.625271,0.65924 -2.044399,1.45642 -3.153618,1.77151 -1.109219,0.31509 -2.224174,0.75441 -2.477676,0.97627 -0.253502,0.22186 -0.966029,0.40338 -1.583392,0.40338 -0.617363,0 -1.501589,0.19382 -1.964946,0.43071 -0.463357,0.2369 -2.589087,0.81157 -4.723843,1.27705 -5.298535,1.15535 -8.219399,1.94025 -11.598145,3.11671 -2.536342,0.88314 -4.025352,0.99759 -12.978349,0.99759 H 0.76618742 V 69.830493 1.9064224 H 74.940908 c 73.754362,0 74.176152,0.0055 74.428342,0.9698607 0.13949,0.5334233 0.0513,1.0948936 -0.19595,1.2477116 -0.25296,0.1563405 -0.31458,1.5954318 -0.14089,3.290688 0.25032,2.4432734 0.16048,3.1358263 -0.47523,3.6634143 -0.48398,0.401666 -0.7898,1.416766 -0.79933,2.653152 -0.008,1.101415 -0.33598,2.426375 -0.72775,2.944355 -0.47084,0.622497 -0.71144,2.102851 -0.70971,4.366548 l 0.002,3.424765 2.42325,2.338194 c 2.31941,2.237823 2.42343,2.450565 2.42343,4.955942 0,2.121197 -0.18406,2.716255 -0.97035,3.137061 -0.53369,0.285622 -0.97034,0.938977 -0.97034,1.451902 0,0.512924 -0.75208,1.532683 -1.67127,2.26613 -1.31974,1.053043 -1.84904,2.00137 -2.51636,4.508525 -0.4648,1.746241 -1.13185,3.349578 -1.48235,3.56297 -0.35049,0.213394 -0.63726,0.724329 -0.63726,1.135411 0,0.981986 -2.51197,4.51759 -3.21911,4.530893 -1.21283,0.0228 -2.11778,2.404109 -2.11778,5.572767 0,1.790343 0.21122,3.170686 0.48517,3.170686 0.26685,0 0.48518,0.557798 0.48518,1.239551 0,0.681754 0.92789,2.592119 2.06198,4.245255 l 2.06198,3.005703 v 10.431197 c 0,12.226478 -0.36534,13.788426 -4.19401,17.930945 l -2.35581,2.548931 v 4.29239 c 0,3.94292 0.61423,6.76391 1.47275,6.76391 0.30124,0 0.59579,0.92499 1.22935,3.86063 0.0839,0.38885 0.35745,1.153 0.60785,1.6981 0.25039,0.5451 0.81757,1.8644 1.26041,2.93178 0.44283,1.06738 1.94268,3.18749 3.33299,4.71136 1.39031,1.52387 2.80458,3.10163 3.14281,3.50612 0.447,0.53457 1.70502,9.95372 1.3703,10.25983 -0.0245,0.0224 -0.80872,-0.1611 -1.74268,-0.40783 z"
       id="path963"
       inkscape:connector-curvature="0"
       transform="scale(0.26458333)" />
  </g>
</svg>
