<?xml version="1.0" encoding="UTF-8" standalone="no"?>
<!-- Created with Inkscape (http://www.inkscape.org/) -->

<svg
   xmlns:dc="http://purl.org/dc/elements/1.1/"
   xmlns:cc="http://creativecommons.org/ns#"
   xmlns:rdf="http://www.w3.org/1999/02/22-rdf-syntax-ns#"
   xmlns:svg="http://www.w3.org/2000/svg"
   xmlns="http://www.w3.org/2000/svg"
   xmlns:sodipodi="http://sodipodi.sourceforge.net/DTD/sodipodi-0.dtd"
   xmlns:inkscape="http://www.inkscape.org/namespaces/inkscape"
   width="210mm"
   height="297mm"
   viewBox="0 0 210 297"
   version="1.1"
   id="svg8"
   inkscape:version="0.92.3 (2405546, 2018-03-11)"
   sodipodi:docname="schräge Straße.svg"
   inkscape:export-filename="C:\Users\Lill Kuhfahl\Desktop\grafiken\schräge Straße.png"
   inkscape:export-xdpi="96"
   inkscape:export-ydpi="96">
  <defs
     id="defs2" />
  <sodipodi:namedview
     id="base"
     pagecolor="#ffffff"
     bordercolor="#666666"
     borderopacity="1.0"
     inkscape:pageopacity="0.0"
     inkscape:pageshadow="2"
     inkscape:zoom="2.061125"
     inkscape:cx="235.17971"
     inkscape:cy="946.24247"
     inkscape:document-units="mm"
     inkscape:current-layer="layer1"
     showgrid="false"
     inkscape:window-width="1920"
     inkscape:window-height="1017"
     inkscape:window-x="-8"
     inkscape:window-y="-8"
     inkscape:window-maximized="1" />
  <metadata
     id="metadata5">
    <rdf:RDF>
      <cc:Work
         rdf:about="">
        <dc:format>image/svg+xml</dc:format>
        <dc:type
           rdf:resource="http://purl.org/dc/dcmitype/StillImage" />
        <dc:title></dc:title>
      </cc:Work>
    </rdf:RDF>
  </metadata>
  <g
     inkscape:label="Ebene 1"
     inkscape:groupmode="layer"
     id="layer1">
    <rect
       id="rect10"
       width="100.93643"
       height="96.57946"
       x="-0.022021398"
       y="-3.7630457e-007"
       style="fill:#cd853f;stroke:#0e0000;stroke-width:0.26458332;stroke-opacity:1;fill-opacity:1"
       inkscape:export-xdpi="96"
       inkscape:export-ydpi="96" />
    <path
       style="fill:none;stroke:#000000;stroke-width:0.26458332px;stroke-linecap:butt;stroke-linejoin:miter;stroke-opacity:1"
       d="m 40.17931,0.08387415 19.897103,-10e-9"
       id="path4559"
       inkscape:connector-curvature="0" />
    <path
       style="fill:none;stroke:#000000;stroke-width:0.26458332px;stroke-linecap:butt;stroke-linejoin:miter;stroke-opacity:1"
       d="M 0,37.053975 -0.25673681,56.565971"
       id="path4563"
       inkscape:connector-curvature="0" />
    <path
       style="fill:none;stroke:#000000;stroke-width:0.26458332px;stroke-linecap:butt;stroke-linejoin:miter;stroke-opacity:1"
       d="m 0,37.053975 c 0.29745194,-0.006 0.23748995,-0.63222 0.51347361,-0.77021 0.0382721,-0.01913 0.10923239,0.03827 0.12836843,0 0.0382721,-0.07654 0,-0.171159 0,-0.256736 0,-0.04279 -0.0302568,-0.09811 0,-0.128371 0.0302567,-0.03025 0.0981117,0.03026 0.12836839,0 0.0605134,-0.06051 -0.0382721,-0.180192 0,-0.256736 0.26711927,-0.534238 -0.008862,0.137232 0.25673687,-0.128367 0.030257,-0.03026 -0.0302568,-0.09811 0,-0.128368 0.060513,-0.06052 0.1801926,0.03827 0.2567367,0 0.054125,-0.02707 0.074244,-0.101307 0.1283685,-0.128371 0.076544,-0.03827 0.1962233,0.06052 0.2567368,0 0.030257,-0.03026 -0.030257,-0.09811 0,-0.128368 0.030257,-0.03025 0.090096,0.01913 0.1283684,0 0.054125,-0.02706 0.074243,-0.101306 0.1283684,-0.128368 0.038272,-0.01913 0.098112,0.03026 0.1283684,0 0.064184,-0.06418 -0.064184,-0.320921 0,-0.385106 0.030257,-0.03025 0.098112,0.03026 0.1283684,0 0.060513,-0.06051 -0.038272,-0.180192 0,-0.256736 0.2671193,-0.534238 -0.00886,0.137232 0.2567368,-0.128368 0.030257,-0.03026 -0.030257,-0.09811 0,-0.128368 0.060513,-0.06052 0.1801927,0.03827 0.2567369,0 0.4257442,-0.425746 -0.121027,0.06051 0.2567366,-0.12837 0.5342387,-0.267118 -0.1372304,0.0089 0.1283684,-0.256736 0.064184,-0.06418 0.3209211,0.06418 0.3851053,0 0.030257,-0.03026 -0.030257,-0.09811 0,-0.128368 0.064184,-0.06419 0.3209211,0.06419 0.3851053,0 0.030257,-0.03026 -0.030257,-0.09811 0,-0.128368 0.064184,-0.06419 0.320921,0.06418 0.3851052,0 0.030257,-0.03026 -0.030257,-0.09811 0,-0.128368 0.030257,-0.03026 0.098112,0.03026 0.1283685,0 0.030257,-0.03026 -0.030257,-0.09811 0,-0.12837 0.060513,-0.06051 0.1801926,0.03827 0.2567368,0 0.054125,-0.02706 0.074243,-0.101306 0.1283684,-0.128368 0.046422,-0.0232 0.5525567,0 0.6418419,0 0.042789,0 0.098112,0.03026 0.1283684,0 0.030257,-0.03025 -0.030257,-0.09811 0,-0.128368 0.087204,-0.0872 0.2552938,0.131255 0.3851053,-0.128368 0.019135,-0.03827 -0.038272,-0.109233 0,-0.128368 0.076544,-0.03827 0.1801926,0.03827 0.2567368,0 0.038272,-0.01913 -0.030257,-0.09811 0,-0.12837 0.2655988,-0.265597 -0.010382,0.405871 0.2567369,-0.128368 0.034819,-0.06964 -0.035124,-0.478348 0,-0.513474 0.060513,-0.06051 0.1962232,0.06051 0.2567368,0 0.060513,-0.06051 -0.060514,-0.196223 0,-0.256736 0.030257,-0.03026 0.098111,0.03026 0.1283682,0 0.060514,-0.06051 -0.060513,-0.196223 0,-0.256736 0.030257,-0.03026 0.098112,0.03026 0.1283684,0 0.060514,-0.06051 -0.060513,-0.196225 0,-0.256738 0.030257,-0.03026 0.098112,0.03026 0.1283684,0 0.060514,-0.06051 -0.038272,-0.180192 0,-0.256736 0.027063,-0.05413 0.1013061,-0.07425 0.1283685,-0.128368 0.019534,-0.03907 0,-0.327295 0,-0.385106 0,-0.299527 0,-0.599051 0,-0.898578 0,-0.08558 -0.038272,-0.180195 0,-0.256739 0.019135,-0.03827 0.098112,0.03026 0.1283684,0 0.060513,-0.06051 -0.060513,-0.196223 0,-0.256735 0.030257,-0.03026 0.098112,0.03026 0.1283684,0 0.030257,-0.03026 -0.019135,-0.0901 0,-0.128368 0.027062,-0.05413 0.085579,-0.08558 0.1283684,-0.128368 0.042789,-0.04279 0.074244,-0.101307 0.1283684,-0.128371 0.076544,-0.03827 0.1962235,0.06052 0.2567369,0 0.030257,-0.03025 -0.030257,-0.09811 0,-0.128368 0.060513,-0.06051 0.1801926,0.03827 0.2567368,0 0.054125,-0.02706 0.074243,-0.101306 0.1283685,-0.128368 0.038272,-0.01913 0.098111,0.03026 0.1283684,0 0.030257,-0.03026 -0.030257,-0.09811 0,-0.128367 0.064184,-0.06419 0.3209208,0.06418 0.385105,0 0.030257,-0.03026 -0.019135,-0.0901 0,-0.128368 0.054125,-0.108252 0.2026121,-0.148487 0.2567368,-0.256739 0.038272,-0.07654 -0.038272,-0.180192 0,-0.256736 0.1419149,-0.283829 0.079671,-0.03984 0.2567369,-0.128367 0.5342384,-0.267121 -0.1372304,0.0089 0.1283684,-0.256739 0.030257,-0.03026 0.098112,0.03026 0.1283684,0 0.030257,-0.03026 -0.030257,-0.09811 0,-0.128368 0.030257,-0.03026 0.090097,0.01913 0.1283685,0 0.054125,-0.02706 0.074243,-0.101306 0.1283684,-0.128368 0.038272,-0.01913 0.090096,0.01913 0.1283687,0 0.210205,-0.105103 0.103701,-0.372771 0.128368,-0.385106 0.03019,-0.01508 0.429146,0 0.513474,0 0.342315,0 -0.04279,0.04279 0.128368,-0.128368 0.06418,-0.06418 0.320921,0.06418 0.385105,0 0.03026,-0.03026 0,-0.08558 0,-0.128368 0.04279,0 0.09811,0.03026 0.128369,0 0.03026,-0.03026 -0.03026,-0.09811 0,-0.128369 0.02624,-0.02624 0.334208,0.02545 0.385105,0 0.05412,-0.02706 0.07424,-0.101306 0.128368,-0.128368 0.03827,-0.01914 0.0901,0.01913 0.128369,0 0.05413,-0.02706 0.07424,-0.101306 0.128368,-0.128368 0.0509,-0.02545 0.358862,0.02624 0.385105,0 0.03026,-0.03026 -0.03026,-0.09811 0,-0.128369 0.03089,-0.03089 0.482585,0.03089 0.513474,0 0.03026,-0.03026 -0.03026,-0.09811 0,-0.128368 0.06766,-0.06766 0.177126,-0.0753 0.256737,-0.128369 0.05035,-0.03357 0.08558,-0.08558 0.128368,-0.128368 0.04279,-0.04279 0.101306,-0.07424 0.128369,-0.128368 0.04049,-0.08098 -0.04049,-0.560859 0,-0.641842 0.267119,-0.534239 -0.0089,0.13723 0.256736,-0.128369 0.06051,-0.06051 -0.03827,-0.180192 0,-0.256737 0.05412,-0.108249 0.202612,-0.148487 0.256737,-0.256736 0.03979,-0.07958 -0.03939,-0.563057 0,-0.641843 0.01914,-0.03827 0.09811,0.03026 0.128369,0 0.06418,-0.06418 -0.06418,-0.32092 0,-0.385105 0.06051,-0.06051 0.180192,0.03827 0.256736,0 0.10825,-0.05412 0.148487,-0.202612 0.256737,-0.256736 0.03827,-0.01914 0.09811,0.03026 0.128369,0 0.03026,-0.03026 -0.03026,-0.09811 0,-0.128369 0.06051,-0.06051 0.196223,0.06051 0.256736,0 0.03026,-0.03026 -0.01913,-0.0901 0,-0.128368 0.26712,-0.534239 -0.0089,0.13723 0.256737,-0.128369 0.03026,-0.03026 -0.03026,-0.09811 0,-0.128368 0.342316,0 -0.04279,0.04279 0.128369,-0.128369 0.03026,-0.03026 0.09811,0.03026 0.128368,0 0.06051,-0.06051 -0.06051,-0.196223 0,-0.256736 0.06051,-0.06051 0.196223,0.06051 0.256737,0 0.06051,-0.06051 -0.06051,-0.196224 0,-0.256737 0.06418,-0.06418 0.320921,0.06418 0.385105,0 0.03026,-0.03026 -0.03026,-0.09811 0,-0.128369 0.342316,0 -0.04279,0.04279 0.128368,-0.128368 0.03026,-0.03026 0.09811,0.03026 0.128369,0 0.03026,-0.03026 -0.01914,-0.0901 0,-0.128368 0.02706,-0.05412 0.08558,-0.08558 0.128368,-0.128369 0.04279,-0.04279 0.07096,-0.109232 0.128369,-0.128368 5.82e-4,-1.94e-4 0.384982,1.22e-4 0.385105,0 0.03026,-0.03026 -0.01353,-0.08778 0,-0.128369 0.03026,-0.09077 0.06071,-0.18908 0.128368,-0.256736 0.06051,-0.06051 0.17555,0.02706 0.256737,0 0.09077,-0.03026 0.189081,-0.06071 0.256737,-0.128369 0.03026,-0.03026 -0.01914,-0.0901 0,-0.128368 0.01704,-0.03408 0.351022,-0.368064 0.385105,-0.385105 0.03827,-0.01914 0.09811,0.03026 0.128368,0 0.03026,-0.03026 -0.03026,-0.09811 0,-0.128369 0.03026,-0.03026 0.09811,0.03026 0.128369,0 0.03026,-0.03026 -0.01914,-0.0901 0,-0.128368 0.02706,-0.05412 0.101306,-0.07424 0.128368,-0.128369 0.01914,-0.03827 -0.03026,-0.09811 0,-0.128368 0.08523,-0.08523 0.171502,0.08524 0.256737,0 0.03026,-0.03026 -0.01914,-0.0901 0,-0.128368 0.02706,-0.05412 0.101306,-0.07424 0.128369,-0.128369 0.0037,-0.0074 0.02119,-0.599465 0,-0.641842 -0.08558,-0.171158 -0.274461,-0.09292 -0.128369,-0.385105 0.01914,-0.03827 0.09811,0.03026 0.128369,0 0.03026,-0.03026 -0.03026,-0.09811 0,-0.128369 0.03026,-0.03026 0.09811,0.03026 0.128368,0 0.03026,-0.03026 -0.01914,-0.0901 0,-0.128368 0.02706,-0.05412 0.08558,-0.08558 0.128368,-0.128368 0.04279,-0.04279 0.07424,-0.101306 0.128369,-0.128369 0.03827,-0.01914 0.09811,0.03026 0.128368,0 0.03026,-0.03026 -0.03026,-0.09811 0,-0.128368 0.03026,-0.03026 0.09811,0.03026 0.128369,0 0.03026,-0.03026 -0.01913,-0.0901 0,-0.128368 0.267119,-0.534239 -0.0089,0.13723 0.256737,-0.128369 0.03026,-0.03026 -0.03026,-0.09811 0,-0.128368 0.03026,-0.03026 0.09811,0.03026 0.128368,0 0.03026,-0.03026 -0.03026,-0.09811 0,-0.128369 0.03026,-0.03026 0.09811,0.03026 0.128368,0 0.03026,-0.03026 -0.03026,-0.09811 0,-0.128368 0.08581,-0.08581 0.170926,0.08581 0.256737,0 0.06051,-0.06051 -0.06051,-0.196224 0,-0.256737 0.03026,-0.03026 0.09811,0.03026 0.128368,0 0.03026,-0.03026 -0.03026,-0.09811 0,-0.128368 0.06051,-0.06051 0.196224,0.06051 0.256737,0 0.03026,-0.03026 -0.03026,-0.09811 0,-0.128369 0.0058,-0.0058 0.581317,0 0.641842,0 0.04279,0 0.08558,0 0.128369,0 0.04279,0 0.09811,0.03026 0.128368,0 0.03026,-0.03026 -0.03026,-0.09811 0,-0.128368 0.03026,-0.03026 0.08558,0 0.128369,0 0.04279,0 0.08558,0 0.128368,0 0.556263,0 1.112526,0 1.668789,0 0.03113,0 0.380977,0.0041 0.385105,0 0.171158,-0.171158 -0.213947,-0.128369 0.128369,-0.128369 0.05807,0 0.736,0.01711 0.77021,0 0.05412,-0.02706 0.07424,-0.101305 0.128369,-0.128368 0.0509,-0.02545 0.358862,0.02624 0.385105,0 0.03026,-0.03026 -0.01914,-0.0901 0,-0.128368 0.02706,-0.05413 0.101306,-0.07424 0.128368,-0.128369 0.01914,-0.03827 -0.01913,-0.0901 0,-0.128368 0.02706,-0.05412 0.101306,-0.07424 0.128369,-0.128368 0.01913,-0.03827 -0.01914,-0.0901 0,-0.128369 0.267119,-0.534239 -0.0089,0.13723 0.256736,-0.128368 0.03026,-0.03026 -0.03026,-0.09811 0,-0.128369 0.03026,-0.03026 0.09811,0.03026 0.128369,0 0.06051,-0.06051 -0.03827,-0.180192 0,-0.256737 0.02706,-0.05412 0.101306,-0.07424 0.128368,-0.128368 0.01914,-0.03827 -0.03026,-0.09811 0,-0.128368 0.03026,-0.03026 0.09811,0.03026 0.128369,0 0.03026,-0.03026 -0.03026,-0.09811 0,-0.128369 0.03026,-0.03026 0.09811,0.03026 0.128368,0 0.03026,-0.03026 -0.01913,-0.0901 0,-0.128368 0.05413,-0.10825 0.189604,-0.156036 0.256737,-0.256737 0.05307,-0.07961 0.09811,-0.165967 0.128368,-0.256737 0.01664,-0.04995 -0.01992,-0.365184 0,-0.385105 0.06051,-0.06051 0.196223,0.06051 0.256738,0 0.03026,-0.03026 -0.03026,-0.09811 0,-0.128368 0.06051,-0.06051 0.180192,0.03827 0.256736,0 0.05413,-0.02706 0.08558,-0.08558 0.128368,-0.128369 0.04279,-0.04279 0.101306,-0.07424 0.128368,-0.128368 0.01913,-0.03827 -0.03026,-0.09811 0,-0.128369 0.02625,-0.02624 0.334208,0.02545 0.385106,0 0.05413,-0.02706 0.07424,-0.101306 0.128368,-0.128368 0.07654,-0.03827 0.196223,0.06051 0.256738,0 0.03026,-0.03026 -0.01913,-0.0901 0,-0.128369 0.01704,-0.03408 0.351021,-0.368063 0.385104,-0.385105 0.03827,-0.01913 0.0901,0.01914 0.128368,0 0.05413,-0.02706 0.08558,-0.08558 0.128368,-0.128368 0.04279,-0.04279 0.101306,-0.07424 0.128371,-0.128369 0.01913,-0.03827 -0.03026,-0.09811 0,-0.128368 0.03026,-0.03026 0.09811,0.03026 0.128367,0 0.03026,-0.03026 0,-0.08558 0,-0.128368 0,-0.190713 -0.03125,-0.353857 0.128368,-0.513474 0.03026,-0.03026 0.09811,0.03026 0.128368,0 0.03026,-0.03026 -0.03025,-0.09811 0,-0.128368 0.06419,-0.06419 0.320921,0.06418 0.385107,0 0.03026,-0.03026 -0.03026,-0.09811 0,-0.128369 0.03026,-0.03026 0.09811,0.03026 0.128367,0 0.2656,-0.265599 -0.40587,0.01038 0.128368,-0.256737 0.07654,-0.03827 0.180195,0.03827 0.256739,0 0.15404,-0.07702 0.231063,-0.308084 0.385103,-0.385105 0.03827,-0.01914 0.0901,0.01914 0.128368,0 0.05413,-0.02706 0.07096,-0.109232 0.128371,-0.128368 0.584369,0 0.0073,0.06051 0.385104,-0.1283687 0.03827,-0.019135 0.09811,0.030257 0.128367,0 0.01323,-0.013224 -0.01066,-0.6098405 0,-0.6418419 0.01913,-0.057408 0.101307,-0.074244 0.128371,-0.1283684 0.0232,-0.046423 0,-0.5525566 0,-0.6418421 0,-0.060525 0.0058,-0.6360242 0,-0.6418419 -0.03026,-0.030257 -0.09811,0.030257 -0.128371,0 -0.06765,-0.067656 -0.07529,-0.1771261 -0.128367,-0.2567368 -0.03357,-0.05035 -0.101307,-0.074244 -0.128368,-0.1283685 -0.01913,-0.038272 0,-0.085579 0,-0.1283684 0,-0.042789 -0.03026,-0.098112 0,-0.1283684 0.03026,-0.030257 0.0901,0.019135 0.128368,0 0.05412,-0.027062 0.07424,-0.1013061 0.128367,-0.1283684 0.03827,-0.019135 0.09811,0.030257 0.128371,0 0.06051,-0.060513 -0.06052,-0.1962235 0,-0.2567369 0.06418,-0.064184 0.320921,0.064184 0.385104,0 0.03026,-0.030257 -0.03026,-0.098112 0,-0.1283684 0.03026,-0.030257 0.09811,0.030257 0.128368,0 0.06419,-0.064184 -0.06418,-0.3209211 0,-0.3851053 0.04506,-0.04506 0.553175,0.044334 0.641842,0 0.05413,-0.027062 0.07424,-0.1013058 0.128368,-0.1283684 0.03827,-0.019137 0.0901,0.019137 0.12837,0 0.05412,-0.027062 0.07424,-0.1013058 0.128368,-0.1283684 0.07654,-0.038272 0.196223,0.060514 0.256736,0 0.03026,-0.030257 -0.01913,-0.090096 0,-0.1283682 0.141914,-0.2838296 0.07967,-0.039836 0.256738,-0.1283684 0.534239,-0.2671194 -0.137231,0.00886 0.128368,-0.2567368 0.06051,-0.060513 0.196223,0.060513 0.256736,0 0.265599,-0.2655989 -0.405871,0.010382 0.128368,-0.2567369 0.07654,-0.038272 0.196225,0.060513 0.256738,0 0.06051,-0.060513 -0.06051,-0.1962235 0,-0.2567368 0.06051,-0.060513 0.180192,0.038272 0.256736,0 0.05413,-0.027062 0.07424,-0.1013061 0.128368,-0.1283685 0.03827,-0.019135 0.09811,0.030257 0.12837,0 0.03026,-0.030257 -0.03026,-0.098112 0,-0.1283684 0.03026,-0.030257 0.0901,0.019135 0.128368,0 0.06856,-0.03428 0.317524,-0.3175238 0.385104,-0.3851053 0.04279,-0.042789 0.08558,-0.085579 0.128371,-0.1283684 0.04279,-0.04279 0.101303,-0.074243 0.128367,-0.1283684 0.01913,-0.038272 -0.03026,-0.098111 0,-0.1283682 0.03026,-0.030257 0.09811,0.030257 0.128368,0 0.03026,-0.030257 -0.03026,-0.098112 0,-0.1283684 0.06051,-0.060514 0.180192,0.038272 0.256736,0 0.108252,-0.054125 0.141923,-0.2184649 0.256739,-0.2567368 0.08119,-0.027062 0.180191,0.038272 0.256735,0 0.03827,-0.019135 0,-0.085579 0,-0.1283685 0,-0.3010468 -0.03026,0.060513 0.128368,-0.2567368 0.01913,-0.038272 -0.03026,-0.098112 0,-0.1283684 0.06052,-0.060513 0.180195,0.038272 0.256739,0 0.534238,-0.2671194 -0.137232,0.00886 0.128368,-0.2567369 0.03026,-0.030257 0.09811,0.030257 0.128367,0 0.03026,-0.030257 0,-0.085579 0,-0.1283684 0.04279,0 0.09811,0.030257 0.128368,0 0.06419,-0.064184 -0.06418,-0.320921 0,-0.3851052 0.06051,-0.060513 0.196223,0.060513 0.256739,0 0.03025,-0.030257 -0.03026,-0.098112 0,-0.1283684 0.03025,-0.030257 0.0901,0.019136 0.128368,0 0.05412,-0.027062 0.07424,-0.1013059 0.128368,-0.1283684 0.07654,-0.038272 0.196223,0.060514 0.256735,0 0.03026,-0.030257 -0.03025,-0.098112 0,-0.1283684 0.04612,-0.046112 0.430427,0.041524 0.513475,0 0.03827,-0.019136 -0.03026,-0.098112 0,-0.1283684 0.04506,-0.04506 0.553175,0.044334 0.641842,0 0.05413,-0.027062 0.07424,-0.1013059 0.128368,-0.1283684 0.07654,-0.038272 0.196223,0.060513 0.256738,0 0.03025,-0.030257 -0.03026,-0.098112 0,-0.1283684 0.06051,-0.060513 0.180192,0.038272 0.256736,0 0.534239,-0.2671193 -0.137229,0.00886 0.128368,-0.2567368 0.03026,-0.030257 0.09811,0.030257 0.128368,0 0.03026,-0.030257 -0.03026,-0.098112 0,-0.1283684 0.08404,-0.084044 0.29913,0.1295582 0.385106,-0.1283684 0.02365,-0.07099 0,-0.6409367 0,-0.77021045 0,-0.1283684 0,-0.2567368 0,-0.38510521 0,-0.04278947 0.04059,-0.14189958 0,-0.1283684 -0.146362,0.0487875 -0.256738,0.17115787 -0.385106,0.25673681"
       id="path4569"
       inkscape:connector-curvature="0" />
    <path
       style="fill:none;stroke:#000000;stroke-width:0.26458332px;stroke-linecap:butt;stroke-linejoin:miter;stroke-opacity:1"
       d="M -0.25673681,56.565971 C 0,56.394812 0.25673681,56.223656 0.51347361,56.0525 c 0,-0.04279 -0.0382721,-0.109234 0,-0.128368 0.0765441,-0.03827 0.18553084,0.04747 0.25673682,0 0.0796107,-0.05308 0.0607123,-0.189082 0.1283684,-0.256739 0.0676561,-0.06766 0.18908077,-0.06071 0.25673687,-0.128368 0.030257,-0.03026 -0.030257,-0.09811 0,-0.128367 0.030257,-0.03026 0.090096,0.01913 0.1283683,0 0.2052526,-0.102627 0.051484,-0.154112 0.2567369,-0.256739 0.076544,-0.03827 0.1962233,0.06052 0.2567368,0 0.067656,-0.06765 0.060712,-0.189079 0.1283684,-0.256736 0.030257,-0.03026 0.090096,0.01913 0.1283684,0 0.2069949,-0.103497 0.049742,-0.153238 0.2567368,-0.256735 0.038272,-0.01913 0.090096,0.01913 0.1283684,0 0.054125,-0.02707 0.074243,-0.101307 0.1283684,-0.128371 0.069638,-0.03482 0.4783493,0.03513 0.5134735,0 0.030257,-0.03025 -0.030257,-0.09811 0,-0.128368 0.060514,-0.06051 0.1962235,0.06051 0.2567369,0 0.030257,-0.03026 -0.019137,-0.0901 0,-0.128368 0.2671193,-0.534238 -0.00886,0.137232 0.2567368,-0.128368 0.030257,-0.03026 -0.030257,-0.09811 0,-0.128368 0.026244,-0.02625 0.3342082,0.02545 0.3851053,0 0.054125,-0.02706 0.074243,-0.101306 0.1283684,-0.12837 0.076544,-0.03827 0.1962232,0.06052 0.2567369,0 0.030257,-0.03026 -0.019135,-0.0901 0,-0.128368 0.2671191,-0.534239 -0.00886,0.137231 0.2567368,-0.128368 0.030257,-0.03026 -0.030257,-0.09811 0,-0.128368 0.060513,-0.06051 0.1962232,0.06051 0.2567366,0 0.030257,-0.03026 -0.030257,-0.09811 0,-0.128368 0.030257,-0.03026 0.098112,0.03025 0.1283684,0 0.030257,-0.03026 -0.030257,-0.09811 0,-0.12837 0.030257,-0.03025 0.098112,0.03026 0.1283684,0 0.030257,-0.03025 -0.030257,-0.09811 0,-0.128368 0.2655988,-0.265599 -0.010382,0.405871 0.2567369,-0.128368 0.038272,-0.07654 -0.038272,-0.180192 0,-0.256736 0.027062,-0.05413 0.101306,-0.07424 0.1283684,-0.128368 0.019135,-0.03827 -0.019135,-0.0901 0,-0.12837 0.027062,-0.05412 0.1092324,-0.07096 0.1283684,-0.128368 0.027062,-0.08119 0,-0.171156 0,-0.256736 0,-0.04279 -0.019135,-0.0901 0,-0.128368 0.2671194,-0.534239 -0.00886,0.137229 0.2567369,-0.12837 0.060513,-0.06051 -0.060513,-0.196223 0,-0.256736 0.030257,-0.03026 0.1092324,0.03827 0.1283684,0 0.038272,-0.07654 -0.027062,-0.175549 0,-0.256736 0.019137,-0.05741 0.1013061,-0.07424 0.1283684,-0.12837 0.019135,-0.03827 0,-0.08558 0,-0.128368 0,-0.04279 0,-0.08558 0,-0.128368 0,-0.213948 0,-0.427895 0,-0.641842 0,-0.04279 0,-0.08558 0,-0.128368 0,-0.04279 -0.030257,-0.09811 0,-0.128368 0.030257,-0.03026 0.098112,0.03025 0.1283685,0 0.030257,-0.03026 -0.013531,-0.08778 0,-0.128371 0.030257,-0.09077 0.075295,-0.177125 0.1283684,-0.256735 0.4257442,-0.425744 -0.060514,0.121028 0.1283684,-0.256736 0.027062,-0.05413 0.1013058,-0.07425 0.1283684,-0.128371 0.039756,-0.07951 -0.037982,-0.47549 0,-0.513471 0.2655986,-0.2656 -0.010382,0.405868 0.2567366,-0.128368 0.025448,-0.0509 -0.026244,-0.358863 0,-0.385107 0.067656,-0.06766 0.1890808,-0.06071 0.2567369,-0.128368 0.030257,-0.03026 -0.030257,-0.09811 0,-0.128367 0.060513,-0.06052 0.1801926,0.03827 0.2567368,0 0.054125,-0.02707 0.085579,-0.08558 0.1283684,-0.128371 0.042789,-0.04279 0.1013061,-0.07424 0.1283684,-0.128368 0.019135,-0.03827 -0.030257,-0.09811 0,-0.128368 0.060513,-0.06051 0.1962235,0.06051 0.2567369,0 0.030257,-0.03026 -0.030257,-0.09811 0,-0.128368 0.030257,-0.03026 0.085579,0 0.1283684,0 0.1050692,0 0.7326503,0.01879 0.7702103,0 0.038272,-0.01913 -0.030257,-0.09811 0,-0.128368 0.030257,-0.03026 0.098112,0.03026 0.1283684,0 0.030257,-0.03026 -0.030257,-0.09811 0,-0.12837 0.030257,-0.03026 0.098112,0.03026 0.1283684,0 0.030257,-0.03026 -0.030257,-0.09811 0,-0.128368 0.060513,-0.06051 0.1962235,0.06051 0.2567369,0 0.030257,-0.03026 -0.030257,-0.09811 0,-0.128368 0.060513,-0.06051 0.1801926,0.03827 0.2567368,0 0.054125,-0.02706 0.074243,-0.101306 0.1283685,-0.128368 0.076544,-0.03827 0.1962234,0.06051 0.2567371,0 0.265599,-0.265599 -0.4058706,0.01037 0.128368,-0.256738 0.03827,-0.01913 0.0901,0.01913 0.128369,0 0.05412,-0.02706 0.07424,-0.101304 0.128368,-0.128368 0.03827,-0.01913 0.09811,0.03026 0.128368,0 0.03026,-0.03025 -0.03026,-0.09811 0,-0.128368 0.03026,-0.03026 0.09811,0.03026 0.128369,0 0.03026,-0.03026 -0.03026,-0.09811 0,-0.128368 0.06418,-0.06419 0.320921,0.06418 0.385105,0 0.03026,-0.03026 -0.03026,-0.09811 0,-0.128368 0.03026,-0.03026 0.0901,0.01913 0.128368,0 0.10825,-0.05413 0.148487,-0.202612 0.256737,-0.256738 0.03827,-0.01913 0.09811,0.03026 0.128369,0 0.06051,-0.06051 -0.06051,-0.196223 0,-0.256736 0.06051,-0.06051 0.180192,0.03827 0.256736,0 0.534239,-0.267121 -0.13723,0.0089 0.128369,-0.256738 0.03026,-0.03026 0.0901,0.01913 0.128368,0 0.02457,-0.01228 0.501187,-0.4889 0.513474,-0.513472 0.02545,-0.0509 -0.02624,-0.358862 0,-0.385106 0.03026,-0.03025 0.08558,0 0.128368,0 0,-0.04279 -0.03026,-0.09811 0,-0.128368 0.03026,-0.03026 0.09811,0.03026 0.128368,0 0.02624,-0.02625 -0.02545,-0.334209 0,-0.385107 0.02706,-0.05412 0.101307,-0.07424 0.128369,-0.128367 0.01914,-0.03827 -0.01914,-0.0901 0,-0.128368 0.02706,-0.05413 0.101306,-0.07424 0.128368,-0.128368 0.01914,-0.03827 -0.01914,-0.0901 0,-0.128368 0.26712,-0.534239 -0.0089,0.137229 0.256737,-0.128371 0.06051,-0.06051 -0.03827,-0.180191 0,-0.256735 0.26712,-0.534239 -0.0089,0.137231 0.256737,-0.128368 0.03026,-0.03026 0,-0.08558 0,-0.128368 0.04279,0 0.0901,0.01913 0.128368,0 0.02457,-0.01228 0.501188,-0.488903 0.513474,-0.513474 0.01913,-0.03827 -0.03026,-0.09811 0,-0.128368 0.06051,-0.06052 0.196223,0.06051 0.256737,0 0.03026,-0.03026 -0.03026,-0.09811 0,-0.128371 0.03026,-0.03025 0.09811,0.03026 0.128368,0 0.03026,-0.03025 -0.01914,-0.0901 0,-0.128368 0.02706,-0.05412 0.08558,-0.08558 0.128369,-0.128368 0.04279,-0.04279 0.07424,-0.101306 0.128368,-0.128368 0.03827,-0.01913 0.09811,0.03026 0.128368,0 0.03026,-0.03026 -0.03026,-0.09811 0,-0.128367 0.03026,-0.03026 0.09811,0.03026 0.128369,0 0.06051,-0.06052 -0.03827,-0.180195 0,-0.256739 0.02706,-0.05412 0.101306,-0.07424 0.128368,-0.128368 0.01914,-0.03827 -0.01914,-0.0901 0,-0.128368 0.02706,-0.05412 0.101306,-0.07424 0.128369,-0.128368 0.03827,-0.07654 -0.06051,-0.196223 0,-0.256738 0.03026,-0.03025 0.109232,0.03827 0.128368,0 0.03827,-0.07654 -0.03827,-0.180192 0,-0.256736 0.03827,-0.07654 0.196223,0.06051 0.256737,0 0.03026,-0.03026 0,-0.08558 0,-0.128368 0.04279,0 0.0901,0.01913 0.128368,0 0.10825,-0.05413 0.148487,-0.202612 0.256737,-0.256738 0.03827,-0.01913 0.0901,0.01913 0.128368,0 0.05413,-0.02706 0.07424,-0.101304 0.128369,-0.128368 0.177066,-0.08853 0.114822,0.155461 0.256737,-0.128368 0.01913,-0.03827 -0.03026,-0.09811 0,-0.128368 0.06051,-0.06051 0.196223,0.06051 0.256737,0 0.03026,-0.03026 -0.03026,-0.09811 0,-0.128368 0.06051,-0.06052 0.180192,0.03827 0.256736,0 0.534239,-0.26712 -0.13723,0.0089 0.128369,-0.256738 0.08581,-0.08581 0.170926,0.08581 0.256737,0 0.06051,-0.06051 -0.06051,-0.196223 0,-0.256736 0.06418,-0.06418 0.320921,0.06418 0.385105,0 0.03026,-0.03026 -0.03026,-0.09811 0,-0.128368 0.08581,-0.08581 0.170926,0.08581 0.256736,0 0.06051,-0.06052 -0.03827,-0.180194 0,-0.256738 0.05123,-0.102452 0.205511,-0.154281 0.256737,-0.256736 0.01914,-0.03827 -0.03026,-0.09811 0,-0.128368 0.03026,-0.03026 0.09811,0.03026 0.128369,0 0.03026,-0.03026 -0.01914,-0.0901 0,-0.12837 0.267119,-0.534237 -0.0089,0.137231 0.256737,-0.128368 0.03026,-0.03025 -0.03026,-0.09811 0,-0.128368 0.03026,-0.03026 0.09811,0.03026 0.128368,0 0.06051,-0.06051 -0.06051,-0.196223 0,-0.256736 0.03026,-0.03026 0.09811,0.03025 0.128368,0 0.03026,-0.03026 -0.01913,-0.0901 0,-0.128368 0.05123,-0.102455 0.20551,-0.154284 0.256737,-0.256738 0.01914,-0.03827 -0.01914,-0.0901 0,-0.128368 0.02706,-0.05413 0.08558,-0.08558 0.128369,-0.128368 0.04279,-0.04279 0.07424,-0.101306 0.128368,-0.128368 0.03827,-0.01913 0.09811,0.03025 0.128369,0 0.03026,-0.03026 -0.01914,-0.0901 0,-0.128371 0.02706,-0.05412 0.101305,-0.07424 0.128368,-0.128368 0.01913,-0.03827 -0.01914,-0.09009 0,-0.128367 0.01229,-0.02458 0.488901,-0.501187 0.513473,-0.513475 0.0509,-0.02545 0.358862,0.02625 0.385106,0 0.03026,-0.03026 -0.03026,-0.09811 0,-0.128368 0.03026,-0.03026 0.09811,0.03026 0.128368,0 0.03026,-0.03026 -0.03026,-0.09811 0,-0.128367 0.03026,-0.03026 0.0901,0.01913 0.128369,0 0.05412,-0.02706 0.07424,-0.101307 0.128368,-0.128368 0.03827,-0.01913 0.09811,0.03025 0.128368,0 0.03026,-0.03026 -0.03026,-0.09811 0,-0.128371 0.06051,-0.06051 0.180193,0.03827 0.256737,0 0.05412,-0.02706 0.07096,-0.10923 0.128369,-0.128368 0.08119,-0.02706 0.171158,0 0.256736,0 0.04279,0 0.0901,0.01913 0.128369,0 0.06842,-0.03421 0.188319,-0.222528 0.256736,-0.256736 0.07654,-0.03827 0.196224,0.06051 0.256737,0 0.03026,-0.03026 -0.03026,-0.09811 0,-0.128367 0.03026,-0.03026 0.09811,0.03026 0.128369,0 0.265599,-0.2656 -0.40587,0.01037 0.128368,-0.256739 0.342316,0 -0.04279,0.04279 0.128369,-0.128368 0.03026,-0.03026 0.09811,0.03026 0.128368,0 0.03026,-0.03026 -0.03026,-0.09811 0,-0.128368 0.03026,-0.03026 0.09811,0.03026 0.128368,0 0.03026,-0.03026 -0.03026,-0.09811 0,-0.128368 0.06051,-0.06052 0.180193,0.03827 0.256737,0 0.05412,-0.02706 0.08558,-0.08558 0.128369,-0.12837 0.04279,-0.04279 0.101306,-0.07424 0.128368,-0.128368 0.01913,-0.03827 -0.03026,-0.09811 0,-0.128368 0.03026,-0.03026 0.0901,0.01913 0.128368,0 0.534239,-0.267118 -0.13723,0.0089 0.128369,-0.256736 0.03026,-0.03026 0.09811,0.03026 0.128368,0 0.03026,-0.03026 -0.03026,-0.09811 0,-0.128368 0.03026,-0.03026 0.09811,0.03026 0.128369,0 0.03026,-0.03026 -0.03026,-0.09811 0,-0.12837 0.03026,-0.03026 0.0901,0.01913 0.128368,0 0.05412,-0.02706 0.07424,-0.101306 0.128368,-0.128368 0.03827,-0.01913 0.0901,0.01913 0.128369,0 0.534238,-0.267118 -0.137231,0.0089 0.128368,-0.256736 0.06051,-0.06051 0.196224,0.06051 0.256737,0 0.06051,-0.06051 -0.03827,-0.180194 0,-0.256738 0.02706,-0.05412 0.101306,-0.07424 0.128369,-0.128368 0.03827,-0.07654 -0.06051,-0.196223 0,-0.256736 0.03026,-0.03026 0.09811,0.03026 0.128368,0 0.03512,-0.03513 -0.03482,-0.443836 0,-0.513474 0.267119,-0.534239 -0.0089,0.137231 0.256737,-0.128368 0.03026,-0.03026 -0.01914,-0.0901 0,-0.128368 0.02706,-0.05413 0.101306,-0.07425 0.128368,-0.12837 0.01914,-0.03827 -0.03026,-0.09811 0,-0.128368 0.03026,-0.03026 0.09811,0.03026 0.128368,0 0.03026,-0.03026 -0.01914,-0.0901 0,-0.128368 0.02706,-0.05413 0.101306,-0.07425 0.128369,-0.128368 0.02545,-0.0509 -0.02624,-0.358862 0,-0.385106 0.342316,0 -0.04279,0.04279 0.128368,-0.128368 0.08523,-0.08524 0.171502,0.08524 0.256737,0 0.03026,-0.03026 -0.03026,-0.09811 0,-0.128368 0.06051,-0.06051 0.196224,0.06051 0.256737,0 0.03026,-0.03026 -0.01913,-0.0901 0,-0.128368 0.02706,-0.05413 0.0948,-0.07802 0.128368,-0.128371 0.05308,-0.07961 0.06071,-0.189079 0.128368,-0.256735 0.02625,-0.02625 0.334208,0.02545 0.385106,0 0.05413,-0.02706 0.07425,-0.101307 0.128368,-0.128368 0.03827,-0.01913 0.09811,0.03026 0.128368,0 0.03026,-0.03026 -0.03827,-0.109234 0,-0.128368 0.08068,-0.04034 0.432792,0.04034 0.513474,0 0.534239,-0.267121 -0.137229,0.0089 0.128368,-0.256739 0.06051,-0.06051 0.180194,0.03827 0.256738,0 0.05412,-0.02706 0.08558,-0.08558 0.128368,-0.128368 0.04279,-0.04279 0.101307,-0.07424 0.128368,-0.128367 0.01913,-0.03827 -0.03026,-0.09811 0,-0.128368 0.06051,-0.06051 0.180192,0.03827 0.256736,0 0.534239,-0.267121 -0.137229,0.0089 0.128371,-0.256739 0.03026,-0.03025 0.09009,0.01913 0.128367,0 0.03408,-0.01704 0.368065,-0.35102 0.385104,-0.385103 0.04034,-0.08068 -0.04034,-0.432793 0,-0.513475 0.01913,-0.03827 0.09811,0.03026 0.128371,0 0.02625,-0.02625 -0.02545,-0.334208 0,-0.385106 0.02706,-0.05412 0.101306,-0.07424 0.128368,-0.128368 0.03482,-0.06964 -0.03513,-0.478348 0,-0.513474 0.03026,-0.03026 0.0901,0.01913 0.128367,0 0.108249,-0.05412 0.148487,-0.202611 0.256736,-0.256736 0.177067,-0.08853 0.114824,0.155461 0.256739,-0.128368 0.01913,-0.03827 -0.01913,-0.0901 0,-0.128369 0.05412,-0.108249 0.202612,-0.148487 0.256735,-0.256736 0.03827,-0.07654 -0.06051,-0.196224 0,-0.256737 0.06051,-0.06051 0.180195,0.03827 0.256739,0 0.05412,-0.02706 0.07424,-0.101306 0.128368,-0.128369 0.08068,-0.04034 0.432789,0.04034 0.513474,0 0.03827,-0.01913 -0.03026,-0.09811 0,-0.128368 0.02625,-0.02624 0.334206,0.02545 0.385104,0 0.534238,-0.267119 -0.137229,0.0089 0.128368,-0.256737 0.06052,-0.06051 0.180194,0.03827 0.256738,0 0.108249,-0.05412 0.148487,-0.202612 0.256736,-0.256736 0.08867,-0.04434 0.596783,0.04506 0.641842,0 0.03026,-0.03026 -0.01913,-0.0901 0,-0.128369 0.267121,-0.534239 -0.0089,0.13723 0.256736,-0.128368 0.03026,-0.03026 0,-0.08558 0,-0.128369 0.04279,0 0.09811,0.03026 0.12837,0 0.03026,-0.03026 -0.03026,-0.09811 0,-0.128368 0.06418,-0.06418 0.320921,0.06418 0.385104,0 0.265599,-0.265599 -0.405871,0.01038 0.128368,-0.256737 0.04091,-0.02045 0.527119,0 0.641842,0 0.04279,0 0.09811,0.03026 0.12837,0 0.03026,-0.03026 -0.03026,-0.09811 0,-0.128368 0.03026,-0.03026 0.08777,0.01353 0.128368,0 0.09077,-0.03026 0.165966,-0.09811 0.256736,-0.128369 0.0406,-0.01353 0.09811,0.03026 0.128368,0 0.03026,-0.03026 -0.03025,-0.09811 0,-0.128368 0.03026,-0.03026 0.08558,0 0.128371,0 0.06052,0 0.636024,0.0058 0.641842,0 0.03026,-0.03026 -0.03026,-0.09811 0,-0.128369 0.03512,-0.03512 0.443833,0.03482 0.513471,0 0.05413,-0.02706 0.07424,-0.101306 0.128368,-0.128368 0.102696,-0.05135 0.282411,0.05135 0.385106,0 0.534239,-0.267119 -0.137231,0.0089 0.128368,-0.256737 0.03026,-0.03026 0.09811,0.03026 0.128368,0 0.03026,-0.03026 -0.03025,-0.09811 0,-0.128368 0.03026,-0.03026 0.0901,0.01914 0.128371,0 0.05412,-0.02706 0.07424,-0.101306 0.128368,-0.128369 0.03827,-0.01914 0.09811,0.03026 0.128368,0 0.06051,-0.06051 -0.06051,-0.196223 0,-0.256736 0.03026,-0.03026 0.09811,0.03026 0.128368,0 0.03026,-0.03026 -0.03026,-0.09811 0,-0.128369 0.03026,-0.03026 0.09811,0.03026 0.128367,0 0.06052,-0.06051 -0.06051,-0.196223 0,-0.256737 0.2656,-0.265598 -0.01037,0.40587 0.256739,-0.128368 0.03827,-0.07654 -0.06051,-0.196224 0,-0.256737 0.03025,-0.03026 0.09811,0.03026 0.128368,0 0.265599,-0.265599 -0.405871,0.01038 0.128368,-0.256737 0.03827,-0.01914 0.09811,0.03026 0.128368,0 0.0041,-0.0041 0,-0.353972 0,-0.385105 0,-0.213947 0,-0.427895 0,-0.641842 0,-0.04279 -0.03026,-0.09811 0,-0.128368 0.03026,-0.03026 0.09811,0.03026 0.12837,0 0.06051,-0.06051 -0.06052,-0.196224 0,-0.256737 0.02625,-0.02624 0.334206,0.02545 0.385104,0 0.05413,-0.02706 0.07424,-0.101306 0.128368,-0.128369 0.03827,-0.01914 0.09811,0.03026 0.12837,0 0.03026,-0.03026 -0.03026,-0.09811 0,-0.128368 0.06051,-0.06051 0.196223,0.06051 0.256736,0 0.03026,-0.03026 -0.03026,-0.09811 0,-0.128368 0.03026,-0.03026 0.09811,0.03026 0.128368,0 0.06051,-0.06051 -0.06051,-0.196224 0,-0.256737 0.03512,-0.03513 0.443836,0.03482 0.513474,0 0.05413,-0.02706 0.101306,-0.07424 0.128368,-0.128369 0.01913,-0.03827 -0.03827,-0.109232 0,-0.128368 0.102695,-0.05135 0.282411,0.05135 0.385106,0 0.05412,-0.02706 0.07424,-0.101306 0.128368,-0.128368 0.08098,-0.04049 0.560859,0.04049 0.641842,0 0.05412,-0.02706 0.07424,-0.101306 0.128368,-0.128369 0.07654,-0.03827 0.196223,0.06051 0.256736,0 0.03026,-0.03026 -0.03025,-0.09811 0,-0.128368 0.03026,-0.03026 0.0901,0.01913 0.128371,0 0.05412,-0.02706 0.07424,-0.101306 0.128367,-0.128369 0.03827,-0.01914 0.0901,0.01913 0.128368,0 0.05413,-0.02706 0.07424,-0.101306 0.128368,-0.128368 0.03827,-0.01913 0.09811,0.03026 0.128368,0 0.265599,-0.265599 -0.405868,0.01038 0.128371,-0.256737 0.03827,-0.01914 0.08558,0 0.128368,0 0.08558,-0.04279 0.177125,-0.07529 0.256735,-0.128368 0.255376,-0.17025 0.03806,-0.2948 0.128368,-0.385106 0.03026,-0.03026 0.09811,0.03026 0.128371,0 0.03025,-0.03026 -0.03026,-0.09811 0,-0.128368 0.03025,-0.03026 0.0901,0.01914 0.128368,0 0.05412,-0.02706 0.08558,-0.08558 0.128368,-0.128368 0.04279,-0.04279 0.101306,-0.07424 0.128367,-0.128369 0.01913,-0.03827 -0.03026,-0.09811 0,-0.128368 0.03026,-0.03026 0.09811,0.03026 0.128368,0 0.03026,-0.03026 0,-0.08558 0,-0.128368 0,-0.04279 0,-0.08558 0,-0.128369 0,-0.299526 0,-0.599052 0,-0.898579 0,-0.05781 -0.01953,-0.346038 0,-0.385105 0.02707,-0.05413 0.101307,-0.07424 0.128368,-0.128368 0.01913,-0.03827 -0.03025,-0.09811 0,-0.128369 0.03026,-0.03026 0.09811,0.03026 0.128371,0 0.03025,-0.03026 -0.01913,-0.0901 0,-0.128368 0.05412,-0.10825 0.20261,-0.148487 0.256736,-0.256737 0.02545,-0.0509 -0.02625,-0.358862 0,-0.385105 0.03026,-0.03026 0.09009,0.01914 0.128367,0 0.259623,-0.129812 0.04116,-0.297901 0.128368,-0.385105 0.03026,-0.03026 0.09811,0.03026 0.128371,0 0.03026,-0.03026 -0.03026,-0.09811 0,-0.128369 0.03026,-0.03026 0.09811,0.03026 0.128368,0 0.03026,-0.03026 -0.03026,-0.09811 0,-0.128368 0.03026,-0.03026 0.09811,0.03026 0.128368,0 0.06419,-0.06419 -0.06419,-0.320921 0,-0.385106 0.03026,-0.03026 0.09811,0.03026 0.128368,0 0.06051,-0.06051 -0.03827,-0.180192 0,-0.256736 0.26712,-0.534239 -0.0089,0.13723 0.256738,-0.128369 0.03025,-0.03026 -0.01913,-0.0901 0,-0.128368 0.03428,-0.06856 0.317524,-0.317524 0.385104,-0.385105 0.04279,-0.04279 0.08558,-0.08558 0.128368,-0.128369 0.04279,-0.04279 0.07424,-0.101306 0.12837,-0.128368 0.07654,-0.03827 0.196223,0.06051 0.256736,0 0.06051,-0.06051 -0.06051,-0.196224 0,-0.256737 0.0041,-0.0041 0.353973,0 0.385106,0 0.04279,0 0.08558,0 0.128368,0 0.04279,0 0.09811,0.03026 0.128368,0 0.03026,-0.03026 -0.03026,-0.09811 0,-0.128368 0.03026,-0.03026 0.08558,0 0.128368,0 0.04279,0 0.08558,0 0.128368,0 0.06713,0 0.479721,0.01688 0.513474,0 0.05413,-0.02706 0.08558,-0.08558 0.128368,-0.128369 0.04279,-0.04279 0.101306,-0.07424 0.128368,-0.128368 0.01913,-0.03827 -0.01913,-0.0901 0,-0.128369 0.02706,-0.05412 0.101306,-0.07424 0.12837,-0.128368 0.01913,-0.03827 0,-0.08558 0,-0.128368 0,-0.04279 0,-0.08558 0,-0.128369 0,-0.213947 0,-0.427894 0,-0.641842 0,-0.06713 0.01688,-0.47972 0,-0.513473 -0.05219,-0.104378 -0.203631,-0.106214 -0.12837,-0.256737 0.05413,-0.1082498 0.202612,-0.1484874 0.256738,-0.2567369 0.01913,-0.038272 -0.03026,-0.098112 0,-0.1283684 0.03026,-0.030257 0.09811,0.030257 0.128368,0 0.03026,-0.030257 -0.03026,-0.098112 0,-0.1283685 0.03026,-0.030257 0.09811,0.030257 0.128368,0 0.03026,-0.030257 -0.03026,-0.098112 0,-0.1283684 0.03026,-0.030257 0.0901,0.019135 0.128368,0 0.05413,-0.027062 0.07425,-0.101306 0.12837,-0.1283684 0.03827,-0.019135 0.09811,0.030257 0.128368,0 0.03025,-0.030257 -0.03026,-0.098112 0,-0.1283684 0.03025,-0.030257 0.09811,0.030257 0.128368,0 0.03026,-0.030257 -0.03026,-0.098112 0,-0.1283684 0.06051,-0.060513 0.196223,0.060513 0.256736,0 0.06052,-0.060513 -0.06051,-0.1962235 0,-0.2567369 0.03026,-0.030257 0.09811,0.030257 0.128371,0 0.03025,-0.030257 -0.03026,-0.098112 0,-0.1283684 0.03025,-0.030257 0.0901,0.019135 0.128367,0 0.05412,-0.027062 0.08558,-0.085579 0.128368,-0.1283684 0.04279,-0.042789 0.101307,-0.074243 0.128368,-0.1283685 0.01913,-0.038272 -0.03025,-0.098112 0,-0.1283684 0.03026,-0.030257 0.0901,0.019137 0.128368,0 0.534239,-0.2671191 -0.137229,0.00886 0.128371,-0.2567368 0.06051,-0.060513 0.180192,0.038272 0.256736,0 0.534238,-0.2671191 -0.137232,0.00886 0.128367,-0.2567366 0.03026,-0.030257 0.09811,0.030257 0.128368,0 0.06052,-0.060514 -0.06051,-0.1962235 0,-0.2567369 0.03026,-0.030257 0.0901,0.019137 0.128371,0 0.205078,-0.10254 0.05165,-0.154197 0.256736,-0.2567368 0.03827,-0.019137 0.09811,0.030257 0.128368,0 0.03026,-0.030257 -0.03026,-0.098112 0,-0.1283684 0.06051,-0.060513 0.180191,0.038272 0.256738,0 0.05412,-0.027062 0.08558,-0.085579 0.128368,-0.1283685 0.04279,-0.042789 0.101306,-0.074243 0.128368,-0.1283684 0.01913,-0.038272 -0.03026,-0.098112 0,-0.1283684 0.03026,-0.030257 0.0901,0.019135 0.128368,0 0.05412,-0.027062 0.07424,-0.1013061 0.128368,-0.1283684 0.03827,-0.019135 0.08558,0 0.128367,0 0.04279,-0.042789 0.07425,-0.1013058 0.128371,-0.1283685 0.04592,-0.02296 0.365276,0.039659 0.385104,0 0.03827,-0.076544 -0.06051,-0.1962232 0,-0.2567368 0.06051,-0.060513 0.180194,0.038272 0.256738,0 0.03827,-0.019137 -0.03026,-0.098111 0,-0.1283684 0.03025,-0.030257 0.09811,0.030257 0.128368,0 0.265599,-0.2655988 -0.405871,0.010382 0.128368,-0.2567366 0.03827,-0.019137 0.0901,0.019135 0.128368,0 0.05413,-0.027063 0.07424,-0.101306 0.128368,-0.1283684 0.03827,-0.019137 0.09811,0.030257 0.12837,0 0.03025,-0.030257 -0.03026,-0.098112 0,-0.1283684 0.03025,-0.030257 0.0901,0.019135 0.128368,0 0.05412,-0.027062 0.07424,-0.1013061 0.128368,-0.1283685 0.03827,-0.019135 0.09811,0.030257 0.128368,0 0.03026,-0.030257 -0.03025,-0.098112 0,-0.1283684 0.06419,-0.064184 0.320921,0.064184 0.385106,0 0.03026,-0.030257 -0.03026,-0.098112 0,-0.1283684 0.03026,-0.030257 0.0901,0.019135 0.128368,0 0.05413,-0.027062 0.08558,-0.085579 0.128368,-0.1283684 0.04279,-0.042789 0.101306,-0.074243 0.128368,-0.1283685 0.03827,-0.076544 -0.07654,-0.2184646 0,-0.2567368 0.07654,-0.038272 0.180194,0.038272 0.256738,0 0.03827,-0.019137 -0.03026,-0.098112 0,-0.1283684 0.03025,-0.030257 0.09811,0.030257 0.128368,0 0.03026,-0.030257 -0.03026,-0.098112 0,-0.1283685 0.03026,-0.030257 0.0901,0.019137 0.128368,0 0.05413,-0.027062 0.07424,-0.1013057 0.128368,-0.1283684 0.03827,-0.019135 0.09811,0.030257 0.128368,0 0.03026,-0.030257 -0.03026,-0.098112 0,-0.1283684 0.06051,-0.060513 0.196225,0.060514 0.256738,0 0.03025,-0.030257 -0.01913,-0.090096 0,-0.1283682 0.02706,-0.054125 0.08558,-0.085579 0.128368,-0.1283684 0.04279,-0.04279 0.07425,-0.101306 0.128368,-0.1283684 0.03827,-0.019135 0.09811,0.030257 0.128368,0 0.265599,-0.2655988 -0.405868,0.010382 0.128371,-0.2567369 0.07654,-0.038272 0.196222,0.060513 0.256735,0 0.03026,-0.030257 -0.01913,-0.090096 0,-0.1283684 0.02706,-0.054125 0.08558,-0.085579 0.128368,-0.1283684 0.04279,-0.04279 0.08558,-0.085579 0.128368,-0.1283684 0.04279,0 0.09811,0.030257 0.128371,0 0.03026,-0.030257 -0.01913,-0.090097 0,-0.1283685 0.02706,-0.054125 0.101303,-0.074243 0.128368,-0.1283684 0.01913,-0.038272 -0.03026,-0.098112 0,-0.1283684 0.03025,-0.030257 0.09009,0.019135 0.128367,0 0.05413,-0.027062 0.07425,-0.1013058 0.128368,-0.1283684 0.03827,-0.019136 0.09811,0.030257 0.128368,0 0.03026,-0.030257 -0.03026,-0.098112 0,-0.1283683 0.06052,-0.060513 0.196226,0.060513 0.256739,0 0.03026,-0.030257 -0.03026,-0.098112 0,-0.1283685 0.06051,-0.060513 0.196223,0.060513 0.256735,0 0.03026,-0.030257 -0.03026,-0.098112 0,-0.1283684 0.03026,-0.030257 0.09811,0.030257 0.128368,0 0.03026,-0.030257 -0.03025,-0.098112 0,-0.1283684 0.03026,-0.030257 0.09811,0.030257 0.128371,0 0.03026,-0.030257 -0.03026,-0.098112 0,-0.1283684 0.0872,-0.087204 0.255294,0.1312543 0.385104,-0.1283684 0.01913,-0.038272 -0.03026,-0.098112 0,-0.1283684 0.06051,-0.060513 0.180191,0.038272 0.256738,0 0.205251,-0.1026262 0.05148,-0.1541105 0.256736,-0.2567368 0.03827,-0.019136 0.09811,0.030257 0.128368,0 0.03026,-0.030257 -0.03026,-0.098112 0,-0.1283684 0.06051,-0.060513 0.196223,0.060513 0.256736,0 0.265599,-0.2655988 -0.405869,0.010382 0.12837,-0.2567368 0.03827,-0.019136 0.09811,0.030257 0.128368,0 0.03026,-0.030257 -0.03827,-0.1092324 0,-0.12836841 0.07654,-0.0382721 0.180192,0.038272 0.256736,0 0.07654,-0.0382721 -0.06051,-0.19622336 0,-0.25673682 0.03026,-0.0302567 0.09811,0.0302567 0.128368,0 0.03026,-0.0302567 -0.04279,-0.1283684 0,-0.1283684 0.04279,0 0,0.17115787 0,0.1283684 0,-0.21394735 2e-6,-0.42789469 0,-0.64184203"
       id="path4571"
       inkscape:connector-curvature="0" />
    <path
       style="fill:#000000;fill-opacity:1;stroke:#0e0000;stroke-width:0.48517194;stroke-opacity:1"
       d="m 0.64759534,176.19815 c 0,-31.21228 0.089981,-35.56385 0.76329276,-36.91353 0.419811,-0.84153 0.9482822,-1.53006 1.1743804,-1.53006 0.2260982,0 0.5473676,-0.62048 0.7139321,-1.37884 0.2333372,-1.06238 0.8470212,-1.62478 2.6738345,-2.4504 1.8000694,-0.81353 2.4418009,-1.39395 2.6650625,-2.41045 0.2212801,-1.00748 0.9200374,-1.64971 2.8228994,-2.5945 1.390854,-0.69058 3.074645,-1.41641 3.741756,-1.61295 0.667112,-0.19654 1.643582,-0.65543 2.169935,-1.01975 0.526353,-0.36432 1.62189,-0.66241 2.434527,-0.66241 1.888418,0 5.098977,-2.14942 5.098977,-3.41369 0,-0.52407 0.191442,-0.95286 0.425426,-0.95286 0.844801,0 2.485606,-4.7993 2.485606,-7.27032 0,-3.51149 0.88482,-4.91851 3.801621,-6.04526 1.542973,-0.59604 2.677917,-1.40035 3.080749,-2.18327 0.350787,-0.68177 1.181301,-1.67623 1.845585,-2.20992 0.664285,-0.53369 1.592177,-1.35242 2.061981,-1.8194 0.469805,-0.46697 1.195671,-0.84905 1.613036,-0.84905 0.417365,0 1.891075,-0.51714 3.274911,-1.14919 1.383835,-0.632057 3.2501,-1.309765 4.147256,-1.506012 2.279959,-0.498728 3.948285,-2.078845 3.948285,-3.739526 0,-0.752409 0.165032,-1.36802 0.366737,-1.36802 0.453708,0 1.390774,-2.168796 1.793608,-4.151218 0.198988,-0.979247 0.830692,-1.788785 1.860222,-2.383907 0.8574,-0.495622 2.368895,-1.73874 3.358869,-2.762482 0.989979,-1.023741 1.97842,-1.861347 2.196529,-1.861347 0.218109,0 0.985559,-0.671231 1.705442,-1.491622 0.719884,-0.820392 1.532649,-1.353329 1.80614,-1.184295 0.273496,0.169029 0.497267,-0.03304 0.497267,-0.449066 0,-0.416015 0.341707,-0.756393 0.759348,-0.756393 0.417636,0 1.945927,-1.225122 3.396203,-2.722498 2.381491,-2.458837 2.636856,-2.929527 2.636856,-4.860288 0,-1.794787 0.262692,-2.389418 1.637223,-3.706034 2.611729,-2.501677 5.221964,-4.720975 5.565829,-4.732236 3.11067,-0.101833 14.300904,-0.994263 15.441946,-1.231512 1.071332,-0.222747 1.712395,-0.736345 2.106403,-1.687564 0.311509,-0.75205 0.873882,-1.485363 1.24972,-1.629586 0.375834,-0.144222 0.683336,-0.489291 0.683336,-0.766819 0,-0.277533 0.654982,-1.408779 1.455514,-2.513884 0.80054,-1.105105 1.46476,-2.249432 1.47605,-2.542951 0.0224,-0.582774 2.7413,-2.450211 4.27699,-2.937623 1.6466,-0.522611 4.92074,-3.84702 4.92074,-4.996292 0,-0.740053 0.37733,-1.16648 1.21913,-1.377758 0.67052,-0.16829 1.38009,-0.554522 1.57681,-0.858295 0.47039,-0.726352 1.88942,-1.62137 4.05873,-2.559936 1.56212,-0.675863 1.79432,-1.009446 2.06198,-2.962217 0.5145,-3.75372 0.35449,-6.269009 -0.4408,-6.929038 -0.66205,-0.549452 -0.64892,-0.702968 0.12129,-1.418126 0.47505,-0.441085 1.24579,-0.947844 1.71277,-1.126129 0.46698,-0.178286 0.84905,-0.6585 0.84905,-1.067141 0,-0.41357 0.42009,-0.742985 0.94752,-0.742985 1.63115,0 3.98838,-1.264088 6.10696,-3.274911 0.35143,-0.333555 0.77293,-0.606465 0.93668,-0.606465 0.36361,0 0.66696,-0.240801 4.56323,-3.622363 1.70144,-1.47668 3.39348,-2.684872 3.76008,-2.684872 0.3666,0 0.66655,-0.286433 0.66655,-0.636517 0,-0.350084 0.65498,-1.120766 1.45551,-1.712627 0.80054,-0.59186 1.45552,-1.344546 1.45552,-1.672636 0,-0.9315967 1.66956,-1.7521195 5.22291,-2.5668566 1.79718,-0.4120696 4.08632,-1.3111664 5.08699,-1.9979933 1.57305,-1.0796938 1.8194,-1.5026082 1.8194,-3.1234801 V 0.93607511 h 36.14531 c 30.40294,0 36.1453,0.10633299 36.1453,0.66931309 0,0.6120363 -3.90549,4.1824062 -4.57498,4.1824062 -0.58127,0 -6.39257,4.1561225 -8.03949,5.7496876 -2.64479,2.559115 -3.48631,3.25092 -5.70077,4.686578 -1.13409,0.735244 -2.06198,1.620572 -2.06198,1.967397 0,0.346825 -0.48837,0.785593 -1.08527,0.975042 -1.16619,0.370134 -4.56052,2.475538 -5.63646,3.496129 -0.36139,0.342805 -1.50761,1.05719 -2.54715,1.587523 -1.03954,0.530333 -1.89007,1.178132 -1.89007,1.439553 0,0.261422 -0.2919,0.475312 -0.64866,0.475312 -0.57613,0 -7.20975,5.895524 -11.27421,10.01976 -1.39954,1.420123 -1.49114,1.721467 -1.28371,4.222846 0.33773,4.072506 -0.0732,5.158619 -1.96429,5.191655 -0.86216,0.01506 -2.2695,0.28797 -3.12741,0.606465 -1.90599,0.707585 -5.7635,4.287352 -6.23824,5.78908 -0.19078,0.603481 -0.86127,1.772828 -1.48999,2.598547 -0.62872,0.825724 -1.14312,1.77376 -1.14312,2.106748 0,0.332992 -0.43665,1.160555 -0.97034,1.839029 -0.72012,0.915476 -0.97035,1.968236 -0.97035,4.082402 0,2.434049 -0.17659,3.002355 -1.21293,3.903441 -0.66711,0.580047 -1.21293,1.342747 -1.21293,1.694895 0,0.352142 -0.31189,0.640262 -0.6931,0.640262 -0.38121,0 -0.99228,0.299181 -1.35795,0.664845 -1.13913,1.139131 -3.43415,2.106471 -5.82168,2.453801 -1.26129,0.183492 -2.4204,0.539337 -2.57579,0.790762 -0.15539,0.251426 -0.65172,0.460909 -1.10295,0.465523 -0.45122,0.0049 -1.33456,0.550427 -1.96297,1.21293 -0.62841,0.662497 -1.54862,1.204546 -2.04491,1.204546 -1.19759,0 -1.90684,1.431815 -1.90684,3.84948 0,1.084922 -0.16374,1.976916 -0.36388,1.982209 -0.20013,0.0053 -0.98098,1.042353 -1.73523,2.304566 -1.7893,2.99436 -3.09805,3.908832 -6.50113,4.542583 -1.54071,0.286926 -3.48928,0.826476 -4.33014,1.199 -0.84086,0.372525 -1.99578,0.67732 -2.56648,0.67732 -1.29042,0 -4.88036,1.791691 -4.88036,2.435718 0,0.261425 -0.43001,0.475313 -0.95558,0.475313 -0.52558,0 -1.72827,0.433987 -2.67265,0.964415 -0.94439,0.530434 -2.71452,1.215579 -3.93363,1.522557 -1.57029,0.395401 -2.33999,0.882751 -2.63986,1.671476 -0.23281,0.612335 -1.05337,1.579176 -1.82347,2.14853 -1.10774,0.81899 -1.53691,1.69042 -2.05486,4.17244 -0.56482,2.70663 -0.87543,3.27367 -2.26299,4.13123 -0.88458,0.5467 -1.60832,1.14122 -1.60832,1.32116 0,0.17994 -0.70956,0.61309 -1.57681,0.96255 -0.86724,0.34946 -1.95592,0.83941 -2.41927,1.08878 -0.46336,0.24937 -1.17978,0.4534 -1.59204,0.4534 -0.41226,0 -0.87138,0.31742 -1.02026,0.70539 -0.14887,0.38797 -1.01533,1.14476 -1.925454,1.68174 -0.932287,0.55006 -1.654776,1.36721 -1.654776,1.87156 0,0.49238 -0.458085,1.38692 -1.017964,1.98788 -0.559878,0.60096 -1.234486,1.89752 -1.499127,2.88123 -0.327773,1.2184 -1.431127,2.67789 -3.461105,4.5783 -1.638969,1.53436 -3.093054,2.79594 -3.231299,2.80351 -0.13825,0.008 -1.225918,0.88088 -2.417049,1.94069 -1.191136,1.0598 -2.5011,1.92826 -2.911031,1.92991 -0.409937,0.001 -1.400323,0.35891 -2.200857,0.79394 -0.800533,0.43502 -2.061796,1.10758 -2.802804,1.49457 -0.741008,0.387 -2.595898,2.26758 -4.121977,4.17908 -1.526079,1.91149 -2.895268,3.58461 -3.042635,3.71803 -0.147371,0.13342 -0.774324,0.96731 -1.393234,1.85308 -0.618909,0.88578 -1.590864,1.81627 -2.159898,2.06777 -0.569034,0.2515 -2.23541,1.34233 -3.703055,2.42409 -1.467645,1.08175 -3.166184,2.16785 -3.774531,2.41356 -0.653949,0.26412 -1.510035,1.39144 -2.094284,2.75782 -0.958491,2.2416 -4.728995,6.44068 -6.31393,7.0316 -0.813697,0.30337 -4.313101,6.73384 -4.313101,7.9257 0,0.37523 -0.87331,1.26017 -1.940688,1.96653 -1.067378,0.70635 -1.940688,1.48414 -1.940688,1.7284 0,0.24427 -0.6004,0.70905 -1.334222,1.03285 -0.733823,0.3238 -2.207533,1.15467 -3.274911,1.84638 -1.067378,0.69172 -2.412208,1.40718 -2.988511,1.58992 -0.576303,0.18274 -1.3126,0.65129 -1.636216,1.04123 -0.323615,0.38993 -1.325804,0.70896 -2.227087,0.70896 -0.901282,0 -2.039926,0.38208 -2.530319,0.84905 -0.490393,0.46698 -1.302083,1.08674 -1.803755,1.37724 -1.128666,0.65357 -2.557911,3.02309 -2.607865,4.32353 -0.0205,0.53369 -0.473113,1.68519 -1.005804,2.55888 -0.544681,0.89336 -0.968531,2.44371 -0.968531,3.54267 0,1.07477 -0.415517,2.76154 -0.923373,3.74836 -0.507855,0.98682 -1.263372,2.60226 -1.678927,3.58987 -0.415555,0.9876 -1.364584,2.18557 -2.108952,2.66215 -0.744368,0.47658 -1.641901,1.14225 -1.994517,1.47926 -0.352616,0.33702 -1.028774,0.61276 -1.502573,0.61276 -0.473799,0 -1.364919,0.43666 -1.980268,0.97034 -0.615349,0.53369 -1.469814,0.97035 -1.89881,0.97035 -0.7078095,0 -5.03463,2.75715 -8.4110938,5.35974 l -1.33422286,1.02843 z"
       id="path4573"
       inkscape:connector-curvature="0"
       transform="scale(0.26458333)" />
  </g>
</svg>
