<?xml version="1.0" encoding="UTF-8" standalone="no"?>
<!-- Created with Inkscape (http://www.inkscape.org/) -->

<svg
   xmlns:dc="http://purl.org/dc/elements/1.1/"
   xmlns:cc="http://creativecommons.org/ns#"
   xmlns:rdf="http://www.w3.org/1999/02/22-rdf-syntax-ns#"
   xmlns:svg="http://www.w3.org/2000/svg"
   xmlns="http://www.w3.org/2000/svg"
   xmlns:sodipodi="http://sodipodi.sourceforge.net/DTD/sodipodi-0.dtd"
   xmlns:inkscape="http://www.inkscape.org/namespaces/inkscape"
   width="210mm"
   height="297mm"
   viewBox="0 0 210 297"
   version="1.1"
   id="svg8"
   inkscape:version="0.92.3 (2405546, 2018-03-11)"
   sodipodi:docname="3-Kreuzung.svg"
   inkscape:export-filename="C:\Users\Lill Kuhfahl\Desktop\grafiken\3-Kreuzung.png"
   inkscape:export-xdpi="96"
   inkscape:export-ydpi="96">
  <defs
     id="defs2" />
  <sodipodi:namedview
     id="base"
     pagecolor="#ffffff"
     bordercolor="#666666"
     borderopacity="1.0"
     inkscape:pageopacity="0.0"
     inkscape:pageshadow="2"
     inkscape:zoom="2.061125"
     inkscape:cx="176.23132"
     inkscape:cy="946.24247"
     inkscape:document-units="mm"
     inkscape:current-layer="layer1"
     showgrid="false"
     inkscape:window-width="1920"
     inkscape:window-height="1017"
     inkscape:window-x="-8"
     inkscape:window-y="-8"
     inkscape:window-maximized="1" />
  <metadata
     id="metadata5">
    <rdf:RDF>
      <cc:Work
         rdf:about="">
        <dc:format>image/svg+xml</dc:format>
        <dc:type
           rdf:resource="http://purl.org/dc/dcmitype/StillImage" />
        <dc:title />
      </cc:Work>
    </rdf:RDF>
  </metadata>
  <g
     inkscape:label="Ebene 1"
     inkscape:groupmode="layer"
     id="layer1">
    <rect
       id="rect10"
       width="100.93643"
       height="96.57946"
       x="-0.022024542"
       y="0.25673681"
       style="fill:#ffffff;stroke:#0e0000;stroke-width:0.26458332;stroke-opacity:1" />
    <path
       style="fill:none;stroke:#000000;stroke-width:0.26458332px;stroke-linecap:butt;stroke-linejoin:miter;stroke-opacity:1"
       d="m 0,37.053975 c 0.05289118,-0.924378 0.52815669,-0.13571 0.77021043,-0.256736 0.0541249,-0.02706 0.0742435,-0.101306 0.1283684,-0.128368 0.0382721,-0.01913 0.0900963,0.01913 0.12836847,0 0.054125,-0.02706 0.074243,-0.101306 0.1283684,-0.128371 0.050897,-0.02545 0.358862,0.02625 0.3851052,0 0.030257,-0.03026 -0.030257,-0.09811 0,-0.128368 0.024986,-0.02498 0.5949683,0.02344 0.641842,0 0.038272,-0.01913 -0.030257,-0.09811 0,-0.128367 0.030257,-0.03026 0.085579,0 0.1283684,0 0.2567368,0 0.5134737,0 0.7702103,0 0.1322465,0 0.8606904,-0.01895 0.898579,0 0.5874917,0.293745 -0.5447207,-0.05321 0.3851053,0.256735 0.081187,0.02707 0.1801926,-0.03827 0.2567368,0 0.6061797,0.303091 -0.7835109,-0.06751 0.5134734,0.256739 0.083024,0.02074 0.1711579,0 0.2567369,0 0.1711579,0 0.3423158,0 0.5134737,0 0.042789,0 0.085579,0 0.1283684,0 0.042789,0 0.098112,-0.03026 0.1283684,0 0.030257,0.03026 -0.030257,0.09811 0,0.128368 0.060513,0.06051 0.1962232,-0.06051 0.2567369,0 0.030257,0.03026 -0.030257,0.09811 0,0.128368 0.00413,0.0041 0.3539723,0 0.385105,0 0.7702105,0 1.5404211,0 2.3106313,0 0.3423158,0 0.6846316,0 1.0269473,0 0.05781,0 0.346038,0.01953 0.385105,0 0.05413,-0.02706 0.07424,-0.101307 0.128369,-0.128368 0.08098,-0.04049 0.560858,0.04049 0.641842,0 0.534238,-0.267121 -0.137231,0.0089 0.128368,-0.256736 0.03026,-0.03026 0.08558,0 0.128369,0 0.04279,0 0.08558,0 0.128368,0 0.385105,0 0.77021,0 1.155315,0 0.04279,0 0.08558,0 0.128369,0 0.04279,0 0.09811,-0.03026 0.128368,0 0.240733,0.240731 -0.240733,0.01601 0,0.256736 0.03026,0.03026 0.09811,-0.03026 0.128369,0 0.03026,0.03026 0,0.08558 0,0.128368 0.04279,0 0.09811,-0.03026 0.128368,0 0.03026,0.03026 -0.03026,0.09811 0,0.128368 0.03026,0.03026 0.09811,-0.03026 0.128369,0 0.03026,0.03026 -0.03026,0.09811 0,0.128367 0.02624,0.02625 0.334208,-0.02545 0.385105,0 0.10825,0.05413 0.148487,0.202613 0.256737,0.256739 0.03827,0.01913 0.09811,-0.03026 0.128368,0 0.265599,0.265599 -0.40587,-0.01037 0.128368,0.256736 0.177066,0.08854 0.114822,-0.155462 0.256737,0.128368 0.01914,0.03827 -0.03026,0.09811 0,0.12837 0.06418,0.06418 0.320921,-0.06419 0.385105,0 0.03026,0.03026 -0.03026,0.09811 0,0.128368 0.03026,0.03025 0.08558,0 0.128369,0 0.04279,0 0.08558,0 0.128368,0 0.213948,0 0.427895,0 0.641842,0 0.04279,0 0.08558,0 0.128369,0 0.04279,0 0.0901,0.01913 0.128368,0 0.05412,-0.02706 0.07424,-0.101306 0.128368,-0.128368 0.03819,-0.0191 0.716211,0 0.770211,0 0.04279,0 0.08558,0 0.128368,0 0.04279,0 0.09811,0.03026 0.128369,0 0.265599,-0.265599 -0.405871,0.01037 0.128368,-0.256738 0.03827,-0.01913 0.08558,0 0.128369,0 0.08558,0 0.175549,0.02706 0.256736,0 0.05741,-0.01913 0.07424,-0.101307 0.128369,-0.128368 0.03319,-0.01659 0.679222,0 0.77021,0 0.04279,0 0.09811,0.03026 0.128369,0 0.03026,-0.03026 -0.03026,-0.09811 0,-0.128368 0.06418,-0.06419 0.320921,0.06418 0.385105,0 0.03026,-0.03026 -0.03026,-0.09811 0,-0.128368 0.06051,-0.06052 0.180192,0.03827 0.256737,0 0.05412,-0.02706 0.07424,-0.101306 0.128368,-0.128371 0.03827,-0.01913 0.09811,0.03026 0.128369,0 0.03026,-0.03025 -0.03026,-0.09811 0,-0.128367 0.06418,-0.06418 0.32092,0.06418 0.385105,0 0.03026,-0.03026 0,-0.08558 0,-0.128368 0.04279,0 0.09811,0.03026 0.128368,0 0.03026,-0.03026 -0.03827,-0.109234 0,-0.128368 0.07654,-0.03827 0.171158,0 0.256737,0 0.04279,0 0.09811,0.03026 0.128368,0 0.06051,-0.06051 -0.06051,-0.196223 0,-0.256736 0.03026,-0.03026 0.08558,0 0.128369,0 0.04279,0 0.08558,0 0.128368,0 0.299526,0 0.599053,0 0.898579,0 0.04279,0 0.09811,0.03025 0.128368,0 0.03026,-0.03026 -0.03026,-0.09811 0,-0.128371 0.03026,-0.03026 0.08558,0 0.128369,0 0.04279,0 0.08558,0 0.128368,0 0.256737,0 0.513474,0 0.770211,0 0.04279,0 0.09811,-0.03026 0.128368,0 0.265599,0.2656 -0.40587,-0.01037 0.128368,0.256739 0.03827,0.01913 0.08558,0 0.128369,0 0.213947,0 0.427895,0 0.641842,0 0.08558,0 0.180193,-0.03827 0.256737,0 0.03827,0.01913 -0.03026,0.09811 0,0.128368 0.0041,0.0041 0.353972,0 0.385105,0 0.513474,0 1.026947,0 1.540421,0 0.129273,0 0.699221,0.02365 0.770211,0 0.257927,-0.08598 0.04432,-0.301062 0.128368,-0.385107 0.03089,-0.03089 0.482584,0.03089 0.513474,0 0.03026,-0.03026 -0.03827,-0.10923 0,-0.128368 0.102693,-0.05135 0.282409,0.05135 0.385104,0 0.05413,-0.02706 0.07425,-0.101306 0.128368,-0.128367 0.08339,-0.0417 0.560417,0.04071 0.641842,0 0.05413,-0.02706 0.07424,-0.101307 0.128368,-0.128368 0.08148,-0.04074 0.600226,0.04162 0.641842,0 0.03026,-0.03026 -0.03026,-0.09811 0,-0.128368 0.03026,-0.03026 0.08558,0 0.128371,0 0.04279,0 0.08558,0 0.128368,0 0.385103,0 0.77021,0 1.155316,0 0.135789,0 0.832445,-0.02204 0.898578,0 0.400679,0.133559 -0.04279,0.08558 0.128368,0.256736 0.06051,0.06051 0.180191,-0.03827 0.256738,0 0.05412,0.02706 0.07424,0.101306 0.128368,0.128367 0.03827,0.01913 0.09811,-0.03025 0.128368,0 0.06051,0.06051 -0.06051,0.196223 0,0.256739 0.03026,0.03025 0.0901,-0.01913 0.128368,0 0.05413,0.02706 0.07424,0.101304 0.128368,0.128368 0.07654,0.03827 0.196223,-0.06051 0.256738,0 0.03025,0.03026 -0.03026,0.09811 0,0.128368 0.06051,0.06051 0.196223,-0.06051 0.256736,0 0.03026,0.03026 -0.03026,0.09811 0,0.128368 0.03026,0.03026 0.08778,-0.01352 0.128368,0 0.09077,0.03026 0.165968,0.09811 0.256738,0.128368 0.08119,0.02706 0.196223,-0.06051 0.256736,0 0.03026,0.03026 -0.03026,0.09811 0,0.128367 0.03975,0.03975 0.602094,-0.03975 0.641842,0 0.03026,0.03026 -0.03026,0.09811 0,0.128371 0.0058,0.0058 0.581316,0 0.641842,0 0.727422,0 1.454841,0 2.182262,0 0.213948,0 0.427895,0 0.641843,0 0.04279,0 0.08558,0 0.128367,0 0.04279,0 0.0901,-0.01913 0.128371,0 0.534239,0.267118 -0.137232,-0.0089 0.128368,0.256736 0.03025,0.03026 0.0901,-0.01913 0.128368,0 0.05413,0.02706 0.07424,0.101306 0.128368,0.128368 0.07654,0.03827 0.180191,-0.03827 0.256738,0 0.05412,0.02706 0.07424,0.101306 0.128368,0.128368 0.0509,0.02545 0.358862,-0.02625 0.385104,0 0.03026,0.03026 -0.03026,0.09811 0,0.12837 0.03026,0.03026 0.08558,0 0.12837,0 0.08558,0 0.180192,-0.03827 0.256736,0 0.03827,0.01913 -0.03026,0.09811 0,0.128368 0.03026,0.03025 0.0901,-0.01913 0.128368,0 0.05413,0.02706 0.07425,0.101306 0.128368,0.128368 0.136834,0.06842 0.119904,-0.06842 0.256738,0 0.587492,0.293746 -0.544721,-0.05321 0.385104,0.256736 0.08119,0.02706 0.171159,0 0.256738,0 0.256736,0 0.513472,0 0.77021,0 0.05807,0 0.736,0.01712 0.77021,0 0.164534,-0.08227 0.0922,-0.174469 0.256736,-0.256736 0.07795,-0.03897 0.692264,0.03897 0.770213,0 0.534236,-0.267118 -0.137232,0.0089 0.128368,-0.256736 0.06051,-0.06051 0.196223,0.06051 0.256735,0 0.03026,-0.03026 -0.03026,-0.09811 0,-0.12837 0.342316,0 -0.04279,0.04279 0.128368,-0.128368 0.06052,-0.06051 0.196223,0.06051 0.256739,0 0.03025,-0.03025 -0.01913,-0.0901 0,-0.128368 0.267118,-0.534239 -0.0089,0.137231 0.256736,-0.128368 0.03026,-0.03026 -0.03026,-0.09811 0,-0.128368 0.06051,-0.06052 0.196222,0.06051 0.256735,0 0.03026,-0.03026 -0.03026,-0.09811 0,-0.128371 0.06052,-0.06051 0.180195,0.03827 0.256739,0 0.05412,-0.02706 0.07424,-0.101303 0.128368,-0.128367 0.03827,-0.01913 0.09811,0.03026 0.128368,0 0.265599,-0.265597 -0.405871,0.01037 0.128367,-0.256736 0.08098,-0.04049 0.560859,0.04049 0.641843,0 0.05412,-0.02706 0.07424,-0.101307 0.12837,-0.128368 0.03827,-0.01913 0.08558,0 0.128368,0 0.04279,0 0.08558,0 0.128368,0 0.05781,0 0.346038,0.01953 0.385106,0 0.534236,-0.267121 -0.137231,0.0089 0.128368,-0.256739 0.03025,-0.03026 0.08558,0 0.128368,0 0.08558,0 0.171159,0 0.256736,0 0.256738,0 0.513474,0 0.77021,0 0.05781,0 0.34604,-0.01953 0.385106,0 0.587492,0.293746 -0.544721,-0.0532 0.385106,0.256739 0.08057,0.02686 0.410131,0 0.513472,0 0.385106,0 0.770213,0 1.155316,0 0.299527,0 0.599054,0 0.898581,0 0.05781,0 0.346038,0.01953 0.385104,0 0.05412,-0.02706 0.07424,-0.101306 0.128368,-0.128368 0.07654,-0.03828 0.196222,0.06051 0.256738,0 0.06051,-0.06052 -0.06052,-0.196226 0,-0.256739 0.02625,-0.02625 0.334208,0.02545 0.385104,0 0.05412,-0.02706 0.07424,-0.101306 0.128368,-0.128367 0.08098,-0.04049 0.560858,0.04049 0.641842,0 0.05413,-0.02706 0.07424,-0.101307 0.12837,-0.128368 0.102693,-0.05135 0.282409,0.05135 0.385104,0 0.03827,-0.01913 -0.03025,-0.09811 0,-0.128368 0.06419,-0.06419 0.320921,0.06418 0.385106,0 0.03026,-0.03026 -0.03827,-0.109233 0,-0.128371 0.05456,-0.02728 0.534268,0 0.641842,0 0.556263,0 1.112526,0 1.668788,0 0.385107,0 0.77021,0 1.155317,0 0.108682,0 0.444463,-0.02299 0.513474,0 0.05741,0.01913 0.07424,0.101307 0.128368,0.128371 0.07958,0.03979 0.563057,-0.03939 0.641842,0 0.03827,0.01913 -0.03026,0.09811 0,0.128368 0.06051,0.06051 0.196223,-0.06051 0.256736,0 0.06419,0.06418 -0.06418,0.320921 0,0.385103 0.04231,0.04231 0.420581,-0.03096 0.513474,0 0.05741,0.01913 0.07425,0.101307 0.128368,0.128371 0.07654,0.03827 0.196223,-0.06052 0.256738,0 0.265597,0.265597 -0.405871,-0.0104 0.128368,0.256736 0.03827,0.01913 0.0901,-0.01913 0.128368,0 0.05413,0.02706 0.07424,0.101306 0.128368,0.128368 0.03827,0.01913 0.0901,-0.01913 0.128368,0 0.05413,0.02706 0.07424,0.101306 0.12837,0.128368 0.08098,0.04049 0.560859,-0.04049 0.641842,0 0.05412,0.02706 0.07424,0.101306 0.128368,0.128367 0.03375,0.01688 0.446347,0 0.513475,0 0.342315,0 0.68463,0 1.026945,0 1.240896,0 2.481789,0 3.722685,0 0.342315,0 0.684631,0 1.026946,0 0.04279,0 0.09811,-0.03025 0.128368,0 0.265599,0.2656 -0.405868,-0.01037 0.12837,0.256739 0.08068,0.04034 0.43279,-0.04034 0.513472,0 0.03827,0.01913 -0.03026,0.09811 0,0.128368 0.03089,0.03089 0.482584,-0.03089 0.513474,0 0.03026,0.03026 -0.03025,0.09811 0,0.128368 0.06051,0.06051 0.175551,-0.02706 0.256739,0 0.09077,0.03026 0.165965,0.09811 0.256735,0.128368 0.150522,0.05017 0.372108,-0.07068 0.513475,0 0.03827,0.01913 -0.03026,0.09811 0,0.12837 0.02625,0.02625 0.334208,-0.02545 0.385103,0 0.05413,0.02706 0.07425,0.101306 0.128368,0.128368 0.07655,0.03827 0.180195,-0.03827 0.256739,0 0.108249,0.05412 0.148486,0.202613 0.256735,0.256736 0.06964,0.03482 0.478351,-0.03512 0.513475,0 0.03026,0.03026 -0.03827,0.109233 0,0.128368 0.04687,0.02344 0.616857,-0.02498 0.641842,0 0.03026,0.03026 -0.03026,0.09811 0,0.12837 0.03026,0.03025 0.08558,0 0.128368,0 0.06053,0 0.636024,-0.0058 0.641842,0 0.03026,0.03025 -0.03025,0.09811 0,0.128368 0.03026,0.03026 0.08558,0 0.128368,0 0.08558,0 0.171159,0 0.256738,0 0.385104,0 0.77021,0 1.155314,0 0.256738,0 0.513474,0 0.770212,0 0.05781,0 0.346038,0.01953 0.385104,0 0.05413,-0.02706 0.07424,-0.101306 0.128368,-0.128368 0.03827,-0.01913 0.09811,0.03025 0.128371,0 0.03025,-0.03026 -0.01913,-0.0901 0,-0.12837 0.02706,-0.05412 0.101303,-0.07424 0.128367,-0.128368 0.01913,-0.03827 -0.03026,-0.09811 0,-0.128368 0.03026,-0.03026 0.08558,0 0.128368,0 0.06053,0 0.636024,0.0058 0.641842,0 0.03026,-0.03026 -0.03026,-0.09811 0,-0.128368 0.06051,-0.06051 0.180192,0.03827 0.256736,0 0.05413,-0.02706 0.07425,-0.101306 0.128371,-0.128368 0.03827,-0.01913 0.08558,0 0.128368,0 0.08558,0 0.180192,0.03827 0.256735,0 0.03827,-0.01913 -0.03025,-0.09811 0,-0.12837 0.03026,-0.03026 0.08558,0 0.128368,0 0.190715,0 0.353859,0.03125 0.513475,-0.128368 0.03026,-0.03025 -0.03026,-0.09811 0,-0.128368 0.03975,-0.03975 0.602093,0.03975 0.641842,0 0.03026,-0.03026 -0.03026,-0.09811 0,-0.128368 0.03026,-0.03026 0.08558,0 0.128368,0 0.04279,0 0.08558,0 0.128367,0 0.256739,0 0.513475,0 0.770213,0 0.08558,0 0.180192,0.03827 0.256736,0 0.03827,-0.01913 -0.03026,-0.09811 0,-0.128368 0.0041,-0.0041 0.353973,0 0.385106,0 0.342316,0 0.684631,0 1.026946,0 0.08558,0 0.171159,0 0.256738,0 0.04279,0 0.0901,0.01913 0.128368,0 0.05412,-0.02706 0.07424,-0.101306 0.128368,-0.128371 0.03375,-0.01688 0.446347,0 0.513474,0 0.256736,0 0.513472,0 0.770211,0 0.08558,0 0.180191,0.03827 0.256735,0 0.03827,-0.01913 -0.03025,-0.09811 0,-0.128367 0.03089,-0.03089 0.482584,0.03089 0.513475,0 0.03026,-0.03026 -0.03026,-0.09811 0,-0.128368 0.02625,-0.02625 0.334208,0.02545 0.385106,0 0.108249,-0.05413 0.148487,-0.202613 0.256736,-0.256736 0.07654,-0.03827 0.196223,0.06051 0.256735,0 0.03026,-0.03026 -0.03025,-0.09811 0,-0.128368 0.06419,-0.06419 0.320921,0.06418 0.385107,0 0.03026,-0.03026 -0.03026,-0.09811 0,-0.128371 0.06051,-0.06051 0.180192,0.03827 0.256736,0 0.05412,-0.02706 0.07424,-0.101306 0.128367,-0.128368 0.03828,-0.01913 0.09811,0.03026 0.128371,0 0.06051,-0.06051 -0.06052,-0.196222 0,-0.256735 0.02625,-0.02625 0.334208,0.02545 0.385104,0 0.154043,-0.07702 0.231063,-0.308086 0.385106,-0.385107 0.03319,-0.01659 0.679222,0 0.77021,0 0.385106,0 0.77021,0 1.155316,0 0.06712,0 0.479719,-0.01688 0.513475,0 0.05412,0.02707 0.07424,0.101307 0.128367,0.128368 0.03827,0.01913 0.08558,0 0.128368,0 0.04279,0.04279 0.07424,0.101307 0.128368,0.128371 0.07654,0.03827 0.196223,-0.06052 0.256736,0 0.03026,0.03026 -0.03025,0.09811 0,0.128368 0.03026,0.03025 0.08558,0 0.128371,0 0.04279,0 0.08558,0 0.128367,0 0.213948,0 0.427895,0 0.641843,0 0.04279,0 0.08558,0 0.128367,0 0.04279,0 0.0901,-0.01913 0.128368,0 0.05413,0.02706 0.07096,0.10923 0.128368,0.128368 0.06901,0.02299 0.404792,0 0.513474,0 0.342316,0 0.684634,0 1.026949,0 1.069737,0 2.139474,0 3.209211,0 0.342315,0 0.68463,0 1.026945,0 0.05781,0 0.346038,-0.01953 0.385107,0 0.05412,0.02706 0.07424,0.101306 0.128368,0.128367 0.177064,0.08853 0.114821,-0.155461 0.256735,0.128368 0.01913,0.03827 -0.03025,0.09811 0,0.128371 0.06052,0.06051 0.180195,-0.03828 0.256739,0 0.05412,0.02706 0.07424,0.101304 0.128368,0.128368 0.102695,0.05135 0.282411,-0.05135 0.385103,0 0.05413,0.02706 0.07096,0.10923 0.128371,0.128368 0.08119,0.02706 0.175548,-0.02706 0.256736,0 0.05741,0.01913 0.07424,0.101306 0.128368,0.128368 0.03827,0.01913 0.0901,-0.01913 0.128367,0 0.05413,0.02706 0.07425,0.101306 0.128371,0.128368 0.08867,0.04434 0.596781,-0.04506 0.641842,0 0.03025,0.03026 -0.03026,0.09811 0,0.128367 0.01384,0.01384 0.369091,0.01352 0.385101,0 0.11536,-0.0973 0.19125,-0.233508 0.28688,-0.350263"
       id="path844"
       inkscape:connector-curvature="0" />
    <path
       style="fill:none;stroke:#000000;stroke-width:0.26458332px;stroke-linecap:butt;stroke-linejoin:miter;stroke-opacity:1"
       d="M -1.616746e-7,57.079445 C 0.1283683,57.036654 0.25383315,56.983897 0.38510522,56.951078 c 0.11158228,-0.0279 0.38654378,0 0.51347361,0 0.38510517,0 0.77021047,0 1.15531567,0 0.2139473,0 0.4278947,0 0.6418421,0 0.04279,0 0.098111,-0.03026 0.1283684,0 0.030257,0.03026 -0.030257,0.09811 0,0.128367 0.030257,0.03026 0.098112,-0.03025 0.1283682,0 0.030257,0.03026 -0.030257,0.09811 0,0.128368 0.060514,0.06052 0.1801929,-0.03827 0.2567369,0 0.5342387,0.267121 -0.1372304,-0.0089 0.1283684,0.256739 0.030257,0.03026 0.098112,-0.03026 0.1283684,0 0.030257,0.03026 -0.030257,0.09811 0,0.128368 0.030257,0.03026 0.085579,0 0.1283684,0 0.04279,0 0.085579,0 0.1283684,0 0.5134737,0 1.0269474,0 1.5404209,0 0.031133,0 0.3809769,0.0041 0.3851052,0 0.030257,-0.03026 -0.030257,-0.09811 0,-0.128368 0.030257,-0.03026 0.098112,0.03026 0.1283685,0 0.2655988,-0.2656 -0.4058701,0.01037 0.1283684,-0.256739 0.038272,-0.01913 0.085579,0 0.1283684,0 0.042789,0 0.085579,0 0.1283684,0 0.2567369,0 0.5134737,0 0.7702103,0 0.042789,0 0.085579,0 0.1283684,0 0.042789,0 0.098112,0.03026 0.1283685,0 0.030257,-0.03026 -0.038272,-0.10923 0,-0.128368 0.078786,-0.03939 0.5622663,0.03979 0.6418421,0 0.054125,-0.02706 0.074243,-0.101306 0.1283684,-0.128367 0.033753,-0.01688 0.446347,0 0.5134737,0 0.3423155,0 0.6846313,0 1.0269471,0 0.513474,0 1.026947,0 1.540421,0 0.04279,0 0.08558,0 0.128368,0 0.04279,0 0.09811,-0.03026 0.128369,0 0.03026,0.03026 -0.03026,0.09811 0,0.128367 0.0041,0.0041 0.353972,0 0.385105,0 0.342316,0 -0.04279,-0.04279 0.128368,0.128368 0.02624,0.02625 0.334209,-0.02545 0.385106,0 0.108249,0.05413 0.148487,0.202613 0.256736,0.256739 0.03421,0.01712 0.712138,0 0.770211,0 0.04279,0 0.08558,0 0.128368,0 0.04279,0 0.09811,-0.03026 0.128369,0 0.03026,0.03026 -0.03827,0.109233 0,0.128368 0.07654,0.03827 0.180192,-0.03827 0.256736,0 0.03827,0.01913 -0.03026,0.09811 0,0.128368 0.03089,0.03089 0.482585,-0.03089 0.513474,0 0.03026,0.03026 -0.03026,0.09811 0,0.128368 0.0041,0.0041 0.353972,0 0.385105,0 0.03113,0 0.380977,-0.0041 0.385105,0 0.03026,0.03026 -0.03026,0.09811 0,0.12837 0.03026,0.03025 0.08778,-0.01355 0.128369,0 0.09077,0.03025 0.165967,0.09811 0.256737,0.128368 0.07243,0.02413 0.300753,0 0.385105,0 0.213947,0 0.427895,0 0.641842,0 0.04714,0 0.508308,0.0052 0.513474,0 0.03026,-0.03026 0,-0.08558 0,-0.128368 0.08558,0 0.180192,0.03827 0.256736,0 0.03827,-0.01913 -0.03026,-0.09811 0,-0.12837 0.03513,-0.03512 0.443836,0.03482 0.513474,0 0.05413,-0.02706 0.07424,-0.101304 0.128368,-0.128368 0.177066,-0.08853 0.114822,0.155461 0.256737,-0.128368 0.08853,-0.177065 -0.155461,-0.114822 0.128368,-0.256736 0.07654,-0.03827 0.180193,0.03827 0.256737,0 0.05412,-0.02706 0.07424,-0.101306 0.128369,-0.128371 0.03827,-0.01913 0.0901,0.01913 0.128368,0 0.05413,-0.02706 0.07424,-0.101303 0.128369,-0.128368 0.03827,-0.01913 0.0901,0.01913 0.128368,0 0.05412,-0.02706 0.07424,-0.101306 0.128368,-0.128367 0.03827,-0.01913 0.0901,0.01913 0.128369,0 0.534238,-0.267118 -0.137231,0.0089 0.128368,-0.256736 0.03026,-0.03026 0.08558,0 0.128369,0 0.04892,0 0.629382,0.01246 0.641842,0 0.03026,-0.03026 -0.03026,-0.09811 0,-0.128371 0.06051,-0.06051 0.196223,0.06052 0.256736,0 0.03026,-0.03025 -0.03026,-0.09811 0,-0.128368 0.06419,-0.06418 0.320921,0.06419 0.385106,0 0.03026,-0.03026 -0.03026,-0.09811 0,-0.128368 0.03026,-0.03026 0.08558,0 0.128368,0 0.04279,0 0.08558,0 0.128369,0 0.299526,0 0.599052,0 0.898578,0 0.0305,0 0.484703,0.01439 0.513474,0 0.05412,-0.02706 0.07424,-0.101306 0.128368,-0.128367 0.02877,-0.01439 0.48297,0 0.513474,0 0.342316,0 0.684632,0 1.026947,0 0.03113,0 0.380977,-0.0041 0.385105,0 0.03026,0.03026 -0.01914,0.0901 0,0.128367 0.02706,0.05413 0.101306,0.07424 0.128369,0.128368 0.01914,0.03827 -0.03026,0.09811 0,0.128368 0.06051,0.06052 0.196223,-0.06051 0.256737,0 0.03026,0.03026 -0.03026,0.09811 0,0.128371 0.03026,0.03026 0.08558,0 0.128368,0 0.04279,0 0.08558,0 0.128369,0 0.04279,0 0.08558,0 0.128368,0 0.04279,0 0.09811,-0.03026 0.128368,0 0.03026,0.03026 0,0.08558 0,0.128368 0.04279,0 0.09811,-0.03026 0.128369,0 0.03026,0.03025 -0.03026,0.09811 0,0.128368 0.06418,0.06418 0.320921,-0.06419 0.385105,0 0.03026,0.03026 -0.03026,0.09811 0,0.128367 0.03512,0.03513 0.443835,-0.03482 0.513474,0 0.05412,0.02707 0.07424,0.101307 0.128368,0.128368 0.04642,0.0232 0.552556,0 0.641842,0 0.599054,0 1.198105,0 1.797159,0 0.06052,0 0.636023,-0.0058 0.641842,0 0.03025,0.03026 -0.03026,0.09811 0,0.128371 0.03025,0.03025 0.08558,0 0.128368,0 0.04279,0 0.08558,0 0.128367,0 0.124161,0 0.73214,-0.01902 0.77021,0 0.534239,0.267118 -0.137228,-0.0089 0.128368,0.256736 0.03026,0.03026 0.08558,0 0.128371,0 0.08558,0 0.180192,-0.03827 0.256736,0 0.03827,0.01913 -0.03026,0.09811 0,0.128368 0.03026,0.03026 0.08558,0 0.128368,0 0.04279,0 0.08558,0 0.128367,0 0.342318,0 0.684634,0 1.026949,0 0.05781,0 0.346038,-0.01953 0.385104,0 0.05412,0.02706 0.07424,0.101306 0.12837,0.128368 0.06964,0.03482 0.478348,-0.03512 0.513472,0 0.03026,0.03026 -0.03026,0.09811 0,0.12837 0.06051,0.06051 0.180194,-0.03827 0.256738,0 0.05412,0.02706 0.07424,0.101304 0.128368,0.128368 0.03907,0.01953 0.327295,0 0.385106,0 0.342316,0 0.684631,0 1.026946,0 0.256739,0 0.513474,0 0.77021,0 0.04279,0 0.09811,0.03025 0.128371,0 0.03026,-0.03026 -0.03026,-0.09811 0,-0.128368 0.03026,-0.03026 0.09811,0.03025 0.128368,0 0.03025,-0.03026 -0.03026,-0.09811 0,-0.12837 0.06418,-0.06418 0.320921,0.06418 0.385103,0 0.2656,-0.265597 -0.405868,0.01037 0.128368,-0.256736 0.07655,-0.03827 0.196226,0.06051 0.256739,0 0,-0.342316 -0.04279,0.04279 0.128367,-0.128368 0.03026,-0.03026 -0.03827,-0.109233 0,-0.128368 0.114816,-0.05741 0.256736,0 0.385107,0 0.342315,0 0.68463,0 1.026946,0 0.213947,0 0.427894,0 0.641842,0 0.08558,0 0.256738,-0.08558 0.256738,0 0,0.08558 -0.342318,0 -0.256738,0 0.485624,0 0.262985,0.03956 0.671981,-0.09294 -0.03644,0.415572 -0.03014,0.831957 -0.03014,1.248255 0,0.08558 0.02706,0.17555 0,0.256737 -0.01914,0.05741 -0.101306,0.07424 -0.128369,0.128369 -0.01914,0.03827 0,0.08558 0,0.128368 0,0.04279 0,0.08558 0,0.128368 0,0.256737 0,0.513474 0,0.770211 0,0.128368 0.04059,0.263324 0,0.385105 -0.01914,0.05741 -0.101306,0.07424 -0.128368,0.128368 -0.03827,0.07654 0.03827,0.180193 0,0.256737 -0.02706,0.05412 -0.101306,0.07424 -0.128369,0.128369 -0.02545,0.0509 0.02624,0.358862 0,0.385105 -0.265598,0.265599 0.01038,-0.40587 -0.256736,0.128368 -0.01659,0.03319 0,0.679223 0,0.770211 0,0.04279 0,0.08558 0,0.128368 0,0.04279 0.03026,0.09811 0,0.128369 -0.03026,0.03026 -0.09811,-0.03026 -0.128369,0 -0.03026,0.03026 0.03026,0.09811 0,0.128368 -0.03026,0.03026 -0.09811,-0.03026 -0.128368,0 -0.03026,0.03026 0.03026,0.09811 0,0.128368 -0.03026,0.03026 -0.109233,-0.03827 -0.128369,0 -0.03827,0.07654 0,0.171158 0,0.256737 0,0.04279 0.03026,0.09811 0,0.128369 -0.03026,0.03026 -0.09811,-0.03026 -0.128368,0 -0.06418,0.06418 0.06418,0.320921 0,0.385105 -0.03026,0.03026 -0.09811,-0.03026 -0.128368,0 -0.0041,0.0041 0,0.353972 0,0.385105 0,0.04279 0,0.08558 0,0.128368 0,0.04279 0.03026,0.09811 0,0.128369 -0.03026,0.03026 -0.09811,-0.03026 -0.128369,0 -0.03026,0.03026 0,0.08558 0,0.128368 0,0.171158 0,0.342316 0,0.513474 0,0.04279 0,0.08558 0,0.128368 0,0.04279 -0.03026,0.09811 0,0.128369 0.03026,0.03026 0.09811,-0.03026 0.128369,0 0.03026,0.03026 -0.03026,0.09811 0,0.128368 0.03026,0.03026 0.0901,-0.01914 0.128368,0 0.10825,0.05412 0.148487,0.202612 0.256737,0.256737 0.03827,0.01914 0.09811,-0.03026 0.128368,0 0.03026,0.03026 -0.03026,0.09811 0,0.128368 0.03026,0.03026 0.09811,-0.03026 0.128369,0 0.03089,0.03089 -0.03089,0.482585 0,0.513474 0.03026,0.03026 0.09811,-0.03026 0.128368,0 0.03026,0.03026 -0.03026,0.09811 0,0.128368 0.03026,0.03026 0.09811,-0.03026 0.128368,0 0.03026,0.03026 -0.03026,0.09811 0,0.128369 0.03026,0.03026 0.09811,-0.03026 0.128369,0 0.06051,0.06051 -0.03827,0.180193 0,0.256737 0.02706,0.05412 0.101306,0.07424 0.128368,0.128368 0.01914,0.03827 0,0.08558 0,0.128368 0,0.04279 0,0.08558 0,0.128369 0,0.213947 0,0.427895 0,0.641842 0,0.06052 0.0058,0.636024 0,0.641842 -0.03026,0.03026 -0.09811,-0.03026 -0.128368,0 -0.06051,0.06051 0.06051,0.196223 0,0.256737 -0.03026,0.03026 -0.09811,-0.03026 -0.128369,0 -0.03026,0.03026 0,0.08558 0,0.128368 0,0.04279 0,0.08558 0,0.128369 0,0.385105 0,0.77021 0,1.155315 0,0.04714 -0.0052,0.508308 0,0.513474 0.03026,0.03026 0.09811,-0.03026 0.128369,0 0.03026,0.03026 0,0.08558 0,0.128368 0,0.08558 -0.03827,0.180193 0,0.256737 0.01914,0.03827 0.09811,-0.03026 0.128368,0 0.06051,0.06051 -0.03827,0.180193 0,0.256737 0.02706,0.05412 0.101306,0.07424 0.128369,0.128368 0.01914,0.03827 -0.01914,0.0901 0,0.128369 0.267119,0.534238 -0.0089,-0.137231 0.256736,0.128368 0.0041,0.0041 0,0.353973 0,0.385105 0,0.85579 0,1.711579 0,2.567368 0,0.256737 0,0.513474 0,0.770211 0,0.04279 0.03026,0.09811 0,0.128368 -0.265598,0.265599 0.01038,-0.40587 -0.256736,0.128369 -0.03827,0.07654 0.03827,0.180192 0,0.256737 -0.02706,0.05412 -0.101306,0.07424 -0.128369,0.128368 -0.01914,0.03827 0,0.08558 0,0.128368 0,0.04279 0,0.08558 0,0.128369 0,0.256737 0,0.513473 0,0.77021 0,0.04279 0,0.08558 0,0.128369 0,0.04279 -0.03026,0.09811 0,0.128368 0.265599,0.265599 -0.01038,-0.40587 0.256737,0.128368 0.01914,0.03827 0,0.08558 0,0.128369 0.04279,0.04279 0.101306,0.07424 0.128368,0.128368 0.03827,0.07654 -0.06051,0.196224 0,0.256737 0.06051,0.06051 0.196224,-0.06051 0.256737,0 0.0872,0.0872 -0.131254,0.255294 0.128369,0.385105 0.07654,0.03827 0.196223,-0.06051 0.256736,0 0.03026,0.03026 -0.03026,0.09811 0,0.128369 0.03026,0.03026 0.09811,-0.03026 0.128369,0 0.03026,0.03026 -0.03026,0.09811 0,0.128368 0.265599,0.265599 -0.01038,-0.40587 0.256737,0.128369 0.02741,0.05482 0,0.591096 0,0.641842 0,0.556263 0,1.112526 0,1.668789 0,0.599052 0,1.198105 0,1.797158 0,0.256736 0,0.513473 0,0.77021 0,0.04279 0,0.08558 0,0.128368 0,0.04279 0.01914,0.0901 0,0.128369 -0.02706,0.05412 -0.101306,0.07424 -0.128369,0.128368 -0.01914,0.03827 0,0.08558 0,0.128369 0,0.04279 0,0.08558 0,0.128368 0,0.213947 0,0.427895 0,0.641842 0,0.04279 0,0.08558 0,0.128368 0,0.04279 0.03026,0.09811 0,0.128369 -0.03026,0.03026 -0.09811,-0.03026 -0.128368,0 -0.01586,0.01586 0,0.432975 0,0.513473 0,0.299527 0,0.599053 0,0.898579 0,0.04279 0,0.08558 0,0.128369 0,0.04279 0.03026,0.09811 0,0.128368 -0.03026,0.03026 -0.09811,-0.03026 -0.128369,0 -0.06051,0.06051 0.06051,0.196224 0,0.256737 -0.03026,0.03026 -0.09811,-0.03026 -0.128368,0 -0.03026,0.03026 0,0.08558 0,0.128368 0,0.05781 -0.01953,0.346039 0,0.385106 0.05412,0.108249 0.202612,0.148487 0.256737,0.256736 0.03482,0.06964 -0.03513,0.47835 0,0.513474 0.03026,0.03026 0.09811,-0.03026 0.128368,0 0.0052,0.0052 0,0.466332 0,0.513474 0,0.77021 0,1.540421 0,2.310631 0,0.256737 0,0.513474 0,0.77021 0,0.04279 0,0.08558 0,0.128369 0,0.04279 0.01914,0.0901 0,0.128368 -0.05412,0.10825 -0.202612,0.148487 -0.256737,0.256737 -0.02545,0.0509 0.02624,0.358862 0,0.385105 -0.03026,0.03026 -0.09811,-0.03026 -0.128368,0 -0.06051,0.06051 0.03827,0.180193 0,0.256737 -0.118164,0.236328 -0.266941,0.02041 -0.385105,0.256737 -0.03827,0.07654 0.06051,0.196223 0,0.256737 -0.03026,0.03026 -0.09811,-0.03026 -0.128369,0 -0.06051,0.06051 0.06051,0.196223 0,0.256737 -0.03026,0.03026 -0.09811,-0.03026 -0.128368,0 -0.0041,0.0041 0,0.353972 0,0.385105 0,0.09099 -0.01659,0.73702 0,0.77021 0.02706,0.05412 0.101306,0.07424 0.128368,0.128369 0.01914,0.03827 -0.01914,0.0901 0,0.128368 0.02706,0.05412 0.101306,0.07424 0.128369,0.128368 0.01953,0.03907 0,0.327294 0,0.385106 0,0.299526 0,0.599052 0,0.898579 0,0.04279 0,0.08558 0,0.128368 0,0.04279 0.03026,0.09811 0,0.128368 -0.03026,0.03026 -0.09811,-0.03026 -0.128369,0 -0.03026,0.03026 0.04279,0.128369 0,0.128369 -10e-7,0 3e-6,-0.342315 -10e-7,-10e-7"
       id="path846"
       inkscape:connector-curvature="0" />
    <path
       style="fill:none;stroke:#000000;stroke-width:0.26458332px;stroke-linecap:butt;stroke-linejoin:miter;stroke-opacity:1"
       d="m 60.234921,96.652346 c 0.07553,-0.0118 0.164637,0.0094 0.226597,-0.03543 0.03468,-0.02507 0,-0.08558 0,-0.128368 0,-0.04279 0,-0.08558 0,-0.128371 0,-0.256736 0,-0.513471 0,-0.77021 0,-0.05781 0.01953,-0.346043 0,-0.385103 -0.02706,-0.05412 -0.101308,-0.07424 -0.128368,-0.128371 -0.04433,-0.08867 0.04506,-0.596779 0,-0.641839 -0.03026,-0.03026 -0.0901,0.01913 -0.128368,0 -0.05413,-0.02706 -0.07425,-0.101311 -0.12837,-0.128371 -0.171158,-0.08558 -0.128368,0.128371 -0.128368,-0.128368 0,-0.342315 0.04279,0.04279 -0.128368,-0.128368 -0.02625,-0.02624 0.02545,-0.334206 0,-0.385106 -0.02706,-0.05412 -0.101308,-0.07424 -0.128368,-0.128368 -0.05135,-0.102695 0.05135,-0.282411 0,-0.385104 -0.02706,-0.05413 -0.08558,-0.08558 -0.128368,-0.12837 -0.04279,-0.04279 -0.07425,-0.101308 -0.12837,-0.128368 -0.03827,-0.01913 -0.09811,0.03026 -0.128368,0 -0.0041,-0.0041 0,-0.353974 0,-0.385104 0,-0.256738 0,-0.513474 0,-0.770212 0,-0.05781 -0.01953,-0.346034 0,-0.385104 0.0514,-0.102799 0.205338,-0.153937 0.256738,-0.256739 0.01913,-0.03827 -0.01913,-0.0901 0,-0.128368 0.02706,-0.05413 0.101308,-0.07425 0.128368,-0.128367 0.01913,-0.03827 0,-0.08558 0,-0.128368 0,-0.04279 0,-0.08558 0,-0.128368 0,-0.171159 0,-0.342315 0,-0.513474 0,-0.556263 0,-1.112526 0,-1.668791 0,-0.513472 0,-1.026946 0,-1.54042 0,-0.08929 -0.0232,-0.595422 0,-0.641842 0.02706,-0.05413 0.101308,-0.07424 0.128368,-0.128368 0.02545,-0.0509 -0.02625,-0.358856 0,-0.385106 0.03026,-0.03026 0.08558,0 0.128368,0 0,-0.04279 -0.03026,-0.09811 0,-0.128368 0.03026,-0.03025 0.09811,0.03026 0.128368,0 0.03026,-0.03026 0,-0.08558 0,-0.128368 0,-0.08558 0,-0.171156 0,-0.256736 0,-0.256738 0,-0.513474 0,-0.770213 0,-0.04279 0,-0.08558 0,-0.128367 0,-0.04279 -0.01913,-0.0901 0,-0.128368 0.02706,-0.05413 0.10131,-0.07425 0.12837,-0.128368 0.01913,-0.03827 0,-0.08558 0,-0.128368 0,-0.04279 0,-0.08558 0,-0.128371 0,-0.171156 0,-0.342315 0,-0.513471 0,-0.599054 0,-1.198105 0,-1.797159 0,-0.08929 -0.0232,-0.595422 0,-0.641842 0.05412,-0.108249 0.202606,-0.148487 0.256736,-0.256736 0.04034,-0.08068 -0.04034,-0.432794 0,-0.513474 0.02706,-0.05413 0.101308,-0.07425 0.128368,-0.128368 0.02545,-0.0509 -0.02625,-0.358856 0,-0.385106 0.03026,-0.03026 0.09812,0.03026 0.128368,0 0.02625,-0.02624 -0.02545,-0.334204 0,-0.385104 0.02706,-0.05413 0.10131,-0.07424 0.12837,-0.12837 0.01659,-0.03319 0,-0.67922 0,-0.77021 0,-0.599051 0,-1.198105 0,-1.797159 0,-0.299524 0,-0.599051 0,-0.898578 0,-0.04279 0.03025,-0.09811 0,-0.128368 -0.03026,-0.03026 -0.09811,0.03026 -0.12837,0 -0.06051,-0.06051 0.06052,-0.196225 0,-0.256735 -0.03026,-0.03026 -0.09811,0.03025 -0.128368,0 -0.03025,-0.03026 0.01913,-0.0901 0,-0.128371 -0.02706,-0.05412 -0.101308,-0.07424 -0.128368,-0.128368 -0.03827,-0.07654 0.06051,-0.196226 0,-0.256736 -0.03026,-0.03026 -0.0901,0.01913 -0.128368,0 -0.05413,-0.02706 -0.08558,-0.08558 -0.128368,-0.128367 -0.04279,-0.04279 -0.10924,-0.07096 -0.12837,-0.128371 -0.01958,-0.05871 0.02856,-0.456352 0,-0.513472 -0.02706,-0.05412 -0.109238,-0.07096 -0.128368,-0.12837 -0.02299,-0.06901 0,-0.404789 0,-0.513472 0,-0.427894 0,-0.855789 0,-1.283684 0,-0.03113 0.0041,-0.381006 0,-0.385106 -0.03026,-0.03026 -0.09811,0.03026 -0.128368,0 -0.03026,-0.03026 0,-0.08558 0,-0.128368 0,-0.04279 0,-0.08558 0,-0.128368 0,-0.299527 0,-0.599054 0,-0.898581 0,-0.05781 0.01953,-0.346043 0,-0.385103 -0.02706,-0.05413 -0.109238,-0.07096 -0.128368,-0.128368 -1.93e-4,-5.82e-4 1.22e-4,-0.384985 0,-0.385107 -0.03026,-0.03026 -0.09812,0.03026 -0.128368,0 -0.265599,-0.265635 0.405868,0.01038 -0.12837,-0.256735 -0.03827,-0.01913 -0.09811,0.03025 -0.128368,0 -0.03025,-0.03026 0,-0.08558 0,-0.128371 0,-0.08558 0,-0.171156 0,-0.256736 0,-0.132246 0.01894,-0.860688 0,-0.898578 -0.02706,-0.05413 -0.101308,-0.07424 -0.128368,-0.12837 -0.01913,-0.03827 0,-0.08558 0,-0.128368 0,-0.04279 0,-0.08558 0,-0.128368 0,-0.04714 0.0052,-0.508274 0,-0.513474 -0.03026,-0.03025 -0.09811,0.03026 -0.128368,0 -0.04481,-0.04481 0.05328,-0.358464 0,-0.385104 -0.107098,-0.05355 -0.453704,0.05977 -0.513474,0 -0.06051,-0.06051 0,-0.171158 0,-0.256738 0,-0.105069 -0.01879,-0.73265 0,-0.77021 0.01914,-0.03827 0.09811,0.03026 0.128367,0 0.0058,-0.0058 0,-0.581312 0,-0.641842 0,-0.08558 0,-0.171156 0,-0.256736 0,-0.04279 -0.03026,-0.09812 0,-0.128368 0.03026,-0.03026 0.09811,0.03025 0.128371,0 0.03025,-0.03026 -0.03026,-0.09811 0,-0.128371 0.265636,-0.265596 -0.01038,0.405871 0.256736,-0.128367 0.03482,-0.06964 -0.03512,-0.478352 0,-0.513472 0.03026,-0.03026 0.09811,0.03025 0.128368,0 0.03026,-0.03026 0,-0.08558 0,-0.128371 0,-0.04279 0,-0.08558 0,-0.128367 0,-0.03113 -0.0041,-0.381004 0,-0.385104 0.03026,-0.03026 0.08558,0 0.128368,0 0,-0.04279 -0.03025,-0.09811 0,-0.128371 0.03026,-0.03026 0.09811,0.03026 0.128368,0 0.06766,-0.06765 0.05183,-0.199325 0.12837,-0.256735 0.108249,-0.08119 0.253833,-0.09555 0.385104,-0.128368 0.04152,-0.01037 0.109238,0.03827 0.128368,0 0.01511,-0.03019 0,-0.429145 0,-0.513475 0,-0.342315 0,-0.68463 0,-1.026948 0,-0.04279 0,-0.08558 0,-0.128368 0,-0.04279 0.03026,-0.09811 0,-0.128368 -0.03026,-0.03026 -0.09811,0.03026 -0.128368,0 -0.06051,-0.06051 0.06051,-0.196226 0,-0.256736 -0.265636,-0.265599 0.01038,0.405869 -0.256736,-0.12837 -0.01913,-0.03827 0,-0.08558 0,-0.128368 0,-0.08558 0,-0.171156 0,-0.256736 0,-0.256736 0,-0.513474 0,-0.77021 0,-0.04279 0,-0.08558 0,-0.128368 0,-0.04279 -0.03026,-0.09811 0,-0.12837 0.03026,-0.03025 0.09811,0.03026 0.128368,0 0.03026,-0.03026 -0.03026,-0.09811 0,-0.128368 0.265636,-0.265599 -0.01038,0.405871 0.256736,-0.128368 0.03827,-0.07654 -0.06051,-0.196226 0,-0.256736 0.03026,-0.03026 0.09811,0.03026 0.12837,0 0.03026,-0.03026 0,-0.08558 0,-0.12837 0,-0.587394 -0.0026,-0.171196 0.03014,-1.248254 0.28948,0.116559 0.573968,0.246377 0.86844,0.349677 0.08028,0.02816 0.759726,0 0.898579,0 0.04279,0 0.08558,0 0.128368,0 0.04279,0 0.109232,-0.03827 0.128369,0 0.203369,0.406738 -0.265646,0.119459 0.128368,0.513473 0.03026,0.03026 0.0901,-0.01914 0.128368,0 0.05412,0.02706 0.07424,0.101306 0.128369,0.128369 0.07654,0.03827 0.196223,-0.06051 0.256737,0 0.03026,0.03026 -0.01914,0.0901 0,0.128368 0.05412,0.10825 0.202611,0.148487 0.256736,0.256737 0.01914,0.03827 -0.03026,0.09811 0,0.128368 0.159617,0.159617 0.322761,0.128369 0.513474,0.128369 0.04279,0 0.09811,-0.03026 0.128368,0 0.03026,0.03026 -0.03026,0.09811 0,0.128368 0.03026,0.03026 0.08558,0 0.128369,0 0.213947,0 0.427894,0 0.641842,0 0.171158,0 0.342316,0 0.513473,0 0.04279,0 0.08558,0 0.128369,0 0.04279,0 0.0901,0.01914 0.128368,0 0.05412,-0.02706 0.07424,-0.101306 0.128369,-0.128368 0.03827,-0.01914 0.0901,0.01914 0.128368,0 0.158625,-0.07931 0.128368,-0.123938 0.128368,-0.256737 0,-0.04279 -0.04279,-0.128369 0,-0.128369 0.04279,0 -0.04279,0.128369 0,0.128369 0.06051,0 0.07424,-0.101306 0.128369,-0.128369 0.03827,-0.01914 0.09811,0.03026 0.128368,0 0.03026,-0.03026 -0.03026,-0.09811 0,-0.128368 0.03026,-0.03026 0.0901,0.01914 0.128369,0 0.425744,-0.425744 -0.121027,0.06051 0.256737,-0.128368 0.108249,-0.05412 0.148487,-0.202612 0.256736,-0.256737 0.0509,-0.02545 0.358862,0.02624 0.385106,0 0.03026,-0.03026 -0.03026,-0.09811 0,-0.128369 0.03512,-0.03512 0.443835,0.03482 0.513473,0 0.534239,-0.267119 -0.13723,0.0089 0.128369,-0.256736 0.06051,-0.06051 0.180192,0.03827 0.256736,0 0.05412,-0.02706 0.07424,-0.101306 0.128369,-0.128369 0.07654,-0.03827 0.196223,0.06051 0.256737,0 0.03026,-0.03026 -0.03026,-0.09811 0,-0.128368 0.04162,-0.04162 0.560367,0.04074 0.641842,0 0.05412,-0.02706 0.07424,-0.101306 0.128368,-0.128369 0.03907,-0.01953 0.327294,0 0.385105,0 0.256737,0 0.513474,0 0.770211,0 0.941368,0 1.882736,0 2.824105,0 0.256737,0 0.513473,0 0.77021,0 0.05781,0 0.346039,0.01953 0.385105,0 0.333569,-0.166784 -0.132117,-0.212697 0.385106,-0.385105 0.07077,-0.02359 0.486028,0.02745 0.513473,0 0.03026,-0.03026 -0.03026,-0.09811 0,-0.128368 0.04232,-0.04232 0.42058,0.03096 0.513474,0 0.05741,-0.01914 0.07424,-0.101306 0.128368,-0.128369 0.03827,-0.01914 0.09811,0.03026 0.128369,0 0.03026,-0.03026 -0.03026,-0.09811 0,-0.128368 0.03026,-0.03026 0.08558,0 0.128368,0 0.299526,0 0.599053,0 0.898579,0 0.684631,0 1.369263,0 2.053894,0 0.256737,0 0.513474,0 0.770211,0 0.04279,0 0.08558,0 0.128368,0 0.04279,0 0.0901,-0.01914 0.128369,0 0.108249,0.05412 0.148487,0.202612 0.256737,0.256737 0.07654,0.03827 0.196223,-0.06051 0.256736,0 0.03026,0.03026 -0.03026,0.09811 0,0.128368 0.06418,0.06418 0.320921,-0.06418 0.385106,0 0.03026,0.03026 -0.03026,0.09811 0,0.128368 0.03026,0.03026 0.08558,0 0.128368,0 0.04279,0 0.08558,0 0.128368,0 0.599053,0 1.198105,0 1.797158,0 0.770211,0 1.540421,0 2.310631,0 0.03113,0 0.380977,-0.0041 0.385106,0 0.03026,0.03026 -0.03026,0.09811 0,0.128369 0.06051,0.06051 0.180192,-0.03827 0.256736,0 0.05412,0.02706 0.07424,0.101306 0.128369,0.128368 0.07795,0.03897 0.692262,-0.03897 0.77021,0 0.05412,0.02706 0.07424,0.101306 0.128369,0.128369 0.03827,0.01914 0.0901,-0.01914 0.128368,0 0.05413,0.02706 0.07424,0.101306 0.128369,0.128368 0.07654,0.03827 0.196223,-0.06051 0.256736,0 0.06051,0.06051 -0.06051,0.196223 0,0.256737 0.03089,0.03089 0.482585,-0.03089 0.513474,0 0.03026,0.03026 0,0.08558 0,0.128368 0.04279,0 0.09811,-0.03026 0.128368,0 0.03026,0.03026 -0.03026,0.09811 0,0.128369 0.0041,0.0041 0.353973,0 0.385106,0 0.641842,0 1.283684,0 1.925526,0 0.299526,0 0.599052,0 0.898579,0 0.128368,0 0.270289,0.05741 0.385105,0 0.03827,-0.01914 -0.03026,-0.09811 0,-0.128369 0.03026,-0.03026 0.0901,0.01914 0.128368,0 0.05412,-0.02706 0.07424,-0.101306 0.128369,-0.128368 0.08143,-0.04071 0.55845,0.0417 0.641842,0 0.05412,-0.02706 0.07424,-0.101306 0.128368,-0.128368 0.102695,-0.05135 0.282411,0.05135 0.385105,0 0.05412,-0.02706 0.07096,-0.109233 0.128369,-0.128369 0.584369,0 0.0073,0.06051 0.385105,-0.128368 0.05482,-0.02741 0.591096,0 0.641842,0 0.04279,0 0.09811,0.03026 0.128368,0 0.03026,-0.03026 -0.03026,-0.09811 0,-0.128369 0.03026,-0.03026 0.08558,0 0.128369,0 0.04279,0 0.08558,0 0.128368,0 0.256737,0 0.513474,0 0.770211,0 0.08435,0 0.31268,0.02414 0.385105,0 0.929826,-0.309942 -0.202387,0.03701 0.385105,-0.256737 0.03827,-0.01914 0.08558,0 0.128368,0 0.04279,0 0.08558,0 0.128369,0 0.256737,0 0.513473,0 0.77021,0 0.04279,0 0.08558,0 0.128369,0 0.04279,0 0.0901,0.01914 0.128368,0 0.05412,-0.02706 0.07424,-0.101305 0.128368,-0.128368 0.03375,-0.01688 0.446348,0 0.513474,0 0.427895,0 0.855789,0 1.283684,0 0.05122,0 0.741753,-0.01781 0.770213,0 0.1942,0.121534 0.36241,0.280356 0.54361,0.420534"
       id="path848"
       inkscape:connector-curvature="0" />
    <path
       style="fill:#000000;fill-opacity:1;stroke-width:0.48517194"
       d="m 152.8344,361.78571 c -0.12873,-1.93628 -0.38958,-4.23311 -0.57966,-5.10408 -0.38228,-1.75157 0.39519,-4.13942 1.80767,-5.5519 0.47843,-0.47842 0.86986,-1.26285 0.86986,-1.74317 0,-0.48032 0.24034,-1.11364 0.53408,-1.40739 0.78577,-0.78577 0.40045,-17.2144 -0.42713,-18.2108 -0.43304,-0.5214 -0.48412,-1.09404 -0.1689,-1.8934 0.74183,-1.88114 1.53429,-14.11791 1.5256,-23.55771 l -0.008,-8.82696 -1.37066,-0.80967 c -1.8114,-1.07002 -3.96623,-4.70596 -3.96623,-6.6924 0,-0.87208 0.32055,-2.0094 0.71233,-2.52737 0.55681,-0.73618 0.71569,-2.66304 0.72776,-8.82583 0.009,-4.46988 -0.1773,-7.88404 -0.42962,-7.88404 -1.0538,0 -2.07489,-4.23466 -1.77134,-7.34609 0.90716,-9.29837 0.89427,-10.18649 -0.16876,-11.62431 -0.55608,-0.75214 -1.01106,-1.68446 -1.01106,-2.07181 0,-0.38735 -0.65498,-1.2554 -1.45552,-1.92901 -0.80053,-0.6736 -1.45551,-1.52045 -1.45551,-1.88188 0,-1.43356 1.54034,-6.45781 2.205,-7.19226 0.38832,-0.42909 0.70603,-1.53803 0.70603,-2.46431 0,-0.92629 0.18152,-1.89157 0.40338,-2.14507 0.87174,-0.99607 1.50437,-4.61115 1.82121,-10.40694 l 0.33152,-6.06465 -5.43295,0.15212 c -4.99725,0.13993 -5.62674,0.26638 -7.84923,1.57681 -2.0742,1.223 -2.91122,1.42394 -5.91242,1.41944 -1.92288,-0.003 -4.5679,-0.33039 -5.87782,-0.72776 -1.30992,-0.39738 -3.71753,-0.72251 -5.35023,-0.72251 -1.88176,0 -3.35728,-0.27227 -4.03034,-0.7437 -0.7962,-0.55768 -3.23193,-0.84303 -9.73811,-1.14084 -6.45859,-0.29563 -9.086164,-0.60159 -10.279673,-1.19699 -0.881829,-0.43992 -1.863438,-0.79984 -2.181352,-0.79984 -0.317914,0 -0.993933,-0.46216 -1.502267,-1.02701 -0.889873,-0.98881 -1.185877,-1.01419 -7.959241,-0.68227 -4.170135,0.20435 -7.701245,0.62258 -8.671051,1.02701 -0.899834,0.37524 -2.036359,0.68227 -2.525606,0.68227 -0.489252,0 -1.693856,0.54581 -2.676902,1.21292 -0.983041,0.66712 -2.075871,1.21293 -2.428504,1.21293 -0.352638,0 -1.031733,0.39876 -1.509103,0.88613 -1.120136,1.14358 -5.749268,2.21309 -8.187699,1.89166 -1.044187,-0.13763 -3.317649,-0.61338 -5.052139,-1.05721 -1.734489,-0.44383 -3.917763,-0.92038 -4.851719,-1.05901 -0.933956,-0.13863 -2.462247,-0.61579 -3.396203,-1.06036 -3.127694,-1.48881 -23.366651,-0.90902 -24.99161,0.71595 -0.760552,0.76055 -8.000082,0.9332 -8.000082,0.19078 0,-0.25433 -0.744276,-0.81559 -1.653948,-1.24726 -1.256159,-0.59609 -2.7733641,-0.74742 -6.3083229,-0.62923 l -4.65437506,0.15562 0.001088,-37.63722 0.001088,-37.63723 1.57680876,-0.025 c 0.8672449,-0.0137 2.886773,-0.37602 4.4878404,-0.80507 3.7227478,-0.99763 6.4318228,-0.99916 8.7951368,-0.005 3.261488,1.37205 7.41193,1.80941 17.501725,1.84427 7.232409,0.025 9.959814,-0.12508 10.406938,-0.57261 0.333257,-0.33355 1.56789,-0.60646 2.743628,-0.60646 1.702348,0 2.332013,0.24702 3.091797,1.21293 0.524752,0.66711 1.320318,1.21394 1.767928,1.21517 0.44761,0.001 1.572704,0.7108 2.500202,1.57681 l 1.686371,1.57457 5.298664,-0.0868 c 3.068456,-0.0503 5.430675,-0.30038 5.612294,-0.59425 0.172498,-0.2791 1.723268,-0.70762 3.446162,-0.95227 2.726157,-0.38711 8.494046,-2.57247 9.197186,-3.48466 0.48442,-0.62845 7.37603,-0.98379 8.060637,-0.41562 0.393659,0.32671 3.641652,0.65475 8.018975,0.8099 6.111028,0.2166 7.447458,0.14044 7.889448,-0.4496 1.36385,-1.82072 17.27055,-3.98226 17.27055,-2.34688 0,0.26685 0.31665,0.48517 0.70365,0.48517 0.38701,0 0.88077,0.31648 1.09723,0.70329 0.21647,0.38681 1.70103,1.30223 3.29902,2.03426 2.72129,1.24661 3.42051,1.34351 11.03207,1.5289 4.46965,0.10887 8.12663,0.37671 8.12663,0.5952 0,0.21849 1.14622,0.77223 2.54715,1.23052 1.40094,0.4583 3.35718,1.23999 4.34722,1.7371 1.3326,0.66911 2.86862,0.90383 5.91472,0.90383 2.26307,0 4.2496,-0.21833 4.41451,-0.48517 0.16492,-0.26685 0.9516,-0.48518 1.74818,-0.48518 1.21723,0 5.78546,-2.58161 8.48056,-4.79257 0.28892,-0.23701 1.70805,-0.59006 3.15362,-0.78454 1.44558,-0.19448 2.89601,-0.56988 3.22318,-0.83422 0.35021,-0.28296 1.54745,-0.33674 2.91103,-0.13078 4.08882,0.6176 16.62368,0.5444 17.02109,-0.0994 0.80236,-1.29983 7.43055,-2.31887 15.13316,-2.32661 8.00436,-0.008 10.18861,0.30434 10.18861,1.45719 0,0.40338 0.44089,0.71852 1.00524,0.71852 0.55288,0 2.02659,0.6004 3.27491,1.33422 l 2.26967,1.33422 12.85705,0.13797 c 7.07138,0.0759 13.29371,0.34262 13.8274,0.59274 0.53369,0.25012 3.26118,1.024 6.06109,1.71973 2.79991,0.69573 5.31067,1.43649 5.57948,1.64614 1.11293,0.868 8.85199,1.96807 13.84556,1.96807 4.7314,0 5.42535,-0.10926 6.16262,-0.97034 0.45696,-0.53369 1.23253,-0.97035 1.72348,-0.97035 0.99531,0 5.49815,-1.29977 6.70445,-1.93528 1.11499,-0.58741 3.91933,-0.93036 13.53482,-1.65524 6.33958,-0.47792 9.04361,-0.88371 10.67378,-1.60178 1.20081,-0.52894 2.89284,-1.24099 3.76009,-1.58235 0.86724,-0.34136 1.57681,-0.81249 1.57681,-1.04696 0,-0.23447 0.30075,-0.42631 0.66835,-0.42631 0.36759,0 0.94014,-0.32749 1.27233,-0.72776 0.89314,-1.07616 8.2482,-1.00968 10.334,0.0934 1.32478,0.70062 3.60379,0.8516 15.52493,1.02851 9.86186,0.14635 14.14369,0.37634 14.55515,0.78179 0.9381,0.92441 7.67674,2.91657 9.92096,2.93296 l 2.06044,0.0151 10e-4,37.06955 c 0.001,35.8817 -0.0269,37.04382 -0.88571,36.2666 -1.03265,-0.93454 -7.51253,-1.0656 -13.6679,-0.27645 -2.00134,0.25658 -5.34495,0.65932 -7.43026,0.89496 -3.50739,0.39636 -8.16198,1.38024 -11.76848,2.4876 -0.81948,0.25162 -4.14123,0.45748 -7.38165,0.45748 -5.49328,0 -6.04871,-0.0881 -8.21349,-1.30298 -3.26431,-1.83195 -5.37677,-2.15482 -16.41526,-2.50893 -8.09012,-0.25954 -9.94463,-0.45492 -11.02059,-1.1611 -1.09995,-0.72192 -2.49058,-0.84905 -9.28743,-0.84905 -4.39657,0 -8.11098,0.18965 -8.25424,0.42145 -0.14326,0.23179 -1.1932,0.57032 -2.3332,0.75227 -1.14,0.18196 -2.52274,0.62531 -3.07275,0.98523 -0.73784,0.48283 -3.79052,0.70287 -11.64413,0.83931 -9.81736,0.17056 -10.81134,0.26857 -12.79722,1.26178 -1.18421,0.59227 -2.38675,1.07685 -2.6723,1.07685 -0.95378,0 -5.35303,2.51906 -6.1458,3.51917 -0.6942,0.87575 -1.17381,0.95928 -4.2458,0.73948 -2.98692,-0.21371 -3.5983,-0.41955 -4.44565,-1.49678 -0.54035,-0.68695 -1.38984,-1.3783 -1.88776,-1.53633 -0.49791,-0.15803 -1.0176,-0.71675 -1.15485,-1.24161 -0.20585,-0.78748 -0.67103,-0.95427 -2.66149,-0.95427 -1.32662,0 -3.19583,-0.32749 -4.1538,-0.72776 -0.95798,-0.40027 -1.85795,-0.72776 -1.99994,-0.72776 -0.142,0 -0.25817,1.28052 -0.25817,2.8456 0,2.11096 -0.25051,3.16408 -0.97034,4.0792 -1.19755,1.52244 -1.33809,6.3756 -0.22716,7.84438 0.40835,0.53989 0.71232,1.9892 0.71231,3.39621 -10e-6,2.20422 -0.16625,2.58706 -1.63081,3.75564 -1.22232,0.97529 -1.7142,1.82279 -1.96378,3.38353 -0.18314,1.14527 -0.63434,2.4155 -1.00268,2.82274 -0.39081,0.43208 -0.81307,2.50835 -1.01396,4.98569 -0.32842,4.04999 -0.29916,4.24525 0.63622,4.24525 1.18976,0 1.48834,0.9343 1.89931,5.94336 0.16968,2.06804 0.48571,3.76008 0.7023,3.76008 0.78351,0 1.398,3.78799 1.83507,11.31217 0.32288,5.55837 0.64297,7.89861 1.16129,8.49051 1.89528,2.1643 2.28809,3.84262 2.28809,9.77604 0,5.39634 -0.64528,9.64126 -1.95699,12.87382 -0.21656,0.53369 -0.51067,4.7577 -0.65359,9.38668 -0.18004,5.83158 -0.45233,8.64792 -0.88661,9.17041 -0.44743,0.53833 -0.69619,3.57247 -0.86936,10.60406 -0.17123,6.95278 -0.42096,10.02787 -0.84905,10.45479 -0.86899,0.86663 -0.81878,7.01786 0.06,7.3551 0.36657,0.14067 0.82091,1.09192 1.00963,2.11389 0.18873,1.02197 0.78601,2.33429 1.3273,2.91627 0.78566,0.84472 0.99792,1.77437 1.05235,4.60913 l 0.0682,3.55099 -37.19851,0.1243 -37.19851,0.1243 z"
       id="path850"
       inkscape:connector-curvature="0"
       transform="scale(0.26458333)" />
    <path
       style="fill:#cd853f;fill-opacity:1;stroke-width:0.48517194"
       d="m 0.7673518,290.70654 0.12283311,-74.59671 4.11577949,-0.14274 c 4.0852801,-0.14169 6.0713056,0.34975 6.9459906,1.71876 0.580428,0.90845 9.859662,0.84416 10.38298,-0.0719 0.421693,-0.7382 2.790717,-1.04614 11.937029,-1.55162 5.607765,-0.30992 11.155643,0.31624 11.782046,1.32978 0.14136,0.22872 1.18294,0.41586 2.314625,0.41586 1.131683,0 2.265015,0.20066 2.518518,0.44592 0.63688,0.61616 5.651069,1.61035 9.385025,1.86083 3.21064,0.21537 7.942264,-0.87049 8.664782,-1.98847 0.475619,-0.73595 5.491856,-3.22931 6.49685,-3.22931 0.430159,0 1.518336,-0.30355 2.41817,-0.67457 0.899829,-0.37101 4.325604,-0.83269 7.612828,-1.02596 5.695312,-0.33485 6.021779,-0.30308 6.932597,0.67457 0.525709,0.56428 1.241274,1.02596 1.590151,1.02596 0.348873,0 1.355818,0.35993 2.237647,0.79985 1.195052,0.59617 3.830107,0.90177 10.347897,1.20011 5.8243,0.2666 8.86317,0.59219 9.09974,0.97498 0.20376,0.32968 2.28786,0.72716 4.88828,0.93229 2.49319,0.19667 5.14769,0.5988 5.89889,0.89362 2.97751,1.16859 11.4612,0.56608 12.94676,-0.91947 1.03546,-1.03546 2.9373,-1.45552 6.58993,-1.45552 h 4.17723 l -0.33939,5.2156 c -0.22109,3.39766 -0.66015,5.95581 -1.25962,7.33925 -0.50612,1.16801 -0.92023,2.78828 -0.92023,3.60059 0,0.81231 -0.31771,1.828 -0.70602,2.25708 -0.88037,0.97279 -2.20501,5.94853 -2.20501,8.28263 0,1.3791 0.30686,1.97438 1.45552,2.82362 0.80053,0.59186 1.45551,1.40591 1.45551,1.80899 0,0.40308 0.45838,1.35287 1.01862,2.11063 0.86983,1.17651 0.97326,1.79373 0.70808,4.22561 -0.95673,8.77389 -0.89351,10.80559 0.41976,13.48983 1.13204,2.31379 1.24975,3.10404 1.24975,8.39013 0,4.08976 -0.21774,6.35687 -0.72776,7.57752 -0.79749,1.90865 -0.99887,7.10983 -0.27528,7.10983 0.24886,0 0.60504,0.49123 0.7915,1.09163 0.35541,1.14444 2.96785,3.76009 3.75547,3.76009 0.93983,0 -0.19825,26.24208 -1.38366,31.90449 -0.22005,1.05116 -0.10903,1.84871 0.33116,2.37905 0.47721,0.57494 0.71059,2.87956 0.83548,8.25039 0.18645,8.01819 0.0466,8.68116 -2.67758,12.69426 -1.06905,1.57487 -1.17398,2.11426 -0.91245,4.69054 0.16253,1.60107 0.34281,4.221 0.40061,5.82206 l 0.10509,2.91103 -75.324476,0.12282 -75.32448532,0.12282 z"
       id="path852"
       inkscape:connector-curvature="0"
       transform="scale(0.26458333)" />
    <path
       style="fill:#cd853f;fill-opacity:1;stroke-width:0.48517194"
       d="m 228.97798,360.96734 c -0.22366,-3.45219 -0.47929,-4.53143 -1.25768,-5.30983 -0.53734,-0.53733 -1.12115,-1.74551 -1.29737,-2.68484 -0.17622,-0.93934 -0.62506,-1.96073 -0.99741,-2.26975 -0.8985,-0.74569 -0.85398,-4.7774 0.0662,-5.99397 0.56498,-0.74696 0.71295,-2.75422 0.71532,-9.70343 0.002,-6.90302 0.15991,-9.06257 0.74271,-10.18017 0.54454,-1.04421 0.80981,-3.66868 1.00532,-9.94603 0.14607,-4.69013 0.44636,-8.96416 0.6673,-9.49785 1.39715,-3.37485 1.94823,-7.27391 1.94823,-13.78437 0,-7.08763 -0.42511,-8.98491 -2.35309,-10.50196 -0.46679,-0.3673 -0.79086,-2.87689 -1.12788,-8.73433 -0.35285,-6.13252 -0.69718,-8.71162 -1.35638,-10.15965 -0.48591,-1.06737 -1.02605,-3.46897 -1.20031,-5.33689 -0.44512,-4.77125 -0.70611,-5.57947 -1.80178,-5.57947 -0.8661,0 -0.91604,-0.24387 -0.62102,-3.03233 0.17645,-1.66778 0.59617,-3.25441 0.93271,-3.52585 0.33654,-0.27143 0.77187,-1.47223 0.96741,-2.66844 0.3617,-2.2127 1.84158,-4.3582 3.00612,-4.3582 0.97506,0 0.89983,-7.92197 -0.0846,-8.90637 -1.01849,-1.01849 -0.9593,-4.50065 0.0864,-5.08588 0.57812,-0.32353 0.8757,-1.30568 1.02625,-3.38705 0.20839,-2.88091 0.23251,-2.92361 1.40065,-2.47948 0.65373,0.24855 2.03299,0.4519 3.06502,0.4519 1.4503,0 1.94634,0.22036 2.18438,0.97035 0.16939,0.53369 0.50399,0.97034 0.74357,0.97034 0.23958,0 1.22735,0.69517 2.19505,1.54483 1.61166,1.41505 2.0973,1.56255 5.78114,1.75591 3.46553,0.18189 4.148,0.0848 4.93509,-0.70233 1.56529,-1.56529 3.75056,-2.92781 5.26685,-3.28388 0.80054,-0.18799 2.43799,-0.82023 3.63879,-1.40497 2.00932,-0.97846 3.03375,-1.07517 12.85706,-1.2137 7.63731,-0.1077 10.8118,-0.31851 11.15895,-0.74104 0.90693,-1.10386 5.8036,-1.91233 12.79826,-2.11309 6.01238,-0.17256 7.21892,-0.0794 8.73309,0.67446 1.43281,0.71332 3.50217,0.93058 11.21776,1.17769 10.53434,0.3374 12.70115,0.67418 16.32372,2.53717 2.3524,1.20976 2.89124,1.28378 9.34615,1.28378 3.76739,0 7.22893,-0.19101 7.69228,-0.42446 1.4538,-0.73247 7.50239,-2.00891 11.77746,-2.48541 2.25794,-0.25168 5.63363,-0.67117 7.50155,-0.93222 1.86791,-0.26105 5.25198,-0.47858 7.52016,-0.4834 3.33137,-0.007 4.33376,0.16625 5.2156,0.9019 l 1.09164,0.91068 v 74.03225 74.03224 H 304.8737 229.25869 Z"
       id="path854"
       inkscape:connector-curvature="0"
       transform="scale(0.26458333)" />
    <path
       style="fill:#cd853f;fill-opacity:1;stroke-width:0.48517194"
       d="m 273.54447,145.24403 c -1.84801,-0.367 -4.07318,-1.00569 -4.94483,-1.41932 -0.87164,-0.41361 -2.52537,-0.93985 -3.67496,-1.1694 -3.27564,-0.65409 -6.9178,-1.69864 -7.18735,-2.06129 -0.135,-0.18163 -6.24817,-0.4111 -13.58482,-0.50992 -10.05842,-0.13548 -13.66751,-0.34389 -14.67357,-0.84731 -0.73382,-0.3672 -1.33422,-0.84103 -1.33422,-1.05295 0,-0.21192 -0.76415,-0.52866 -1.6981,-0.70387 -0.93396,-0.17521 -1.69811,-0.59841 -1.69811,-0.94042 0,-1.11878 -1.58272,-1.36299 -10.26709,-1.58418 -6.8399,-0.17422 -9.04265,-0.0674 -10.91637,0.52931 -1.29105,0.41116 -3.26269,0.88883 -4.38142,1.06148 -1.11873,0.17265 -2.29168,0.62434 -2.60657,1.00374 -0.43581,0.52512 -1.94161,0.68984 -6.30653,0.68984 -3.29933,0 -5.86134,-0.20601 -6.03387,-0.48518 -0.37833,-0.61214 -6.88045,-0.64256 -7.2566,-0.034 -0.15337,0.24817 -1.48715,0.60218 -2.96394,0.7867 -1.4768,0.18451 -2.95725,0.60764 -3.28989,0.94029 -0.33265,0.33264 -1.08458,0.75708 -1.67095,0.94319 -0.58637,0.18611 -1.34034,0.60417 -1.67547,0.92903 -1.53295,1.48593 -3.77794,2.74198 -4.90086,2.74198 -0.67688,0 -1.36562,0.21833 -1.53054,0.48518 -0.56625,0.9162 -6.85305,0.57078 -8.72255,-0.47925 -0.94438,-0.53043 -2.69104,-1.20967 -3.88146,-1.50942 -1.19042,-0.29975 -2.41606,-0.84824 -2.72365,-1.21885 -0.42872,-0.51659 -2.15897,-0.67449 -7.41354,-0.67657 -3.76986,-10e-4 -7.7276,-0.23658 -8.79498,-0.52243 -2.32396,-0.62237 -6.06342,-2.3437 -6.06772,-2.79305 -0.001,-0.17633 -0.67436,-0.70267 -1.49483,-1.16965 -1.09082,-0.62085 -2.57552,-0.84905 -5.52398,-0.84905 -4.9497,0 -13.84481,1.67809 -14.677,2.76886 -0.51416,0.67392 -1.45386,0.7373 -6.999092,0.47205 -3.997114,-0.19119 -6.535014,-0.51642 -6.750498,-0.86508 -0.247137,-0.39988 -1.689131,-0.45795 -5.072429,-0.2043 -3.977071,0.29817 -5.109079,0.57962 -7.134323,1.77375 -1.323961,0.78063 -3.314903,1.62644 -4.424321,1.87957 -1.109419,0.25314 -2.9996,0.70111 -4.2004,0.99551 -4.190338,1.02732 -7.894461,1.51083 -9.399814,1.22699 -0.834107,-0.15728 -2.280701,-0.94013 -3.214657,-1.73966 -0.933956,-0.79953 -1.965979,-1.45421 -2.293383,-1.45483 -0.327404,-4.9e-4 -0.952912,-0.54696 -1.390023,-1.21407 -0.725666,-1.10751 -1.097721,-1.21293 -4.280696,-1.21293 -2.142235,0 -3.719462,0.23377 -4.091733,0.60646 -0.660994,0.66175 -15.42165,0.77686 -20.450684,0.15949 -2.473393,-0.30364 -3.273894,-0.54659 -6.16114,-1.86992 -1.477176,-0.67704 -9.2063129,-0.16091 -11.3959233,0.76099 -0.9839365,0.41427 -2.2393188,0.63545 -2.7897386,0.49151 l -1.00076335,-0.2617 V 69.773907 1.9064224 H 190.54389 380.48871 V 70.350321 c 0,74.920909 0.18667,70.233419 -2.76943,69.541939 -2.51685,-0.58874 -7.03007,-2.17839 -8.07698,-2.84489 -0.79453,-0.50583 -4.24976,-0.70872 -14.62512,-0.8588 -11.36432,-0.16438 -13.89189,-0.33001 -15.46346,-1.01335 -2.53907,-1.10402 -11.05375,-1.16751 -11.94876,-0.0891 -0.33219,0.40026 -1.02075,0.72776 -1.53015,0.72776 -0.50939,0 -1.05183,0.32749 -1.20542,0.72775 -0.1536,0.40027 -0.53724,0.72776 -0.85254,0.72776 -0.31529,0 -1.39009,0.41644 -2.38843,0.92543 -2.53216,1.29097 -5.60279,1.90162 -11.24706,2.23669 -7.38022,0.43813 -13.75668,1.1601 -14.68862,1.66311 -1.39527,0.75309 -5.54778,1.96718 -6.7283,1.96718 -0.61288,0 -1.34186,0.4343 -1.62875,0.97034 -0.46996,0.87814 -0.99021,0.96601 -5.47525,0.92475 -2.72577,-0.0251 -6.46795,-0.34585 -8.31597,-0.71286 z"
       id="path856"
       inkscape:connector-curvature="0"
       transform="scale(0.26458333)" />
  </g>
</svg>
