# MagicaVoxel @ Ephtracy

# group
g hunter foot left

# material
mtllib hunter foot left.mtl
usemtl palette

# normals
vn -1 0 0
vn 1 0 0
vn 0 0 1
vn 0 0 -1
vn 0 -1 0
vn 0 1 0

# texcoords
vt 0.537109 0.5
vt 0.994141 0.5

# verts
v -2 0 4
v -2 0 -1
v -2 0 -2
v -2 0 -4
v -2 1 4
v -2 1 3
v -2 1 2
v -2 1 -1
v -2 1 -2
v -2 1 -4
v -2 2 3
v -2 2 2
v -2 3 4
v -2 3 -0
v -2 4 -0
v -2 4 -4
v -1 1 3
v -1 1 2
v -1 2 3
v -1 2 2
v 1 2 4
v 1 2 3
v 1 3 4
v 1 3 3
v 2 0 4
v 2 0 -1
v 2 0 -2
v 2 0 -4
v 2 1 4
v 2 1 -1
v 2 1 -2
v 2 1 -4
v 2 2 4
v 2 2 3
v 2 3 3
v 2 3 -0
v 2 4 -0
v 2 4 -4
v -2 0 4
v -2 1 4
v -2 3 4
v -1 1 4
v -1 2 4
v 1 1 4
v 1 2 4
v 1 3 4
v 2 0 4
v 2 1 4
v 2 2 4
v 1 2 3
v 1 3 3
v 2 2 3
v 2 3 3
v -2 1 2
v -2 2 2
v -1 1 2
v -1 2 2
v -2 3 -0
v -2 4 -0
v 2 3 -0
v 2 4 -0
v -2 0 -2
v -2 1 -2
v 2 0 -2
v 2 1 -2
v -2 1 3
v -2 2 3
v -1 1 3
v -1 2 3
v -2 0 -1
v -2 1 -1
v 2 0 -1
v 2 1 -1
v -2 0 -4
v -2 1 -4
v -2 4 -4
v -1 1 -4
v -1 2 -4
v 1 1 -4
v 1 2 -4
v 2 0 -4
v 2 1 -4
v 2 4 -4
v -2 0 4
v 2 0 4
v -1 0 3
v 1 0 3
v -1 0 -0
v 1 0 -0
v -2 0 -1
v 2 0 -1
v -2 0 -2
v 2 0 -2
v -2 0 -4
v 2 0 -4
v -2 1 -1
v 2 1 -1
v -2 1 -2
v 2 1 -2
v -2 2 3
v -1 2 3
v -2 2 2
v -1 2 2
v -2 1 3
v -1 1 3
v -2 1 2
v -1 1 2
v 1 2 4
v 2 2 4
v 1 2 3
v 2 2 3
v -2 3 4
v 1 3 4
v 1 3 3
v 2 3 3
v -2 3 -0
v 2 3 -0
v -2 4 -0
v 2 4 -0
v -2 4 -4
v 2 4 -4

# faces
f 5/2/1 2/2/1 1/2/1
f 6/2/1 2/2/1 5/2/1
f 7/2/1 2/2/1 6/2/1
f 8/2/1 2/2/1 7/2/1
f 9/2/1 4/2/1 3/2/1
f 10/2/1 4/2/1 9/2/1
f 11/1/1 6/1/1 5/1/1
f 12/1/1 8/1/1 7/1/1
f 12/1/1 10/1/1 9/1/1
f 12/1/1 9/1/1 8/1/1
f 13/1/1 11/1/1 5/1/1
f 13/1/1 12/1/1 11/1/1
f 14/1/1 10/1/1 12/1/1
f 14/1/1 12/1/1 13/1/1
f 15/1/1 10/1/1 14/1/1
f 16/1/1 10/1/1 15/1/1
f 19/1/1 18/1/1 17/1/1
f 20/1/1 18/1/1 19/1/1
f 21/1/2 22/1/2 23/1/2
f 23/1/2 22/1/2 24/1/2
f 25/2/2 26/2/2 29/2/2
f 29/2/2 26/2/2 30/2/2
f 27/2/2 28/2/2 31/2/2
f 31/2/2 28/2/2 32/2/2
f 29/1/2 30/1/2 33/1/2
f 30/1/2 31/1/2 33/1/2
f 31/1/2 32/1/2 33/1/2
f 33/1/2 32/1/2 34/1/2
f 34/1/2 32/1/2 35/1/2
f 35/1/2 32/1/2 36/1/2
f 36/1/2 32/1/2 37/1/2
f 37/1/2 32/1/2 38/1/2
f 42/2/3 40/2/3 39/2/3
f 42/1/3 41/1/3 40/1/3
f 43/1/3 41/1/3 42/1/3
f 44/2/3 42/2/3 39/2/3
f 44/2/3 43/2/3 42/2/3
f 45/1/3 41/1/3 43/1/3
f 45/2/3 43/2/3 44/2/3
f 46/1/3 41/1/3 45/1/3
f 47/2/3 44/2/3 39/2/3
f 48/1/3 45/1/3 44/1/3
f 48/2/3 44/2/3 47/2/3
f 49/1/3 45/1/3 48/1/3
f 52/1/3 51/1/3 50/1/3
f 53/1/3 51/1/3 52/1/3
f 56/1/3 55/1/3 54/1/3
f 57/1/3 55/1/3 56/1/3
f 60/1/3 59/1/3 58/1/3
f 61/1/3 59/1/3 60/1/3
f 64/2/3 63/2/3 62/2/3
f 65/2/3 63/2/3 64/2/3
f 66/1/4 67/1/4 68/1/4
f 68/1/4 67/1/4 69/1/4
f 70/2/4 71/2/4 72/2/4
f 72/2/4 71/2/4 73/2/4
f 74/2/4 75/2/4 77/2/4
f 75/1/4 76/1/4 77/1/4
f 77/1/4 76/1/4 78/1/4
f 74/2/4 77/2/4 79/2/4
f 77/2/4 78/2/4 79/2/4
f 78/1/4 76/1/4 80/1/4
f 79/2/4 78/2/4 80/2/4
f 74/2/4 79/2/4 81/2/4
f 79/1/4 80/1/4 82/1/4
f 81/2/4 79/2/4 82/2/4
f 80/1/4 76/1/4 83/1/4
f 82/1/4 80/1/4 83/1/4
f 86/2/5 85/2/5 84/2/5
f 87/2/5 85/2/5 86/2/5
f 88/2/5 86/2/5 84/2/5
f 88/1/5 87/1/5 86/1/5
f 89/2/5 85/2/5 87/2/5
f 89/1/5 87/1/5 88/1/5
f 90/2/5 88/2/5 84/2/5
f 90/2/5 89/2/5 88/2/5
f 91/2/5 85/2/5 89/2/5
f 91/2/5 89/2/5 90/2/5
f 94/2/5 93/2/5 92/2/5
f 95/2/5 93/2/5 94/2/5
f 98/1/5 97/1/5 96/1/5
f 99/1/5 97/1/5 98/1/5
f 102/1/5 101/1/5 100/1/5
f 103/1/5 101/1/5 102/1/5
f 104/2/6 105/2/6 106/2/6
f 106/2/6 105/2/6 107/2/6
f 108/1/6 109/1/6 110/1/6
f 110/1/6 109/1/6 111/1/6
f 112/1/6 113/1/6 114/1/6
f 112/1/6 114/1/6 116/1/6
f 114/1/6 115/1/6 116/1/6
f 116/1/6 115/1/6 117/1/6
f 118/1/6 119/1/6 120/1/6
f 120/1/6 119/1/6 121/1/6
