<?xml version="1.0" encoding="UTF-8" standalone="no"?>
<!-- Created with Inkscape (http://www.inkscape.org/) -->

<svg
   xmlns:dc="http://purl.org/dc/elements/1.1/"
   xmlns:cc="http://creativecommons.org/ns#"
   xmlns:rdf="http://www.w3.org/1999/02/22-rdf-syntax-ns#"
   xmlns:svg="http://www.w3.org/2000/svg"
   xmlns="http://www.w3.org/2000/svg"
   xmlns:sodipodi="http://sodipodi.sourceforge.net/DTD/sodipodi-0.dtd"
   xmlns:inkscape="http://www.inkscape.org/namespaces/inkscape"
   width="210mm"
   height="297mm"
   viewBox="0 0 210 297"
   version="1.1"
   id="svg8"
   inkscape:version="0.92.3 (2405546, 2018-03-11)"
   sodipodi:docname="gerade Straße.svg"
   inkscape:export-filename="C:\Users\Lill Kuhfahl\Desktop\grafiken\gerade Straße.png"
   inkscape:export-xdpi="96"
   inkscape:export-ydpi="96">
  <defs
     id="defs2" />
  <sodipodi:namedview
     id="base"
     pagecolor="#ffffff"
     bordercolor="#666666"
     borderopacity="1.0"
     inkscape:pageopacity="0.0"
     inkscape:pageshadow="2"
     inkscape:zoom="2.061125"
     inkscape:cx="152.70048"
     inkscape:cy="946.24247"
     inkscape:document-units="mm"
     inkscape:current-layer="layer1"
     showgrid="false"
     inkscape:window-width="1920"
     inkscape:window-height="1017"
     inkscape:window-x="-8"
     inkscape:window-y="-8"
     inkscape:window-maximized="1" />
  <metadata
     id="metadata5">
    <rdf:RDF>
      <cc:Work
         rdf:about="">
        <dc:format>image/svg+xml</dc:format>
        <dc:type
           rdf:resource="http://purl.org/dc/dcmitype/StillImage" />
        <dc:title />
      </cc:Work>
    </rdf:RDF>
  </metadata>
  <g
     inkscape:label="Ebene 1"
     inkscape:groupmode="layer"
     id="layer1">
    <rect
       id="rect10"
       width="100.93643"
       height="96.57946"
       x="-0.022024542"
       y="0.25673681"
       style="fill:#cd853f;stroke:#0e0000;stroke-width:0.26458332;stroke-opacity:1;fill-opacity:1" />
    <path
       style="fill:none;stroke:#000000;stroke-width:0.26458332px;stroke-linecap:butt;stroke-linejoin:miter;stroke-opacity:1"
       d="m 0,37.053975 c 0.21394734,-0.128368 0.42789469,-0.256736 0.64184204,-0.385104 0,-0.04279 -0.0302568,-0.09811 0,-0.128371 1.225e-4,-1.21e-4 0.38452336,1.96e-4 0.38510526,0 0.057408,-0.01913 0.069662,-0.113691 0.1283684,-0.128368 0.1245356,-0.03113 0.2605695,0.03113 0.3851052,0 0.058707,-0.01468 0.078018,-0.0948 0.1283684,-0.128367 0.079611,-0.05307 0.1771261,-0.0753 0.2567368,-0.128368 0.05035,-0.03357 0.074244,-0.101307 0.1283684,-0.128368 0.076544,-0.03827 0.1962233,0.06051 0.2567368,0 0.030257,-0.03026 -0.030257,-0.09811 0,-0.128371 0.067656,-0.06765 0.1771261,-0.07529 0.2567368,-0.128368 0.05035,-0.03357 0.074244,-0.101306 0.1283685,-0.128368 0.1374167,-0.06871 0.2739483,0.111157 0.5134735,-0.128367 0.030257,-0.03026 -0.030257,-0.09811 0,-0.128368 0.00413,-0.0041 0.3539725,0 0.3851052,0 0.3010469,0 -0.060513,0.03025 0.2567369,-0.128371 0.080682,-0.04034 0.4327911,0.04034 0.5134737,0 0.038272,-0.01913 -0.030257,-0.09811 0,-0.128368 0.037982,-0.03798 0.4339605,0.03976 0.5134734,0 0.054125,-0.02706 0.07096,-0.10923 0.1283684,-0.128368 0.065061,-0.02169 0.7936389,0 0.898579,0 0.2139474,0 0.4278947,0 0.6418421,0 0.085579,0 0.173713,-0.02077 0.2567366,0 0.092823,0.0232 0.1659668,0.09811 0.2567368,0.128368 0.081187,0.02706 0.1801929,-0.03827 0.2567369,0 0.1082497,0.05413 0.148487,0.202613 0.2567368,0.256739 0.079513,0.03976 0.4754917,-0.03798 0.5134737,0 0.030257,0.03025 -0.030257,0.09811 0,0.128368 0.030257,0.03026 0.087775,-0.01352 0.1283684,0 0.09077,0.03026 0.1639134,0.105161 0.2567369,0.128367 0.06254,0.01564 0.4455959,-0.03394 0.5134734,0 0.054125,0.02706 0.07096,0.109234 0.1283684,0.128368 0.081187,0.02707 0.1711579,0 0.2567369,0 0.042789,0 0.090096,-0.01913 0.1283684,0 0.054125,0.02707 0.07096,0.109234 0.1283684,0.128368 0.07099,0.02365 0.6409366,0 0.7702106,0 0.04279,0 0.08558,0 0.128368,0 0.04279,0 0.0901,-0.01913 0.128369,0 0.108249,0.05413 0.148487,0.202613 0.256736,0.256739 0.08143,0.04071 0.558451,-0.0417 0.641843,0 0.05412,0.02706 0.07424,0.101306 0.128368,0.128368 0.07654,0.03827 0.180193,-0.03827 0.256737,0 0.05413,0.02706 0.07424,0.101306 0.128368,0.128367 0.06964,0.03482 0.478349,-0.03512 0.513474,0 0.03026,0.03026 -0.03026,0.09811 0,0.128368 0.03026,0.03026 0.0901,-0.01913 0.128368,0 0.05412,0.02707 0.07424,0.101307 0.128368,0.128371 0.07654,0.03827 0.180193,-0.03828 0.256737,0 0.05413,0.02706 0.07096,0.109231 0.128369,0.128368 0.08119,0.02706 0.180192,-0.03827 0.256737,0 0.03827,0.01913 -0.01914,0.0901 0,0.128368 0.02706,0.05413 0.07424,0.101306 0.128368,0.128368 0.07654,0.03827 0.175549,-0.02706 0.256737,0 0.09077,0.03026 0.165966,0.09811 0.256737,0.128368 0.08119,0.02706 0.180192,-0.03827 0.256736,0 0.05412,0.02706 0.07424,0.101306 0.128369,0.128367 0.03827,0.01913 0.08558,0 0.128368,0 0.04279,0 0.08558,0 0.128369,0 0.213947,0 0.427894,0 0.641842,0 0.08558,0 0.180192,-0.03827 0.256737,0 0.03827,0.01913 -0.03026,0.09811 0,0.128371 0.0052,0.0052 0.466332,0 0.513473,0 1.155316,0 2.310631,0 3.465947,0 0.256737,0 0.513474,0 0.77021,0 0.04279,0 0.08558,0 0.128369,0 0.04279,0 0.0901,-0.01913 0.128368,0 0.05412,0.02706 0.07096,0.109231 0.128369,0.128368 5.82e-4,1.93e-4 0.384982,-1.22e-4 0.385105,0 0.265599,0.265599 -0.40587,-0.01037 0.128368,0.256736 0.05712,0.02856 0.45476,-0.01958 0.513474,0 0.05741,0.01913 0.07424,0.101306 0.128368,0.128368 0.07951,0.03976 0.475492,-0.03798 0.513474,0 0.03026,0.03026 -0.03026,0.09811 0,0.12837 0.03026,0.03026 0.08558,0 0.128368,0 0.06053,0 0.636025,-0.0058 0.641842,0 0.03026,0.03026 -0.03026,0.09811 0,0.128368 0.06419,0.06418 0.320922,-0.06419 0.385106,0 0.03026,0.03025 -0.03026,0.09811 0,0.128368 0.265599,0.265599 -0.01038,-0.405871 0.256737,0.128368 0.08853,0.177067 -0.155462,0.114824 0.128368,0.256738 0.03827,0.01913 0.0901,-0.01913 0.128368,0 0.05412,0.02706 0.07424,0.101304 0.128369,0.128368 0.03827,0.01913 0.09811,-0.03026 0.128368,0 0.03026,0.03026 -0.03026,0.09811 0,0.128368 0.06051,0.06051 0.196223,-0.06051 0.256737,0 0.03026,0.03026 -0.01914,0.0901 0,0.128368 0.267119,0.534239 -0.0089,-0.137229 0.256737,0.128368 0.03026,0.03026 -0.03026,0.09811 0,0.12837 0.06051,0.06051 0.180192,-0.03827 0.256737,0 0.151641,0.07582 0.105094,0.180914 0.256736,0.256736 0.03827,0.01913 0.09811,-0.03026 0.128369,0 0.03026,0.03026 -0.03026,0.09811 0,0.128368 0.08581,0.08581 0.170926,-0.08581 0.256736,0 0.03026,0.03026 -0.03827,0.109233 0,0.128368 0.114817,0.05741 0.270289,-0.05741 0.385106,0 0.05412,0.02706 0.07424,0.101306 0.128368,0.12837 0.05482,0.02741 0.591096,0 0.641843,0 0.04279,0 0.08558,0 0.128368,0 0.04279,0 0.09811,-0.03026 0.128368,0 0.03026,0.03026 -0.03026,0.09811 0,0.128368 0.03026,0.03026 0.08558,0 0.128368,0 0.04279,0 0.08558,0 0.128368,0 0.470686,0 0.941369,0 1.412052,0 0.385106,0 0.770213,0 1.155316,0 0.06713,0 0.479722,0.01688 0.513475,0 0.05413,-0.02706 0.07424,-0.101306 0.128367,-0.128368 0.07654,-0.03827 0.196223,0.06051 0.256739,0 0.03026,-0.03026 -0.03026,-0.09811 0,-0.12837 0.04506,-0.04506 0.553172,0.04434 0.641842,0 0.108249,-0.05412 0.148487,-0.20261 0.256736,-0.256736 0.102695,-0.05135 0.282411,0.05135 0.385106,0 0.05412,-0.02706 0.07424,-0.101306 0.128368,-0.128368 0.03827,-0.01913 0.08777,0.01352 0.128368,0 0.09077,-0.03026 0.165965,-0.09811 0.256736,-0.128368 0.0406,-0.01355 0.09811,0.03026 0.128368,0 0.03026,-0.03026 -0.03026,-0.09811 0,-0.12837 0.02498,-0.02498 0.594968,0.02344 0.641842,0 0.03827,-0.01913 -0.03026,-0.09811 0,-0.128368 0.0041,-0.0041 0.353972,0 0.385106,0 0.301046,0 -0.06051,0.03026 0.256736,-0.128368 0.08098,-0.04049 0.560858,0.04049 0.641842,0 0.534239,-0.267118 -0.137229,0.0089 0.12837,-0.256736 0.03798,-0.03798 0.433959,0.03976 0.513472,0 0.05413,-0.02706 0.07424,-0.101306 0.128371,-0.12837 0.07654,-0.03827 0.196223,0.06052 0.256735,0 0.03026,-0.03025 -0.03827,-0.109231 0,-0.128368 0.07654,-0.03827 0.180192,0.03827 0.256736,0 0.03827,-0.01913 -0.03025,-0.09811 0,-0.128368 0.02625,-0.02625 0.334209,0.02545 0.385106,0 0.108249,-0.05413 0.148487,-0.202613 0.256736,-0.256736 0.102696,-0.05135 0.282411,0.05135 0.385107,0 0.108249,-0.05413 0.141919,-0.218466 0.256735,-0.256738 0.58437,0 0.0073,0.06051 0.385107,-0.128368 0.05089,-0.02545 0.358862,0.02625 0.385103,0 0.03026,-0.03026 -0.03025,-0.09811 0,-0.128368 0.0058,-0.0058 0.581319,0 0.641843,0 0.599053,0 1.198107,0 1.797158,0 0.171159,0 0.342315,0 0.513474,0 0.04279,0 0.08558,0 0.128368,0 0.04279,0 0.0901,0.01913 0.128368,0 0.05413,-0.02706 0.07424,-0.101306 0.128368,-0.128368 0.08867,-0.04434 0.596783,0.04506 0.641842,0 0.03026,-0.03026 -0.03025,-0.09811 0,-0.128371 0.06052,-0.06051 0.180194,0.03827 0.256738,0 0.05412,-0.02706 0.07424,-0.101303 0.128368,-0.128367 0.0509,-0.02545 0.358863,0.02625 0.385107,0 0.06051,-0.06051 -0.06052,-0.196223 0,-0.256736 0.03026,-0.03026 0.09811,0.03026 0.128368,0 0.03026,-0.03026 -0.03026,-0.09811 0,-0.128368 0.03026,-0.03026 0.09811,0.03026 0.128367,0 0.2656,-0.2656 -0.40587,0.01037 0.128368,-0.256739 0.03827,-0.01913 0.0901,0.01913 0.128368,0 0.05413,-0.02706 0.07424,-0.101306 0.128371,-0.128368 0.03827,-0.01913 0.0901,0.01913 0.128368,0 0.05412,-0.02706 0.07424,-0.101306 0.128368,-0.128367 0.07654,-0.03827 0.196222,0.06051 0.256735,0 0.03026,-0.03026 -0.03025,-0.09811 0,-0.128368 0.0041,-0.0041 0.353973,0 0.385107,0 0.812998,0 1.625999,0 2.439,0 0.427895,0 0.85579,0 1.283682,0 0.108685,0 0.444463,-0.02302 0.513474,0 0.05741,0.01913 0.07424,0.101306 0.128368,0.128368 0.0509,0.02545 0.358862,-0.02625 0.385106,0 0.06419,0.06418 -0.06418,0.320921 0,0.385106 0.03512,0.03512 0.443836,-0.03482 0.513474,0 0.108249,0.05412 0.148487,0.20261 0.256736,0.256736 0.07654,0.03827 0.196223,-0.06051 0.256739,0 0.03025,0.03026 -0.03026,0.09811 0,0.128368 0.06051,0.06051 0.180192,-0.03827 0.256736,0 0.05412,0.02706 0.07424,0.101306 0.128367,0.128368 0.03827,0.01913 0.0901,-0.01913 0.128368,0 0.05413,0.02706 0.07096,0.109233 0.128371,0.128367 0.05871,0.01958 0.456351,-0.02856 0.513471,0 0.05413,0.02707 0.07424,0.101307 0.128371,0.128371 0.03827,0.01913 0.0901,-0.01913 0.128368,0 0.05412,0.02706 0.07424,0.101306 0.128368,0.128368 0.03827,0.01913 0.0901,-0.01913 0.128368,0 0.108249,0.05413 0.148486,0.202612 0.256735,0.256736 0.0509,0.02545 0.358863,-0.02625 0.385107,0 0.03026,0.03026 -0.03026,0.09811 0,0.128368 0.03026,0.03026 0.0901,-0.01913 0.128368,0 0.05412,0.02706 0.07424,0.101306 0.128368,0.12837 0.07574,0.03787 0.296809,-0.02943 0.385106,0 0.09077,0.03026 0.165968,0.09811 0.256736,0.128368 0.07243,0.02413 0.300754,0 0.385106,0 0.256736,0 0.513474,0 0.77021,0 0.08433,0 0.483288,-0.01511 0.513474,0 0.03827,0.01913 -0.03026,0.09811 0,0.128368 0.03026,0.03026 0.08558,0 0.128368,0 0.114726,0 0.600935,-0.02045 0.641842,0 0.587492,0.293746 -0.544721,-0.05321 0.385107,0.256736 0.08119,0.02706 0.196222,-0.06051 0.256735,0 0.03026,0.03026 -0.03026,0.09811 0,0.12837 0.06051,0.06051 0.175549,-0.02706 0.256736,0 0.09077,0.03025 0.165968,0.09811 0.256739,0.128368 0.04059,0.01352 0.09009,-0.01913 0.128367,0 0.05413,0.02706 0.07425,0.101306 0.128368,0.128368 0.03827,0.01913 0.09811,-0.03026 0.128368,0 0.03026,0.03026 -0.03026,0.09811 0,0.128368 0.06052,0.06051 0.180195,-0.03827 0.256739,0 0.113776,0.05689 0.268247,0.307202 0.385103,0.385106 0.07961,0.05307 0.189082,0.06071 0.256739,0.128368 0.265599,0.265599 -0.405871,-0.01037 0.128368,0.256736 0.03827,0.01913 0.0901,-0.01913 0.128368,0 0.05412,0.02706 0.07424,0.101306 0.128367,0.12837 0.03827,0.01913 0.09811,-0.03026 0.128371,0 0.03025,0.03026 -0.03026,0.09811 0,0.128368 0.03025,0.03026 0.0901,-0.01913 0.128368,0 0.05412,0.02706 0.07424,0.101307 0.128368,0.128368 0.03827,0.01913 0.09811,-0.03026 0.128368,0 0.03026,0.03026 -0.03026,0.09811 0,0.128368 0.03026,0.03026 0.0901,-0.01913 0.128368,0 0.425746,0.425744 -0.121026,-0.06051 0.256738,0.128368 0.109688,0.05485 0.147048,0.201893 0.256736,0.256738 0.03827,0.01913 0.09811,-0.03026 0.128368,0 0.03026,0.03026 -0.03827,0.109231 0,0.128368 0.03756,0.01879 0.665141,0 0.77021,0 0.04279,0 0.09811,-0.03026 0.12837,0 0.03025,0.03026 -0.03026,0.09811 0,0.128368 0.0058,0.0058 0.581316,0 0.641842,0 0.04279,0 0.09811,-0.03026 0.128368,0 0.03025,0.03026 -0.03026,0.09811 0,0.128368 0.0041,0.0041 0.353973,0 0.385104,0 0.727422,0 1.454843,0 2.182265,0 0.513471,0 1.026946,0 1.54042,0 0.04279,0 0.08558,0 0.128368,0 0.04279,0 0.09811,0.03026 0.128368,0 0.03026,-0.03026 -0.03026,-0.09811 0,-0.128368 0.03089,-0.03089 0.482584,0.03089 0.513474,0 0.06051,-0.06051 -0.06051,-0.196223 0,-0.256736 0.03026,-0.03026 0.09811,0.03026 0.128368,0 0.03026,-0.03026 -0.03026,-0.09811 0,-0.128367 0.06051,-0.06052 0.196223,0.06051 0.256738,0 0.03025,-0.03026 0,-0.08558 0,-0.128371 0.04279,0 0.09811,0.03026 0.128368,0 0.06051,-0.06051 -0.03827,-0.180192 0,-0.256736 0.02706,-0.05413 0.101306,-0.07424 0.128368,-0.128368 0.01913,-0.03827 -0.03026,-0.09811 0,-0.128368 0.03026,-0.03026 0.09811,0.03026 0.128368,0 0.03026,-0.03026 -0.01913,-0.0901 0,-0.12837 0.02706,-0.05412 0.08558,-0.08558 0.128368,-0.128368 0.04279,-0.04279 0.07424,-0.101306 0.12837,-0.128368 0.03827,-0.01913 0.0901,0.01913 0.128368,0 0.126318,-0.06316 0.387154,-0.450315 0.513474,-0.513474 0.03827,-0.01913 0.09811,0.03026 0.128368,0 0.2656,-0.265599 -0.405871,0.01037 0.128368,-0.256736 0.03827,-0.01913 0.09811,0.03026 0.128368,0 0.03026,-0.03026 -0.03025,-0.09811 0,-0.128368 0.06051,-0.06052 0.180195,0.03827 0.256738,0 0.108249,-0.05413 0.148487,-0.202612 0.256736,-0.256738 0.03827,-0.01913 0.09811,0.03026 0.128368,0 0.03026,-0.03025 -0.03025,-0.09811 0,-0.128368 0.03026,-0.03026 0.09811,0.03026 0.128368,0 0.03026,-0.03026 -0.03025,-0.09811 0,-0.128368 0.03026,-0.03026 0.109233,0.03827 0.128371,0 0.03827,-0.07654 -0.03827,-0.180192 0,-0.256738 0.01913,-0.03827 0.09009,0.01913 0.128367,0 0.534239,-0.267119 -0.137231,0.0089 0.128368,-0.256736 0.03026,-0.03026 0.09811,0.03026 0.128368,0 0.08545,-0.08545 -0.08545,-0.171286 0,-0.256736 0.03026,-0.03026 0.0901,0.01913 0.128368,0 0.05413,-0.02706 0.07425,-0.101306 0.128371,-0.128371 0.03827,-0.01913 0.09811,0.03026 0.128368,0 0.03026,-0.03025 -0.03026,-0.09811 0,-0.128367 0.03026,-0.03026 0.09811,0.03026 0.128367,0 0.2656,-0.265597 -0.40587,0.01037 0.128368,-0.256736 0.07654,-0.03827 0.180192,0.03827 0.256736,0 0.05413,-0.02706 0.07424,-0.101307 0.128371,-0.128368 0.07654,-0.03827 0.196223,0.06051 0.256735,0 0.03026,-0.03026 -0.03026,-0.09811 0,-0.128368 0.06051,-0.06052 0.180192,0.03827 0.256736,0 0.425747,-0.425746 -0.121025,0.06051 0.256739,-0.128371 0.05412,-0.02706 0.07096,-0.10923 0.128368,-0.128368 0.05871,-0.01958 0.456353,0.02856 0.513474,0 0.05412,-0.02706 0.08558,-0.08558 0.128368,-0.128367 0.04279,-0.04279 0.101306,-0.07425 0.128368,-0.128368 0.01913,-0.03827 -0.03827,-0.109234 0,-0.128368 0.08305,-0.04153 0.467362,0.04611 0.513474,0 0.03026,-0.03026 -0.03026,-0.09811 0,-0.128371 0.04232,-0.04231 0.420579,0.03097 0.513474,0 0.05741,-0.01913 0.07424,-0.101303 0.128368,-0.128368 0.03375,-0.01688 0.446347,0 0.513474,0 0.342315,0 0.684631,0 1.026946,0 0.105069,0 0.732652,-0.01879 0.77021,0 0.03827,0.01913 -0.03025,0.09811 0,0.128368 0.03026,0.03026 0.0901,-0.01913 0.128371,0 0.05412,0.02707 0.07424,0.101307 0.128367,0.128371 0.07654,0.03827 0.180192,-0.03827 0.256736,0 0.05413,0.02706 0.07424,0.101303 0.128368,0.128368 0.07654,0.03827 0.180195,-0.03827 0.256739,0 0.05412,0.02706 0.07424,0.101306 0.128367,0.128368 0.102696,0.05135 0.282411,-0.05135 0.385107,0 0.05412,0.02706 0.07096,0.109233 0.128368,0.128367 0.08119,0.02706 0.171156,0 0.256735,0 0.04279,0 0.0901,-0.01913 0.128368,0 0.05413,0.02706 0.07424,0.101307 0.128371,0.128368 0.03827,0.01913 0.08558,0 0.128368,0 0.08558,0 0.171156,0 0.256736,0 0.213947,0 0.427894,0 0.641842,0 0.08558,0 0.180192,-0.03827 0.256735,0 0.03827,0.01913 -0.03025,0.09811 0,0.128371 0.03026,0.03025 0.08558,0 0.128371,0 0.299524,0 0.599051,0 0.898578,0 0.04279,0 0.08558,0 0.128368,0 0.04279,0 0.09811,-0.03026 0.128368,0 0.03026,0.03025 -0.03025,0.09811 0,0.128368 0.147505,0.147502 0.227023,0.128368 0.385106,0.128368 0.04279,0 0.08778,-0.01352 0.128368,0 0.09077,0.03026 0.165968,0.09811 0.256738,0.128368 0.07242,0.02416 0.300752,0 0.385104,0 0.256738,0 0.513474,0 0.77021,0 0.256738,0 0.513474,0 0.77021,0 0.04279,0 0.08558,0 0.128371,0 0.04279,0 0.0901,0.01913 0.128368,0 0.283829,-0.141915 0.03984,-0.07967 0.128367,-0.256736 0.08909,-0.178181 0.22841,-0.128368 0.385107,-0.128368 0.04279,0 0.09811,0.03025 0.128368,0 0.171156,-0.171159 -0.213948,-0.128371 0.128368,-0.128371 1.112525,0 2.225053,0 3.337578,0 0.342315,0 0.684631,0 1.026948,0 0.103341,0 0.432901,-0.02686 0.513472,0 0.09077,0.03026 0.165968,0.09811 0.256738,0.128371 0.04059,0.01352 0.0901,-0.01913 0.128368,0 0.05413,0.02706 0.07096,0.109231 0.128368,0.128368 0.07302,0.02434 0.520941,0 0.641842,0 0.04279,0 0.09811,-0.03026 0.128368,0 0.03026,0.03026 -0.03025,0.09811 0,0.128368 0.03026,0.03026 0.08558,0 0.128368,0 0.299527,0 0.599054,0 0.898581,0 0.385103,0 0.77021,0 1.155316,0 0.04279,0 0.08558,0 0.128368,0 0.04279,0 0.09811,0.03026 0.128368,0 0.03026,-0.03026 -0.01352,-0.08778 0,-0.128368 0.07772,-0.233148 0.109863,-0.238234 0.256736,-0.385107 0.04279,-0.04279 0.07424,-0.101306 0.12837,-0.128367 0.08867,-0.04433 0.596781,0.04506 0.64184,0 0.06051,-0.06051 -0.06051,-0.196223 0,-0.256736 0.08538,-0.08538 0.17136,0.08538 0.256738,0 0.03025,-0.03026 -0.03026,-0.09811 0,-0.128371 1.22e-4,-1.21e-4 0.384524,1.96e-4 0.385104,0 0.400679,-0.133559 -0.04279,-0.08558 0.12837,-0.256736 0.03025,-0.03026 0.09811,0.03026 0.128368,0 0.03026,-0.03026 -0.03026,-0.09811 0,-0.128367 0.03026,-0.03026 0.09811,0.03026 0.128368,0 0.03026,-0.03026 -0.03026,-0.09811 0,-0.128368 0.03026,-0.03026 0.0901,0.01913 0.128368,0 0.05413,-0.02707 0.07425,-0.101307 0.128368,-0.128371 0.03789,-0.01894 0.766334,0 0.89858,0 0.299527,0 0.599051,0 0.898578,0 0.128368,0 0.263324,-0.04059 0.385107,0 0.400677,0.133562 -0.04279,0.08558 0.128368,0.256739 0.06051,0.06051 0.180191,-0.03827 0.256735,0 0.05413,0.02706 0.07425,0.101306 0.128368,0.128367 0.08867,0.04433 0.596784,-0.04506 0.641842,0 0.03026,0.03026 -0.03025,0.09811 0,0.128368 0.02625,0.02625 0.334209,-0.02545 0.385107,0 0.05412,0.02707 0.07424,0.101307 0.128368,0.128368 0.07654,0.03827 0.196222,-0.06051 0.256738,0 0.265597,0.2656 -0.405871,-0.01037 0.128368,0.256739 0.08068,0.04034 0.432789,-0.04034 0.513474,0 0.05412,0.02706 0.07424,0.101306 0.128371,0.128368 0.0383,0.01913 0.0981,-0.03026 0.12836,0 0.0303,0.03026 0,0.08558 0,0.128367 0.0428,0 0.0981,-0.03025 0.12837,0 0.0266,0.0266 -0.0137,0.506614 0,0.513475 0.24205,0.121025 0.51347,0.171156 0.77021,0.256736"
       id="path828"
       inkscape:connector-curvature="0" />
    <path
       style="fill:none;stroke:#000000;stroke-width:0.26458332px;stroke-linecap:butt;stroke-linejoin:miter;stroke-opacity:1"
       d="m 0,57.079445 c 0.29952627,-0.128367 0.59905256,-0.256735 0.89857883,-0.385103 0,-0.04279 -0.0382721,-0.109233 0,-0.128371 0.0765441,-0.03827 0.17554947,0.02706 0.25673687,0 0.057408,-0.01913 0.085579,-0.08558 0.1283683,-0.128368 0.04279,-0.04279 0.101306,-0.07424 0.1283685,-0.128368 0.019136,-0.03827 -0.030257,-0.09811 0,-0.128367 0.019921,-0.01992 0.3351541,0.01664 0.3851052,0 0.9298257,-0.309944 -0.2023866,0.03701 0.3851052,-0.256736 0.038272,-0.01913 0.098112,0.03025 0.1283684,0 0.030257,-0.03026 -0.030257,-0.09811 0,-0.128371 0.030257,-0.03025 0.090096,0.01913 0.1283684,0 0.054125,-0.02706 0.085579,-0.08558 0.1283684,-0.128368 0.04279,-0.04279 0.1013059,-0.07424 0.1283685,-0.128368 0.019135,-0.03827 -0.030257,-0.09811 0,-0.128367 0.030257,-0.03026 0.085579,0 0.1283684,0 0.2567366,0 0.5134735,0 0.7702103,0 0.5562632,0 1.1125264,0 1.6687893,0 0.068576,0 0.6051026,0.01836 0.6418421,0 0.054125,-0.02707 0.074243,-0.101307 0.1283684,-0.128368 0.038272,-0.01913 0.085579,0 0.1283684,0 0.085579,0 0.1711579,0 0.2567369,0 0.3423155,0 0.6846313,0 1.0269471,0 0.068576,0 0.6051026,-0.01836 0.6418421,0 0.5874917,0.293745 -0.5447207,-0.05321 0.3851053,0.256735 0.072425,0.02413 0.3007532,0 0.385105,0 0.2567368,0 0.5134737,0 0.7702105,0 0.7274206,0 1.4548416,0 2.1822626,0 0.256737,0 0.513474,0 0.770211,0 0.04279,0 0.109232,0.03827 0.128368,0 0.203369,-0.406738 -0.265646,-0.119459 0.128368,-0.513474 0.03026,-0.03025 0.08558,0 0.128369,0 0.213947,0 0.427895,0 0.641842,0 0.385105,0 0.77021,0 1.155316,0 0.06713,0 0.47972,-0.01688 0.513473,0 0.05412,0.02706 0.07424,0.101307 0.128369,0.128368 0.07654,0.03827 0.196223,-0.06051 0.256737,0 0.03026,0.03026 -0.03026,0.09811 0,0.128371 0.03026,0.03025 0.0901,-0.01913 0.128368,0 0.05413,0.02706 0.07424,0.101303 0.128368,0.128368 0.03827,0.01913 0.0901,-0.01913 0.128369,0 0.05413,0.02706 0.07424,0.101306 0.128368,0.128367 0.0509,0.02545 0.358862,-0.02625 0.385105,0 0.06051,0.06051 -0.06051,0.196223 0,0.256736 0.0041,0.0041 0.353973,0 0.385106,0 0.342315,0 -0.04279,-0.04279 0.128368,0.128371 0.03512,0.03512 0.443835,-0.03482 0.513474,0 0.05412,0.02706 0.07424,0.101303 0.128368,0.128368 0.03827,0.01913 0.0901,-0.01913 0.128368,0 0.05412,0.02706 0.07424,0.101306 0.128369,0.128368 0.07654,0.03827 0.196223,-0.06051 0.256736,0 0.06051,0.06051 -0.07654,0.218463 0,0.256735 0.115446,0.05772 0.654765,-0.05772 0.770211,0 0.03827,0.01913 -0.03026,0.09811 0,0.128368 0.06051,0.06052 0.196223,-0.06051 0.256737,0 0.265599,0.2656 -0.40587,-0.01037 0.128368,0.256739 0.102695,0.05135 0.282411,-0.05135 0.385106,0 0.425744,0.425743 -0.121027,-0.06051 0.256736,0.128368 0.05412,0.02706 0.07424,0.101306 0.128369,0.128367 0.07574,0.03787 0.296809,-0.02943 0.385105,0 0.09077,0.03026 0.165967,0.09811 0.256737,0.128368 0.07832,0.02611 0.671067,0 0.77021,0 0.04279,0 0.08558,0 0.128369,0 0.04279,0 0.0901,-0.01913 0.128368,0 0.05412,0.02707 0.07096,0.109234 0.128368,0.128371 0.121781,0.04059 0.256737,0 0.385105,0 0.213948,0 0.427895,0 0.641843,0 0.04279,0 0.08558,0 0.128368,0 0.04279,0 0.0901,-0.01913 0.128368,0 0.587492,0.293746 -0.54472,-0.05321 0.385106,0.256736 0.07654,0.02551 0.645838,0 0.77021,0 0.04279,0 0.0901,-0.01913 0.128368,0 0.05412,0.02706 0.07096,0.109233 0.128369,0.128368 0.08119,0.02706 0.180192,-0.03827 0.256737,0 0.03827,0.01913 -0.03026,0.09811 0,0.128368 0.03026,0.03026 0.0901,-0.01913 0.128368,0 0.05412,0.02706 0.07424,0.101306 0.128369,0.12837 0.137297,0.06865 0.119439,-0.06865 0.256736,0 0.05412,0.02706 0.07424,0.101304 0.128369,0.128368 0.07958,0.03979 0.563056,-0.03939 0.641842,0 0.03827,0.01913 -0.03026,0.09811 0,0.128368 0.03026,0.03026 0.08558,0 0.128368,0 0.04279,0 0.08558,0 0.128369,0 0.513474,0 1.026946,0 1.54042,0 0.256738,0 0.513474,0 0.77021,0 0.08435,0 0.312682,0.02413 0.385106,0 0.09077,-0.03026 0.165966,-0.09811 0.256736,-0.128368 0.0883,-0.02943 0.309367,0.03787 0.385107,0 0.05412,-0.02706 0.07424,-0.101306 0.128367,-0.128368 0.03827,-0.01913 0.08558,0 0.128368,0 0.04279,0 0.08558,0 0.128368,0 0.124373,0 0.693669,0.02551 0.770213,0 0.09077,-0.03026 0.165965,-0.09811 0.256736,-0.12837 0.04059,-0.01352 0.09811,0.03026 0.128368,0 0.06051,-0.06051 -0.06051,-0.196223 0,-0.256736 0.08581,-0.08581 0.170926,0.08581 0.256738,0 0.06051,-0.06051 -0.06052,-0.196223 0,-0.256736 0.03026,-0.03026 0.09811,0.03025 0.128368,0 0.03026,-0.03026 -0.03026,-0.09811 0,-0.128371 0.03026,-0.03026 0.09811,0.03026 0.128368,0 0.03026,-0.03026 -0.01913,-0.0901 0,-0.128368 0.01704,-0.03408 0.351022,-0.368061 0.385106,-0.385103 0.03827,-0.01913 0.09811,0.03026 0.128368,0 0.06051,-0.06052 -0.06052,-0.196223 0,-0.256739 0.03026,-0.03026 0.09811,0.03026 0.128368,0 0.03026,-0.03026 -0.03026,-0.09811 0,-0.128368 0.03026,-0.03026 0.09811,0.03026 0.128368,0 0.03026,-0.03026 0,-0.08558 0,-0.128367 0.04279,0 0.09811,0.03026 0.128368,0 0.265599,-0.2656 -0.405869,0.01037 0.128368,-0.256736 0.03827,-0.01913 0.09811,0.03025 0.12837,0 0.03025,-0.03026 -0.03026,-0.09811 0,-0.128371 0.06051,-0.06051 0.196223,0.06052 0.256736,0 0.03026,-0.03025 -0.03026,-0.09811 0,-0.128368 0.03026,-0.03025 0.08558,0 0.128368,0 0,-0.08558 -0.03827,-0.180191 0,-0.256735 0.01913,-0.03827 0.0901,0.01913 0.128368,0 0.05412,-0.02707 0.07424,-0.101307 0.12837,-0.128368 0.03827,-0.01913 0.09811,0.03025 0.128368,0 0.03025,-0.03026 -0.03026,-0.09811 0,-0.128371 0.03025,-0.03026 0.08558,0 0.128368,0 0.342315,0 0.684631,0 1.026948,0 0.256736,0 0.513472,0 0.77021,0 0.04279,0 0.09811,-0.03026 0.128368,0 0.03026,0.03026 -0.03026,0.09811 0,0.128371 0.06051,0.06051 0.196223,-0.06052 0.256736,0 0.03026,0.03025 -0.03025,0.09811 0,0.128368 0.06052,0.06051 0.196223,-0.06051 0.256739,0 0.03025,0.03026 -0.03026,0.09811 0,0.128367 0.03025,0.03026 0.09009,-0.01913 0.128367,0 0.204907,0.102455 0.05183,0.154284 0.256736,0.256736 0.07654,0.03827 0.196223,-0.06051 0.256739,0 0.06051,0.06052 -0.06052,0.196223 0,0.256739 0.265596,0.265599 -0.01037,-0.405871 0.256735,0.128368 0.01913,0.03827 -0.03026,0.09811 0,0.128367 0.06051,0.06051 0.180192,-0.03827 0.256736,0 0.154043,0.07702 0.231064,0.308084 0.385107,0.385107 0.03827,0.01913 0.09811,-0.03026 0.128368,0 0.06419,0.06418 -0.06418,0.320921 0,0.385103 0.342315,0 -0.04279,-0.04279 0.128367,0.128368 0.06052,0.06052 0.196226,-0.06051 0.256739,0 0.03025,0.03026 -0.03026,0.09811 0,0.128371 0.06418,0.06418 0.320921,-0.06419 0.385104,0 0.03026,0.03025 -0.03026,0.09811 0,0.128368 0.03026,0.03026 0.0901,-0.01913 0.12837,0 0.05412,0.02706 0.07424,0.101306 0.128368,0.128368 0.03827,0.01913 0.09811,-0.03026 0.128368,0 0.03026,0.03026 -0.03026,0.09811 0,0.128368 0.02625,0.02625 0.334208,-0.02545 0.385106,0 0.259623,0.129812 0.04116,0.297902 0.128368,0.385106 0.03025,0.03025 0.08558,0 0.128368,0 0,0.04279 -0.03026,0.09811 0,0.128368 0.03026,0.03026 0.08558,0 0.128368,0 0.08558,0 0.180192,-0.03827 0.256736,0 0.03827,0.01913 -0.03026,0.09811 0,0.128368 0.03026,0.03026 0.08558,0 0.12837,0 0.114726,0 0.600935,-0.02045 0.641842,0 0.05412,0.02706 0.07424,0.101306 0.128368,0.128368 0.0509,0.02545 0.358862,-0.02625 0.385104,0 0.03026,0.03026 -0.03026,0.09811 0,0.12837 0.03026,0.03026 0.08558,0 0.12837,0 0.06052,0 0.636024,-0.0058 0.641843,0 0.03025,0.03026 -0.03026,0.09811 0,0.128368 0.03967,0.03967 0.602488,-0.03935 0.641842,0 0.03026,0.03026 -0.03026,0.09811 0,0.128368 0.02625,0.02625 0.334205,-0.02545 0.385103,0 0.20491,0.102455 0.05183,0.154284 0.256739,0.256736 0.06963,0.03482 0.478348,-0.03512 0.513471,0 0.03026,0.03026 -0.03025,0.09811 0,0.12837 0.03026,0.03025 0.08558,0 0.128368,0 0.08558,0 0.180195,-0.03827 0.256739,0 0.03827,0.01913 -0.03827,0.109231 0,0.128368 0.07654,0.03827 0.171156,0 0.256735,0 0.470686,0 0.941369,0 1.412053,0 0.08433,0 0.483287,0.01508 0.513474,0 0,-0.132799 -0.03026,-0.177424 0.128368,-0.256738 0.0509,-0.02545 0.358862,0.02625 0.385106,0 0.03026,-0.03025 -0.03827,-0.109231 0,-0.128368 0.03019,-0.01508 0.429146,0 0.513474,0 0.342316,0 0.684631,0 1.026946,0 0.213947,0 0.427895,0 0.641842,0 0.04279,0 0.09811,-0.03026 0.128368,0 0.03026,0.03026 -0.01913,0.0901 0,0.128368 0.069,0.137993 0.187743,0.247115 0.256738,0.385106 0.01913,0.03827 -0.03026,0.09811 0,0.128368 0.03026,0.03026 0.09811,-0.03025 0.128368,0 0.03026,0.03026 -0.03026,0.09811 0,0.128368 1.22e-4,1.24e-4 0.384525,-1.93e-4 0.385107,0 0.114816,0.03827 0.148487,0.202612 0.256736,0.256738 0.03827,0.01913 0.09811,-0.03026 0.128367,0 0.03026,0.03026 -0.03827,0.109231 0,0.128368 0.07654,0.03827 0.180192,-0.03827 0.256739,0 0,0.1328 -0.03026,0.177424 0.128368,0.256736 0.0509,0.02545 0.358862,-0.02625 0.385103,0 0.03026,0.03026 -0.03025,0.09811 0,0.128368 0.03026,0.03026 0.08558,0 0.128371,0 0.04279,0 0.08558,0 0.128368,0 0.135789,0 0.832445,-0.02204 0.898578,0 0.05741,0.01913 0.07424,0.101306 0.128368,0.12837 0.08098,0.04049 0.560858,-0.04049 0.641842,0 0.05413,0.02706 0.07424,0.101307 0.128368,0.128368 0.03827,0.01913 0.0901,-0.01913 0.12837,0 0.05412,0.02706 0.07424,0.101307 0.128368,0.128368 0.03375,0.01688 0.446347,0 0.513474,0 0.342316,0 0.684631,0 1.026946,0 0.385106,0 0.77021,0 1.155316,0 0.06713,0 0.479719,0.01688 0.513475,0 0.05412,-0.02706 0.07424,-0.101306 0.128368,-0.128368 0.07654,-0.03827 0.196223,0.06051 0.256735,0 0.03026,-0.03026 -0.03025,-0.09811 0,-0.128368 0.03026,-0.03026 0.0901,0.01913 0.128368,0 0.05413,-0.02706 0.08558,-0.08558 0.128371,-0.12837 0.04279,-0.04279 0.101303,-0.07424 0.128368,-0.128368 0.01913,-0.03827 -0.03026,-0.09811 0,-0.128368 0.06051,-0.06051 0.180192,0.03827 0.256735,0 0.05413,-0.02706 0.08558,-0.08558 0.128368,-0.128368 0.04279,-0.04279 0.101307,-0.07425 0.128371,-0.128368 0.01913,-0.03827 -0.03026,-0.09811 0,-0.128368 0.03026,-0.03026 0.09811,0.03026 0.128368,0 0.03025,-0.03026 -0.01913,-0.0901 0,-0.12837 0.01704,-0.03408 0.35102,-0.368062 0.385103,-0.385104 0.03827,-0.01913 0.08558,0 0.128371,0 0.08558,0 0.175548,0.02706 0.256736,0 0.05741,-0.01913 0.07424,-0.101306 0.128368,-0.128368 0.03827,-0.01913 0.0901,0.01913 0.128368,0 0.05413,-0.02706 0.07424,-0.101306 0.128368,-0.12837 0.03827,-0.01913 0.09811,0.03026 0.12837,0 0.06051,-0.06051 -0.06052,-0.196223 0,-0.256736 0.03025,-0.03026 0.08558,0 0.128368,0 0.05074,0 0.587018,0.02741 0.641842,0 0.05412,-0.02706 0.07096,-0.109233 0.128368,-0.128368 0.06833,-0.02278 0.916771,0 1.026948,0 0.727419,0 1.454841,0 2.182263,0 0.299526,0 0.599051,0 0.898577,0 0.05781,0 0.346038,0.01953 0.385107,0 0.05412,-0.02706 0.07424,-0.101306 0.128368,-0.128368 0.08188,-0.04094 0.607523,0.03432 0.641842,0 0.06051,-0.06051 -0.06051,-0.196225 0,-0.256738 0.06418,-0.06418 0.320921,0.06419 0.385106,0 0.03025,-0.03025 -0.03026,-0.09811 0,-0.128368 0.06051,-0.06051 0.180192,0.03827 0.256736,0 0.05413,-0.02706 0.07424,-0.101306 0.128368,-0.128368 0.07654,-0.03827 0.180192,0.03827 0.256738,0 0.108249,-0.05413 0.148487,-0.202613 0.256736,-0.256738 0.03827,-0.01913 0.09811,0.03026 0.128368,0 0.03026,-0.03026 -0.03026,-0.09811 0,-0.128368 0.03026,-0.03026 0.09811,0.03026 0.128368,0 0.03519,-0.03519 -0.03009,-0.551577 0,-0.641843 0.03026,-0.09077 0.09811,-0.165965 0.128368,-0.256735 0.01664,-0.04995 -0.01992,-0.365184 0,-0.385107 0.265599,-0.265599 -0.01037,0.405871 0.256738,-0.128368 0.05135,-0.102695 -0.05135,-0.28241 0,-0.385103 0.01913,-0.03827 0.08558,0 0.128368,0 0.128368,0 0.27029,0.05741 0.385106,0 0.03827,-0.01913 -0.03026,-0.09811 0,-0.128371 0.02625,-0.02625 0.334209,0.02545 0.385104,0 0.425744,-0.425743 -0.121026,0.06052 0.256738,-0.128368 0.108249,-0.05412 0.148487,-0.202612 0.256736,-0.256735 0.04642,-0.0232 0.552556,0 0.641842,0 1.112526,0 2.225054,0 3.337579,0 0.342315,0 0.68463,0 1.026948,0 0.04373,0 0.443998,-0.02315 0.513472,0 0.09381,0.03127 0.326355,0.139237 0.385106,0.256735 0.01913,0.03827 -0.03026,0.09811 0,0.128368 0.06051,0.06052 0.180192,-0.03827 0.256736,0 0.05413,0.02706 0.07425,0.101307 0.128368,0.128371 0.03827,0.01913 0.08558,0 0.12837,0 0.09099,0 0.737021,-0.01659 0.77021,0 0.05412,0.02706 0.08558,0.08558 0.128368,0.128368 0.04279,0.04279 0.101307,0.07424 0.128368,0.128368 0.01913,0.03827 -0.03827,0.109233 0,0.128367 0.07654,0.03827 0.180195,-0.03827 0.256739,0 0.03827,0.01913 -0.03026,0.09811 0,0.128368 0.03025,0.03026 0.0901,-0.01913 0.128368,0 0.05412,0.02707 0.07424,0.101307 0.128367,0.128368 0.07654,0.03828 0.175549,-0.02706 0.256736,0 0.09077,0.03026 0.165968,0.09811 0.256739,0.128371 0.08119,0.02706 0.180192,-0.03827 0.256735,0 0.425744,0.425743 -0.121025,-0.06052 0.256739,0.128368 0.05412,0.02706 0.07424,0.101306 0.128368,0.128368 0.102693,0.05135 0.282411,-0.05135 0.385103,0 0.534239,0.26712 -0.137228,-0.0089 0.128368,0.256735 0.03026,0.03026 0.08558,0 0.128371,0 0.171156,0 0.342315,0 0.513471,0 0.04279,0 0.09811,-0.03026 0.128371,0 0.03025,0.03026 -0.03827,0.109234 0,0.128371 0.04245,0.02122 0.543047,0 0.641842,0 0.470683,0 0.941366,0 1.412052,0 0.03113,0 0.380976,0.0041 0.385104,0 0.06052,-0.06052 -0.06051,-0.196226 0,-0.256739 0.03026,-0.03025 0.09811,0.03026 0.12837,0 0.03026,-0.03025 -0.03026,-0.09811 0,-0.128367 0.02625,-0.02625 0.334206,0.02545 0.385104,0 0.05413,-0.02706 0.07425,-0.101307 0.128368,-0.128368 0.03827,-0.01913 0.0901,0.01913 0.128368,0 0.05413,-0.02706 0.07425,-0.101307 0.12837,-0.128368 0.08867,-0.04434 0.596781,0.04506 0.641843,0 0.03025,-0.03026 -0.03026,-0.09811 0,-0.128371 0.0041,-0.0041 0.35397,0 0.385103,0 0.256739,0 0.513475,0 0.77021,0 0.05781,0 0.346041,0.01953 0.385107,0 0.05412,-0.02706 0.07424,-0.101303 0.128368,-0.128368 0.03827,-0.01913 0.08558,0 0.128367,0 0.04279,0 0.08558,0 0.128371,0 0.213947,0 0.427895,0 0.641839,0 0.407866,0 0.125087,0.255096 0.385107,0.385107 0.03819,0.0191 0.716211,0 0.77021,0 0.04279,0 0.09811,-0.03026 0.128368,0 0.265599,0.265599 -0.405869,-0.01037 0.12837,0.256735 0.06964,0.03482 0.478348,-0.03512 0.513472,0 0.03026,0.03026 -0.03025,0.09811 0,0.128368 0.03513,0.03513 0.443836,-0.03482 0.513474,0 0.05413,0.02707 0.07425,0.101307 0.128368,0.128371 0.07654,0.03827 0.196225,-0.06052 0.256738,0 0.03025,0.03025 -0.03026,0.09811 0,0.128368 0.03512,0.03512 0.443836,-0.03482 0.513475,0 0.05412,0.02706 0.07424,0.101306 0.128367,0.128368 0.03907,0.01953 0.327293,0 0.385104,0 0.299527,0 0.599054,0 0.898581,0 0.04279,0 0.08558,0 0.128368,0 0.04279,0 0.09811,-0.03026 0.128367,0 0.03026,0.03026 -0.03026,0.09811 0,0.128368 0.03026,0.03026 0.08558,0 0.128368,0 0.15348,0 0.68643,-0.02793 0.77021,0 0.08558,0.04279 0.171159,0.08558 0.256739,0.128368 0,0.04279 -0.03026,0.09811 0,0.12837 0.03025,0.03025 0.08558,0 0.128368,0 0.08929,0 0.595418,-0.0232 0.641842,0 0.05413,0.02706 0.07424,0.101304 0.128368,0.128368 0.03827,0.01913 0.09811,-0.03026 0.128368,0 0.03026,0.03025 -0.03026,0.09811 0,0.128368 0.03513,0.03512 0.443836,-0.03482 0.513474,0 0.05413,0.02706 0.07425,0.101306 0.128368,0.128368 0.03319,0.01659 0.679222,0 0.77021,0 0.124163,0 0.732139,-0.01902 0.770212,0 0.05412,0.02706 0.07096,0.109233 0.128368,0.128368 0.08733,0.02911 0.573776,-0.03403 0.641842,0 0.425744,0.425746 -0.121028,-0.06051 0.256736,0.12837 0.534239,0.267118 -0.137229,-0.0089 0.128368,0.256736 0.02625,0.02625 0.334209,-0.02545 0.385106,0 0.05413,0.02706 0.08558,0.08558 0.128368,0.128368 0.08558,0 0.175551,-0.02706 0.256739,0 0.05741,0.01913 0.07424,0.101306 0.128368,0.128368 0.03906,0.01953 0.327292,0 0.385103,0 0.342316,0 0.684634,0 1.026949,0 0.03113,0 0.380976,0.0041 0.385103,0 0.03026,-0.03025 -0.03025,-0.09811 0,-0.128368 0.08538,-0.08538 0.17136,0.08538 0.256739,0 0.265599,-0.265599 -0.405871,0.01037 0.128368,-0.256736 0.07654,-0.03827 0.196223,0.06051 0.256736,0 0.03026,-0.03026 -0.04279,-0.128368 0,-0.128368 0.04279,0 0,0.171156 0,0.128368 0,-0.08558 0,-0.171159 0,-0.256738 0,-0.04279 -0.03026,-0.09811 0,-0.128368 0.03026,-0.03025 0.0901,0.01913 0.12837,0 0.05412,-0.02706 0.07096,-0.109231 0.128371,-0.128368 0.0812,-0.02706 0.18019,0.03827 0.25673,0 0.0383,-0.01913 -0.0302,-0.09811 0,-0.128368 0.0303,-0.03026 0.0981,0.03025 0.12837,0 0.0262,-0.02625 -0.0255,-0.334208 0,-0.385106 0.0271,-0.05412 0.0742,-0.101307 0.12837,-0.128368 0.0383,-0.01913 0.12837,0.04279 0.12837,0 0,-0.176427 -0.0856,-0.342318 -0.12837,-0.513475"
       id="path830"
       inkscape:connector-curvature="0" />
    <path
       style="fill:#000000;fill-opacity:1;stroke-width:0.48517194"
       d="m 201.99395,228.99921 c -0.40027,-0.23284 -2.50205,-0.6367 -4.67062,-0.89746 -2.92016,-0.35114 -4.42805,-0.80381 -5.8134,-1.74518 -1.02879,-0.69908 -2.10027,-1.27106 -2.38106,-1.27106 -0.28078,0 -0.89743,-0.65498 -1.37031,-1.45551 -0.8564,-1.44976 -0.87745,-1.45551 -5.32021,-1.45253 -3.00789,0.002 -4.91295,0.23901 -5.85009,0.72776 -2.05489,1.07169 -7.30581,0.92538 -11.02337,-0.30715 -1.71185,-0.56756 -5.61397,-1.53338 -8.67138,-2.14628 -3.05741,-0.61289 -5.78651,-1.4165 -6.06465,-1.78579 -0.27815,-0.36929 -1.59736,-1.19359 -2.93158,-1.83177 -1.33422,-0.63819 -3.61341,-2.32527 -5.06486,-3.74906 -1.45145,-1.42379 -3.77047,-3.23607 -5.15336,-4.02729 -2.20454,-1.2613 -2.987,-1.43857 -6.34997,-1.43857 -3.6177,0 -3.94255,0.0896 -5.71831,1.57681 -2.27005,1.90121 -2.7432,2.39247 -5.85347,6.07758 -2.37119,2.80945 -2.49693,2.88355 -5.57948,3.28823 -1.73449,0.2277 -6.31936,0.41965 -10.18861,0.42654 -5.869546,0.0105 -7.316305,-0.13354 -8.733094,-0.86919 -1.970181,-1.02299 -4.760342,-1.55463 -12.925126,-2.46274 -4.461709,-0.49624 -6.501003,-0.96194 -8.409078,-1.92031 -1.385418,-0.69586 -2.893997,-1.2652 -3.352392,-1.2652 -0.458395,0 -1.040859,-0.18962 -1.294361,-0.42138 -0.253502,-0.23175 -1.55255,-0.80066 -2.886773,-1.26424 -3.466272,-1.20437 -4.102536,-1.45635 -6.602962,-2.61498 -1.79255,-0.83062 -3.159265,-1.03629 -6.886191,-1.03629 -4.136755,0 -4.726593,0.10968 -5.346041,0.99406 -0.668319,0.95416 -1.015126,0.98258 -8.639313,0.70791 -4.368674,-0.15739 -12.637083,-0.25234 -18.374241,-0.211 -10.324673,0.0744 -10.44312,0.0871 -11.5988213,1.24261 -0.642194,0.6421 -1.7338308,1.29838 -2.4258597,1.4584 -0.6920289,0.16002 -1.4771205,0.53767 -1.7446472,0.83922 -0.5203801,0.58657 -3.3530459,2.24638 -3.83370011,2.24638 -0.15896139,0 -0.28902075,-16.66335 -0.28902075,-37.02965 v -37.02966 l 2.11512216,-1.05634 c 1.1633172,-0.58099 2.3464248,-1.05634 2.6291277,-1.05634 0.6458905,0 3.4828552,-1.49774 4.3652423,-2.30457 0.3647909,-0.33356 1.0406509,-0.60647 1.5019109,-0.60647 0.46126,0 1.046066,-0.20519 1.299568,-0.45598 0.699415,-0.69193 7.400196,-1.96903 10.333614,-1.96948 1.427317,-2.2e-4 3.2831,0.29881 4.123962,0.66451 2.859414,1.24357 8.763661,2.72498 10.874982,2.72859 0.870866,0.001 1.962503,0.19775 2.42586,0.43614 0.463357,0.23839 2.043268,0.68981 3.510913,1.00317 1.467645,0.31336 3.760082,1.0787 5.094305,1.70077 4.633775,2.16045 5.567858,2.29859 17.223604,2.5472 8.03058,0.17129 11.831873,0.43575 12.857056,0.89446 0.800534,0.3582 3.311299,0.99394 5.579477,1.41276 2.666515,0.49237 4.381156,1.07087 4.85172,1.63692 0.947356,1.13959 5.792108,4.274 8.121841,5.25459 1.289121,0.54259 4.060136,0.84054 9.447166,1.01581 7.2607,0.23623 10.02347,-0.0434 13.23941,-1.33998 3.80324,-1.53337 8.85997,-2.91501 10.66882,-2.91501 0.63835,0 1.27813,-0.19012 1.42175,-0.4225 0.14362,-0.23238 0.90458,-0.5512 1.69103,-0.70849 1.29651,-0.2593 2.31764,-0.67028 7.80855,-3.14274 1.17462,-0.52891 4.0164,-0.86507 9.21827,-1.09046 8.18877,-0.35479 11.27763,-1.04979 12.18283,-2.74116 1.14334,-2.13636 3.83,-2.64913 12.99491,-2.48015 7.36854,0.13586 8.42573,0.25581 8.84335,1.00336 0.26089,0.46698 0.75011,0.84905 1.08718,0.84905 0.33707,0 1.74428,0.54582 3.12713,1.21293 1.38286,0.66711 2.8677,1.21293 3.29965,1.21293 0.43196,0 1.68841,0.4641 2.79212,1.03134 1.10371,0.56723 2.40638,1.23503 2.89481,1.48399 0.48844,0.24896 3.32669,0.65468 6.30724,0.90161 6.65322,0.5512 11.61861,2.24925 14.40493,4.92615 0.66157,0.63558 2.62198,2.0504 4.35647,3.14404 2.75538,1.73734 3.73564,2.06381 7.76275,2.58537 2.65081,0.34331 7.90736,0.52112 12.37188,0.4185 7.59532,-0.17458 7.79153,-0.20579 9.09698,-1.44699 0.73382,-0.69771 1.33422,-1.48456 1.33422,-1.74855 0,-0.92793 3.67805,-4.30414 7.15945,-6.57192 1.13235,-0.73761 2.05881,-1.51141 2.05881,-1.71956 0,-0.20816 0.81873,-1.24211 1.8194,-2.29769 1.66255,-1.75378 6.15974,-4.10249 7.85522,-4.10249 0.3741,0 1.02486,-0.29673 1.44614,-0.65939 0.42128,-0.36265 1.79053,-0.90847 3.04278,-1.21293 2.69383,-0.65493 9.4378,-0.73934 9.81878,-0.12289 0.49442,0.79998 7.76579,2.40648 12.40558,2.74081 2.53502,0.18267 4.91269,0.57846 5.28369,0.87953 0.37407,0.30355 3.06005,0.62904 6.02975,0.73069 4.79222,0.16402 5.42473,0.0881 6.01668,-0.72239 0.60017,-0.82172 1.55591,-0.92026 10.30945,-1.06296 6.88022,-0.11217 9.96208,0.0108 10.74296,0.42874 0.61434,0.32879 3.87772,0.68927 7.43423,0.8212 6.30769,0.234 6.34163,0.22946 6.82439,-0.91391 0.32055,-0.75918 0.96303,-1.20361 1.89342,-1.30975 0.77454,-0.0884 1.71802,-0.47044 2.09664,-0.84905 0.37861,-0.37862 0.96223,-0.68839 1.29692,-0.68839 0.33469,0 1.1213,-0.54582 1.74802,-1.21293 1.02516,-1.09124 1.51637,-1.21293 4.89586,-1.21293 2.066,0 3.82914,0.21407 3.9181,0.47571 0.0889,0.26164 1.34973,0.70057 2.80175,0.9754 1.45201,0.27483 3.13637,0.8249 3.74301,1.22239 0.60664,0.39749 1.55468,0.7227 2.10676,0.7227 0.63289,0 1.37398,0.62744 2.00568,1.6981 0.55105,0.93396 1.19867,1.69811 1.43916,1.69811 0.52539,0 0.60439,74.3876 0.0795,74.91244 -0.19673,0.19673 -0.38368,0.61519 -0.41546,0.92991 -0.11682,1.15724 -0.80681,2.7555 -1.18958,2.7555 -0.21672,0 -1.20427,0.76414 -2.19455,1.6981 -1.68522,1.58937 -2.00587,1.6978 -5.00756,1.69336 -2.40782,-0.003 -3.86602,-0.31148 -5.85132,-1.23561 -1.85767,-0.86471 -3.80606,-1.3079 -6.54982,-1.48985 -3.51944,-0.23338 -6.34955,-0.79967 -10.72824,-2.14662 -0.81719,-0.25138 -3.21879,-0.57787 -5.33689,-0.72554 -3.89451,-0.2715 -11.71166,-1.96449 -12.55992,-2.72014 -0.25351,-0.22582 -1.08783,-0.41059 -1.85405,-0.41059 -0.76623,0 -1.72063,-0.32749 -2.1209,-0.72776 -0.84403,-0.84403 -1.63708,-0.86704 -8.12819,-0.23585 -5.02215,0.48836 -7.73151,1.18152 -9.12913,2.33561 -2.23273,1.84367 -15.89677,-0.71312 -19.46237,-3.64175 -0.83833,-0.68858 -2.01251,-1.12646 -3.0206,-1.12646 -0.90703,0 -2.36399,-0.43584 -3.23768,-0.96853 -1.4596,-0.88992 -2.43519,-0.96742 -12.01973,-0.95491 -8.15964,0.0107 -10.62584,0.1611 -11.325,0.69086 -0.49159,0.37248 -1.73996,0.8202 -2.77416,0.99493 -2.14921,0.3631 -3.09894,1.75738 -3.63584,5.3377 -0.36681,2.44608 -0.68204,2.78591 -3.36998,3.63305 -1.06738,0.3364 -2.24712,0.85608 -2.62165,1.15486 -0.43134,0.34411 -4.65601,0.64386 -11.52478,0.81772 -10.34313,0.2618 -10.88939,0.3234 -11.83111,1.33422 -0.54302,0.58286 -1.39283,1.05975 -1.88849,1.05975 -0.49565,0 -1.57211,0.76414 -2.39214,1.6981 -0.82002,0.93395 -1.70509,1.6981 -1.96683,1.6981 -0.26174,0 -0.65048,0.29562 -0.86388,0.65693 -0.82938,1.40429 -2.59167,1.76872 -8.48272,1.75417 -3.28639,-0.008 -6.30274,-0.20525 -6.70301,-0.43809 z"
       id="path832"
       inkscape:connector-curvature="0"
       transform="scale(0.26458333)" />
  </g>
</svg>
