<?xml version="1.0" encoding="UTF-8" standalone="no"?>
<!-- Created with Inkscape (http://www.inkscape.org/) -->

<svg
   xmlns:dc="http://purl.org/dc/elements/1.1/"
   xmlns:cc="http://creativecommons.org/ns#"
   xmlns:rdf="http://www.w3.org/1999/02/22-rdf-syntax-ns#"
   xmlns:svg="http://www.w3.org/2000/svg"
   xmlns="http://www.w3.org/2000/svg"
   xmlns:sodipodi="http://sodipodi.sourceforge.net/DTD/sodipodi-0.dtd"
   xmlns:inkscape="http://www.inkscape.org/namespaces/inkscape"
   width="210mm"
   height="297mm"
   viewBox="0 0 210 297"
   version="1.1"
   id="svg8"
   inkscape:version="0.92.3 (2405546, 2018-03-11)"
   sodipodi:docname="mountains.svg"
   inkscape:export-filename="C:\Users\Public\Documents\Unity Projects\pLD3011_2120\Assets\Map\nature\PNG\mountains.png"
   inkscape:export-xdpi="104.91093"
   inkscape:export-ydpi="104.91093">
  <defs
     id="defs2" />
  <sodipodi:namedview
     id="base"
     pagecolor="#ffffff"
     bordercolor="#666666"
     borderopacity="1.0"
     inkscape:pageopacity="0.0"
     inkscape:pageshadow="2"
     inkscape:zoom="1.0305625"
     inkscape:cx="181.77993"
     inkscape:cy="915.13795"
     inkscape:document-units="mm"
     inkscape:current-layer="g2185"
     showgrid="false"
     inkscape:window-width="1366"
     inkscape:window-height="706"
     inkscape:window-x="-8"
     inkscape:window-y="-8"
     inkscape:window-maximized="1"
     inkscape:snap-grids="false" />
  <metadata
     id="metadata5">
    <rdf:RDF>
      <cc:Work
         rdf:about="">
        <dc:format>image/svg+xml</dc:format>
        <dc:type
           rdf:resource="http://purl.org/dc/dcmitype/StillImage" />
        <dc:title></dc:title>
      </cc:Work>
    </rdf:RDF>
  </metadata>
  <g
     inkscape:label="Ebene 1"
     inkscape:groupmode="layer"
     id="layer1">
    <rect
       id="rect10"
       width="100.93643"
       height="96.57946"
       x="0.11993997"
       y="-0.012810945"
       style="fill:#ffffff;stroke:#0e0000;stroke-width:0.26458332;stroke-opacity:1" />
    <path
       style="fill:#cd853f;fill-opacity:1;stroke-width:0.24258597"
       d=""
       id="path1544"
       inkscape:connector-curvature="0"
       transform="scale(0.26458333)" />
    <g
       id="g2185"
       transform="matrix(1.0093644,0,0,0.96579461,0.11993997,2.8845729)">
      <path
         style="fill:#808080;fill-opacity:1;stroke-width:0.48517194"
         d=""
         id="path2203"
         inkscape:connector-curvature="0"
         transform="scale(0.26458333)" />
      <path
         style="fill:#cd853f;fill-opacity:1;stroke-width:0.13041013"
         d="M 0,47.000001 V -3 H 49.999999 99.999996 V 47.000001 97 H 49.999999 0 Z"
         id="path2234"
         inkscape:connector-curvature="0" />
      <g
         id="g3038-5-5"
         transform="matrix(4.0095282,0,0,8.5658033,-425.35977,-528.82031)"
         style="stroke-width:1.26514506;stroke-miterlimit:4;stroke-dasharray:none" />
      <path
         style="fill:none;stroke:#000000;stroke-width:1.01282315;stroke-linecap:butt;stroke-linejoin:miter;stroke-opacity:1;stroke-miterlimit:4;stroke-dasharray:none"
         d="M 1.3200216,85.359129 C 13.909948,85.171161 20.986166,59.213242 30.816423,48.517025 c 5.501248,-5.98586 9.221936,-9.996431 21.043164,0.75188 5.319935,4.837087 6.044021,9.870334 10.971221,11.654136 6.281706,2.274176 13.761953,-5.574225 19.784172,-2.631581 8.96384,4.380013 16.007193,26.127822 16.007193,26.127822"
         id="path2561"
         inkscape:connector-curvature="0"
         sodipodi:nodetypes="cssaac" />
      <path
         style="fill:none;stroke:#000000;stroke-width:1.01282315;stroke-linecap:butt;stroke-linejoin:miter;stroke-opacity:1;stroke-miterlimit:4;stroke-dasharray:none"
         d="m 49.701313,29.344093 c 23.179622,-40.717458 35.647188,-1.442456 48.201435,2.255639"
         id="path2563"
         inkscape:connector-curvature="0"
         sodipodi:nodetypes="cc" />
      <path
         style="fill:none;stroke:#000000;stroke-width:0.26797614px;stroke-linecap:butt;stroke-linejoin:miter;stroke-opacity:1"
         d="m 27.758868,52.276424 c 7.050427,4.718554 15.795717,6.175493 26.258993,-0.939851"
         id="path2573"
         inkscape:connector-curvature="0"
         sodipodi:nodetypes="cc" />
      <path
         style="fill:none;stroke:#000000;stroke-width:0.26797614px;stroke-linecap:butt;stroke-linejoin:miter;stroke-opacity:1"
         d="m 70.025054,60.17116 c 8.078791,7.880159 16.906471,1.691731 16.906471,1.691731"
         id="path2575"
         inkscape:connector-curvature="0"
         sodipodi:nodetypes="cc" />
      <path
         style="fill:none;stroke:#000000;stroke-width:0.26797614px;stroke-linecap:butt;stroke-linejoin:miter;stroke-opacity:1"
         d="m 59.413543,16.186198 c 11.184893,5.853611 20.352705,-0.755947 20.68345,-0.563911"
         id="path2577"
         inkscape:connector-curvature="0"
         sodipodi:nodetypes="cc" />
      <path
         style="stroke-width:0.68613672"
         d="m 252.31267,77.235392 c -5.45472,-0.786041 -14.92031,-3.523297 -19.95728,-5.771242 l -4.0575,-1.810818 2.74455,-2.439258 c 4.16896,-3.705232 13.19538,-9.430258 18.13928,-11.504875 15.96798,-6.700678 31.00137,-4.549898 48.1926,6.894765 8.13627,5.416535 8.25245,4.988105 -2.47855,9.140501 -14.52024,5.618657 -28.86274,7.468068 -42.5831,5.490927 z"
         id="path2579"
         inkscape:connector-curvature="0"
         transform="matrix(0.26212866,0,0,0.27395404,-0.11882722,-2.9867353)" />
      <path
         style="stroke-width:0.68613672"
         d="m 138.72367,214.16201 c -8.47489,-1.53509 -22.69291,-7.16508 -30.10727,-11.92173 -0.78303,-0.50236 -0.16654,-1.63887 3.06951,-5.65864 5.52798,-6.86679 15.54773,-17.16734 20.65411,-21.23292 8.71048,-6.9351 18.07827,-9.52787 27.10098,-7.50088 5.85524,1.31541 18.13289,7.75923 25.97334,13.6319 8.18467,6.13049 19.21183,15.64502 19.21183,16.57647 0,1.77921 -19.80809,11.35176 -28.86544,13.94965 -11.31831,3.24639 -26.22661,4.11429 -37.03706,2.15615 z"
         id="path2581"
         inkscape:connector-curvature="0"
         transform="matrix(0.26212866,0,0,0.27395404,-0.11882722,-2.9867353)" />
      <path
         style="stroke-width:0.68613672;fill:#cccccc"
         d="m 289.70713,242.47101 c -5.72169,-1.74845 -11.6471,-4.75317 -16.77549,-8.50668 l -3.39582,-2.48542 8.54185,-3.04541 c 21.16722,-7.54672 29.99866,-8.11616 39.91523,-2.57368 3.71364,2.07559 12.48073,9.33883 12.41038,10.28157 -0.0739,0.99089 -5.2566,3.5051 -11.53534,5.59602 -4.61516,1.53692 -6.96387,1.86602 -14.75194,2.06705 -8.12797,0.2098 -9.89334,0.0464 -14.40887,-1.33345 z"
         id="path2583"
         inkscape:connector-curvature="0"
         transform="matrix(0.26212866,0,0,0.27395404,-0.11882722,-2.9867353)" />
      <path
         style="fill:#cccccc;stroke-width:0.68613672"
         d="m 288.13362,241.65976 c -6.37422,-2.2081 -18.57698,-9.32765 -17.56399,-10.24749 0.68819,-0.6249 19.32999,-6.66622 23.5948,-7.64645 6.27812,-1.44298 14.16762,-1.4158 18.51762,0.0638 4.40572,1.49855 9.33535,4.6737 14.07646,9.06657 l 3.77375,3.49657 -5.26154,2.44678 c -7.69661,3.57916 -12.48336,4.49988 -23.21313,4.465 -7.89816,-0.0257 -9.94957,-0.26799 -13.92397,-1.64477 z"
         id="path2585"
         inkscape:connector-curvature="0"
         transform="matrix(0.26212866,0,0,0.27395404,-0.11882722,-2.9867353)" />
      <path
         style="fill:#cccccc;stroke-width:0.68613672"
         d="m 144.93228,214.49272 c -9.03933,-0.71615 -20.53725,-4.272 -30.56368,-9.45213 -6.63208,-3.42644 -6.42874,-2.92765 -3.02921,-7.43068 4.95827,-6.56773 19.11034,-20.65588 24.0451,-23.93651 7.56785,-5.03109 14.93286,-6.96837 22.10236,-5.81375 4.64457,0.74798 15.84701,5.90513 22.80092,10.49661 5.82398,3.84542 18.30576,13.83923 21.59385,17.2896 2.35882,2.47523 2.37711,2.53885 1.02921,3.58124 -2.44911,1.89401 -19.069,9.70979 -24.42566,11.48657 -9.63427,3.19565 -22.55223,4.65059 -33.55289,3.77905 z"
         id="path2587"
         inkscape:connector-curvature="0"
         transform="matrix(0.26212866,0,0,0.27395404,-0.11882722,-2.9867353)" />
      <path
         style="fill:#999999;stroke-width:0.68613672"
         d="m 256.08643,77.283587 c -7.90756,-0.801397 -16.20055,-2.974268 -23.94485,-6.273854 l -3.01768,-1.285731 1.6454,-1.760575 c 2.34294,-2.506924 11.90586,-8.756309 17.11715,-11.186074 12.93036,-6.028793 27.05507,-5.769724 39.96755,0.733068 6.36886,3.207392 14.88972,8.833905 14.88972,9.83201 0,1.037846 -4.52855,3.070287 -13.03402,5.849746 -11.01643,3.6 -23.49243,5.118129 -33.62327,4.09141 z"
         id="path2589"
         inkscape:connector-curvature="0"
         transform="matrix(0.26212866,0,0,0.27395404,-0.11882722,-2.9867353)" />
      <path
         style="fill:#999999;stroke-width:0.68613672"
         d="m 140.07562,213.47244 c -7.17613,-1.2995 -15.60985,-4.04744 -22.93188,-7.47183 -8.7865,-4.10931 -8.75629,-4.03059 -3.87284,-10.08921 5.7382,-7.11908 18.31504,-19.18413 23.47319,-22.51801 5.83494,-3.7713 12.47757,-5.75578 18.00129,-5.37788 4.91314,0.33614 13.85009,3.76532 21.21327,8.13971 8.64656,5.13682 27.29525,20.10638 27.29525,21.91027 0,1.41766 -18.82011,10.43298 -27.15158,13.00631 -5.71939,1.76654 -18.61296,3.48461 -25.54456,3.40381 -2.90533,-0.0339 -7.62229,-0.48529 -10.48214,-1.00317 z"
         id="path2591"
         inkscape:connector-curvature="0"
         transform="matrix(0.26212866,0,0,0.27395404,-0.11882722,-2.9867353)" />
      <path
         style="fill:#cccccc;stroke-width:0.68613672"
         d="m 288.33485,241.73967 c -6.8402,-2.43295 -17.83955,-8.64041 -17.83955,-10.06771 0,-0.64505 17.27818,-6.41531 23.67171,-7.90545 6.85085,-1.59673 14.86279,-1.46846 19.5549,0.31308 3.85159,1.46239 11.16123,6.56159 14.61282,10.19389 l 1.9193,2.01977 -1.57623,0.99905 c -2.50975,1.59073 -8.32048,3.90179 -12.63756,5.02625 -2.65269,0.69094 -7.18983,1.03155 -13.61221,1.0219 -8.29972,-0.0125 -10.25068,-0.23407 -14.09318,-1.60078 z"
         id="path2593"
         inkscape:connector-curvature="0"
         transform="matrix(0.26212866,0,0,0.27395404,-0.11882722,-2.9867353)" />
      <path
         style="fill:#cccccc;stroke-width:0.68613672"
         d="m 143.19719,213.94576 c -0.13654,-0.1366 -1.11424,-0.33132 -2.17267,-0.43272 -1.05842,-0.1014 -2.38755,-0.34083 -2.95361,-0.53208 -2.82617,-0.95482 -11.44827,-3.3846 -12.35046,-3.48045 -0.56606,-0.0601 -1.18359,-0.31006 -1.37228,-0.55538 -0.18868,-0.24531 -0.96059,-0.55407 -1.71534,-0.68613 -0.75475,-0.13206 -1.52665,-0.39774 -1.71534,-0.59039 -0.18869,-0.19265 -2.01916,-1.11894 -4.06771,-2.05841 -2.04856,-0.93947 -4.43886,-2.26883 -5.31178,-2.95413 -1.45931,-1.14564 -1.51028,-1.39431 -0.63282,-3.08761 0.52487,-1.0129 2.86533,-3.92577 5.20103,-6.47305 2.33569,-2.54728 4.00722,-4.63142 3.71449,-4.63142 -0.29272,0 0.3447,-0.91531 1.41649,-2.03401 1.07179,-1.11871 2.15907,-1.904 2.41618,-1.7451 0.25712,0.15891 1.83087,-1.1161 3.49723,-2.83335 1.66635,-1.71724 4.88231,-4.54952 7.14656,-6.29394 2.26425,-1.74441 4.22038,-3.41554 4.34695,-3.71362 0.12658,-0.29807 0.51253,-0.36742 0.85768,-0.15411 0.34514,0.21331 0.62753,0.0426 0.62753,-0.37929 0,-0.42192 0.30876,-0.5763 0.68614,-0.34307 0.37737,0.23323 0.68613,0.0788 0.68613,-0.34307 0,-0.42192 0.25231,-0.61118 0.56069,-0.42059 0.30839,0.19059 1.87486,-0.10624 3.48106,-0.65963 2.8645,-0.98689 13.11247,-1.70733 13.11194,-0.92177 -4e-4,0.59718 4.9396,1.99836 5.60204,1.58895 0.31511,-0.19474 0.57292,-0.0891 0.57292,0.23471 0,0.32384 1.00348,0.95335 2.22995,1.39891 1.22647,0.44556 4.62284,2.17574 7.5475,3.84484 2.92466,1.66911 5.31756,2.9409 5.31756,2.8262 0,-0.1147 0.96866,0.69632 2.15258,1.80227 1.18392,1.10594 2.30292,1.86047 2.48666,1.67673 0.18374,-0.18374 0.90299,0.34751 1.59834,1.18056 0.69535,0.83304 1.27454,1.24142 1.2871,0.90749 0.0126,-0.33392 0.67555,0.22267 1.47332,1.23687 0.79777,1.01421 1.61067,1.68384 1.80643,1.48808 0.19576,-0.19577 0.96767,0.42176 1.71534,1.37227 0.74768,0.95052 1.51293,1.57469 1.70056,1.38705 0.18764,-0.18763 1.10617,0.56801 2.04119,1.67921 0.93501,1.1112 2.05853,2.03745 2.4967,2.05833 1.21237,0.0578 4.06601,3.98789 3.66133,5.04249 -0.19599,0.51073 -3.3908,2.43261 -7.09959,4.27084 -3.70879,1.83823 -6.97009,3.651 -7.24735,4.02837 -0.27725,0.37738 -0.50882,0.4762 -0.5146,0.2196 -0.009,-0.40084 -2.99572,0.68445 -10.30256,3.7437 -0.94344,0.395 -1.97941,0.65749 -2.30216,0.58331 -0.32276,-0.0742 -0.96869,0.18205 -1.43541,0.56939 -0.46672,0.38734 -0.98595,0.56689 -1.15385,0.39899 -0.1679,-0.1679 -2.91834,0.15221 -6.1121,0.71136 -5.17529,0.90607 -22.3454,1.70764 -22.97999,1.0728 z"
         id="path2595"
         inkscape:connector-curvature="0"
         transform="matrix(0.26212866,0,0,0.27395404,-0.11882722,-2.9867353)" />
      <path
         style="fill:#cccccc;stroke-width:0.68613672"
         d="m 250.9404,76.28897 c -5.43784,-0.964641 -13.23321,-3.290713 -18.52382,-5.527351 l -2.74268,-1.159483 3.07516,-2.728973 c 4.62807,-4.10705 15.03107,-10.045171 21.06565,-12.024446 7.48072,-2.453595 18.15757,-2.571935 25.60037,-0.283748 7.04048,2.164502 22.60548,10.835019 22.63438,12.608535 0.0258,1.585932 -12.97465,6.360603 -22.97745,8.438894 -7.54563,1.567762 -21.24987,1.897352 -28.13161,0.676572 z"
         id="path2597"
         inkscape:connector-curvature="0"
         transform="matrix(0.26212866,0,0,0.27395404,-0.11882722,-2.9867353)" />
    </g>
  </g>
</svg>
