# MagicaVoxel @ Ephtracy

# group
g woman hand right

# material
mtllib woman hand right.mtl
usemtl palette

# normals
vn -1 0 0
vn 1 0 0
vn 0 0 1
vn 0 0 -1
vn 0 -1 0
vn 0 1 0

# texcoords
vt 0.0332031 0.5
vt 0.306641 0.5

# verts
v -3 2 2
v -3 2 -2
v -3 4 2
v -3 4 -2
v -2 0 3
v -2 0 -1
v -2 1 -1
v -2 1 -2
v -2 1 -3
v -2 2 3
v -2 2 2
v -2 2 -2
v -2 4 -2
v -2 4 -3
v -1 0 -1
v -1 0 -2
v -1 1 -1
v -1 1 -2
v -1 2 2
v -1 2 -2
v -1 4 2
v -1 4 -2
v 1 3 -2
v 1 3 -3
v 1 4 -2
v 1 4 -3
v 2 1 -2
v 2 1 -3
v 2 2 -2
v 2 3 -2
v 2 3 -3
v 3 0 3
v 3 0 -2
v 3 2 3
v 3 2 -2
v -2 0 3
v -2 2 3
v 3 0 3
v 3 2 3
v -3 2 2
v -3 4 2
v -2 2 2
v -1 2 2
v -1 4 2
v -1 2 -2
v -1 4 -2
v 1 3 -2
v 1 4 -2
v 2 2 -2
v 2 3 -2
v -2 0 -1
v -2 1 -1
v -1 0 -1
v -1 1 -1
v -3 2 -2
v -3 4 -2
v -2 2 -2
v -2 4 -2
v -1 0 -2
v -1 1 -2
v 2 1 -2
v 2 2 -2
v 3 0 -2
v 3 2 -2
v -2 1 -3
v -2 4 -3
v 1 3 -3
v 1 4 -3
v 2 1 -3
v 2 3 -3
v -2 0 3
v 3 0 3
v -2 0 -1
v -1 0 -1
v -1 0 -2
v 3 0 -2
v -2 1 -1
v -1 1 -1
v -2 1 -2
v -1 1 -2
v 2 1 -2
v -2 1 -3
v 2 1 -3
v -3 2 2
v -2 2 2
v -3 2 -2
v -2 2 -2
v -2 2 3
v 3 2 3
v -2 2 2
v -1 2 2
v -1 2 -2
v 2 2 -2
v 3 2 -2
v 1 3 -2
v 2 3 -2
v 1 3 -3
v 2 3 -3
v -3 4 2
v -1 4 2
v -3 4 -2
v -2 4 -2
v -1 4 -2
v 1 4 -2
v -2 4 -3
v 1 4 -3

# faces
f 3/1/1 2/1/1 1/1/1
f 4/1/1 2/1/1 3/1/1
f 7/1/1 6/1/1 5/1/1
f 10/1/1 7/1/1 5/1/1
f 10/1/1 8/1/1 7/1/1
f 11/1/1 8/1/1 10/1/1
f 12/2/1 9/2/1 8/2/1
f 12/1/1 8/1/1 11/1/1
f 13/2/1 9/2/1 12/2/1
f 14/2/1 9/2/1 13/2/1
f 17/1/1 16/1/1 15/1/1
f 18/1/1 16/1/1 17/1/1
f 19/1/2 20/1/2 21/1/2
f 21/1/2 20/1/2 22/1/2
f 23/2/2 24/2/2 25/2/2
f 25/2/2 24/2/2 26/2/2
f 27/2/2 28/2/2 29/2/2
f 29/2/2 28/2/2 30/2/2
f 30/2/2 28/2/2 31/2/2
f 32/1/2 33/1/2 34/1/2
f 34/1/2 33/1/2 35/1/2
f 38/1/3 37/1/3 36/1/3
f 39/1/3 37/1/3 38/1/3
f 42/1/3 41/1/3 40/1/3
f 43/1/3 41/1/3 42/1/3
f 44/1/3 41/1/3 43/1/3
f 47/2/3 46/2/3 45/2/3
f 48/2/3 46/2/3 47/2/3
f 49/2/3 47/2/3 45/2/3
f 50/2/3 47/2/3 49/2/3
f 51/1/4 52/1/4 53/1/4
f 53/1/4 52/1/4 54/1/4
f 55/1/4 56/1/4 57/1/4
f 57/1/4 56/1/4 58/1/4
f 59/1/4 60/1/4 61/1/4
f 59/1/4 61/1/4 63/1/4
f 61/1/4 62/1/4 63/1/4
f 63/1/4 62/1/4 64/1/4
f 65/2/4 66/2/4 67/2/4
f 67/2/4 66/2/4 68/2/4
f 65/2/4 67/2/4 69/2/4
f 69/2/4 67/2/4 70/2/4
f 73/1/5 72/1/5 71/1/5
f 74/1/5 72/1/5 73/1/5
f 75/1/5 72/1/5 74/1/5
f 76/1/5 72/1/5 75/1/5
f 79/1/5 78/1/5 77/1/5
f 80/1/5 78/1/5 79/1/5
f 82/2/5 80/2/5 79/2/5
f 82/2/5 81/2/5 80/2/5
f 83/2/5 81/2/5 82/2/5
f 86/1/5 85/1/5 84/1/5
f 87/1/5 85/1/5 86/1/5
f 88/1/6 89/1/6 90/1/6
f 90/1/6 89/1/6 91/1/6
f 91/1/6 89/1/6 92/1/6
f 92/1/6 89/1/6 93/1/6
f 93/1/6 89/1/6 94/1/6
f 95/2/6 96/2/6 97/2/6
f 97/2/6 96/2/6 98/2/6
f 99/1/6 100/1/6 101/1/6
f 101/1/6 100/1/6 102/1/6
f 102/1/6 100/1/6 103/1/6
f 103/2/6 104/2/6 105/2/6
f 102/2/6 103/2/6 105/2/6
f 105/2/6 104/2/6 106/2/6
