# MagicaVoxel @ Ephtracy

# group
g woman foot right

# material
mtllib woman foot right.mtl
usemtl palette

# normals
vn -1 0 0
vn 1 0 0
vn 0 0 1
vn 0 0 -1
vn 0 -1 0
vn 0 1 0

# texcoords
vt 0.537109 0.5
vt 0.994141 0.5

# verts
v -2 0 4
v -2 0 2
v -2 0 1
v -2 0 -4
v -2 1 4
v -2 1 2
v -2 1 1
v -2 1 -4
v -2 3 -0
v -2 3 -4
v -2 4 4
v -2 4 -0
v 1 2 -3
v 1 2 -4
v 1 3 -3
v 1 3 -4
v 2 0 4
v 2 0 2
v 2 0 1
v 2 0 -4
v 2 1 4
v 2 1 2
v 2 1 1
v 2 1 -4
v 2 2 -3
v 2 2 -4
v 2 3 -0
v 2 3 -3
v 2 4 4
v 2 4 -0
v -2 0 4
v -2 1 4
v -2 4 4
v 2 0 4
v 2 1 4
v 2 4 4
v -2 0 1
v -2 1 1
v 2 0 1
v 2 1 1
v -2 0 2
v -2 1 2
v 2 0 2
v 2 1 2
v -2 3 -0
v -2 4 -0
v 2 3 -0
v 2 4 -0
v 1 2 -3
v 1 3 -3
v 2 2 -3
v 2 3 -3
v -2 0 -4
v -2 1 -4
v -2 3 -4
v 1 2 -4
v 1 3 -4
v 2 0 -4
v 2 1 -4
v 2 2 -4
v -2 0 4
v 2 0 4
v -2 0 2
v 2 0 2
v -2 0 1
v 2 0 1
v -1 0 -0
v 1 0 -0
v -1 0 -3
v 1 0 -3
v -2 0 -4
v 2 0 -4
v -2 1 2
v 2 1 2
v -2 1 1
v 2 1 1
v 1 2 -3
v 2 2 -3
v 1 2 -4
v 2 2 -4
v -2 3 -0
v 2 3 -0
v 1 3 -3
v 2 3 -3
v -2 3 -4
v 1 3 -4
v -2 4 4
v 2 4 4
v -2 4 -0
v 2 4 -0

# faces
f 5/2/1 2/2/1 1/2/1
f 6/2/1 2/2/1 5/2/1
f 7/2/1 4/2/1 3/2/1
f 8/2/1 4/2/1 7/2/1
f 9/1/1 6/1/1 5/1/1
f 9/1/1 7/1/1 6/1/1
f 9/1/1 8/1/1 7/1/1
f 10/1/1 8/1/1 9/1/1
f 11/1/1 9/1/1 5/1/1
f 12/1/1 9/1/1 11/1/1
f 13/1/2 14/1/2 15/1/2
f 15/1/2 14/1/2 16/1/2
f 17/2/2 18/2/2 21/2/2
f 21/2/2 18/2/2 22/2/2
f 19/2/2 20/2/2 23/2/2
f 23/2/2 20/2/2 24/2/2
f 21/1/2 22/1/2 25/1/2
f 22/1/2 23/1/2 25/1/2
f 23/1/2 24/1/2 25/1/2
f 25/1/2 24/1/2 26/1/2
f 21/1/2 25/1/2 27/1/2
f 27/1/2 25/1/2 28/1/2
f 21/1/2 27/1/2 29/1/2
f 29/1/2 27/1/2 30/1/2
f 34/2/3 32/2/3 31/2/3
f 35/1/3 33/1/3 32/1/3
f 35/2/3 32/2/3 34/2/3
f 36/1/3 33/1/3 35/1/3
f 39/2/3 38/2/3 37/2/3
f 40/2/3 38/2/3 39/2/3
f 41/2/4 42/2/4 43/2/4
f 43/2/4 42/2/4 44/2/4
f 45/1/4 46/1/4 47/1/4
f 47/1/4 46/1/4 48/1/4
f 49/1/4 50/1/4 51/1/4
f 51/1/4 50/1/4 52/1/4
f 54/1/4 55/1/4 56/1/4
f 56/1/4 55/1/4 57/1/4
f 53/2/4 54/2/4 58/2/4
f 54/1/4 56/1/4 59/1/4
f 58/2/4 54/2/4 59/2/4
f 59/1/4 56/1/4 60/1/4
f 63/2/5 62/2/5 61/2/5
f 64/2/5 62/2/5 63/2/5
f 67/2/5 66/2/5 65/2/5
f 68/2/5 66/2/5 67/2/5
f 69/2/5 67/2/5 65/2/5
f 69/1/5 68/1/5 67/1/5
f 70/2/5 66/2/5 68/2/5
f 70/1/5 68/1/5 69/1/5
f 71/2/5 69/2/5 65/2/5
f 71/2/5 70/2/5 69/2/5
f 72/2/5 66/2/5 70/2/5
f 72/2/5 70/2/5 71/2/5
f 75/1/5 74/1/5 73/1/5
f 76/1/5 74/1/5 75/1/5
f 77/1/6 78/1/6 79/1/6
f 79/1/6 78/1/6 80/1/6
f 81/1/6 82/1/6 83/1/6
f 83/1/6 82/1/6 84/1/6
f 81/1/6 83/1/6 85/1/6
f 85/1/6 83/1/6 86/1/6
f 87/1/6 88/1/6 89/1/6
f 89/1/6 88/1/6 90/1/6
