<?xml version="1.0" encoding="UTF-8" standalone="no"?>
<!-- Created with Inkscape (http://www.inkscape.org/) -->

<svg
   xmlns:dc="http://purl.org/dc/elements/1.1/"
   xmlns:cc="http://creativecommons.org/ns#"
   xmlns:rdf="http://www.w3.org/1999/02/22-rdf-syntax-ns#"
   xmlns:svg="http://www.w3.org/2000/svg"
   xmlns="http://www.w3.org/2000/svg"
   xmlns:sodipodi="http://sodipodi.sourceforge.net/DTD/sodipodi-0.dtd"
   xmlns:inkscape="http://www.inkscape.org/namespaces/inkscape"
   width="210mm"
   height="297mm"
   viewBox="0 0 210 297"
   version="1.1"
   id="svg8"
   inkscape:version="0.92.3 (2405546, 2018-03-11)"
   sodipodi:docname="small.svg"
   inkscape:export-filename="C:\Users\Lill Kuhfahl\Desktop\grafiken\map\city\big.png"
   inkscape:export-xdpi="96"
   inkscape:export-ydpi="96">
  <defs
     id="defs2" />
  <sodipodi:namedview
     id="base"
     pagecolor="#ffffff"
     bordercolor="#666666"
     borderopacity="1.0"
     inkscape:pageopacity="0.0"
     inkscape:pageshadow="2"
     inkscape:zoom="1.4574355"
     inkscape:cx="164.98178"
     inkscape:cy="976.66123"
     inkscape:document-units="mm"
     inkscape:current-layer="layer1"
     showgrid="false"
     inkscape:window-width="1920"
     inkscape:window-height="1017"
     inkscape:window-x="-8"
     inkscape:window-y="-8"
     inkscape:window-maximized="1" />
  <metadata
     id="metadata5">
    <rdf:RDF>
      <cc:Work
         rdf:about="">
        <dc:format>image/svg+xml</dc:format>
        <dc:type
           rdf:resource="http://purl.org/dc/dcmitype/StillImage" />
        <dc:title></dc:title>
      </cc:Work>
    </rdf:RDF>
  </metadata>
  <g
     inkscape:label="Ebene 1"
     inkscape:groupmode="layer"
     id="layer1">
    <rect
       id="rect10"
       width="100.93643"
       height="96.57946"
       x="0.066767283"
       y="0.1311329"
       style="fill:#ffffff;stroke:#0e0000;stroke-width:0.26458332;stroke-opacity:1" />
    <path
       style="fill:#cd853f;fill-opacity:1;stroke-width:0.24258597"
       d=""
       id="path1544"
       inkscape:connector-curvature="0"
       transform="scale(0.26458333)" />
    <path
       inkscape:connector-curvature="0"
       id="path2203"
       d=""
       style="fill:#808080;fill-opacity:1;stroke-width:0.12836841" />
    <g
       id="g2915"
       transform="translate(0.18154029,-14.613998)">
      <g
         transform="matrix(1.2943258,0,0,0.87240376,-162.40252,-12.132291)"
         id="g2424-0-7">
        <g
           id="g2245-1-1-7"
           transform="matrix(0.71034537,0,0,0.63143605,67.214952,41.719991)">
          <rect
             style="fill:#000000;fill-opacity:1;stroke:#000000;stroke-width:0.26458332;stroke-opacity:1"
             id="rect2239-6-3-4"
             width="9.884367"
             height="9.4992619"
             x="119.63935"
             y="44.370975" />
          <path
             style="fill:none;stroke:#000000;stroke-width:0.26458332px;stroke-linecap:butt;stroke-linejoin:miter;stroke-opacity:1"
             d="m 119.63935,44.370975 4.878,-7.573736 v 0 l 5.00636,7.573735"
             id="path2241-3-0-4"
             inkscape:connector-curvature="0" />
        </g>
        <path
           style="fill:#999999;fill-opacity:1;stroke:#000000;stroke-width:0.48517194;stroke-opacity:1"
           d="m 577.45805,261.58335 c 1.92787,-2.75832 10.2221,-14.17576 10.5892,-14.57658 0.19408,-0.21192 2.60741,2.62634 5.36295,6.30723 2.75555,3.6809 5.54458,7.40211 6.19785,8.26935 l 1.18776,1.57681 h -12.21992 -12.21992 z"
           id="path2412-5-6"
           inkscape:connector-curvature="0"
           transform="scale(0.26458333)" />
      </g>
      <g
         transform="matrix(1.2693592,0,0,0.84342686,-150.91116,-6.6490248)"
         id="g2424-0-7-9">
        <g
           id="g2245-1-1-7-2"
           transform="matrix(0.71034537,0,0,0.63143605,67.214952,41.719991)">
          <rect
             style="fill:#000000;fill-opacity:1;stroke:#000000;stroke-width:0.26458332;stroke-opacity:1"
             id="rect2239-6-3-4-4"
             width="9.884367"
             height="9.4992619"
             x="119.63935"
             y="44.370975" />
          <path
             style="fill:none;stroke:#000000;stroke-width:0.26458332px;stroke-linecap:butt;stroke-linejoin:miter;stroke-opacity:1"
             d="m 119.63935,44.370975 4.878,-7.573736 v 0 l 5.00636,7.573735"
             id="path2241-3-0-4-7"
             inkscape:connector-curvature="0" />
        </g>
        <path
           style="fill:#999999;fill-opacity:1;stroke:#000000;stroke-width:0.48517194;stroke-opacity:1"
           d="m 577.45805,261.58335 c 1.92787,-2.75832 10.2221,-14.17576 10.5892,-14.57658 0.19408,-0.21192 2.60741,2.62634 5.36295,6.30723 2.75555,3.6809 5.54458,7.40211 6.19785,8.26935 l 1.18776,1.57681 h -12.21992 -12.21992 z"
           id="path2412-5-6-5"
           inkscape:connector-curvature="0"
           transform="scale(0.26458333)" />
      </g>
      <g
         transform="matrix(1.2693592,0,0,0.84342687,-157.8503,-3.7051914)"
         id="g2424-0-7-9-7">
        <g
           id="g2245-1-1-7-2-5"
           transform="matrix(0.71034537,0,0,0.63143605,67.214952,41.719991)">
          <rect
             style="fill:#000000;fill-opacity:1;stroke:#000000;stroke-width:0.26458332;stroke-opacity:1"
             id="rect2239-6-3-4-4-0"
             width="9.884367"
             height="9.4992619"
             x="119.63935"
             y="44.370975" />
          <path
             style="fill:none;stroke:#000000;stroke-width:0.26458332px;stroke-linecap:butt;stroke-linejoin:miter;stroke-opacity:1"
             d="m 119.63935,44.370975 4.878,-7.573736 v 0 l 5.00636,7.573735"
             id="path2241-3-0-4-7-0"
             inkscape:connector-curvature="0" />
        </g>
        <path
           style="fill:#999999;fill-opacity:1;stroke:#000000;stroke-width:0.48517194;stroke-opacity:1"
           d="m 577.45805,261.58335 c 1.92787,-2.75832 10.2221,-14.17576 10.5892,-14.57658 0.19408,-0.21192 2.60741,2.62634 5.36295,6.30723 2.75555,3.6809 5.54458,7.40211 6.19785,8.26935 l 1.18776,1.57681 h -12.21992 -12.21992 z"
           id="path2412-5-6-5-9"
           inkscape:connector-curvature="0"
           transform="scale(0.26458333)" />
      </g>
      <g
         transform="matrix(1.1064159,0,0,0.69465308,-137.92447,10.204463)"
         id="g2424-0-7-9-7-3">
        <g
           id="g2245-1-1-7-2-5-3"
           transform="matrix(0.71034537,0,0,0.63143605,67.214952,41.719991)">
          <rect
             style="fill:#000000;fill-opacity:1;stroke:#000000;stroke-width:0.26458332;stroke-opacity:1"
             id="rect2239-6-3-4-4-0-3"
             width="9.884367"
             height="9.4992619"
             x="119.63935"
             y="44.370975" />
          <path
             style="fill:none;stroke:#000000;stroke-width:0.26458332px;stroke-linecap:butt;stroke-linejoin:miter;stroke-opacity:1"
             d="m 119.63935,44.370975 4.878,-7.573736 v 0 l 5.00636,7.573735"
             id="path2241-3-0-4-7-0-4"
             inkscape:connector-curvature="0" />
        </g>
        <path
           style="fill:#999999;fill-opacity:1;stroke:#000000;stroke-width:0.48517194;stroke-opacity:1"
           d="m 577.45805,261.58335 c 1.92787,-2.75832 10.2221,-14.17576 10.5892,-14.57658 0.19408,-0.21192 2.60741,2.62634 5.36295,6.30723 2.75555,3.6809 5.54458,7.40211 6.19785,8.26935 l 1.18776,1.57681 h -12.21992 -12.21992 z"
           id="path2412-5-6-5-9-4"
           inkscape:connector-curvature="0"
           transform="scale(0.26458333)" />
      </g>
      <g
         transform="matrix(1.1064159,0,0,0.69465309,-110.23957,-1.3687353)"
         id="g2424-0-7-9-7-3-9">
        <g
           id="g2245-1-1-7-2-5-3-9"
           transform="matrix(0.71034537,0,0,0.63143605,67.214952,41.719991)">
          <rect
             style="fill:#000000;fill-opacity:1;stroke:#000000;stroke-width:0.26458332;stroke-opacity:1"
             id="rect2239-6-3-4-4-0-3-5"
             width="9.884367"
             height="9.4992619"
             x="119.63935"
             y="44.370975" />
          <path
             style="fill:none;stroke:#000000;stroke-width:0.26458332px;stroke-linecap:butt;stroke-linejoin:miter;stroke-opacity:1"
             d="m 119.63935,44.370975 4.878,-7.573736 v 0 l 5.00636,7.573735"
             id="path2241-3-0-4-7-0-4-6"
             inkscape:connector-curvature="0" />
        </g>
        <path
           style="fill:#999999;fill-opacity:1;stroke:#000000;stroke-width:0.48517194;stroke-opacity:1"
           d="m 577.45805,261.58335 c 1.92787,-2.75832 10.2221,-14.17576 10.5892,-14.57658 0.19408,-0.21192 2.60741,2.62634 5.36295,6.30723 2.75555,3.6809 5.54458,7.40211 6.19785,8.26935 l 1.18776,1.57681 h -12.21992 -12.21992 z"
           id="path2412-5-6-5-9-4-3"
           inkscape:connector-curvature="0"
           transform="scale(0.26458333)" />
      </g>
      <g
         transform="matrix(1.1064159,0,0,0.69465309,-112.50882,3.8505495)"
         id="g2424-0-7-9-7-3-9-2">
        <g
           id="g2245-1-1-7-2-5-3-9-5"
           transform="matrix(0.71034537,0,0,0.63143605,67.214952,41.719991)">
          <rect
             style="fill:#000000;fill-opacity:1;stroke:#000000;stroke-width:0.26458332;stroke-opacity:1"
             id="rect2239-6-3-4-4-0-3-5-8"
             width="9.884367"
             height="9.4992619"
             x="119.63935"
             y="44.370975" />
          <path
             style="fill:none;stroke:#000000;stroke-width:0.26458332px;stroke-linecap:butt;stroke-linejoin:miter;stroke-opacity:1"
             d="m 119.63935,44.370975 4.878,-7.573736 v 0 l 5.00636,7.573735"
             id="path2241-3-0-4-7-0-4-6-2"
             inkscape:connector-curvature="0" />
        </g>
        <path
           style="fill:#999999;fill-opacity:1;stroke:#000000;stroke-width:0.48517194;stroke-opacity:1"
           d="m 577.45805,261.58335 c 1.92787,-2.75832 10.2221,-14.17576 10.5892,-14.57658 0.19408,-0.21192 2.60741,2.62634 5.36295,6.30723 2.75555,3.6809 5.54458,7.40211 6.19785,8.26935 l 1.18776,1.57681 h -12.21992 -12.21992 z"
           id="path2412-5-6-5-9-4-3-4"
           inkscape:connector-curvature="0"
           transform="scale(0.26458333)" />
      </g>
      <g
         transform="matrix(0.52417959,0,0,0.51589884,-17.763645,36.116009)"
         id="g2424-0-7-9-7-3-9-2-7">
        <g
           id="g2245-1-1-7-2-5-3-9-5-1"
           transform="matrix(0.71034537,0,0,0.63143605,67.214952,41.719991)">
          <rect
             style="fill:#000000;fill-opacity:1;stroke:#000000;stroke-width:0.26458332;stroke-opacity:1"
             id="rect2239-6-3-4-4-0-3-5-8-9"
             width="9.884367"
             height="9.4992619"
             x="119.63935"
             y="44.370975" />
          <path
             style="fill:none;stroke:#000000;stroke-width:0.26458332px;stroke-linecap:butt;stroke-linejoin:miter;stroke-opacity:1"
             d="m 119.63935,44.370975 4.878,-7.573736 v 0 l 5.00636,7.573735"
             id="path2241-3-0-4-7-0-4-6-2-0"
             inkscape:connector-curvature="0" />
        </g>
        <path
           style="fill:#999999;fill-opacity:1;stroke:#000000;stroke-width:0.48517194;stroke-opacity:1"
           d="m 577.45805,261.58335 c 1.92787,-2.75832 10.2221,-14.17576 10.5892,-14.57658 0.19408,-0.21192 2.60741,2.62634 5.36295,6.30723 2.75555,3.6809 5.54458,7.40211 6.19785,8.26935 l 1.18776,1.57681 h -12.21992 -12.21992 z"
           id="path2412-5-6-5-9-4-3-4-8"
           inkscape:connector-curvature="0"
           transform="scale(0.26458333)" />
      </g>
      <g
         transform="matrix(0.52417959,0,0,0.51589884,-19.667476,20.539623)"
         id="g2424-0-7-9-7-3-9-2-7-7">
        <g
           id="g2245-1-1-7-2-5-3-9-5-1-4"
           transform="matrix(0.71034537,0,0,0.63143605,67.214952,41.719991)">
          <rect
             style="fill:#000000;fill-opacity:1;stroke:#000000;stroke-width:0.26458332;stroke-opacity:1"
             id="rect2239-6-3-4-4-0-3-5-8-9-4"
             width="9.884367"
             height="9.4992619"
             x="119.63935"
             y="44.370975" />
          <path
             style="fill:none;stroke:#000000;stroke-width:0.26458332px;stroke-linecap:butt;stroke-linejoin:miter;stroke-opacity:1"
             d="m 119.63935,44.370975 4.878,-7.573736 v 0 l 5.00636,7.573735"
             id="path2241-3-0-4-7-0-4-6-2-0-6"
             inkscape:connector-curvature="0" />
        </g>
        <path
           style="fill:#999999;fill-opacity:1;stroke:#000000;stroke-width:0.48517194;stroke-opacity:1"
           d="m 577.45805,261.58335 c 1.92787,-2.75832 10.2221,-14.17576 10.5892,-14.57658 0.19408,-0.21192 2.60741,2.62634 5.36295,6.30723 2.75555,3.6809 5.54458,7.40211 6.19785,8.26935 l 1.18776,1.57681 h -12.21992 -12.21992 z"
           id="path2412-5-6-5-9-4-3-4-8-4"
           inkscape:connector-curvature="0"
           transform="scale(0.26458333)" />
      </g>
      <g
         transform="matrix(0.52417959,0,0,0.51589884,-33.285343,22.409715)"
         id="g2424-0-7-9-7-3-9-2-7-7-1">
        <g
           id="g2245-1-1-7-2-5-3-9-5-1-4-1"
           transform="matrix(0.71034537,0,0,0.63143605,67.214952,41.719991)">
          <rect
             style="fill:#000000;fill-opacity:1;stroke:#000000;stroke-width:0.26458332;stroke-opacity:1"
             id="rect2239-6-3-4-4-0-3-5-8-9-4-8"
             width="9.884367"
             height="9.4992619"
             x="119.63935"
             y="44.370975" />
          <path
             style="fill:none;stroke:#000000;stroke-width:0.26458332px;stroke-linecap:butt;stroke-linejoin:miter;stroke-opacity:1"
             d="m 119.63935,44.370975 4.878,-7.573736 v 0 l 5.00636,7.573735"
             id="path2241-3-0-4-7-0-4-6-2-0-6-8"
             inkscape:connector-curvature="0" />
        </g>
        <path
           style="fill:#999999;fill-opacity:1;stroke:#000000;stroke-width:0.48517194;stroke-opacity:1"
           d="m 577.45805,261.58335 c 1.92787,-2.75832 10.2221,-14.17576 10.5892,-14.57658 0.19408,-0.21192 2.60741,2.62634 5.36295,6.30723 2.75555,3.6809 5.54458,7.40211 6.19785,8.26935 l 1.18776,1.57681 h -12.21992 -12.21992 z"
           id="path2412-5-6-5-9-4-3-4-8-4-2"
           inkscape:connector-curvature="0"
           transform="scale(0.26458333)" />
      </g>
      <g
         transform="matrix(1.1064159,0,0,0.69465309,-103.88565,25.408466)"
         id="g2424-0-7-9-7-3-8">
        <g
           id="g2245-1-1-7-2-5-3-8"
           transform="matrix(0.71034537,0,0,0.63143605,67.214952,41.719991)">
          <rect
             style="fill:#000000;fill-opacity:1;stroke:#000000;stroke-width:0.26458332;stroke-opacity:1"
             id="rect2239-6-3-4-4-0-3-3"
             width="9.884367"
             height="9.4992619"
             x="119.63935"
             y="44.370975" />
          <path
             style="fill:none;stroke:#000000;stroke-width:0.26458332px;stroke-linecap:butt;stroke-linejoin:miter;stroke-opacity:1"
             d="m 119.63935,44.370975 4.878,-7.573736 v 0 l 5.00636,7.573735"
             id="path2241-3-0-4-7-0-4-0"
             inkscape:connector-curvature="0" />
        </g>
        <path
           style="fill:#999999;fill-opacity:1;stroke:#000000;stroke-width:0.48517194;stroke-opacity:1"
           d="m 577.45805,261.58335 c 1.92787,-2.75832 10.2221,-14.17576 10.5892,-14.57658 0.19408,-0.21192 2.60741,2.62634 5.36295,6.30723 2.75555,3.6809 5.54458,7.40211 6.19785,8.26935 l 1.18776,1.57681 h -12.21992 -12.21992 z"
           id="path2412-5-6-5-9-4-2"
           inkscape:connector-curvature="0"
           transform="scale(0.26458333)" />
      </g>
    </g>
    <path
       style="opacity:1;fill:#cd853f;fill-opacity:1;stroke:#cd853f;stroke-width:0.68613672;stroke-opacity:1"
       d="M 1.406786,182.97845 V 1.4952852 H 191.12359 380.8404 V 182.97845 364.46161 H 191.12359 1.406786 Z m 273.062524,48.88724 -0.0199,-8.40517 -7.51343,-6.34677 c -4.13238,-3.49072 -7.75138,-6.33473 -8.0422,-6.32002 -0.29083,0.0147 -2.35609,1.66961 -4.58946,3.67754 l -4.06068,3.65079 -3.99858,-5.39288 c -2.19922,-2.96608 -4.12947,-5.39288 -4.28945,-5.39288 -0.15998,0 -1.85945,2.15661 -3.7766,4.79246 l -3.48574,4.79244 v 6.18574 6.18574 h 4.45989 4.45989 v 5.48909 5.4891 h 15.43808 15.43807 z M 146.18164,177.83242 v -4.80295 h 11.32125 11.32126 v -5.83217 -5.83216 h 4.82709 c 4.5684,0 4.78884,0.0715 4.11314,1.33407 -0.39268,0.73373 -1.02108,1.52385 -1.39642,1.75583 -0.37534,0.23197 -0.68245,3.33679 -0.68245,6.89958 v 6.4778 h 7.54751 7.5475 v -6.24084 c 0,-5.20952 -0.23449,-6.57017 -1.41899,-8.23364 l -1.419,-1.9928 h 3.47741 3.4774 v -9.85142 -9.85143 l -8.88858,-8.00542 -8.88857,-8.00543 -4.74606,4.47718 c -2.61033,2.46246 -4.94008,4.47719 -5.17722,4.47719 -0.23715,0 -0.43117,-1.31347 -0.43117,-2.91882 0,-2.86966 -0.15047,-3.05541 -8.93531,-11.03019 -4.91442,-4.46125 -9.23506,-8.01078 -9.60141,-7.88783 -0.36635,0.12295 -4.52764,3.7597 -9.24731,8.08169 l -8.58122,7.85815 v 10.15293 10.15294 h 3.55905 3.55906 l -1.84371,1.92442 c -1.01405,1.05843 -1.84372,2.65607 -1.84372,3.55029 v 1.62587 l -1.68802,-1.58582 -1.68802,-1.58581 -7.53418,6.4407 -7.53419,6.4407 -0.0406,8.40518 -0.0407,8.40517 h 15.43808 15.43808 z m 96.05914,-21.56357 v -14.01607 l -2.22995,-1.75747 -2.22994,-1.75746 6.34676,-0.008 6.34677,-0.008 v -8.21518 -8.21517 l -7.62045,-6.36523 c -4.19124,-3.50088 -7.7352,-6.36523 -7.87545,-6.36523 -0.14025,0 -3.65819,2.91343 -7.81763,6.47429 l -7.56262,6.47429 v 6.22408 6.22409 l -4.07827,3.42584 -4.07827,3.42584 -0.0386,8.40517 -0.0385,8.40518 h 7.89058 7.89057 v 5.83216 5.83216 h 7.5475 7.54751 z"
       id="path2917"
       inkscape:connector-curvature="0"
       transform="scale(0.26458333)" />
  </g>
</svg>
