# MagicaVoxel @ Ephtracy

# group
g citywall

# material
mtllib citywall.mtl
usemtl palette

# normals
vn -1 0 0
vn 1 0 0
vn 0 0 1
vn 0 0 -1
vn 0 -1 0
vn 0 1 0

# texcoords
vt 0.373047 0.5
vt 0.701172 0.5
vt 0.966797 0.5
vt 0.986328 0.5

# verts
v -28 0 12.5
v -28 0 11.5
v -28 0 -12.5
v -28 7 12.5
v -28 7 11.5
v -28 46 12.5
v -28 46 11.5
v -28 46 10.5
v -28 46 5.5
v -28 46 -12.5
v -28 48 12.5
v -28 48 10.5
v -28 55 10.5
v -28 55 5.5
v -20 7 12.5
v -20 7 11.5
v -20 8 12.5
v -20 8 11.5
v -18 50 10.5
v -18 50 5.5
v -18 55 10.5
v -18 55 5.5
v -10 6 12.5
v -10 6 11.5
v -10 7 12.5
v -10 7 11.5
v -8 50 10.5
v -8 50 5.5
v -8 55 10.5
v -8 55 5.5
v 2 50 10.5
v 2 50 5.5
v 2 55 10.5
v 2 55 5.5
v 12 4 12.5
v 12 4 11.5
v 12 7 12.5
v 12 7 11.5
v 12 50 10.5
v 12 50 5.5
v 12 55 10.5
v 12 55 5.5
v 22 50 10.5
v 22 50 5.5
v 22 55 10.5
v 22 55 5.5
v 23 5 12.5
v 23 5 11.5
v 23 6 12.5
v 23 6 11.5
v -22 50 10.5
v -22 50 5.5
v -22 55 10.5
v -22 55 5.5
v -15 6 12.5
v -15 6 11.5
v -15 8 12.5
v -15 8 11.5
v -12 50 10.5
v -12 50 5.5
v -12 55 10.5
v -12 55 5.5
v -2 6 12.5
v -2 6 11.5
v -2 7 12.5
v -2 7 11.5
v -2 50 10.5
v -2 50 5.5
v -2 55 10.5
v -2 55 5.5
v 5 4 12.5
v 5 4 11.5
v 5 6 12.5
v 5 6 11.5
v 8 50 10.5
v 8 50 5.5
v 8 55 10.5
v 8 55 5.5
v 18 50 10.5
v 18 50 5.5
v 18 55 10.5
v 18 55 5.5
v 19 5 12.5
v 19 5 11.5
v 19 7 12.5
v 19 7 11.5
v 28 0 12.5
v 28 0 11.5
v 28 0 -12.5
v 28 5 12.5
v 28 5 11.5
v 28 6 12.5
v 28 6 11.5
v 28 46 12.5
v 28 46 11.5
v 28 46 10.5
v 28 46 5.5
v 28 46 -12.5
v 28 48 12.5
v 28 48 10.5
v 28 55 10.5
v 28 55 5.5
v -28 0 12.5
v -28 7 12.5
v -28 46 12.5
v -28 48 12.5
v -27 0 12.5
v -27 6 12.5
v -20 0 12.5
v -20 6 12.5
v -20 7 12.5
v -20 8 12.5
v -19 0 12.5
v -19 7 12.5
v -16 0 12.5
v -16 7 12.5
v -15 0 12.5
v -15 5 12.5
v -15 6 12.5
v -15 8 12.5
v -10 0 12.5
v -10 5 12.5
v -10 6 12.5
v -10 7 12.5
v -9 0 12.5
v -9 6 12.5
v -3 0 12.5
v -3 6 12.5
v -2 6 12.5
v -2 7 12.5
v -1 0 12.5
v -1 5 12.5
v 4 0 12.5
v 4 5 12.5
v 5 0 12.5
v 5 3 12.5
v 5 4 12.5
v 5 6 12.5
v 12 0 12.5
v 12 3 12.5
v 12 4 12.5
v 12 7 12.5
v 13 0 12.5
v 13 6 12.5
v 18 0 12.5
v 18 6 12.5
v 19 0 12.5
v 19 4 12.5
v 19 5 12.5
v 19 7 12.5
v 23 0 12.5
v 23 4 12.5
v 23 5 12.5
v 23 6 12.5
v 24 0 12.5
v 24 5 12.5
v 28 0 12.5
v 28 5 12.5
v 28 6 12.5
v 28 46 12.5
v 28 48 12.5
v -28 7 11.5
v -28 46 11.5
v -20 7 11.5
v -20 8 11.5
v -15 6 11.5
v -15 8 11.5
v -10 6 11.5
v -10 7 11.5
v -2 6 11.5
v -2 7 11.5
v 5 4 11.5
v 5 6 11.5
v 12 4 11.5
v 12 7 11.5
v 19 5 11.5
v 19 7 11.5
v 23 5 11.5
v 23 6 11.5
v 28 6 11.5
v 28 46 11.5
v -28 48 10.5
v -28 55 10.5
v -22 50 10.5
v -22 55 10.5
v -18 50 10.5
v -18 55 10.5
v -12 50 10.5
v -12 55 10.5
v -8 50 10.5
v -8 55 10.5
v -2 50 10.5
v -2 55 10.5
v 2 50 10.5
v 2 55 10.5
v 8 50 10.5
v 8 55 10.5
v 12 50 10.5
v 12 55 10.5
v 18 50 10.5
v 18 55 10.5
v 22 50 10.5
v 22 55 10.5
v 28 48 10.5
v 28 55 10.5
v -28 46 5.5
v -28 55 5.5
v -22 50 5.5
v -22 55 5.5
v -18 50 5.5
v -18 55 5.5
v -12 50 5.5
v -12 55 5.5
v -8 50 5.5
v -8 55 5.5
v -2 50 5.5
v -2 55 5.5
v 2 50 5.5
v 2 55 5.5
v 8 50 5.5
v 8 55 5.5
v 12 50 5.5
v 12 55 5.5
v 18 50 5.5
v 18 55 5.5
v 22 50 5.5
v 22 55 5.5
v 28 46 5.5
v 28 55 5.5
v -28 0 -12.5
v -28 46 -12.5
v 28 0 -12.5
v 28 46 -12.5
v -28 0 12.5
v -27 0 12.5
v -20 0 12.5
v -19 0 12.5
v -16 0 12.5
v -15 0 12.5
v -10 0 12.5
v -9 0 12.5
v -3 0 12.5
v -1 0 12.5
v 4 0 12.5
v 5 0 12.5
v 12 0 12.5
v 13 0 12.5
v 18 0 12.5
v 19 0 12.5
v 23 0 12.5
v 24 0 12.5
v 28 0 12.5
v -28 0 11.5
v -27 0 11.5
v -20 0 11.5
v -19 0 11.5
v -16 0 11.5
v -15 0 11.5
v -10 0 11.5
v -9 0 11.5
v -3 0 11.5
v -1 0 11.5
v 4 0 11.5
v 5 0 11.5
v 12 0 11.5
v 13 0 11.5
v 18 0 11.5
v 19 0 11.5
v 23 0 11.5
v 24 0 11.5
v 28 0 11.5
v -28 0 -12.5
v 28 0 -12.5
v -28 46 12.5
v 28 46 12.5
v -28 46 11.5
v 28 46 11.5
v 5 4 12.5
v 12 4 12.5
v 5 4 11.5
v 12 4 11.5
v 19 5 12.5
v 23 5 12.5
v 19 5 11.5
v 23 5 11.5
v -15 6 12.5
v -10 6 12.5
v -2 6 12.5
v 5 6 12.5
v 23 6 12.5
v 28 6 12.5
v -15 6 11.5
v -10 6 11.5
v -2 6 11.5
v 5 6 11.5
v 23 6 11.5
v 28 6 11.5
v -28 7 12.5
v -20 7 12.5
v -10 7 12.5
v -2 7 12.5
v 12 7 12.5
v 19 7 12.5
v -28 7 11.5
v -20 7 11.5
v -10 7 11.5
v -2 7 11.5
v 12 7 11.5
v 19 7 11.5
v -20 8 12.5
v -15 8 12.5
v -20 8 11.5
v -15 8 11.5
v -28 46 5.5
v 28 46 5.5
v -28 46 -12.5
v 28 46 -12.5
v -28 48 12.5
v 28 48 12.5
v -28 48 10.5
v 28 48 10.5
v -22 50 10.5
v -18 50 10.5
v -12 50 10.5
v -8 50 10.5
v -2 50 10.5
v 2 50 10.5
v 8 50 10.5
v 12 50 10.5
v 18 50 10.5
v 22 50 10.5
v -22 50 5.5
v -18 50 5.5
v -12 50 5.5
v -8 50 5.5
v -2 50 5.5
v 2 50 5.5
v 8 50 5.5
v 12 50 5.5
v 18 50 5.5
v 22 50 5.5
v -28 55 10.5
v -22 55 10.5
v -18 55 10.5
v -12 55 10.5
v -8 55 10.5
v -2 55 10.5
v 2 55 10.5
v 8 55 10.5
v 12 55 10.5
v 18 55 10.5
v 22 55 10.5
v 28 55 10.5
v -28 55 5.5
v -22 55 5.5
v -18 55 5.5
v -12 55 5.5
v -8 55 5.5
v -2 55 5.5
v 2 55 5.5
v 8 55 5.5
v 12 55 5.5
v 18 55 5.5
v 22 55 5.5
v 28 55 5.5

# faces
f 4/3/1 2/3/1 1/3/1
f 5/1/1 3/1/1 2/1/1
f 5/3/1 2/3/1 4/3/1
f 7/1/1 3/1/1 5/1/1
f 8/1/1 3/1/1 7/1/1
f 9/1/1 3/1/1 8/1/1
f 10/1/1 3/1/1 9/1/1
f 11/2/1 7/2/1 6/2/1
f 11/2/1 8/2/1 7/2/1
f 12/1/1 9/1/1 8/1/1
f 12/2/1 8/2/1 11/2/1
f 13/1/1 9/1/1 12/1/1
f 14/1/1 9/1/1 13/1/1
f 17/3/1 16/3/1 15/3/1
f 18/3/1 16/3/1 17/3/1
f 21/1/1 20/1/1 19/1/1
f 22/1/1 20/1/1 21/1/1
f 25/3/1 24/3/1 23/3/1
f 26/3/1 24/3/1 25/3/1
f 29/1/1 28/1/1 27/1/1
f 30/1/1 28/1/1 29/1/1
f 33/1/1 32/1/1 31/1/1
f 34/1/1 32/1/1 33/1/1
f 37/3/1 36/3/1 35/3/1
f 38/3/1 36/3/1 37/3/1
f 41/1/1 40/1/1 39/1/1
f 42/1/1 40/1/1 41/1/1
f 45/1/1 44/1/1 43/1/1
f 46/1/1 44/1/1 45/1/1
f 49/3/1 48/3/1 47/3/1
f 50/3/1 48/3/1 49/3/1
f 51/1/2 52/1/2 53/1/2
f 53/1/2 52/1/2 54/1/2
f 55/3/2 56/3/2 57/3/2
f 57/3/2 56/3/2 58/3/2
f 59/1/2 60/1/2 61/1/2
f 61/1/2 60/1/2 62/1/2
f 63/3/2 64/3/2 65/3/2
f 65/3/2 64/3/2 66/3/2
f 67/1/2 68/1/2 69/1/2
f 69/1/2 68/1/2 70/1/2
f 71/3/2 72/3/2 73/3/2
f 73/3/2 72/3/2 74/3/2
f 75/1/2 76/1/2 77/1/2
f 77/1/2 76/1/2 78/1/2
f 79/1/2 80/1/2 81/1/2
f 81/1/2 80/1/2 82/1/2
f 83/3/2 84/3/2 85/3/2
f 85/3/2 84/3/2 86/3/2
f 87/4/2 88/4/2 90/4/2
f 88/1/2 89/1/2 91/1/2
f 90/4/2 88/4/2 91/4/2
f 90/3/2 91/3/2 92/3/2
f 91/1/2 89/1/2 93/1/2
f 92/3/2 91/3/2 93/3/2
f 93/1/2 89/1/2 95/1/2
f 95/1/2 89/1/2 96/1/2
f 96/1/2 89/1/2 97/1/2
f 97/1/2 89/1/2 98/1/2
f 94/2/2 95/2/2 99/2/2
f 95/2/2 96/2/2 99/2/2
f 96/1/2 97/1/2 100/1/2
f 99/2/2 96/2/2 100/2/2
f 100/1/2 97/1/2 101/1/2
f 101/1/2 97/1/2 102/1/2
f 107/3/3 104/3/3 103/3/3
f 108/3/3 104/3/3 107/3/3
f 109/4/3 108/4/3 107/4/3
f 110/3/3 104/3/3 108/3/3
f 110/4/3 108/4/3 109/4/3
f 111/3/3 104/3/3 110/3/3
f 113/3/3 110/3/3 109/3/3
f 113/3/3 112/3/3 111/3/3
f 113/3/3 111/3/3 110/3/3
f 114/3/3 112/3/3 113/3/3
f 115/4/3 114/4/3 113/4/3
f 116/3/3 112/3/3 114/3/3
f 116/4/3 114/4/3 115/4/3
f 117/3/3 116/3/3 115/3/3
f 118/3/3 116/3/3 117/3/3
f 119/3/3 116/3/3 118/3/3
f 120/3/3 112/3/3 116/3/3
f 120/3/3 116/3/3 119/3/3
f 121/4/3 118/4/3 117/4/3
f 122/3/3 119/3/3 118/3/3
f 122/4/3 118/4/3 121/4/3
f 123/3/3 119/3/3 122/3/3
f 125/3/3 122/3/3 121/3/3
f 125/3/3 124/3/3 123/3/3
f 125/3/3 123/3/3 122/3/3
f 126/3/3 124/3/3 125/3/3
f 127/4/3 126/4/3 125/4/3
f 128/3/3 124/3/3 126/3/3
f 128/4/3 126/4/3 127/4/3
f 129/3/3 128/3/3 127/3/3
f 129/3/3 124/3/3 128/3/3
f 130/3/3 124/3/3 129/3/3
f 131/3/3 129/3/3 127/3/3
f 132/3/3 129/3/3 131/3/3
f 133/4/3 132/4/3 131/4/3
f 134/3/3 129/3/3 132/3/3
f 134/4/3 132/4/3 133/4/3
f 135/3/3 134/3/3 133/3/3
f 136/3/3 134/3/3 135/3/3
f 137/3/3 134/3/3 136/3/3
f 138/3/3 129/3/3 134/3/3
f 138/3/3 134/3/3 137/3/3
f 139/4/3 136/4/3 135/4/3
f 140/3/3 137/3/3 136/3/3
f 140/4/3 136/4/3 139/4/3
f 141/3/3 137/3/3 140/3/3
f 143/3/3 141/3/3 140/3/3
f 143/3/3 142/3/3 141/3/3
f 143/3/3 140/3/3 139/3/3
f 144/3/3 142/3/3 143/3/3
f 145/4/3 144/4/3 143/4/3
f 146/3/3 142/3/3 144/3/3
f 146/4/3 144/4/3 145/4/3
f 147/3/3 146/3/3 145/3/3
f 148/3/3 146/3/3 147/3/3
f 149/3/3 146/3/3 148/3/3
f 150/3/3 142/3/3 146/3/3
f 150/3/3 146/3/3 149/3/3
f 151/4/3 148/4/3 147/4/3
f 152/3/3 149/3/3 148/3/3
f 152/4/3 148/4/3 151/4/3
f 153/3/3 149/3/3 152/3/3
f 155/3/3 152/3/3 151/3/3
f 155/3/3 154/3/3 153/3/3
f 155/3/3 153/3/3 152/3/3
f 156/3/3 154/3/3 155/3/3
f 157/4/3 156/4/3 155/4/3
f 158/3/3 154/3/3 156/3/3
f 158/4/3 156/4/3 157/4/3
f 159/3/3 154/3/3 158/3/3
f 160/2/3 106/2/3 105/2/3
f 161/2/3 106/2/3 160/2/3
f 164/1/3 163/1/3 162/1/3
f 165/1/3 163/1/3 164/1/3
f 167/1/3 163/1/3 165/1/3
f 168/1/3 167/1/3 166/1/3
f 169/1/3 167/1/3 168/1/3
f 171/1/3 167/1/3 169/1/3
f 173/1/3 171/1/3 170/1/3
f 174/1/3 173/1/3 172/1/3
f 175/1/3 167/1/3 171/1/3
f 175/1/3 173/1/3 174/1/3
f 175/1/3 171/1/3 173/1/3
f 177/1/3 167/1/3 175/1/3
f 178/1/3 177/1/3 176/1/3
f 179/1/3 177/1/3 178/1/3
f 180/1/3 177/1/3 179/1/3
f 181/1/3 163/1/3 167/1/3
f 181/1/3 177/1/3 180/1/3
f 181/1/3 167/1/3 177/1/3
f 184/1/3 183/1/3 182/1/3
f 185/1/3 183/1/3 184/1/3
f 186/1/3 184/1/3 182/1/3
f 188/1/3 186/1/3 182/1/3
f 188/1/3 187/1/3 186/1/3
f 189/1/3 187/1/3 188/1/3
f 190/1/3 188/1/3 182/1/3
f 192/1/3 190/1/3 182/1/3
f 192/1/3 191/1/3 190/1/3
f 193/1/3 191/1/3 192/1/3
f 194/1/3 192/1/3 182/1/3
f 196/1/3 194/1/3 182/1/3
f 196/1/3 195/1/3 194/1/3
f 197/1/3 195/1/3 196/1/3
f 198/1/3 196/1/3 182/1/3
f 200/1/3 198/1/3 182/1/3
f 200/1/3 199/1/3 198/1/3
f 201/1/3 199/1/3 200/1/3
f 202/1/3 200/1/3 182/1/3
f 204/1/3 202/1/3 182/1/3
f 204/1/3 203/1/3 202/1/3
f 205/1/3 203/1/3 204/1/3
f 206/1/4 207/1/4 208/1/4
f 208/1/4 207/1/4 209/1/4
f 206/1/4 208/1/4 210/1/4
f 206/1/4 210/1/4 212/1/4
f 210/1/4 211/1/4 212/1/4
f 212/1/4 211/1/4 213/1/4
f 206/1/4 212/1/4 214/1/4
f 206/1/4 214/1/4 216/1/4
f 214/1/4 215/1/4 216/1/4
f 216/1/4 215/1/4 217/1/4
f 206/1/4 216/1/4 218/1/4
f 206/1/4 218/1/4 220/1/4
f 218/1/4 219/1/4 220/1/4
f 220/1/4 219/1/4 221/1/4
f 206/1/4 220/1/4 222/1/4
f 206/1/4 222/1/4 224/1/4
f 222/1/4 223/1/4 224/1/4
f 224/1/4 223/1/4 225/1/4
f 206/1/4 224/1/4 226/1/4
f 206/1/4 226/1/4 228/1/4
f 226/1/4 227/1/4 228/1/4
f 228/1/4 227/1/4 229/1/4
f 230/1/4 231/1/4 232/1/4
f 232/1/4 231/1/4 233/1/4
f 253/3/5 235/3/5 234/3/5
f 254/4/5 236/4/5 235/4/5
f 254/3/5 235/3/5 253/3/5
f 255/3/5 237/3/5 236/3/5
f 255/4/5 236/4/5 254/4/5
f 256/4/5 238/4/5 237/4/5
f 256/3/5 237/3/5 255/3/5
f 257/3/5 239/3/5 238/3/5
f 257/4/5 238/4/5 256/4/5
f 258/4/5 240/4/5 239/4/5
f 258/3/5 239/3/5 257/3/5
f 259/3/5 241/3/5 240/3/5
f 259/4/5 240/4/5 258/4/5
f 260/4/5 242/4/5 241/4/5
f 260/3/5 241/3/5 259/3/5
f 261/3/5 243/3/5 242/3/5
f 261/4/5 242/4/5 260/4/5
f 262/4/5 244/4/5 243/4/5
f 262/3/5 243/3/5 261/3/5
f 263/3/5 245/3/5 244/3/5
f 263/4/5 244/4/5 262/4/5
f 264/4/5 246/4/5 245/4/5
f 264/3/5 245/3/5 263/3/5
f 265/3/5 247/3/5 246/3/5
f 265/4/5 246/4/5 264/4/5
f 266/4/5 248/4/5 247/4/5
f 266/3/5 247/3/5 265/3/5
f 267/3/5 249/3/5 248/3/5
f 267/4/5 248/4/5 266/4/5
f 268/4/5 250/4/5 249/4/5
f 268/3/5 249/3/5 267/3/5
f 269/3/5 251/3/5 250/3/5
f 269/4/5 250/4/5 268/4/5
f 270/4/5 252/4/5 251/4/5
f 270/3/5 251/3/5 269/3/5
f 271/4/5 252/4/5 270/4/5
f 272/1/5 269/1/5 268/1/5
f 272/1/5 254/1/5 253/1/5
f 272/1/5 271/1/5 270/1/5
f 272/1/5 270/1/5 269/1/5
f 272/1/5 268/1/5 267/1/5
f 272/1/5 267/1/5 266/1/5
f 272/1/5 266/1/5 265/1/5
f 272/1/5 265/1/5 264/1/5
f 272/1/5 264/1/5 263/1/5
f 272/1/5 263/1/5 262/1/5
f 272/1/5 262/1/5 261/1/5
f 272/1/5 261/1/5 260/1/5
f 272/1/5 260/1/5 259/1/5
f 272/1/5 259/1/5 258/1/5
f 272/1/5 258/1/5 257/1/5
f 272/1/5 257/1/5 256/1/5
f 272/1/5 256/1/5 255/1/5
f 272/1/5 255/1/5 254/1/5
f 273/1/5 271/1/5 272/1/5
f 276/2/5 275/2/5 274/2/5
f 277/2/5 275/2/5 276/2/5
f 278/3/6 279/3/6 280/3/6
f 280/3/6 279/3/6 281/3/6
f 282/3/6 283/3/6 284/3/6
f 284/3/6 283/3/6 285/3/6
f 286/3/6 287/3/6 292/3/6
f 292/3/6 287/3/6 293/3/6
f 288/3/6 289/3/6 294/3/6
f 294/3/6 289/3/6 295/3/6
f 290/3/6 291/3/6 296/3/6
f 296/3/6 291/3/6 297/3/6
f 298/3/6 299/3/6 304/3/6
f 304/3/6 299/3/6 305/3/6
f 300/3/6 301/3/6 306/3/6
f 306/3/6 301/3/6 307/3/6
f 302/3/6 303/3/6 308/3/6
f 308/3/6 303/3/6 309/3/6
f 310/3/6 311/3/6 312/3/6
f 312/3/6 311/3/6 313/3/6
f 314/1/6 315/1/6 316/1/6
f 316/1/6 315/1/6 317/1/6
f 318/2/6 319/2/6 320/2/6
f 320/2/6 319/2/6 321/2/6
f 322/1/6 323/1/6 332/1/6
f 332/1/6 323/1/6 333/1/6
f 324/1/6 325/1/6 334/1/6
f 334/1/6 325/1/6 335/1/6
f 326/1/6 327/1/6 336/1/6
f 336/1/6 327/1/6 337/1/6
f 328/1/6 329/1/6 338/1/6
f 338/1/6 329/1/6 339/1/6
f 330/1/6 331/1/6 340/1/6
f 340/1/6 331/1/6 341/1/6
f 342/1/6 343/1/6 354/1/6
f 354/1/6 343/1/6 355/1/6
f 344/1/6 345/1/6 356/1/6
f 356/1/6 345/1/6 357/1/6
f 346/1/6 347/1/6 358/1/6
f 358/1/6 347/1/6 359/1/6
f 348/1/6 349/1/6 360/1/6
f 360/1/6 349/1/6 361/1/6
f 350/1/6 351/1/6 362/1/6
f 362/1/6 351/1/6 363/1/6
f 352/1/6 353/1/6 364/1/6
f 364/1/6 353/1/6 365/1/6
