# MagicaVoxel @ Ephtracy

# group
g sword2

# material
mtllib sword2.mtl
usemtl palette

# normals
vn -1 0 0
vn 1 0 0
vn 0 0 1
vn 0 0 -1
vn 0 -1 0
vn 0 1 0

# texcoords
vt 0.537109 0.5
vt 0.978516 0.5
vt 0.990234 0.5

# verts
v -2.5 5 0.5
v -2.5 5 -0.5
v -2.5 6 0.5
v -2.5 6 -0.5
v -1.5 5 1.5
v -1.5 5 0.5
v -1.5 5 -0.5
v -1.5 5 -1.5
v -1.5 6 1.5
v -1.5 6 0.5
v -1.5 6 -0.5
v -1.5 6 -1.5
v -0.5 0 0.5
v -0.5 0 -0.5
v -0.5 1 0.5
v -0.5 1 -0.5
v -0.5 5 0.5
v -0.5 5 -0.5
v -0.5 6 0.5
v -0.5 6 -0.5
v -0.5 26 0.5
v -0.5 26 -0.5
v 1.5 1 1.5
v 1.5 1 0.5
v 1.5 1 -0.5
v 1.5 1 -1.5
v 1.5 5 1.5
v 1.5 5 -1.5
v 0.5 1 0.5
v 0.5 1 -0.5
v 0.5 5 0.5
v 0.5 5 -0.5
v 0.5 6 0.5
v 0.5 6 -0.5
v 0.5 8 0.5
v 0.5 8 -0.5
v 0.5 23 0.5
v 0.5 23 -0.5
v 0.5 26 0.5
v 0.5 26 -0.5
v 1.5 5 1.5
v 1.5 5 0.5
v 1.5 5 -0.5
v 1.5 5 -1.5
v 1.5 6 1.5
v 1.5 6 0.5
v 1.5 6 -0.5
v 1.5 6 -1.5
v 1.5 8 0.5
v 1.5 8 -0.5
v 1.5 23 0.5
v 1.5 23 -0.5
v 2.5 0 0.5
v 2.5 0 -0.5
v 2.5 1 1.5
v 2.5 1 0.5
v 2.5 1 -0.5
v 2.5 1 -1.5
v 2.5 5 1.5
v 2.5 5 0.5
v 2.5 5 -0.5
v 2.5 5 -1.5
v 2.5 6 0.5
v 2.5 6 -0.5
v -1.5 5 1.5
v -1.5 6 1.5
v 1.5 1 1.5
v 1.5 5 1.5
v 1.5 6 1.5
v 2.5 1 1.5
v 2.5 5 1.5
v -2.5 5 0.5
v -2.5 6 0.5
v -1.5 5 0.5
v -1.5 6 0.5
v -0.5 0 0.5
v -0.5 1 0.5
v -0.5 5 0.5
v -0.5 6 0.5
v -0.5 26 0.5
v 0.5 1 0.5
v 0.5 5 0.5
v 0.5 6 0.5
v 0.5 8 0.5
v 0.5 23 0.5
v 0.5 26 0.5
v 1.5 1 0.5
v 1.5 5 0.5
v 1.5 6 0.5
v 1.5 8 0.5
v 1.5 23 0.5
v 2.5 0 0.5
v 2.5 1 0.5
v 2.5 5 0.5
v 2.5 6 0.5
v -2.5 5 -0.5
v -2.5 6 -0.5
v -1.5 5 -0.5
v -1.5 6 -0.5
v -0.5 0 -0.5
v -0.5 1 -0.5
v -0.5 5 -0.5
v -0.5 6 -0.5
v -0.5 26 -0.5
v 0.5 1 -0.5
v 0.5 5 -0.5
v 0.5 6 -0.5
v 0.5 8 -0.5
v 0.5 23 -0.5
v 0.5 26 -0.5
v 1.5 1 -0.5
v 1.5 5 -0.5
v 1.5 6 -0.5
v 1.5 8 -0.5
v 1.5 23 -0.5
v 2.5 0 -0.5
v 2.5 1 -0.5
v 2.5 5 -0.5
v 2.5 6 -0.5
v -1.5 5 -1.5
v -1.5 6 -1.5
v 1.5 1 -1.5
v 1.5 5 -1.5
v 1.5 6 -1.5
v 2.5 1 -1.5
v 2.5 5 -1.5
v -0.5 0 0.5
v 2.5 0 0.5
v -0.5 0 -0.5
v 2.5 0 -0.5
v 1.5 1 1.5
v 2.5 1 1.5
v 1.5 1 0.5
v 2.5 1 0.5
v 1.5 1 -0.5
v 2.5 1 -0.5
v 1.5 1 -1.5
v 2.5 1 -1.5
v -1.5 5 1.5
v 1.5 5 1.5
v -2.5 5 0.5
v -1.5 5 0.5
v -0.5 5 0.5
v 0.5 5 0.5
v -2.5 5 -0.5
v -1.5 5 -0.5
v -0.5 5 -0.5
v 0.5 5 -0.5
v -1.5 5 -1.5
v 1.5 5 -1.5
v 0.5 8 0.5
v 1.5 8 0.5
v 0.5 8 -0.5
v 1.5 8 -0.5
v 0.5 1 0.5
v 1.5 1 0.5
v 0.5 1 -0.5
v 1.5 1 -0.5
v 1.5 5 1.5
v 2.5 5 1.5
v 1.5 5 0.5
v 2.5 5 0.5
v 1.5 5 -0.5
v 2.5 5 -0.5
v 1.5 5 -1.5
v 2.5 5 -1.5
v -1.5 6 1.5
v 1.5 6 1.5
v -2.5 6 0.5
v -1.5 6 0.5
v -0.5 6 0.5
v 0.5 6 0.5
v 1.5 6 0.5
v 2.5 6 0.5
v -2.5 6 -0.5
v -1.5 6 -0.5
v -0.5 6 -0.5
v 0.5 6 -0.5
v 1.5 6 -0.5
v 2.5 6 -0.5
v -1.5 6 -1.5
v 1.5 6 -1.5
v 0.5 23 0.5
v 1.5 23 0.5
v 0.5 23 -0.5
v 1.5 23 -0.5
v -0.5 26 0.5
v 0.5 26 0.5
v -0.5 26 -0.5
v 0.5 26 -0.5

# faces
f 3/3/1 2/3/1 1/3/1
f 4/3/1 2/3/1 3/3/1
f 9/3/1 6/3/1 5/3/1
f 10/3/1 6/3/1 9/3/1
f 11/3/1 8/3/1 7/3/1
f 12/3/1 8/3/1 11/3/1
f 15/3/1 14/3/1 13/3/1
f 16/3/1 14/3/1 15/3/1
f 17/1/1 16/1/1 15/1/1
f 18/1/1 16/1/1 17/1/1
f 21/2/1 20/2/1 19/2/1
f 22/2/1 20/2/1 21/2/1
f 27/3/1 24/3/1 23/3/1
f 27/3/1 26/3/1 25/3/1
f 27/3/1 25/3/1 24/3/1
f 28/3/1 26/3/1 27/3/1
f 29/1/2 30/1/2 31/1/2
f 31/1/2 30/1/2 32/1/2
f 33/2/2 34/2/2 35/2/2
f 35/2/2 34/2/2 36/2/2
f 37/2/2 38/2/2 39/2/2
f 39/2/2 38/2/2 40/2/2
f 41/3/2 42/3/2 45/3/2
f 45/3/2 42/3/2 46/3/2
f 43/3/2 44/3/2 47/3/2
f 47/3/2 44/3/2 48/3/2
f 49/2/2 50/2/2 51/2/2
f 51/2/2 50/2/2 52/2/2
f 53/3/2 54/3/2 56/3/2
f 56/3/2 54/3/2 57/3/2
f 55/3/2 56/3/2 59/3/2
f 57/3/2 58/3/2 59/3/2
f 56/3/2 57/3/2 59/3/2
f 59/3/2 58/3/2 60/3/2
f 60/3/2 58/3/2 61/3/2
f 61/3/2 58/3/2 62/3/2
f 60/3/2 61/3/2 63/3/2
f 63/3/2 61/3/2 64/3/2
f 68/3/3 66/3/3 65/3/3
f 69/3/3 66/3/3 68/3/3
f 70/3/3 68/3/3 67/3/3
f 71/3/3 68/3/3 70/3/3
f 74/3/3 73/3/3 72/3/3
f 75/3/3 73/3/3 74/3/3
f 81/1/3 78/1/3 77/1/3
f 81/3/3 77/3/3 76/3/3
f 82/1/3 78/1/3 81/1/3
f 83/2/3 80/2/3 79/2/3
f 84/2/3 80/2/3 83/2/3
f 85/2/3 80/2/3 84/2/3
f 86/2/3 80/2/3 85/2/3
f 87/3/3 81/3/3 76/3/3
f 90/2/3 85/2/3 84/2/3
f 91/2/3 85/2/3 90/2/3
f 92/3/3 87/3/3 76/3/3
f 93/3/3 87/3/3 92/3/3
f 94/3/3 89/3/3 88/3/3
f 95/3/3 89/3/3 94/3/3
f 96/3/4 97/3/4 98/3/4
f 98/3/4 97/3/4 99/3/4
f 101/1/4 102/1/4 105/1/4
f 100/3/4 101/3/4 105/3/4
f 105/1/4 102/1/4 106/1/4
f 103/2/4 104/2/4 107/2/4
f 107/2/4 104/2/4 108/2/4
f 108/2/4 104/2/4 109/2/4
f 109/2/4 104/2/4 110/2/4
f 100/3/4 105/3/4 111/3/4
f 108/2/4 109/2/4 114/2/4
f 114/2/4 109/2/4 115/2/4
f 100/3/4 111/3/4 116/3/4
f 116/3/4 111/3/4 117/3/4
f 112/3/4 113/3/4 118/3/4
f 118/3/4 113/3/4 119/3/4
f 120/3/4 121/3/4 123/3/4
f 123/3/4 121/3/4 124/3/4
f 122/3/4 123/3/4 125/3/4
f 125/3/4 123/3/4 126/3/4
f 129/3/5 128/3/5 127/3/5
f 130/3/5 128/3/5 129/3/5
f 133/3/5 132/3/5 131/3/5
f 134/3/5 132/3/5 133/3/5
f 137/3/5 136/3/5 135/3/5
f 138/3/5 136/3/5 137/3/5
f 142/3/5 140/3/5 139/3/5
f 143/3/5 140/3/5 142/3/5
f 144/3/5 140/3/5 143/3/5
f 145/3/5 142/3/5 141/3/5
f 145/3/5 143/3/5 142/3/5
f 146/3/5 143/3/5 145/3/5
f 147/3/5 143/3/5 146/3/5
f 148/3/5 140/3/5 144/3/5
f 149/3/5 147/3/5 146/3/5
f 149/3/5 148/3/5 147/3/5
f 150/3/5 140/3/5 148/3/5
f 150/3/5 148/3/5 149/3/5
f 153/2/5 152/2/5 151/2/5
f 154/2/5 152/2/5 153/2/5
f 155/3/6 156/3/6 157/3/6
f 157/3/6 156/3/6 158/3/6
f 159/3/6 160/3/6 161/3/6
f 161/3/6 160/3/6 162/3/6
f 163/3/6 164/3/6 165/3/6
f 165/3/6 164/3/6 166/3/6
f 167/3/6 168/3/6 170/3/6
f 170/3/6 168/3/6 171/3/6
f 171/3/6 168/3/6 172/3/6
f 172/3/6 168/3/6 173/3/6
f 169/3/6 170/3/6 175/3/6
f 170/3/6 171/3/6 175/3/6
f 175/3/6 171/3/6 176/3/6
f 176/3/6 171/3/6 177/3/6
f 173/3/6 174/3/6 178/3/6
f 172/3/6 173/3/6 178/3/6
f 178/3/6 174/3/6 179/3/6
f 179/3/6 174/3/6 180/3/6
f 176/3/6 177/3/6 181/3/6
f 178/3/6 179/3/6 181/3/6
f 177/3/6 178/3/6 181/3/6
f 181/3/6 179/3/6 182/3/6
f 183/2/6 184/2/6 185/2/6
f 185/2/6 184/2/6 186/2/6
f 187/2/6 188/2/6 189/2/6
f 189/2/6 188/2/6 190/2/6
