# MagicaVoxel @ Ephtracy

# group
g Soldier Body

# material
mtllib Soldier Body.mtl
usemtl palette

# normals
vn -1 0 0
vn 1 0 0
vn 0 0 1
vn 0 0 -1
vn 0 -1 0
vn 0 1 0

# texcoords
vt 0.00195313 0.5
vt 0.0332031 0.5
vt 0.978516 0.5
vt 0.982422 0.5
vt 0.994141 0.5

# verts
v -6.5 1 4.5
v -6.5 1 -4.5
v -6.5 11 2.5
v -6.5 11 -2.5
v -6.5 12 3.5
v -6.5 12 2.5
v -6.5 12 -2.5
v -6.5 12 -3.5
v -6.5 13 4.5
v -6.5 13 3.5
v -6.5 14 -3.5
v -6.5 14 -4.5
v -6.5 15 4.5
v -6.5 15 -3.5
v -6.5 16 4.5
v -6.5 16 -3.5
v -5.5 0 3.5
v -5.5 0 -3.5
v -5.5 1 5.5
v -5.5 1 4.5
v -5.5 1 3.5
v -5.5 1 -3.5
v -5.5 1 -4.5
v -5.5 1 -5.5
v -5.5 11 2.5
v -5.5 11 -2.5
v -5.5 12 3.5
v -5.5 12 2.5
v -5.5 12 -2.5
v -5.5 12 -3.5
v -5.5 13 4.5
v -5.5 13 3.5
v -5.5 14 -3.5
v -5.5 14 -4.5
v -5.5 15 4.5
v -5.5 15 -3.5
v -5.5 15 -4.5
v -5.5 15 -5.5
v -5.5 16 5.5
v -5.5 16 4.5
v -5.5 16 -3.5
v -5.5 16 -4.5
v -4.5 0 4.5
v -4.5 0 3.5
v -4.5 0 -3.5
v -4.5 0 -4.5
v -4.5 1 4.5
v -4.5 1 -4.5
v -4.5 2 4.5
v -4.5 2 3.5
v -4.5 9 -3.5
v -4.5 9 -4.5
v -4.5 15 -4.5
v -4.5 15 -5.5
v -4.5 16 -4.5
v -4.5 16 -5.5
v -3.5 14 -3.5
v -3.5 14 -4.5
v -3.5 15 -3.5
v -3.5 15 -4.5
v 0.5 14 4.5
v 0.5 14 3.5
v 0.5 15 4.5
v 0.5 15 3.5
v 2.5 14 5.5
v 2.5 14 4.5
v 2.5 15 5.5
v 2.5 15 4.5
v 3.5 15 5.5
v 3.5 15 4.5
v 3.5 15 3.5
v 3.5 15 -3.5
v 3.5 15 -4.5
v 3.5 16 5.5
v 3.5 16 3.5
v 3.5 16 -3.5
v 3.5 16 -4.5
v 4.5 0 3.5
v 4.5 0 -3.5
v 4.5 2 3.5
v 4.5 2 -3.5
v 4.5 14 -3.5
v 4.5 14 -4.5
v 4.5 15 -3.5
v 4.5 15 -4.5
v 5.5 1 4.5
v 5.5 1 3.5
v 5.5 1 -3.5
v 5.5 1 -4.5
v 5.5 2 4.5
v 5.5 2 3.5
v 5.5 2 -3.5
v 5.5 2 -4.5
v -5.5 1 4.5
v -5.5 1 3.5
v -5.5 1 -3.5
v -5.5 1 -4.5
v -5.5 2 4.5
v -5.5 2 3.5
v -5.5 9 -3.5
v -5.5 9 -4.5
v -4.5 0 3.5
v -4.5 0 -3.5
v -4.5 2 3.5
v -4.5 2 -3.5
v -4.5 14 -3.5
v -4.5 14 -4.5
v -4.5 15 -3.5
v -4.5 15 -4.5
v -3.5 15 5.5
v -3.5 15 4.5
v -3.5 15 3.5
v -3.5 15 -3.5
v -3.5 15 -4.5
v -3.5 16 5.5
v -3.5 16 3.5
v -3.5 16 -3.5
v -3.5 16 -4.5
v -2.5 14 5.5
v -2.5 14 4.5
v -2.5 15 5.5
v -2.5 15 4.5
v -0.5 14 4.5
v -0.5 14 3.5
v -0.5 15 4.5
v -0.5 15 3.5
v 3.5 14 -3.5
v 3.5 14 -4.5
v 3.5 15 -3.5
v 3.5 15 -4.5
v 4.5 0 4.5
v 4.5 0 3.5
v 4.5 0 -3.5
v 4.5 0 -4.5
v 4.5 1 4.5
v 4.5 1 -4.5
v 4.5 2 4.5
v 4.5 2 3.5
v 4.5 2 -3.5
v 4.5 2 -4.5
v 4.5 15 -4.5
v 4.5 15 -5.5
v 4.5 16 -4.5
v 4.5 16 -5.5
v 5.5 0 3.5
v 5.5 0 -3.5
v 5.5 1 5.5
v 5.5 1 4.5
v 5.5 1 3.5
v 5.5 1 -3.5
v 5.5 1 -4.5
v 5.5 1 -5.5
v 5.5 11 2.5
v 5.5 11 -2.5
v 5.5 12 3.5
v 5.5 12 2.5
v 5.5 12 -2.5
v 5.5 12 -3.5
v 5.5 13 4.5
v 5.5 13 3.5
v 5.5 13 -3.5
v 5.5 13 -4.5
v 5.5 14 -3.5
v 5.5 14 -4.5
v 5.5 15 4.5
v 5.5 15 -3.5
v 5.5 15 -4.5
v 5.5 15 -5.5
v 5.5 16 5.5
v 5.5 16 4.5
v 5.5 16 -3.5
v 5.5 16 -4.5
v 6.5 1 4.5
v 6.5 1 -4.5
v 6.5 11 2.5
v 6.5 11 -2.5
v 6.5 12 3.5
v 6.5 12 2.5
v 6.5 12 -2.5
v 6.5 12 -3.5
v 6.5 13 4.5
v 6.5 13 3.5
v 6.5 13 -3.5
v 6.5 13 -4.5
v 6.5 15 4.5
v 6.5 15 -3.5
v 6.5 16 4.5
v 6.5 16 -3.5
v -5.5 1 5.5
v -5.5 16 5.5
v -3.5 15 5.5
v -3.5 16 5.5
v -2.5 14 5.5
v -2.5 15 5.5
v 2.5 14 5.5
v 2.5 15 5.5
v 3.5 15 5.5
v 3.5 16 5.5
v 5.5 1 5.5
v 5.5 16 5.5
v -6.5 1 4.5
v -6.5 13 4.5
v -6.5 15 4.5
v -6.5 16 4.5
v -5.5 1 4.5
v -5.5 13 4.5
v -5.5 15 4.5
v -5.5 16 4.5
v -4.5 0 4.5
v -4.5 1 4.5
v -2.5 14 4.5
v -2.5 15 4.5
v -0.5 14 4.5
v -0.5 15 4.5
v 0.5 14 4.5
v 0.5 15 4.5
v 2.5 14 4.5
v 2.5 15 4.5
v 4.5 0 4.5
v 4.5 1 4.5
v 5.5 1 4.5
v 5.5 13 4.5
v 5.5 15 4.5
v 5.5 16 4.5
v 6.5 1 4.5
v 6.5 13 4.5
v 6.5 15 4.5
v 6.5 16 4.5
v -5.5 0 3.5
v -5.5 1 3.5
v -5.5 2 3.5
v -4.5 0 3.5
v -4.5 2 3.5
v -3.5 15 3.5
v -3.5 16 3.5
v -0.5 14 3.5
v -0.5 15 3.5
v 0.5 14 3.5
v 0.5 15 3.5
v 3.5 15 3.5
v 3.5 16 3.5
v 4.5 0 3.5
v 4.5 2 3.5
v 5.5 0 3.5
v 5.5 1 3.5
v 5.5 2 3.5
v -6.5 11 -2.5
v -6.5 12 -2.5
v -5.5 11 -2.5
v -5.5 12 -2.5
v 5.5 11 -2.5
v 5.5 12 -2.5
v 6.5 11 -2.5
v 6.5 12 -2.5
v -6.5 12 -3.5
v -6.5 14 -3.5
v -5.5 12 -3.5
v -5.5 14 -3.5
v -4.5 0 -3.5
v -4.5 2 -3.5
v 4.5 0 -3.5
v 4.5 2 -3.5
v 5.5 12 -3.5
v 5.5 13 -3.5
v 6.5 12 -3.5
v 6.5 13 -3.5
v -5.5 1 -4.5
v -5.5 9 -4.5
v -4.5 1 -4.5
v -4.5 9 -4.5
v -4.5 14 -4.5
v -4.5 15 -4.5
v -3.5 14 -4.5
v -3.5 15 -4.5
v -3.5 16 -4.5
v 3.5 14 -4.5
v 3.5 15 -4.5
v 3.5 16 -4.5
v 4.5 1 -4.5
v 4.5 2 -4.5
v 4.5 14 -4.5
v 4.5 15 -4.5
v 5.5 1 -4.5
v 5.5 2 -4.5
v -5.5 1 4.5
v -5.5 2 4.5
v -4.5 1 4.5
v -4.5 2 4.5
v 4.5 1 4.5
v 4.5 2 4.5
v 5.5 1 4.5
v 5.5 2 4.5
v -6.5 12 3.5
v -6.5 13 3.5
v -5.5 12 3.5
v -5.5 13 3.5
v -4.5 0 3.5
v -4.5 2 3.5
v 4.5 0 3.5
v 4.5 2 3.5
v 5.5 12 3.5
v 5.5 13 3.5
v 6.5 12 3.5
v 6.5 13 3.5
v -6.5 11 2.5
v -6.5 12 2.5
v -5.5 11 2.5
v -5.5 12 2.5
v 5.5 11 2.5
v 5.5 12 2.5
v 6.5 11 2.5
v 6.5 12 2.5
v -6.5 15 -3.5
v -6.5 16 -3.5
v -5.5 0 -3.5
v -5.5 1 -3.5
v -5.5 9 -3.5
v -5.5 15 -3.5
v -5.5 16 -3.5
v -4.5 0 -3.5
v -4.5 9 -3.5
v -4.5 14 -3.5
v -4.5 15 -3.5
v -3.5 14 -3.5
v -3.5 15 -3.5
v -3.5 16 -3.5
v 3.5 14 -3.5
v 3.5 15 -3.5
v 3.5 16 -3.5
v 4.5 0 -3.5
v 4.5 2 -3.5
v 4.5 14 -3.5
v 4.5 15 -3.5
v 5.5 0 -3.5
v 5.5 1 -3.5
v 5.5 2 -3.5
v 5.5 15 -3.5
v 5.5 16 -3.5
v 6.5 15 -3.5
v 6.5 16 -3.5
v -6.5 1 -4.5
v -6.5 14 -4.5
v -5.5 1 -4.5
v -5.5 14 -4.5
v -5.5 15 -4.5
v -5.5 16 -4.5
v -4.5 0 -4.5
v -4.5 1 -4.5
v -4.5 15 -4.5
v -4.5 16 -4.5
v 4.5 0 -4.5
v 4.5 1 -4.5
v 4.5 15 -4.5
v 4.5 16 -4.5
v 5.5 1 -4.5
v 5.5 13 -4.5
v 5.5 15 -4.5
v 5.5 16 -4.5
v 6.5 1 -4.5
v 6.5 13 -4.5
v -5.5 1 -5.5
v -5.5 15 -5.5
v -4.5 15 -5.5
v -4.5 16 -5.5
v 4.5 15 -5.5
v 4.5 16 -5.5
v 5.5 1 -5.5
v 5.5 15 -5.5
v -4.5 0 4.5
v 4.5 0 4.5
v -5.5 0 3.5
v -4.5 0 3.5
v 4.5 0 3.5
v 5.5 0 3.5
v -5.5 0 -3.5
v -4.5 0 -3.5
v 4.5 0 -3.5
v 5.5 0 -3.5
v -4.5 0 -4.5
v 4.5 0 -4.5
v -5.5 1 5.5
v 5.5 1 5.5
v -6.5 1 4.5
v -5.5 1 4.5
v -4.5 1 4.5
v 4.5 1 4.5
v 5.5 1 4.5
v 6.5 1 4.5
v -5.5 1 3.5
v 5.5 1 3.5
v -5.5 1 -3.5
v 5.5 1 -3.5
v -6.5 1 -4.5
v -5.5 1 -4.5
v -4.5 1 -4.5
v 4.5 1 -4.5
v 5.5 1 -4.5
v 6.5 1 -4.5
v -5.5 1 -5.5
v 5.5 1 -5.5
v -5.5 2 4.5
v -4.5 2 4.5
v 4.5 2 4.5
v 5.5 2 4.5
v -5.5 2 3.5
v -4.5 2 3.5
v 4.5 2 3.5
v 5.5 2 3.5
v -4.5 2 -3.5
v 4.5 2 -3.5
v 5.5 2 -3.5
v 4.5 2 -4.5
v 5.5 2 -4.5
v -5.5 9 -3.5
v -4.5 9 -3.5
v -5.5 9 -4.5
v -4.5 9 -4.5
v -6.5 15 4.5
v -5.5 15 4.5
v 5.5 15 4.5
v 6.5 15 4.5
v -6.5 15 -3.5
v -5.5 15 -3.5
v -4.5 15 -3.5
v -3.5 15 -3.5
v 3.5 15 -3.5
v 4.5 15 -3.5
v 5.5 15 -3.5
v 6.5 15 -3.5
v -4.5 15 -4.5
v -3.5 15 -4.5
v 3.5 15 -4.5
v 4.5 15 -4.5
v -6.5 11 2.5
v -5.5 11 2.5
v 5.5 11 2.5
v 6.5 11 2.5
v -6.5 11 -2.5
v -5.5 11 -2.5
v 5.5 11 -2.5
v 6.5 11 -2.5
v -6.5 12 3.5
v -5.5 12 3.5
v 5.5 12 3.5
v 6.5 12 3.5
v -6.5 12 2.5
v -5.5 12 2.5
v 5.5 12 2.5
v 6.5 12 2.5
v -6.5 12 -2.5
v -5.5 12 -2.5
v 5.5 12 -2.5
v 6.5 12 -2.5
v -6.5 12 -3.5
v -5.5 12 -3.5
v 5.5 12 -3.5
v 6.5 12 -3.5
v -6.5 13 4.5
v -5.5 13 4.5
v 5.5 13 4.5
v 6.5 13 4.5
v -6.5 13 3.5
v -5.5 13 3.5
v 5.5 13 3.5
v 6.5 13 3.5
v 5.5 13 -3.5
v 6.5 13 -3.5
v 5.5 13 -4.5
v 6.5 13 -4.5
v -2.5 14 5.5
v 2.5 14 5.5
v -2.5 14 4.5
v -0.5 14 4.5
v 0.5 14 4.5
v 2.5 14 4.5
v -0.5 14 3.5
v 0.5 14 3.5
v -6.5 14 -3.5
v -5.5 14 -3.5
v -4.5 14 -3.5
v -3.5 14 -3.5
v 3.5 14 -3.5
v 4.5 14 -3.5
v -6.5 14 -4.5
v -5.5 14 -4.5
v -4.5 14 -4.5
v -3.5 14 -4.5
v 3.5 14 -4.5
v 4.5 14 -4.5
v -3.5 15 5.5
v -2.5 15 5.5
v 2.5 15 5.5
v 3.5 15 5.5
v -3.5 15 4.5
v -2.5 15 4.5
v -0.5 15 4.5
v 0.5 15 4.5
v 2.5 15 4.5
v 3.5 15 4.5
v -3.5 15 3.5
v -0.5 15 3.5
v 0.5 15 3.5
v 3.5 15 3.5
v -3.5 15 -3.5
v 3.5 15 -3.5
v -5.5 15 -4.5
v -4.5 15 -4.5
v -3.5 15 -4.5
v 3.5 15 -4.5
v 4.5 15 -4.5
v 5.5 15 -4.5
v -5.5 15 -5.5
v -4.5 15 -5.5
v 4.5 15 -5.5
v 5.5 15 -5.5
v -5.5 16 5.5
v -3.5 16 5.5
v 3.5 16 5.5
v 5.5 16 5.5
v -6.5 16 4.5
v -5.5 16 4.5
v 5.5 16 4.5
v 6.5 16 4.5
v -3.5 16 3.5
v 3.5 16 3.5
v -3.5 16 -2.5
v 3.5 16 -2.5
v -6.5 16 -3.5
v -5.5 16 -3.5
v -3.5 16 -3.5
v 3.5 16 -3.5
v 5.5 16 -3.5
v 6.5 16 -3.5
v -5.5 16 -4.5
v -4.5 16 -4.5
v -3.5 16 -4.5
v 3.5 16 -4.5
v 4.5 16 -4.5
v 5.5 16 -4.5
v -4.5 16 -5.5
v 4.5 16 -5.5

# faces
f 3/4/1 2/4/1 1/4/1
f 4/4/1 2/4/1 3/4/1
f 5/4/1 3/4/1 1/4/1
f 6/4/1 3/4/1 5/4/1
f 7/4/1 2/4/1 4/4/1
f 8/4/1 2/4/1 7/4/1
f 9/4/1 5/4/1 1/4/1
f 10/4/1 5/4/1 9/4/1
f 11/4/1 2/4/1 8/4/1
f 12/4/1 2/4/1 11/4/1
f 15/4/1 14/4/1 13/4/1
f 16/4/1 14/4/1 15/4/1
f 21/1/1 18/1/1 17/1/1
f 22/1/1 18/1/1 21/1/1
f 28/1/1 26/1/1 25/1/1
f 29/1/1 26/1/1 28/1/1
f 31/4/1 20/4/1 19/4/1
f 32/1/1 30/1/1 29/1/1
f 32/1/1 28/1/1 27/1/1
f 32/1/1 29/1/1 28/1/1
f 33/1/1 30/1/1 32/1/1
f 33/1/1 32/1/1 31/1/1
f 34/4/1 24/4/1 23/4/1
f 35/4/1 31/4/1 19/4/1
f 35/1/1 33/1/1 31/1/1
f 36/4/1 34/4/1 33/4/1
f 36/1/1 33/1/1 35/1/1
f 37/4/1 24/4/1 34/4/1
f 37/4/1 34/4/1 36/4/1
f 38/4/1 24/4/1 37/4/1
f 39/4/1 35/4/1 19/4/1
f 40/4/1 35/4/1 39/4/1
f 41/4/1 37/4/1 36/4/1
f 42/4/1 37/4/1 41/4/1
f 47/1/1 44/1/1 43/1/1
f 48/1/1 46/1/1 45/1/1
f 49/1/1 44/1/1 47/1/1
f 50/1/1 44/1/1 49/1/1
f 51/1/1 48/1/1 45/1/1
f 52/1/1 48/1/1 51/1/1
f 55/4/1 54/4/1 53/4/1
f 56/4/1 54/4/1 55/4/1
f 59/1/1 58/1/1 57/1/1
f 60/1/1 58/1/1 59/1/1
f 63/1/1 62/1/1 61/1/1
f 64/1/1 62/1/1 63/1/1
f 67/4/1 66/4/1 65/4/1
f 68/4/1 66/4/1 67/4/1
f 74/4/1 70/4/1 69/4/1
f 74/4/1 71/4/1 70/4/1
f 75/4/1 71/4/1 74/4/1
f 76/4/1 73/4/1 72/4/1
f 77/4/1 73/4/1 76/4/1
f 80/1/1 79/1/1 78/1/1
f 81/1/1 79/1/1 80/1/1
f 84/4/1 83/4/1 82/4/1
f 85/4/1 83/4/1 84/4/1
f 90/4/1 87/4/1 86/4/1
f 91/4/1 87/4/1 90/4/1
f 92/4/1 89/4/1 88/4/1
f 93/4/1 89/4/1 92/4/1
f 94/4/2 95/4/2 98/4/2
f 98/4/2 95/4/2 99/4/2
f 96/4/2 97/4/2 100/4/2
f 100/4/2 97/4/2 101/4/2
f 102/1/2 103/1/2 104/1/2
f 104/1/2 103/1/2 105/1/2
f 106/4/2 107/4/2 108/4/2
f 108/4/2 107/4/2 109/4/2
f 110/4/2 111/4/2 115/4/2
f 111/4/2 112/4/2 115/4/2
f 115/4/2 112/4/2 116/4/2
f 113/4/2 114/4/2 117/4/2
f 117/4/2 114/4/2 118/4/2
f 119/4/2 120/4/2 121/4/2
f 121/4/2 120/4/2 122/4/2
f 123/1/2 124/1/2 125/1/2
f 125/1/2 124/1/2 126/1/2
f 127/1/2 128/1/2 129/1/2
f 129/1/2 128/1/2 130/1/2
f 131/1/2 132/1/2 135/1/2
f 133/1/2 134/1/2 136/1/2
f 135/1/2 132/1/2 137/1/2
f 137/1/2 132/1/2 138/1/2
f 133/1/2 136/1/2 139/1/2
f 139/1/2 136/1/2 140/1/2
f 141/4/2 142/4/2 143/4/2
f 143/4/2 142/4/2 144/4/2
f 145/1/2 146/1/2 149/1/2
f 149/1/2 146/1/2 150/1/2
f 153/1/2 154/1/2 156/1/2
f 156/1/2 154/1/2 157/1/2
f 147/4/2 148/4/2 159/4/2
f 157/1/2 158/1/2 160/1/2
f 155/1/2 156/1/2 160/1/2
f 156/1/2 157/1/2 160/1/2
f 160/1/2 158/1/2 161/1/2
f 151/4/2 152/4/2 162/4/2
f 160/1/2 161/1/2 163/1/2
f 161/1/2 162/1/2 163/1/2
f 159/1/2 160/1/2 163/1/2
f 162/4/2 152/4/2 164/4/2
f 163/1/2 162/1/2 164/1/2
f 147/4/2 159/4/2 165/4/2
f 159/1/2 163/1/2 165/1/2
f 163/4/2 164/4/2 166/4/2
f 165/1/2 163/1/2 166/1/2
f 164/4/2 152/4/2 167/4/2
f 166/4/2 164/4/2 167/4/2
f 167/4/2 152/4/2 168/4/2
f 147/4/2 165/4/2 169/4/2
f 169/4/2 165/4/2 170/4/2
f 166/4/2 167/4/2 171/4/2
f 171/4/2 167/4/2 172/4/2
f 173/4/2 174/4/2 175/4/2
f 175/4/2 174/4/2 176/4/2
f 173/4/2 175/4/2 177/4/2
f 177/4/2 175/4/2 178/4/2
f 176/4/2 174/4/2 179/4/2
f 179/4/2 174/4/2 180/4/2
f 173/4/2 177/4/2 181/4/2
f 181/4/2 177/4/2 182/4/2
f 180/4/2 174/4/2 183/4/2
f 183/4/2 174/4/2 184/4/2
f 185/4/2 186/4/2 187/4/2
f 187/4/2 186/4/2 188/4/2
f 191/4/3 190/4/3 189/4/3
f 192/4/3 190/4/3 191/4/3
f 193/4/3 191/4/3 189/4/3
f 194/4/3 191/4/3 193/4/3
f 195/4/3 193/4/3 189/4/3
f 197/4/3 196/4/3 195/4/3
f 199/4/3 197/4/3 195/4/3
f 199/4/3 198/4/3 197/4/3
f 199/4/3 195/4/3 189/4/3
f 200/4/3 198/4/3 199/4/3
f 205/4/3 202/4/3 201/4/3
f 206/4/3 202/4/3 205/4/3
f 207/4/3 204/4/3 203/4/3
f 208/4/3 204/4/3 207/4/3
f 213/1/3 212/1/3 211/1/3
f 214/1/3 212/1/3 213/1/3
f 217/1/3 216/1/3 215/1/3
f 218/1/3 216/1/3 217/1/3
f 219/1/3 210/1/3 209/1/3
f 220/1/3 210/1/3 219/1/3
f 225/4/3 222/4/3 221/4/3
f 226/4/3 222/4/3 225/4/3
f 227/4/3 224/4/3 223/4/3
f 228/4/3 224/4/3 227/4/3
f 232/1/3 230/1/3 229/1/3
f 232/1/3 231/1/3 230/1/3
f 233/1/3 231/1/3 232/1/3
f 237/2/3 235/2/3 234/2/3
f 238/2/3 237/2/3 236/2/3
f 239/2/3 235/2/3 237/2/3
f 239/2/3 237/2/3 238/2/3
f 240/2/3 235/2/3 239/2/3
f 241/2/3 235/2/3 240/2/3
f 244/1/3 243/1/3 242/1/3
f 245/1/3 243/1/3 244/1/3
f 246/1/3 243/1/3 245/1/3
f 249/4/3 248/4/3 247/4/3
f 250/4/3 248/4/3 249/4/3
f 253/4/3 252/4/3 251/4/3
f 254/4/3 252/4/3 253/4/3
f 257/4/3 256/4/3 255/4/3
f 258/4/3 256/4/3 257/4/3
f 261/1/3 260/1/3 259/1/3
f 262/1/3 260/1/3 261/1/3
f 265/4/3 264/4/3 263/4/3
f 266/4/3 264/4/3 265/4/3
f 269/4/3 268/4/3 267/4/3
f 270/4/3 268/4/3 269/4/3
f 273/4/3 272/4/3 271/4/3
f 274/4/3 272/4/3 273/4/3
f 277/4/3 275/4/3 274/4/3
f 278/4/3 275/4/3 277/4/3
f 281/4/3 277/4/3 276/4/3
f 282/4/3 277/4/3 281/4/3
f 283/4/3 280/4/3 279/4/3
f 284/4/3 280/4/3 283/4/3
f 285/4/4 286/4/4 287/4/4
f 287/4/4 286/4/4 288/4/4
f 289/4/4 290/4/4 291/4/4
f 291/4/4 290/4/4 292/4/4
f 293/4/4 294/4/4 295/4/4
f 295/4/4 294/4/4 296/4/4
f 297/1/4 298/1/4 299/1/4
f 299/1/4 298/1/4 300/1/4
f 301/4/4 302/4/4 303/4/4
f 303/4/4 302/4/4 304/4/4
f 305/4/4 306/4/4 307/4/4
f 307/4/4 306/4/4 308/4/4
f 309/4/4 310/4/4 311/4/4
f 311/4/4 310/4/4 312/4/4
f 313/4/4 314/4/4 318/4/4
f 318/4/4 314/4/4 319/4/4
f 316/1/4 317/1/4 320/1/4
f 315/1/4 316/1/4 320/1/4
f 320/1/4 317/1/4 321/1/4
f 322/1/4 323/1/4 324/1/4
f 324/1/4 323/1/4 325/1/4
f 325/1/4 326/1/4 328/1/4
f 328/1/4 326/1/4 329/1/4
f 327/1/4 328/1/4 332/1/4
f 332/1/4 328/1/4 333/1/4
f 330/1/4 331/1/4 334/1/4
f 334/1/4 331/1/4 335/1/4
f 335/1/4 331/1/4 336/1/4
f 337/4/4 338/4/4 339/4/4
f 339/4/4 338/4/4 340/4/4
f 341/4/4 342/4/4 343/4/4
f 343/4/4 342/4/4 344/4/4
f 345/4/4 346/4/4 349/4/4
f 349/4/4 346/4/4 350/4/4
f 347/1/4 348/1/4 351/1/4
f 351/1/4 348/1/4 352/1/4
f 353/4/4 354/4/4 357/4/4
f 357/4/4 354/4/4 358/4/4
f 355/4/4 356/4/4 359/4/4
f 359/4/4 356/4/4 360/4/4
f 361/4/4 362/4/4 363/4/4
f 361/4/4 363/4/4 365/4/4
f 363/4/4 364/4/4 365/4/4
f 365/4/4 364/4/4 366/4/4
f 361/4/4 365/4/4 367/4/4
f 367/4/4 365/4/4 368/4/4
f 372/1/5 370/1/5 369/1/5
f 373/1/5 370/1/5 372/1/5
f 375/1/5 372/1/5 371/1/5
f 376/1/5 372/1/5 375/1/5
f 377/1/5 374/1/5 373/1/5
f 378/1/5 374/1/5 377/1/5
f 379/1/5 377/1/5 376/1/5
f 380/1/5 377/1/5 379/1/5
f 384/4/5 382/4/5 381/4/5
f 385/4/5 382/4/5 384/4/5
f 386/4/5 382/4/5 385/4/5
f 387/4/5 382/4/5 386/4/5
f 389/4/5 384/4/5 383/4/5
f 390/4/5 388/4/5 387/4/5
f 391/4/5 389/4/5 383/4/5
f 392/4/5 388/4/5 390/4/5
f 393/4/5 391/4/5 383/4/5
f 394/4/5 391/4/5 393/4/5
f 397/4/5 388/4/5 392/4/5
f 398/4/5 388/4/5 397/4/5
f 399/4/5 396/4/5 395/4/5
f 399/4/5 397/4/5 396/4/5
f 399/4/5 395/4/5 394/4/5
f 400/4/5 397/4/5 399/4/5
f 405/1/5 402/1/5 401/1/5
f 406/1/5 402/1/5 405/1/5
f 407/1/5 404/1/5 403/1/5
f 408/1/5 404/1/5 407/1/5
f 409/1/5 407/1/5 406/1/5
f 410/1/5 407/1/5 409/1/5
f 412/4/5 411/4/5 410/4/5
f 413/4/5 411/4/5 412/4/5
f 416/1/5 415/1/5 414/1/5
f 417/1/5 415/1/5 416/1/5
f 422/4/5 419/4/5 418/4/5
f 423/4/5 419/4/5 422/4/5
f 428/4/5 421/4/5 420/4/5
f 429/4/5 421/4/5 428/4/5
f 430/4/5 425/4/5 424/4/5
f 431/4/5 425/4/5 430/4/5
f 432/4/5 427/4/5 426/4/5
f 433/4/5 427/4/5 432/4/5
f 434/4/6 435/4/6 438/4/6
f 438/4/6 435/4/6 439/4/6
f 436/4/6 437/4/6 440/4/6
f 440/4/6 437/4/6 441/4/6
f 442/4/6 443/4/6 446/4/6
f 446/4/6 443/4/6 447/4/6
f 444/4/6 445/4/6 448/4/6
f 448/4/6 445/4/6 449/4/6
f 450/4/6 451/4/6 454/4/6
f 454/4/6 451/4/6 455/4/6
f 452/4/6 453/4/6 456/4/6
f 456/4/6 453/4/6 457/4/6
f 458/4/6 459/4/6 462/4/6
f 462/4/6 459/4/6 463/4/6
f 460/4/6 461/4/6 464/4/6
f 464/4/6 461/4/6 465/4/6
f 466/4/6 467/4/6 468/4/6
f 468/4/6 467/4/6 469/4/6
f 470/4/6 471/4/6 472/4/6
f 472/4/6 471/4/6 473/4/6
f 473/4/6 471/4/6 474/4/6
f 474/4/6 471/4/6 475/4/6
f 473/1/6 474/1/6 476/1/6
f 476/1/6 474/1/6 477/1/6
f 478/4/6 479/4/6 484/4/6
f 484/4/6 479/4/6 485/4/6
f 480/1/6 481/1/6 486/1/6
f 486/1/6 481/1/6 487/1/6
f 482/1/6 483/1/6 488/1/6
f 488/1/6 483/1/6 489/1/6
f 490/4/6 491/4/6 494/4/6
f 494/4/6 491/4/6 495/4/6
f 492/4/6 493/4/6 498/4/6
f 498/4/6 493/4/6 499/4/6
f 495/1/6 496/1/6 500/1/6
f 494/1/6 495/1/6 500/1/6
f 500/1/6 496/1/6 501/1/6
f 498/1/6 499/1/6 502/1/6
f 497/1/6 498/1/6 502/1/6
f 502/1/6 499/1/6 503/1/6
f 504/1/6 505/1/6 508/1/6
f 508/1/6 505/1/6 509/1/6
f 506/4/6 507/4/6 512/4/6
f 512/4/6 507/4/6 513/4/6
f 510/4/6 511/4/6 514/4/6
f 514/4/6 511/4/6 515/4/6
f 516/4/6 517/4/6 521/4/6
f 518/4/6 519/4/6 522/4/6
f 520/4/6 521/4/6 524/4/6
f 521/4/6 517/4/6 524/4/6
f 522/4/6 523/4/6 525/4/6
f 518/4/6 522/4/6 525/4/6
f 520/4/6 524/4/6 526/4/6
f 524/2/6 525/2/6 526/2/6
f 525/4/6 523/4/6 527/4/6
f 526/2/6 525/2/6 527/2/6
f 520/4/6 526/4/6 528/4/6
f 528/4/6 526/4/6 529/4/6
f 526/1/6 527/1/6 530/1/6
f 529/4/6 526/4/6 530/4/6
f 527/4/6 523/4/6 531/4/6
f 530/1/6 527/1/6 531/1/6
f 531/4/6 523/4/6 532/4/6
f 532/4/6 523/4/6 533/4/6
f 529/4/6 530/4/6 534/4/6
f 534/4/6 530/4/6 535/4/6
f 535/4/6 530/4/6 536/4/6
f 531/4/6 532/4/6 537/4/6
f 537/4/6 532/4/6 538/4/6
f 538/4/6 532/4/6 539/4/6
f 535/4/6 536/4/6 540/4/6
f 537/4/6 538/4/6 540/4/6
f 536/4/6 537/4/6 540/4/6
f 540/4/6 538/4/6 541/4/6
